<svg width="292" height="231" viewBox="0 0 292 231" fill="none" xmlns="http://www.w3.org/2000/svg">
<g clip-path="url(#clip0_213_6133)">
<rect width="292" height="724.065" rx="28.4878" fill="#F7F9FD"/>
<rect x="12.9778" y="49.5174" width="128.967" height="116.867" rx="9.73333" fill="white"/>
<rect x="13.3833" y="49.923" width="128.156" height="116.056" rx="9.32778" stroke="#0074FF" stroke-opacity="0.1" stroke-width="0.811111"/>
<path d="M25.3586 71.2507V63.1396H22.8539V61.5823H29.6023V63.1396H27.1365V71.2507H25.3586ZM33.206 71.4065C32.5138 71.4065 31.8823 71.2464 31.3112 70.9263C30.7489 70.6062 30.299 70.1693 29.9615 69.6155C29.6328 69.0618 29.4684 68.4302 29.4684 67.7208C29.4684 67.0113 29.6328 66.3797 29.9615 65.826C30.299 65.2723 30.7489 64.8354 31.3112 64.5153C31.8736 64.1951 32.5052 64.0351 33.206 64.0351C33.8981 64.0351 34.5254 64.1951 35.0878 64.5153C35.6501 64.8354 36.0957 65.2723 36.4245 65.826C36.7619 66.3711 36.9306 67.0027 36.9306 67.7208C36.9306 68.4302 36.7619 69.0618 36.4245 69.6155C36.0871 70.1693 35.6372 70.6062 35.0748 70.9263C34.5124 71.2464 33.8895 71.4065 33.206 71.4065ZM33.206 69.8491C33.5867 69.8491 33.9198 69.7583 34.2053 69.5766C34.4994 69.3949 34.7287 69.144 34.8931 68.8239C35.0661 68.4951 35.1527 68.1274 35.1527 67.7208C35.1527 67.3055 35.0661 66.9421 34.8931 66.6306C34.7287 66.3105 34.4994 66.0596 34.2053 65.8779C33.9198 65.6876 33.5867 65.5924 33.206 65.5924C32.8167 65.5924 32.4749 65.6876 32.1807 65.8779C31.8866 66.0596 31.653 66.3105 31.4799 66.6306C31.3156 66.9421 31.2334 67.3055 31.2334 67.7208C31.2334 68.1274 31.3156 68.4951 31.4799 68.8239C31.653 69.144 31.8866 69.3949 32.1807 69.5766C32.4749 69.7583 32.8167 69.8491 33.206 69.8491ZM41.8017 71.4065C41.1096 71.4065 40.478 71.2464 39.907 70.9263C39.3446 70.6062 38.8947 70.1693 38.5573 69.6155C38.2285 69.0618 38.0641 68.4302 38.0641 67.7208C38.0641 67.0113 38.2285 66.3797 38.5573 65.826C38.8947 65.2723 39.3446 64.8354 39.907 64.5153C40.4694 64.1951 41.1009 64.0351 41.8017 64.0351C42.4939 64.0351 43.1211 64.1951 43.6835 64.5153C44.2459 64.8354 44.6915 65.2723 45.0202 65.826C45.3576 66.3711 45.5264 67.0027 45.5264 67.7208C45.5264 68.4302 45.3576 69.0618 45.0202 69.6155C44.6828 70.1693 44.2329 70.6062 43.6705 70.9263C43.1082 71.2464 42.4852 71.4065 41.8017 71.4065ZM41.8017 69.8491C42.1824 69.8491 42.5155 69.7583 42.801 69.5766C43.0952 69.3949 43.3245 69.144 43.4888 68.8239C43.6619 68.4951 43.7484 68.1274 43.7484 67.7208C43.7484 67.3055 43.6619 66.9421 43.4888 66.6306C43.3245 66.3105 43.0952 66.0596 42.801 65.8779C42.5155 65.6876 42.1824 65.5924 41.8017 65.5924C41.4124 65.5924 41.0707 65.6876 40.7765 65.8779C40.4823 66.0596 40.2487 66.3105 40.0757 66.6306C39.9113 66.9421 39.8291 67.3055 39.8291 67.7208C39.8291 68.1274 39.9113 68.4951 40.0757 68.8239C40.2487 69.144 40.4823 69.3949 40.7765 69.5766C41.0707 69.7583 41.4124 69.8491 41.8017 69.8491ZM49.6318 71.4065C48.8791 71.4065 48.2215 71.2291 47.6592 70.8744C47.1055 70.511 46.7248 70.0222 46.5171 69.4079L47.789 68.7979C47.9706 69.1959 48.2215 69.5074 48.5417 69.7323C48.8704 69.9573 49.2338 70.0698 49.6318 70.0698C49.9433 70.0698 50.1898 70.0005 50.3715 69.8621C50.5532 69.7237 50.6441 69.542 50.6441 69.317C50.6441 69.1786 50.6051 69.0661 50.5273 68.9796C50.4581 68.8845 50.3586 68.8066 50.2288 68.746C50.1077 68.6768 49.9735 68.6206 49.8265 68.5773L48.6714 68.2529C48.0745 68.0798 47.6202 67.8159 47.3088 67.4612C47.006 67.1065 46.8546 66.6869 46.8546 66.2024C46.8546 65.7698 46.9627 65.3934 47.179 65.0733C47.4039 64.7445 47.7111 64.4893 48.1004 64.3076C48.4984 64.1259 48.9526 64.0351 49.4631 64.0351C50.1293 64.0351 50.7176 64.1951 51.2281 64.5153C51.7385 64.8354 52.1019 65.2853 52.3182 65.865L51.0204 66.4749C50.8993 66.1548 50.696 65.8996 50.4105 65.7092C50.125 65.5189 49.8048 65.4237 49.4501 65.4237C49.1646 65.4237 48.9397 65.4886 48.7753 65.6184C48.6109 65.7482 48.5287 65.9169 48.5287 66.1245C48.5287 66.2543 48.5633 66.3668 48.6325 66.4619C48.7017 66.5571 48.7969 66.635 48.918 66.6955C49.0478 66.7561 49.1949 66.8123 49.3593 66.8642L50.4883 67.2017C51.068 67.3747 51.5136 67.6343 51.825 67.9803C52.1452 68.3264 52.3052 68.7503 52.3052 69.2522C52.3052 69.6761 52.1927 70.0525 51.9678 70.3812C51.7429 70.7013 51.4314 70.9522 51.0334 71.1339C50.6354 71.3156 50.1682 71.4065 49.6318 71.4065ZM55.8828 71.4065C55.3897 71.4065 54.9614 71.3243 54.598 71.1599C54.2347 70.9955 53.9535 70.7619 53.7545 70.4591C53.5555 70.1476 53.456 69.7886 53.456 69.3819C53.456 68.9926 53.5425 68.6465 53.7155 68.3437C53.8886 68.0322 54.1568 67.7727 54.5202 67.565C54.8835 67.3574 55.3421 67.2103 55.8958 67.1238L58.2059 66.7474V68.0452L56.2203 68.3826C55.8828 68.4432 55.6319 68.5514 55.4675 68.7071C55.3032 68.8628 55.221 69.0661 55.221 69.317C55.221 69.5593 55.3118 69.754 55.4935 69.901C55.6838 70.0395 55.9174 70.1087 56.1943 70.1087C56.549 70.1087 56.8605 70.0351 57.1287 69.8881C57.4056 69.7323 57.6175 69.5204 57.7646 69.2522C57.9203 68.9839 57.9982 68.6898 57.9982 68.3697V66.5528C57.9982 66.25 57.8771 65.9991 57.6348 65.8001C57.4012 65.5924 57.0898 65.4886 56.7004 65.4886C56.3371 65.4886 56.0126 65.5881 55.7271 65.7871C55.4502 65.9774 55.2469 66.2327 55.1171 66.5528L53.7285 65.8779C53.8669 65.5059 54.0832 65.1858 54.3774 64.9176C54.6802 64.6407 55.0349 64.4244 55.4416 64.2687C55.8482 64.113 56.2895 64.0351 56.7653 64.0351C57.345 64.0351 57.8555 64.1432 58.2967 64.3595C58.7379 64.5672 59.0797 64.8613 59.3219 65.242C59.5728 65.6141 59.6983 66.051 59.6983 66.5528V71.2507H58.0891V70.0438L58.4524 70.0178C58.2707 70.3207 58.0544 70.5759 57.8035 70.7835C57.5526 70.9825 57.2671 71.1383 56.947 71.2507C56.6269 71.3546 56.2722 71.4065 55.8828 71.4065ZM63.401 71.2507L60.6238 64.1908H62.4796L64.4912 69.7453H63.8033L65.8279 64.1908H67.6837L64.9064 71.2507H63.401ZM70.8815 71.2507L68.1042 64.1908H69.9601L71.9716 69.7453H71.2838L73.3083 64.1908H75.1642L72.3869 71.2507H70.8815ZM77.0901 74.1188C76.8998 74.1188 76.7138 74.1015 76.5321 74.0669C76.3504 74.041 76.186 73.9934 76.0389 73.9242V72.4966C76.1514 72.5226 76.2855 72.5485 76.4413 72.5745C76.6056 72.6004 76.757 72.6134 76.8955 72.6134C77.2848 72.6134 77.566 72.5226 77.739 72.3409C77.9207 72.1592 78.0808 71.9213 78.2192 71.6271L78.6864 70.537L78.6605 71.9645L75.5847 64.1908H77.4146L79.5689 69.927H78.92L81.0613 64.1908H82.9042L79.8285 71.9645C79.6468 72.4231 79.4261 72.8124 79.1666 73.1325C78.907 73.4526 78.6042 73.6949 78.2581 73.8593C77.9207 74.0323 77.5314 74.1188 77.0901 74.1188ZM84.2526 71.2507V69.4338H85.9656V71.2507H84.2526ZM91.8826 71.4065C91.1818 71.4065 90.5502 71.2464 89.9878 70.9263C89.4341 70.5975 88.9972 70.1563 88.6771 69.6026C88.357 69.0402 88.1969 68.4086 88.1969 67.7078C88.1969 67.007 88.357 66.3797 88.6771 65.826C88.9972 65.2723 89.4341 64.8354 89.9878 64.5153C90.5502 64.1951 91.1818 64.0351 91.8826 64.0351C92.3844 64.0351 92.8516 64.1259 93.2842 64.3076C93.7168 64.4807 94.0888 64.7229 94.4003 65.0344C94.7204 65.3372 94.9497 65.7006 95.0881 66.1245L93.5956 66.7734C93.4659 66.4187 93.2452 66.1332 92.9338 65.9169C92.631 65.7006 92.2806 65.5924 91.8826 65.5924C91.5106 65.5924 91.1775 65.6833 90.8833 65.865C90.5978 66.0466 90.3728 66.2975 90.2084 66.6177C90.0441 66.9378 89.9619 67.3055 89.9619 67.7208C89.9619 68.1361 90.0441 68.5038 90.2084 68.8239C90.3728 69.144 90.5978 69.3949 90.8833 69.5766C91.1775 69.7583 91.5106 69.8491 91.8826 69.8491C92.2892 69.8491 92.6439 69.741 92.9468 69.5247C93.2496 69.3084 93.4659 69.0186 93.5956 68.6552L95.0881 69.33C94.9497 69.728 94.7247 70.0871 94.4132 70.4072C94.1018 70.7186 93.7298 70.9652 93.2972 71.1469C92.8646 71.3199 92.393 71.4065 91.8826 71.4065ZM99.9599 71.4065C99.2678 71.4065 98.6362 71.2464 98.0652 70.9263C97.5028 70.6062 97.0529 70.1693 96.7155 69.6155C96.3867 69.0618 96.2223 68.4302 96.2223 67.7208C96.2223 67.0113 96.3867 66.3797 96.7155 65.826C97.0529 65.2723 97.5028 64.8354 98.0652 64.5153C98.6275 64.1951 99.2591 64.0351 99.9599 64.0351C100.652 64.0351 101.279 64.1951 101.842 64.5153C102.404 64.8354 102.85 65.2723 103.178 65.826C103.516 66.3711 103.685 67.0027 103.685 67.7208C103.685 68.4302 103.516 69.0618 103.178 69.6155C102.841 70.1693 102.391 70.6062 101.829 70.9263C101.266 71.2464 100.643 71.4065 99.9599 71.4065ZM99.9599 69.8491C100.341 69.8491 100.674 69.7583 100.959 69.5766C101.253 69.3949 101.483 69.144 101.647 68.8239C101.82 68.4951 101.907 68.1274 101.907 67.7208C101.907 67.3055 101.82 66.9421 101.647 66.6306C101.483 66.3105 101.253 66.0596 100.959 65.8779C100.674 65.6876 100.341 65.5924 99.9599 65.5924C99.5706 65.5924 99.2288 65.6876 98.9347 65.8779C98.6405 66.0596 98.4069 66.3105 98.2339 66.6306C98.0695 66.9421 97.9873 67.3055 97.9873 67.7208C97.9873 68.1274 98.0695 68.4951 98.2339 68.8239C98.4069 69.144 98.6405 69.3949 98.9347 69.5766C99.2288 69.7583 99.5706 69.8491 99.9599 69.8491ZM105.104 71.2507V64.1908H106.7V65.826L106.518 65.5535C106.648 65.043 106.907 64.6623 107.297 64.4114C107.686 64.1605 108.145 64.0351 108.672 64.0351C109.252 64.0351 109.763 64.1865 110.204 64.4893C110.645 64.7921 110.931 65.1901 111.06 65.6833L110.58 65.7222C110.797 65.1598 111.121 64.7402 111.554 64.4634C111.986 64.1778 112.484 64.0351 113.046 64.0351C113.548 64.0351 113.993 64.1476 114.383 64.3725C114.781 64.5975 115.092 64.9133 115.317 65.3199C115.542 65.7179 115.655 66.1807 115.655 66.7085V71.2507H113.954V67.1108C113.954 66.7994 113.898 66.5311 113.786 66.3062C113.673 66.0813 113.518 65.9082 113.319 65.7871C113.12 65.6573 112.877 65.5924 112.592 65.5924C112.324 65.5924 112.086 65.6573 111.878 65.7871C111.67 65.9082 111.51 66.0813 111.398 66.3062C111.285 66.5311 111.229 66.7994 111.229 67.1108V71.2507H109.529V67.1108C109.529 66.7994 109.473 66.5311 109.36 66.3062C109.248 66.0813 109.088 65.9082 108.88 65.7871C108.681 65.6573 108.443 65.5924 108.166 65.5924C107.898 65.5924 107.66 65.6573 107.453 65.7871C107.245 65.9082 107.085 66.0813 106.972 66.3062C106.86 66.5311 106.804 66.7994 106.804 67.1108V71.2507H105.104ZM118.027 71.2507V69.4338H119.74V71.2507H118.027ZM123.062 71.2507V69.4338H124.775V71.2507H123.062ZM128.096 71.2507V69.4338H129.809V71.2507H128.096Z" fill="#262535"/>
<path d="M23.4119 93.9619V93.0794L26.0853 90.1854C26.6131 89.623 27.0327 89.1601 27.3442 88.7968C27.6643 88.4334 27.8979 88.1089 28.045 87.8234C28.1921 87.5379 28.2656 87.2351 28.2656 86.915C28.2656 86.3872 28.1099 85.9806 27.7984 85.6951C27.4869 85.4096 27.076 85.2668 26.5655 85.2668C26.0464 85.2668 25.6052 85.4182 25.2418 85.721C24.8784 86.0152 24.6275 86.4348 24.4891 86.9799L23.3341 86.6814C23.4465 86.1623 23.6542 85.7124 23.957 85.3317C24.2598 84.951 24.6362 84.6568 25.0861 84.4492C25.536 84.2416 26.0291 84.1377 26.5655 84.1377C27.1538 84.1377 27.6686 84.2545 28.1099 84.4881C28.5598 84.7131 28.9102 85.0289 29.1611 85.4355C29.4206 85.8422 29.5504 86.3137 29.5504 86.8501C29.5504 87.2048 29.4769 87.5509 29.3298 87.8883C29.1827 88.2257 28.9664 88.5848 28.6809 88.9655C28.3954 89.3375 28.0234 89.7701 27.5648 90.2632L25.1769 92.8588H29.7581V93.9619H23.4119ZM35.3208 94.1176C34.5507 94.1176 33.8759 93.91 33.2962 93.4947C32.7252 93.0708 32.2796 92.4868 31.9595 91.7427C31.6394 90.99 31.4793 90.1162 31.4793 89.1212C31.4793 88.1262 31.6394 87.2567 31.9595 86.5127C32.2796 85.76 32.7252 85.176 33.2962 84.7607C33.8672 84.3454 34.5378 84.1377 35.3078 84.1377C36.0778 84.1377 36.7483 84.3454 37.3193 84.7607C37.8904 85.176 38.3359 85.76 38.656 86.5127C38.9848 87.2567 39.1492 88.1262 39.1492 89.1212C39.1492 90.1162 38.9891 90.99 38.669 91.7427C38.3489 92.4954 37.899 93.0794 37.3193 93.4947C36.7483 93.91 36.0821 94.1176 35.3208 94.1176ZM35.3208 92.9367C35.8399 92.9367 36.2898 92.7809 36.6704 92.4695C37.0511 92.1494 37.3453 91.7038 37.5529 91.1328C37.7692 90.5617 37.8774 89.8912 37.8774 89.1212C37.8774 88.3512 37.7692 87.6807 37.5529 87.1096C37.3453 86.5386 37.0468 86.0974 36.6575 85.7859C36.2768 85.4744 35.8269 85.3187 35.3078 85.3187C34.7887 85.3187 34.3388 85.4744 33.9581 85.7859C33.5774 86.0974 33.2789 86.5386 33.0626 87.1096C32.855 87.6807 32.7512 88.3512 32.7512 89.1212C32.7512 89.8826 32.855 90.5488 33.0626 91.1198C33.2789 91.6908 33.5774 92.1364 33.9581 92.4565C34.3474 92.7766 34.8016 92.9367 35.3208 92.9367ZM40.8315 93.9619V93.0794L43.505 90.1854C44.0327 89.623 44.4523 89.1601 44.7638 88.7968C45.0839 88.4334 45.3175 88.1089 45.4646 87.8234C45.6117 87.5379 45.6852 87.2351 45.6852 86.915C45.6852 86.3872 45.5295 85.9806 45.218 85.6951C44.9066 85.4096 44.4956 85.2668 43.9851 85.2668C43.466 85.2668 43.0248 85.4182 42.6614 85.721C42.298 86.0152 42.0471 86.4348 41.9087 86.9799L40.7537 86.6814C40.8662 86.1623 41.0738 85.7124 41.3766 85.3317C41.6794 84.951 42.0558 84.6568 42.5057 84.4492C42.9556 84.2416 43.4487 84.1377 43.9851 84.1377C44.5735 84.1377 45.0883 84.2545 45.5295 84.4881C45.9794 84.7131 46.3298 85.0289 46.5807 85.4355C46.8403 85.8422 46.97 86.3137 46.97 86.8501C46.97 87.2048 46.8965 87.5509 46.7494 87.8883C46.6023 88.2257 46.386 88.5848 46.1005 88.9655C45.815 89.3375 45.443 89.7701 44.9844 90.2632L42.5965 92.8588H47.1777V93.9619H40.8315ZM53.2106 93.9619V91.7297H48.4608V90.6785L53.1847 84.2935H54.4046V90.6785H55.6634V91.7297H54.4046V93.9619H53.2106ZM49.4211 91.1328L49.2394 90.6785H53.2106V85.3576L53.587 85.4615L49.4211 91.1328ZM57.4374 91.2755V90.1464H63.2774V91.2755H57.4374ZM69.2475 94.1176C68.4775 94.1176 67.8026 93.91 67.223 93.4947C66.652 93.0708 66.2064 92.4868 65.8863 91.7427C65.5661 90.99 65.4061 90.1162 65.4061 89.1212C65.4061 88.1262 65.5661 87.2567 65.8863 86.5127C66.2064 85.76 66.652 85.176 67.223 84.7607C67.794 84.3454 68.4645 84.1377 69.2345 84.1377C70.0045 84.1377 70.6751 84.3454 71.2461 84.7607C71.8171 85.176 72.2627 85.76 72.5828 86.5127C72.9116 87.2567 73.076 88.1262 73.076 89.1212C73.076 90.1162 72.9159 90.99 72.5958 91.7427C72.2757 92.4954 71.8258 93.0794 71.2461 93.4947C70.6751 93.91 70.0089 94.1176 69.2475 94.1176ZM69.2475 92.9367C69.7666 92.9367 70.2165 92.7809 70.5972 92.4695C70.9779 92.1494 71.272 91.7038 71.4797 91.1328C71.696 90.5617 71.8041 89.8912 71.8041 89.1212C71.8041 88.3512 71.696 87.6807 71.4797 87.1096C71.272 86.5386 70.9736 86.0974 70.5842 85.7859C70.2035 85.4744 69.7536 85.3187 69.2345 85.3187C68.7154 85.3187 68.2655 85.4744 67.8848 85.7859C67.5042 86.0974 67.2057 86.5386 66.9894 87.1096C66.7817 87.6807 66.6779 88.3512 66.6779 89.1212C66.6779 89.8826 66.7817 90.5488 66.9894 91.1198C67.2057 91.6908 67.5042 92.1364 67.8848 92.4565C68.2742 92.7766 68.7284 92.9367 69.2475 92.9367ZM77.9638 94.1176C77.3409 94.1176 76.7872 93.9792 76.3027 93.7024C75.8268 93.4255 75.4504 93.0491 75.1736 92.5733C74.8967 92.0888 74.7583 91.5394 74.7583 90.9251C74.7583 90.5877 74.7972 90.2546 74.8751 89.9258C74.953 89.5971 75.0784 89.264 75.2515 88.9265C75.4245 88.5891 75.6451 88.2387 75.9133 87.8753L78.6387 84.2935H80.17L76.8347 88.628L76.6011 88.6021C76.7309 88.4291 76.8737 88.295 77.0294 88.1998C77.1938 88.1046 77.3668 88.0354 77.5485 87.9921C77.7389 87.9489 77.9379 87.9272 78.1455 87.9272C78.7165 87.9272 79.227 88.0614 79.6769 88.3296C80.1354 88.5891 80.4945 88.9482 80.754 89.4067C81.0222 89.8653 81.1563 90.393 81.1563 90.99C81.1563 91.587 81.0179 92.1234 80.7411 92.5992C80.4642 93.0664 80.0835 93.4385 79.599 93.7153C79.1232 93.9835 78.5781 94.1176 77.9638 94.1176ZM77.9638 92.9756C78.3272 92.9756 78.6516 92.8934 78.9371 92.729C79.2227 92.556 79.4476 92.3181 79.612 92.0152C79.785 91.7124 79.8715 91.375 79.8715 91.003C79.8715 90.6136 79.7894 90.2762 79.625 89.9907C79.4606 89.6966 79.2356 89.463 78.9501 89.2899C78.6646 89.1169 78.3358 89.0304 77.9638 89.0304C77.6004 89.0304 77.2717 89.1169 76.9775 89.2899C76.6833 89.463 76.4541 89.6966 76.2897 89.9907C76.1253 90.2762 76.0431 90.6136 76.0431 91.003C76.0431 91.375 76.1253 91.7124 76.2897 92.0152C76.4627 92.3181 76.692 92.556 76.9775 92.729C77.2717 92.8934 77.6004 92.9756 77.9638 92.9756ZM83.0853 91.2755V90.1464H88.9253V91.2755H83.0853ZM92.4945 93.9619V85.3966H90.6646V84.2935H93.7793V93.9619H92.4945ZM97.5796 93.9619V85.3966H95.7498V84.2935H98.8644V93.9619H97.5796Z" fill="#262535"/>
<path d="M23.7883 116.695V107.027H27.2014C27.8417 107.027 28.404 107.148 28.8885 107.39C29.373 107.632 29.7494 107.978 30.0176 108.428C30.2945 108.878 30.4329 109.406 30.4329 110.012C30.4329 110.617 30.2945 111.145 30.0176 111.595C29.7494 112.036 29.373 112.382 28.8885 112.633C28.4127 112.875 27.8503 112.997 27.2014 112.997H25.0601V116.695H23.7883ZM25.0601 111.829H27.2404C27.6297 111.829 27.9671 111.755 28.2526 111.608C28.5381 111.461 28.7588 111.249 28.9145 110.972C29.0702 110.695 29.1481 110.375 29.1481 110.012C29.1481 109.64 29.0702 109.319 28.9145 109.051C28.7588 108.774 28.5381 108.562 28.2526 108.415C27.9671 108.268 27.6297 108.195 27.2404 108.195H25.0601V111.829ZM35.2087 116.851C34.5339 116.851 33.9239 116.695 33.3789 116.384C32.8338 116.064 32.4012 115.627 32.0811 115.073C31.761 114.519 31.6009 113.892 31.6009 113.191C31.6009 112.49 31.7566 111.867 32.0681 111.322C32.3882 110.777 32.8208 110.345 33.3659 110.025C33.9109 109.704 34.5252 109.544 35.2087 109.544C35.8836 109.544 36.4935 109.704 37.0386 110.025C37.5837 110.336 38.0119 110.764 38.3234 111.309C38.6435 111.854 38.8036 112.482 38.8036 113.191C38.8036 113.901 38.6392 114.532 38.3104 115.086C37.9816 115.631 37.5447 116.064 36.9997 116.384C36.4632 116.695 35.8663 116.851 35.2087 116.851ZM35.2087 115.683C35.6413 115.683 36.0306 115.575 36.3767 115.358C36.7314 115.142 37.0083 114.844 37.2073 114.463C37.4149 114.082 37.5188 113.658 37.5188 113.191C37.5188 112.715 37.4149 112.296 37.2073 111.932C37.0083 111.56 36.7314 111.266 36.3767 111.05C36.0306 110.825 35.6413 110.712 35.2087 110.712C34.7675 110.712 34.3695 110.825 34.0148 111.05C33.6687 111.266 33.3918 111.56 33.1842 111.932C32.9765 112.296 32.8727 112.715 32.8727 113.191C32.8727 113.658 32.9765 114.082 33.1842 114.463C33.3918 114.844 33.6687 115.142 34.0148 115.358C34.3695 115.575 34.7675 115.683 35.2087 115.683ZM40.5075 116.695V106.871H41.7144V116.695H40.5075ZM43.717 116.695V109.7H44.9239V116.695H43.717ZM43.717 108.584V107.027H44.9239V108.584H43.717ZM50.1709 116.851C49.4874 116.851 48.8774 116.691 48.341 116.371C47.8133 116.051 47.398 115.614 47.0951 115.06C46.7923 114.506 46.6409 113.883 46.6409 113.191C46.6409 112.49 46.7923 111.867 47.0951 111.322C47.398 110.777 47.8133 110.345 48.341 110.025C48.8774 109.704 49.4874 109.544 50.1709 109.544C50.6294 109.544 51.0577 109.627 51.4557 109.791C51.8537 109.955 52.2041 110.176 52.5069 110.453C52.8097 110.73 53.0303 111.054 53.1688 111.426L52.0916 111.945C51.9272 111.582 51.6763 111.288 51.3389 111.063C51.0015 110.829 50.6121 110.712 50.1709 110.712C49.7469 110.712 49.3619 110.821 49.0159 111.037C48.6784 111.253 48.4102 111.547 48.2112 111.919C48.0122 112.291 47.9127 112.72 47.9127 113.204C47.9127 113.671 48.0122 114.095 48.2112 114.476C48.4102 114.848 48.6784 115.142 49.0159 115.358C49.3619 115.575 49.7469 115.683 50.1709 115.683C50.6121 115.683 51.0015 115.57 51.3389 115.346C51.6763 115.112 51.9272 114.805 52.0916 114.424L53.1688 114.969C53.0303 115.333 52.8097 115.657 52.5069 115.942C52.2041 116.219 51.8537 116.44 51.4557 116.604C51.0577 116.769 50.6294 116.851 50.1709 116.851ZM55.2522 119.55C55.0965 119.55 54.9407 119.537 54.785 119.511C54.6293 119.494 54.4822 119.455 54.3437 119.395V118.317C54.4389 118.326 54.5557 118.343 54.6941 118.369C54.8412 118.395 54.984 118.408 55.1224 118.408C55.529 118.408 55.8362 118.317 56.0438 118.136C56.2601 117.954 56.4634 117.647 56.6538 117.214L57.095 116.163L57.0691 117.214L54.0842 109.7H55.3949L57.718 115.67H57.3286L59.6387 109.7H60.9754L57.8218 117.526C57.6747 117.898 57.4844 118.24 57.2508 118.551C57.0258 118.862 56.749 119.105 56.4202 119.278C56.0914 119.459 55.7021 119.55 55.2522 119.55ZM68.1986 116.851C67.4978 116.851 66.8749 116.704 66.3298 116.41C65.7934 116.116 65.3738 115.713 65.071 115.203C64.7768 114.684 64.6298 114.095 64.6298 113.438V107.027H65.9146V113.412C65.9146 113.853 66.0097 114.247 66.2001 114.593C66.3991 114.93 66.6673 115.194 67.0047 115.384C67.3508 115.575 67.7487 115.67 68.1986 115.67C68.6485 115.67 69.0422 115.575 69.3796 115.384C69.7257 115.194 69.9939 114.93 70.1842 114.593C70.3832 114.247 70.4827 113.853 70.4827 113.412V107.027H71.7675V113.438C71.7675 114.095 71.6161 114.684 71.3133 115.203C71.0191 115.713 70.6039 116.116 70.0674 116.41C69.531 116.704 68.9081 116.851 68.1986 116.851ZM73.8447 119.291V109.7H75.0257V111.206L74.8699 110.907C75.1295 110.492 75.4842 110.163 75.9341 109.921C76.384 109.67 76.8988 109.544 77.4785 109.544C78.136 109.544 78.7243 109.704 79.2434 110.025C79.7712 110.345 80.1865 110.782 80.4893 111.335C80.7921 111.88 80.9435 112.503 80.9435 113.204C80.9435 113.888 80.7921 114.506 80.4893 115.06C80.1865 115.614 79.7712 116.051 79.2434 116.371C78.7243 116.691 78.1317 116.851 77.4655 116.851C76.9031 116.851 76.3883 116.725 75.9211 116.475C75.4626 116.224 75.1079 115.869 74.8569 115.41L75.0516 115.203V119.291H73.8447ZM77.3746 115.683C77.8159 115.683 78.2095 115.575 78.5556 115.358C78.9017 115.142 79.1699 114.848 79.3602 114.476C79.5592 114.095 79.6587 113.671 79.6587 113.204C79.6587 112.72 79.5592 112.296 79.3602 111.932C79.1699 111.56 78.9017 111.266 78.5556 111.05C78.2095 110.825 77.8159 110.712 77.3746 110.712C76.9334 110.712 76.5354 110.821 76.1807 111.037C75.8346 111.253 75.5577 111.552 75.3501 111.932C75.1511 112.304 75.0516 112.728 75.0516 113.204C75.0516 113.671 75.1511 114.095 75.3501 114.476C75.5577 114.848 75.8346 115.142 76.1807 115.358C76.5354 115.575 76.9334 115.683 77.3746 115.683ZM85.8354 116.851C85.1779 116.851 84.5852 116.691 84.0575 116.371C83.5384 116.051 83.1274 115.614 82.8246 115.06C82.5218 114.506 82.3704 113.888 82.3704 113.204C82.3704 112.503 82.5218 111.88 82.8246 111.335C83.1274 110.782 83.5384 110.345 84.0575 110.025C84.5852 109.704 85.1779 109.544 85.8354 109.544C86.4151 109.544 86.9299 109.67 87.3798 109.921C87.8297 110.163 88.1844 110.492 88.444 110.907L88.2493 111.206V106.871H89.4692V116.695H88.2882V115.203L88.444 115.41C88.2017 115.869 87.847 116.224 87.3798 116.475C86.9212 116.725 86.4065 116.851 85.8354 116.851ZM85.9393 115.683C86.3805 115.683 86.7742 115.575 87.1202 115.358C87.4663 115.142 87.7388 114.848 87.9378 114.476C88.1455 114.095 88.2493 113.671 88.2493 113.204C88.2493 112.728 88.1455 112.304 87.9378 111.932C87.7388 111.552 87.4663 111.253 87.1202 111.037C86.7742 110.821 86.3805 110.712 85.9393 110.712C85.5067 110.712 85.113 110.825 84.7583 111.05C84.4122 111.266 84.1397 111.56 83.9407 111.932C83.7417 112.296 83.6422 112.72 83.6422 113.204C83.6422 113.671 83.7417 114.095 83.9407 114.476C84.1397 114.848 84.4122 115.142 84.7583 115.358C85.1044 115.575 85.498 115.683 85.9393 115.683ZM93.5176 116.851C93.059 116.851 92.6524 116.769 92.2977 116.604C91.9516 116.431 91.6791 116.198 91.4801 115.904C91.2811 115.601 91.1816 115.255 91.1816 114.865C91.1816 114.493 91.2594 114.16 91.4152 113.866C91.5796 113.563 91.8305 113.308 92.1679 113.1C92.514 112.893 92.9466 112.746 93.4657 112.659L96.0612 112.231V113.243L93.7382 113.632C93.2883 113.71 92.9595 113.853 92.7519 114.061C92.5529 114.268 92.4534 114.524 92.4534 114.826C92.4534 115.112 92.5659 115.35 92.7908 115.54C93.0244 115.731 93.3143 115.826 93.6603 115.826C94.1016 115.826 94.4823 115.735 94.8024 115.553C95.1311 115.363 95.3864 115.108 95.5681 114.787C95.7584 114.467 95.8536 114.113 95.8536 113.723V111.945C95.8536 111.565 95.7108 111.258 95.4253 111.024C95.1484 110.782 94.7807 110.661 94.3222 110.661C93.9242 110.661 93.5695 110.764 93.258 110.972C92.9552 111.171 92.7303 111.439 92.5832 111.777L91.532 111.232C91.6618 110.911 91.8694 110.626 92.1549 110.375C92.4404 110.115 92.7735 109.912 93.1542 109.765C93.5349 109.618 93.9329 109.544 94.3482 109.544C94.8846 109.544 95.3561 109.648 95.7627 109.856C96.1694 110.055 96.4852 110.336 96.7101 110.699C96.9437 111.054 97.0605 111.469 97.0605 111.945V116.695H95.8795V115.371L96.1002 115.449C95.9531 115.726 95.7541 115.968 95.5032 116.176C95.2523 116.384 94.9581 116.548 94.6207 116.669C94.2833 116.79 93.9156 116.851 93.5176 116.851ZM101.777 116.773C101.094 116.773 100.566 116.578 100.194 116.189C99.8304 115.8 99.6487 115.25 99.6487 114.541V110.855H98.3768V109.7H98.6364C98.9479 109.7 99.1944 109.605 99.3761 109.415C99.5578 109.224 99.6487 108.973 99.6487 108.662V108.091H100.856V109.7H102.426V110.855H100.856V114.502C100.856 114.736 100.89 114.939 100.959 115.112C101.037 115.285 101.163 115.423 101.336 115.527C101.509 115.622 101.738 115.67 102.024 115.67C102.084 115.67 102.158 115.666 102.244 115.657C102.339 115.648 102.426 115.64 102.504 115.631V116.695C102.391 116.721 102.266 116.738 102.127 116.747C101.989 116.764 101.872 116.773 101.777 116.773ZM107.239 116.851C106.564 116.851 105.962 116.691 105.435 116.371C104.907 116.051 104.492 115.614 104.189 115.06C103.886 114.498 103.735 113.87 103.735 113.178C103.735 112.477 103.882 111.854 104.176 111.309C104.479 110.764 104.885 110.336 105.396 110.025C105.915 109.704 106.494 109.544 107.135 109.544C107.654 109.544 108.112 109.64 108.51 109.83C108.917 110.012 109.259 110.263 109.536 110.583C109.821 110.894 110.037 111.253 110.184 111.66C110.34 112.058 110.418 112.473 110.418 112.906C110.418 113.001 110.409 113.109 110.392 113.23C110.383 113.343 110.371 113.451 110.353 113.555H104.617V112.516H109.652L109.081 112.984C109.159 112.534 109.116 112.131 108.952 111.777C108.787 111.422 108.545 111.141 108.225 110.933C107.905 110.725 107.541 110.622 107.135 110.622C106.728 110.622 106.356 110.725 106.019 110.933C105.681 111.141 105.417 111.439 105.227 111.829C105.045 112.209 104.972 112.663 105.006 113.191C104.972 113.702 105.05 114.152 105.24 114.541C105.439 114.922 105.716 115.22 106.071 115.436C106.434 115.644 106.828 115.748 107.252 115.748C107.719 115.748 108.112 115.64 108.432 115.423C108.753 115.207 109.012 114.93 109.211 114.593L110.223 115.112C110.085 115.432 109.869 115.726 109.575 115.994C109.289 116.254 108.947 116.462 108.549 116.617C108.16 116.773 107.723 116.851 107.239 116.851Z" fill="#262535"/>
<path d="M26.28 155.651L22.8539 145.982H24.5021L27.3053 154.236H26.9808L29.771 145.982H31.4192L27.9931 155.651H26.28ZM32.5436 155.651V148.63H34.0101V155.651H32.5436ZM32.5436 147.669V145.982H34.0101V147.669H32.5436ZM39.1508 155.806C38.45 155.806 37.8271 155.646 37.282 155.326C36.7456 154.997 36.326 154.556 36.0232 154.002C35.7204 153.44 35.569 152.813 35.569 152.121C35.569 151.411 35.7204 150.784 36.0232 150.239C36.3346 149.694 36.7499 149.266 37.269 148.954C37.7882 148.634 38.3765 148.474 39.034 148.474C39.5618 148.474 40.0333 148.565 40.4486 148.746C40.8639 148.928 41.2143 149.179 41.4998 149.499C41.7853 149.811 42.0016 150.17 42.1487 150.576C42.3044 150.983 42.3823 151.416 42.3823 151.874C42.3823 151.987 42.378 152.103 42.3693 152.225C42.3607 152.346 42.3434 152.458 42.3174 152.562H36.724V151.394H41.4868L40.786 151.926C40.8725 151.502 40.8423 151.126 40.6952 150.797C40.5567 150.46 40.3405 150.196 40.0463 150.005C39.7608 149.806 39.4234 149.707 39.034 149.707C38.6447 149.707 38.2986 149.806 37.9958 150.005C37.693 150.196 37.4594 150.473 37.295 150.836C37.1306 151.191 37.0657 151.623 37.1003 152.134C37.0571 152.61 37.122 153.025 37.295 153.38C37.4767 153.734 37.7276 154.011 38.0477 154.21C38.3765 154.409 38.7485 154.509 39.1638 154.509C39.5877 154.509 39.9468 154.413 40.241 154.223C40.5438 154.033 40.7817 153.786 40.9547 153.483L42.1487 154.067C42.0103 154.396 41.794 154.695 41.4998 154.963C41.2143 155.222 40.8682 155.43 40.4616 155.586C40.0636 155.733 39.6267 155.806 39.1508 155.806ZM45.6434 155.651L43.2295 148.63H44.7868L46.6297 154.223H46.0846L47.9664 148.63H49.3031L51.1719 154.223H50.6268L52.4827 148.63H54.04L51.6131 155.651H50.2894L48.3947 149.927H48.8748L46.9801 155.651H45.6434Z" fill="#0074FF"/>
<rect x="150.056" y="49.5174" width="128.967" height="116.867" rx="9.73333" fill="white"/>
<rect x="150.461" y="49.923" width="128.156" height="116.056" rx="9.32778" stroke="#0074FF" stroke-opacity="0.1" stroke-width="0.811111"/>
<path d="M160.723 71.2507V61.5823H164.331C164.989 61.5823 165.568 61.7034 166.07 61.9457C166.581 62.1793 166.979 62.5253 167.264 62.9839C167.55 63.4338 167.692 63.9832 167.692 64.6321C167.692 65.2723 167.545 65.8217 167.251 66.2802C166.966 66.7301 166.572 67.0762 166.07 67.3185C165.568 67.5607 164.989 67.6818 164.331 67.6818H162.488V71.2507H160.723ZM162.488 66.1245H164.357C164.677 66.1245 164.954 66.0639 165.188 65.9428C165.421 65.813 165.603 65.6357 165.733 65.4107C165.863 65.1858 165.927 64.9262 165.927 64.6321C165.927 64.3293 165.863 64.0697 165.733 63.8534C165.603 63.6285 165.421 63.4554 165.188 63.3343C164.954 63.2045 164.677 63.1396 164.357 63.1396H162.488V66.1245ZM169.126 71.2507V64.1908H170.722V65.7611L170.592 65.5275C170.757 64.9998 171.012 64.6321 171.358 64.4244C171.713 64.2168 172.136 64.113 172.63 64.113H173.045V65.6184H172.435C171.95 65.6184 171.561 65.7698 171.267 66.0726C170.973 66.3668 170.826 66.7821 170.826 67.3185V71.2507H169.126ZM177.458 71.4065C176.731 71.4065 176.095 71.2421 175.55 70.9133C175.005 70.5845 174.581 70.139 174.278 69.5766C173.975 69.0142 173.824 68.3913 173.824 67.7078C173.824 66.9983 173.975 66.3711 174.278 65.826C174.59 65.2723 175.009 64.8354 175.537 64.5153C176.073 64.1951 176.67 64.0351 177.328 64.0351C177.882 64.0351 178.366 64.1259 178.781 64.3076C179.205 64.4893 179.564 64.7402 179.859 65.0603C180.153 65.3805 180.378 65.7482 180.533 66.1634C180.689 66.5701 180.767 67.0113 180.767 67.4872C180.767 67.6083 180.758 67.7338 180.741 67.8635C180.732 67.9933 180.711 68.1058 180.676 68.201H175.226V66.9032H179.716L178.911 67.5131C178.989 67.1151 178.967 66.7604 178.846 66.449C178.734 66.1375 178.543 65.8909 178.275 65.7092C178.016 65.5275 177.7 65.4367 177.328 65.4367C176.973 65.4367 176.657 65.5275 176.381 65.7092C176.104 65.8823 175.892 66.1418 175.745 66.4879C175.606 66.8253 175.554 67.2363 175.589 67.7208C175.554 68.1534 175.611 68.5384 175.758 68.8758C175.913 69.2046 176.138 69.4598 176.432 69.6415C176.735 69.8232 177.081 69.914 177.471 69.914C177.86 69.914 178.189 69.8318 178.457 69.6674C178.734 69.5031 178.95 69.2824 179.106 69.0056L180.482 69.6804C180.343 70.0178 180.127 70.3163 179.833 70.5759C179.538 70.8354 179.188 71.0388 178.781 71.1858C178.383 71.3329 177.942 71.4065 177.458 71.4065ZM185.638 71.4065C184.945 71.4065 184.314 71.2464 183.743 70.9263C183.181 70.6062 182.731 70.1693 182.393 69.6155C182.064 69.0618 181.9 68.4302 181.9 67.7208C181.9 67.0113 182.064 66.3797 182.393 65.826C182.731 65.2723 183.181 64.8354 183.743 64.5153C184.305 64.1951 184.937 64.0351 185.638 64.0351C186.33 64.0351 186.957 64.1951 187.519 64.5153C188.082 64.8354 188.527 65.2723 188.856 65.826C189.194 66.3711 189.362 67.0027 189.362 67.7208C189.362 68.4302 189.194 69.0618 188.856 69.6155C188.519 70.1693 188.069 70.6062 187.506 70.9263C186.944 71.2464 186.321 71.4065 185.638 71.4065ZM185.638 69.8491C186.018 69.8491 186.351 69.7583 186.637 69.5766C186.931 69.3949 187.16 69.144 187.325 68.8239C187.498 68.4951 187.584 68.1274 187.584 67.7208C187.584 67.3055 187.498 66.9421 187.325 66.6306C187.16 66.3105 186.931 66.0596 186.637 65.8779C186.351 65.6876 186.018 65.5924 185.638 65.5924C185.248 65.5924 184.907 65.6876 184.612 65.8779C184.318 66.0596 184.085 66.3105 183.912 66.6306C183.747 66.9421 183.665 67.3055 183.665 67.7208C183.665 68.1274 183.747 68.4951 183.912 68.8239C184.085 69.144 184.318 69.3949 184.612 69.5766C184.907 69.7583 185.248 69.8491 185.638 69.8491ZM190.781 73.8463V64.1908H192.378V65.5924L192.222 65.242C192.464 64.8613 192.793 64.5672 193.208 64.3595C193.623 64.1432 194.104 64.0351 194.649 64.0351C195.315 64.0351 195.916 64.1995 196.453 64.5282C196.989 64.857 197.413 65.2983 197.724 65.852C198.045 66.4057 198.205 67.0286 198.205 67.7208C198.205 68.4043 198.049 69.0272 197.737 69.5896C197.426 70.1519 197.002 70.5975 196.466 70.9263C195.929 71.2464 195.319 71.4065 194.636 71.4065C194.125 71.4065 193.654 71.307 193.221 71.108C192.797 70.9003 192.46 70.6062 192.209 70.2255L192.481 69.8881V73.8463H190.781ZM194.441 69.8491C194.83 69.8491 195.176 69.7583 195.479 69.5766C195.782 69.3949 196.016 69.144 196.18 68.8239C196.353 68.5038 196.44 68.1361 196.44 67.7208C196.44 67.3055 196.353 66.9421 196.18 66.6306C196.016 66.3105 195.782 66.0596 195.479 65.8779C195.176 65.6876 194.83 65.5924 194.441 65.5924C194.069 65.5924 193.732 65.6833 193.429 65.865C193.135 66.0466 192.901 66.3019 192.728 66.6306C192.564 66.9508 192.481 67.3141 192.481 67.7208C192.481 68.1361 192.564 68.5038 192.728 68.8239C192.901 69.144 193.135 69.3949 193.429 69.5766C193.732 69.7583 194.069 69.8491 194.441 69.8491ZM202.979 71.4065C202.252 71.4065 201.616 71.2421 201.071 70.9133C200.526 70.5845 200.102 70.139 199.799 69.5766C199.496 69.0142 199.345 68.3913 199.345 67.7078C199.345 66.9983 199.496 66.3711 199.799 65.826C200.111 65.2723 200.53 64.8354 201.058 64.5153C201.594 64.1951 202.191 64.0351 202.849 64.0351C203.403 64.0351 203.887 64.1259 204.303 64.3076C204.726 64.4893 205.086 64.7402 205.38 65.0603C205.674 65.3805 205.899 65.7482 206.055 66.1634C206.21 66.5701 206.288 67.0113 206.288 67.4872C206.288 67.6083 206.279 67.7338 206.262 67.8635C206.254 67.9933 206.232 68.1058 206.197 68.201H200.747V66.9032H205.237L204.432 67.5131C204.51 67.1151 204.489 66.7604 204.367 66.449C204.255 66.1375 204.065 65.8909 203.796 65.7092C203.537 65.5275 203.221 65.4367 202.849 65.4367C202.494 65.4367 202.178 65.5275 201.902 65.7092C201.625 65.8823 201.413 66.1418 201.266 66.4879C201.127 66.8253 201.075 67.2363 201.11 67.7208C201.075 68.1534 201.132 68.5384 201.279 68.8758C201.434 69.2046 201.659 69.4598 201.954 69.6415C202.256 69.8232 202.602 69.914 202.992 69.914C203.381 69.914 203.71 69.8318 203.978 69.6674C204.255 69.5031 204.471 69.2824 204.627 69.0056L206.003 69.6804C205.864 70.0178 205.648 70.3163 205.354 70.5759C205.06 70.8354 204.709 71.0388 204.303 71.1858C203.905 71.3329 203.463 71.4065 202.979 71.4065ZM211.055 71.4065C210.328 71.4065 209.692 71.2421 209.147 70.9133C208.602 70.5845 208.178 70.139 207.875 69.5766C207.573 69.0142 207.421 68.3913 207.421 67.7078C207.421 66.9983 207.573 66.3711 207.875 65.826C208.187 65.2723 208.606 64.8354 209.134 64.5153C209.671 64.1951 210.268 64.0351 210.925 64.0351C211.479 64.0351 211.963 64.1259 212.379 64.3076C212.803 64.4893 213.162 64.7402 213.456 65.0603C213.75 65.3805 213.975 65.7482 214.131 66.1634C214.286 66.5701 214.364 67.0113 214.364 67.4872C214.364 67.6083 214.356 67.7338 214.338 67.8635C214.33 67.9933 214.308 68.1058 214.273 68.201H208.823V66.9032H213.313L212.508 67.5131C212.586 67.1151 212.565 66.7604 212.444 66.449C212.331 66.1375 212.141 65.8909 211.873 65.7092C211.613 65.5275 211.297 65.4367 210.925 65.4367C210.57 65.4367 210.255 65.5275 209.978 65.7092C209.701 65.8823 209.489 66.1418 209.342 66.4879C209.203 66.8253 209.152 67.2363 209.186 67.7208C209.152 68.1534 209.208 68.5384 209.355 68.8758C209.511 69.2046 209.736 69.4598 210.03 69.6415C210.332 69.8232 210.679 69.914 211.068 69.914C211.457 69.914 211.786 69.8318 212.054 69.6674C212.331 69.5031 212.547 69.2824 212.703 69.0056L214.079 69.6804C213.94 70.0178 213.724 70.3163 213.43 70.5759C213.136 70.8354 212.785 71.0388 212.379 71.1858C211.981 71.3329 211.539 71.4065 211.055 71.4065ZM215.783 71.2507V61.4266H217.483V71.2507H215.783Z" fill="#262535"/>
<path d="M160.49 93.9619V93.0794L163.163 90.1854C163.691 89.623 164.111 89.1601 164.422 88.7968C164.742 88.4334 164.976 88.1089 165.123 87.8234C165.27 87.5379 165.343 87.2351 165.343 86.915C165.343 86.3872 165.188 85.9806 164.876 85.6951C164.565 85.4096 164.154 85.2668 163.643 85.2668C163.124 85.2668 162.683 85.4182 162.32 85.721C161.956 86.0152 161.705 86.4348 161.567 86.9799L160.412 86.6814C160.524 86.1623 160.732 85.7124 161.035 85.3317C161.338 84.951 161.714 84.6568 162.164 84.4492C162.614 84.2416 163.107 84.1377 163.643 84.1377C164.232 84.1377 164.746 84.2545 165.188 84.4881C165.638 84.7131 165.988 85.0289 166.239 85.4355C166.498 85.8422 166.628 86.3137 166.628 86.8501C166.628 87.2048 166.555 87.5509 166.408 87.8883C166.261 88.2257 166.044 88.5848 165.759 88.9655C165.473 89.3375 165.101 89.7701 164.643 90.2632L162.255 92.8588H166.836V93.9619H160.49ZM172.399 94.1176C171.629 94.1176 170.954 93.91 170.374 93.4947C169.803 93.0708 169.357 92.4868 169.037 91.7427C168.717 90.99 168.557 90.1162 168.557 89.1212C168.557 88.1262 168.717 87.2567 169.037 86.5127C169.357 85.76 169.803 85.176 170.374 84.7607C170.945 84.3454 171.616 84.1377 172.386 84.1377C173.156 84.1377 173.826 84.3454 174.397 84.7607C174.968 85.176 175.414 85.76 175.734 86.5127C176.063 87.2567 176.227 88.1262 176.227 89.1212C176.227 90.1162 176.067 90.99 175.747 91.7427C175.427 92.4954 174.977 93.0794 174.397 93.4947C173.826 93.91 173.16 94.1176 172.399 94.1176ZM172.399 92.9367C172.918 92.9367 173.368 92.7809 173.748 92.4695C174.129 92.1494 174.423 91.7038 174.631 91.1328C174.847 90.5617 174.955 89.8912 174.955 89.1212C174.955 88.3512 174.847 87.6807 174.631 87.1096C174.423 86.5386 174.125 86.0974 173.735 85.7859C173.355 85.4744 172.905 85.3187 172.386 85.3187C171.866 85.3187 171.417 85.4744 171.036 85.7859C170.655 86.0974 170.357 86.5386 170.14 87.1096C169.933 87.6807 169.829 88.3512 169.829 89.1212C169.829 89.8826 169.933 90.5488 170.14 91.1198C170.357 91.6908 170.655 92.1364 171.036 92.4565C171.425 92.7766 171.879 92.9367 172.399 92.9367ZM177.909 93.9619V93.0794L180.583 90.1854C181.111 89.623 181.53 89.1601 181.842 88.7968C182.162 88.4334 182.395 88.1089 182.542 87.8234C182.69 87.5379 182.763 87.2351 182.763 86.915C182.763 86.3872 182.607 85.9806 182.296 85.6951C181.984 85.4096 181.573 85.2668 181.063 85.2668C180.544 85.2668 180.103 85.4182 179.739 85.721C179.376 86.0152 179.125 86.4348 178.987 86.9799L177.832 86.6814C177.944 86.1623 178.152 85.7124 178.454 85.3317C178.757 84.951 179.134 84.6568 179.584 84.4492C180.033 84.2416 180.527 84.1377 181.063 84.1377C181.651 84.1377 182.166 84.2545 182.607 84.4881C183.057 84.7131 183.408 85.0289 183.659 85.4355C183.918 85.8422 184.048 86.3137 184.048 86.8501C184.048 87.2048 183.974 87.5509 183.827 87.8883C183.68 88.2257 183.464 88.5848 183.178 88.9655C182.893 89.3375 182.521 89.7701 182.062 90.2632L179.674 92.8588H184.256V93.9619H177.909ZM190.288 93.9619V91.7297H185.539V90.6785L190.262 84.2935H191.482V90.6785H192.741V91.7297H191.482V93.9619H190.288ZM186.499 91.1328L186.317 90.6785H190.288V85.3576L190.665 85.4615L186.499 91.1328ZM194.515 91.2755V90.1464H200.355V91.2755H194.515ZM206.325 94.1176C205.555 94.1176 204.88 93.91 204.301 93.4947C203.73 93.0708 203.284 92.4868 202.964 91.7427C202.644 90.99 202.484 90.1162 202.484 89.1212C202.484 88.1262 202.644 87.2567 202.964 86.5127C203.284 85.76 203.73 85.176 204.301 84.7607C204.872 84.3454 205.542 84.1377 206.312 84.1377C207.082 84.1377 207.753 84.3454 208.324 84.7607C208.895 85.176 209.34 85.76 209.661 86.5127C209.989 87.2567 210.154 88.1262 210.154 89.1212C210.154 90.1162 209.994 90.99 209.674 91.7427C209.353 92.4954 208.904 93.0794 208.324 93.4947C207.753 93.91 207.087 94.1176 206.325 94.1176ZM206.325 92.9367C206.844 92.9367 207.294 92.7809 207.675 92.4695C208.056 92.1494 208.35 91.7038 208.558 91.1328C208.774 90.5617 208.882 89.8912 208.882 89.1212C208.882 88.3512 208.774 87.6807 208.558 87.1096C208.35 86.5386 208.051 86.0974 207.662 85.7859C207.281 85.4744 206.831 85.3187 206.312 85.3187C205.793 85.3187 205.343 85.4744 204.963 85.7859C204.582 86.0974 204.283 86.5386 204.067 87.1096C203.86 87.6807 203.756 88.3512 203.756 89.1212C203.756 89.8826 203.86 90.5488 204.067 91.1198C204.283 91.6908 204.582 92.1364 204.963 92.4565C205.352 92.7766 205.806 92.9367 206.325 92.9367ZM215.042 94.1176C214.419 94.1176 213.865 93.9792 213.38 93.7024C212.905 93.4255 212.528 93.0491 212.251 92.5733C211.975 92.0888 211.836 91.5394 211.836 90.9251C211.836 90.5877 211.875 90.2546 211.953 89.9258C212.031 89.5971 212.156 89.264 212.329 88.9265C212.502 88.5891 212.723 88.2387 212.991 87.8753L215.716 84.2935H217.248L213.913 88.628L213.679 88.6021C213.809 88.4291 213.951 88.295 214.107 88.1998C214.272 88.1046 214.445 88.0354 214.626 87.9921C214.817 87.9489 215.016 87.9272 215.223 87.9272C215.794 87.9272 216.305 88.0614 216.755 88.3296C217.213 88.5891 217.572 88.9482 217.832 89.4067C218.1 89.8653 218.234 90.393 218.234 90.99C218.234 91.587 218.096 92.1234 217.819 92.5992C217.542 93.0664 217.161 93.4385 216.677 93.7153C216.201 93.9835 215.656 94.1176 215.042 94.1176ZM215.042 92.9756C215.405 92.9756 215.729 92.8934 216.015 92.729C216.3 92.556 216.525 92.3181 216.69 92.0152C216.863 91.7124 216.949 91.375 216.949 91.003C216.949 90.6136 216.867 90.2762 216.703 89.9907C216.538 89.6966 216.313 89.463 216.028 89.2899C215.742 89.1169 215.414 89.0304 215.042 89.0304C214.678 89.0304 214.349 89.1169 214.055 89.2899C213.761 89.463 213.532 89.6966 213.367 89.9907C213.203 90.2762 213.121 90.6136 213.121 91.003C213.121 91.375 213.203 91.7124 213.367 92.0152C213.541 92.3181 213.77 92.556 214.055 92.729C214.349 92.8934 214.678 92.9756 215.042 92.9756ZM220.163 91.2755V90.1464H226.003V91.2755H220.163ZM229.572 93.9619V85.3966H227.742V84.2935H230.857V93.9619H229.572ZM234.657 93.9619V85.3966H232.828V84.2935H235.942V93.9619H234.657Z" fill="#262535"/>
<path d="M160.866 116.695V107.027H164.279C164.919 107.027 165.482 107.148 165.966 107.39C166.451 107.632 166.827 107.978 167.095 108.428C167.372 108.878 167.511 109.406 167.511 110.012C167.511 110.617 167.372 111.145 167.095 111.595C166.827 112.036 166.451 112.382 165.966 112.633C165.491 112.875 164.928 112.997 164.279 112.997H162.138V116.695H160.866ZM162.138 111.829H164.318C164.708 111.829 165.045 111.755 165.33 111.608C165.616 111.461 165.837 111.249 165.992 110.972C166.148 110.695 166.226 110.375 166.226 110.012C166.226 109.64 166.148 109.319 165.992 109.051C165.837 108.774 165.616 108.562 165.33 108.415C165.045 108.268 164.708 108.195 164.318 108.195H162.138V111.829ZM172.287 116.851C171.612 116.851 171.002 116.695 170.457 116.384C169.912 116.064 169.479 115.627 169.159 115.073C168.839 114.519 168.679 113.892 168.679 113.191C168.679 112.49 168.834 111.867 169.146 111.322C169.466 110.777 169.899 110.345 170.444 110.025C170.989 109.704 171.603 109.544 172.287 109.544C172.961 109.544 173.571 109.704 174.116 110.025C174.661 110.336 175.09 110.764 175.401 111.309C175.721 111.854 175.881 112.482 175.881 113.191C175.881 113.901 175.717 114.532 175.388 115.086C175.059 115.631 174.623 116.064 174.077 116.384C173.541 116.695 172.944 116.851 172.287 116.851ZM172.287 115.683C172.719 115.683 173.108 115.575 173.455 115.358C173.809 115.142 174.086 114.844 174.285 114.463C174.493 114.082 174.597 113.658 174.597 113.191C174.597 112.715 174.493 112.296 174.285 111.932C174.086 111.56 173.809 111.266 173.455 111.05C173.108 110.825 172.719 110.712 172.287 110.712C171.845 110.712 171.447 110.825 171.093 111.05C170.747 111.266 170.47 111.56 170.262 111.932C170.054 112.296 169.951 112.715 169.951 113.191C169.951 113.658 170.054 114.082 170.262 114.463C170.47 114.844 170.747 115.142 171.093 115.358C171.447 115.575 171.845 115.683 172.287 115.683ZM177.585 116.695V106.871H178.792V116.695H177.585ZM180.795 116.695V109.7H182.002V116.695H180.795ZM180.795 108.584V107.027H182.002V108.584H180.795ZM187.249 116.851C186.565 116.851 185.955 116.691 185.419 116.371C184.891 116.051 184.476 115.614 184.173 115.06C183.87 114.506 183.719 113.883 183.719 113.191C183.719 112.49 183.87 111.867 184.173 111.322C184.476 110.777 184.891 110.345 185.419 110.025C185.955 109.704 186.565 109.544 187.249 109.544C187.707 109.544 188.136 109.627 188.534 109.791C188.931 109.955 189.282 110.176 189.585 110.453C189.888 110.73 190.108 111.054 190.247 111.426L189.169 111.945C189.005 111.582 188.754 111.288 188.417 111.063C188.079 110.829 187.69 110.712 187.249 110.712C186.825 110.712 186.44 110.821 186.094 111.037C185.756 111.253 185.488 111.547 185.289 111.919C185.09 112.291 184.991 112.72 184.991 113.204C184.991 113.671 185.09 114.095 185.289 114.476C185.488 114.848 185.756 115.142 186.094 115.358C186.44 115.575 186.825 115.683 187.249 115.683C187.69 115.683 188.079 115.57 188.417 115.346C188.754 115.112 189.005 114.805 189.169 114.424L190.247 114.969C190.108 115.333 189.888 115.657 189.585 115.942C189.282 116.219 188.931 116.44 188.534 116.604C188.136 116.769 187.707 116.851 187.249 116.851ZM192.33 119.55C192.174 119.55 192.019 119.537 191.863 119.511C191.707 119.494 191.56 119.455 191.422 119.395V118.317C191.517 118.326 191.634 118.343 191.772 118.369C191.919 118.395 192.062 118.408 192.2 118.408C192.607 118.408 192.914 118.317 193.122 118.136C193.338 117.954 193.541 117.647 193.732 117.214L194.173 116.163L194.147 117.214L191.162 109.7H192.473L194.796 115.67H194.406L196.716 109.7H198.053L194.9 117.526C194.753 117.898 194.562 118.24 194.329 118.551C194.104 118.862 193.827 119.105 193.498 119.278C193.169 119.459 192.78 119.55 192.33 119.55ZM205.276 116.851C204.576 116.851 203.953 116.704 203.408 116.41C202.871 116.116 202.452 115.713 202.149 115.203C201.855 114.684 201.708 114.095 201.708 113.438V107.027H202.992V113.412C202.992 113.853 203.088 114.247 203.278 114.593C203.477 114.93 203.745 115.194 204.083 115.384C204.429 115.575 204.827 115.67 205.276 115.67C205.726 115.67 206.12 115.575 206.457 115.384C206.804 115.194 207.072 114.93 207.262 114.593C207.461 114.247 207.561 113.853 207.561 113.412V107.027H208.845V113.438C208.845 114.095 208.694 114.684 208.391 115.203C208.097 115.713 207.682 116.116 207.145 116.41C206.609 116.704 205.986 116.851 205.276 116.851ZM210.923 119.291V109.7H212.103V111.206L211.948 110.907C212.207 110.492 212.562 110.163 213.012 109.921C213.462 109.67 213.977 109.544 214.556 109.544C215.214 109.544 215.802 109.704 216.321 110.025C216.849 110.345 217.264 110.782 217.567 111.335C217.87 111.88 218.021 112.503 218.021 113.204C218.021 113.888 217.87 114.506 217.567 115.06C217.264 115.614 216.849 116.051 216.321 116.371C215.802 116.691 215.209 116.851 214.543 116.851C213.981 116.851 213.466 116.725 212.999 116.475C212.54 116.224 212.186 115.869 211.935 115.41L212.129 115.203V119.291H210.923ZM214.452 115.683C214.894 115.683 215.287 115.575 215.633 115.358C215.98 115.142 216.248 114.848 216.438 114.476C216.637 114.095 216.737 113.671 216.737 113.204C216.737 112.72 216.637 112.296 216.438 111.932C216.248 111.56 215.98 111.266 215.633 111.05C215.287 110.825 214.894 110.712 214.452 110.712C214.011 110.712 213.613 110.821 213.259 111.037C212.912 111.253 212.636 111.552 212.428 111.932C212.229 112.304 212.129 112.728 212.129 113.204C212.129 113.671 212.229 114.095 212.428 114.476C212.636 114.848 212.912 115.142 213.259 115.358C213.613 115.575 214.011 115.683 214.452 115.683ZM222.913 116.851C222.256 116.851 221.663 116.691 221.135 116.371C220.616 116.051 220.205 115.614 219.902 115.06C219.6 114.506 219.448 113.888 219.448 113.204C219.448 112.503 219.6 111.88 219.902 111.335C220.205 110.782 220.616 110.345 221.135 110.025C221.663 109.704 222.256 109.544 222.913 109.544C223.493 109.544 224.008 109.67 224.458 109.921C224.908 110.163 225.262 110.492 225.522 110.907L225.327 111.206V106.871H226.547V116.695H225.366V115.203L225.522 115.41C225.28 115.869 224.925 116.224 224.458 116.475C223.999 116.725 223.484 116.851 222.913 116.851ZM223.017 115.683C223.458 115.683 223.852 115.575 224.198 115.358C224.544 115.142 224.817 114.848 225.016 114.476C225.223 114.095 225.327 113.671 225.327 113.204C225.327 112.728 225.223 112.304 225.016 111.932C224.817 111.552 224.544 111.253 224.198 111.037C223.852 110.821 223.458 110.712 223.017 110.712C222.584 110.712 222.191 110.825 221.836 111.05C221.49 111.266 221.217 111.56 221.019 111.932C220.82 112.296 220.72 112.72 220.72 113.204C220.72 113.671 220.82 114.095 221.019 114.476C221.217 114.848 221.49 115.142 221.836 115.358C222.182 115.575 222.576 115.683 223.017 115.683ZM230.595 116.851C230.137 116.851 229.73 116.769 229.375 116.604C229.029 116.431 228.757 116.198 228.558 115.904C228.359 115.601 228.259 115.255 228.259 114.865C228.259 114.493 228.337 114.16 228.493 113.866C228.657 113.563 228.908 113.308 229.246 113.1C229.592 112.893 230.024 112.746 230.543 112.659L233.139 112.231V113.243L230.816 113.632C230.366 113.71 230.037 113.853 229.83 114.061C229.631 114.268 229.531 114.524 229.531 114.826C229.531 115.112 229.644 115.35 229.869 115.54C230.102 115.731 230.392 115.826 230.738 115.826C231.179 115.826 231.56 115.735 231.88 115.553C232.209 115.363 232.464 115.108 232.646 114.787C232.836 114.467 232.931 114.113 232.931 113.723V111.945C232.931 111.565 232.789 111.258 232.503 111.024C232.226 110.782 231.859 110.661 231.4 110.661C231.002 110.661 230.647 110.764 230.336 110.972C230.033 111.171 229.808 111.439 229.661 111.777L228.61 111.232C228.74 110.911 228.947 110.626 229.233 110.375C229.518 110.115 229.851 109.912 230.232 109.765C230.613 109.618 231.011 109.544 231.426 109.544C231.962 109.544 232.434 109.648 232.841 109.856C233.247 110.055 233.563 110.336 233.788 110.699C234.022 111.054 234.138 111.469 234.138 111.945V116.695H232.957V115.371L233.178 115.449C233.031 115.726 232.832 115.968 232.581 116.176C232.33 116.384 232.036 116.548 231.699 116.669C231.361 116.79 230.993 116.851 230.595 116.851ZM238.855 116.773C238.171 116.773 237.644 116.578 237.272 116.189C236.908 115.8 236.726 115.25 236.726 114.541V110.855H235.455V109.7H235.714C236.026 109.7 236.272 109.605 236.454 109.415C236.636 109.224 236.726 108.973 236.726 108.662V108.091H237.933V109.7H239.504V110.855H237.933V114.502C237.933 114.736 237.968 114.939 238.037 115.112C238.115 115.285 238.241 115.423 238.414 115.527C238.587 115.622 238.816 115.67 239.101 115.67C239.162 115.67 239.236 115.666 239.322 115.657C239.417 115.648 239.504 115.64 239.582 115.631V116.695C239.469 116.721 239.344 116.738 239.205 116.747C239.067 116.764 238.95 116.773 238.855 116.773ZM244.316 116.851C243.642 116.851 243.04 116.691 242.512 116.371C241.985 116.051 241.569 115.614 241.267 115.06C240.964 114.498 240.812 113.87 240.812 113.178C240.812 112.477 240.959 111.854 241.254 111.309C241.556 110.764 241.963 110.336 242.474 110.025C242.993 109.704 243.572 109.544 244.213 109.544C244.732 109.544 245.19 109.64 245.588 109.83C245.995 110.012 246.337 110.263 246.613 110.583C246.899 110.894 247.115 111.253 247.262 111.66C247.418 112.058 247.496 112.473 247.496 112.906C247.496 113.001 247.487 113.109 247.47 113.23C247.461 113.343 247.448 113.451 247.431 113.555H241.695V112.516H246.73L246.159 112.984C246.237 112.534 246.194 112.131 246.029 111.777C245.865 111.422 245.623 111.141 245.303 110.933C244.983 110.725 244.619 110.622 244.213 110.622C243.806 110.622 243.434 110.725 243.096 110.933C242.759 111.141 242.495 111.439 242.305 111.829C242.123 112.209 242.05 112.663 242.084 113.191C242.05 113.702 242.127 114.152 242.318 114.541C242.517 114.922 242.794 115.22 243.148 115.436C243.512 115.644 243.905 115.748 244.329 115.748C244.797 115.748 245.19 115.64 245.51 115.423C245.83 115.207 246.09 114.93 246.289 114.593L247.301 115.112C247.163 115.432 246.947 115.726 246.652 115.994C246.367 116.254 246.025 116.462 245.627 116.617C245.238 116.773 244.801 116.851 244.316 116.851Z" fill="#262535"/>
<path d="M163.358 155.651L159.932 145.982H161.58L164.383 154.236H164.059L166.849 145.982H168.497L165.071 155.651H163.358ZM169.621 155.651V148.63H171.088V155.651H169.621ZM169.621 147.669V145.982H171.088V147.669H169.621ZM176.229 155.806C175.528 155.806 174.905 155.646 174.36 155.326C173.823 154.997 173.404 154.556 173.101 154.002C172.798 153.44 172.647 152.813 172.647 152.121C172.647 151.411 172.798 150.784 173.101 150.239C173.412 149.694 173.828 149.266 174.347 148.954C174.866 148.634 175.454 148.474 176.112 148.474C176.64 148.474 177.111 148.565 177.526 148.746C177.942 148.928 178.292 149.179 178.578 149.499C178.863 149.811 179.079 150.17 179.226 150.576C179.382 150.983 179.46 151.416 179.46 151.874C179.46 151.987 179.456 152.103 179.447 152.225C179.438 152.346 179.421 152.458 179.395 152.562H173.802V151.394H178.565L177.864 151.926C177.95 151.502 177.92 151.126 177.773 150.797C177.635 150.46 177.418 150.196 177.124 150.005C176.839 149.806 176.501 149.707 176.112 149.707C175.722 149.707 175.376 149.806 175.074 150.005C174.771 150.196 174.537 150.473 174.373 150.836C174.208 151.191 174.144 151.623 174.178 152.134C174.135 152.61 174.2 153.025 174.373 153.38C174.554 153.734 174.805 154.011 175.126 154.21C175.454 154.409 175.826 154.509 176.242 154.509C176.666 154.509 177.025 154.413 177.319 154.223C177.622 154.033 177.859 153.786 178.033 153.483L179.226 154.067C179.088 154.396 178.872 154.695 178.578 154.963C178.292 155.222 177.946 155.43 177.539 155.586C177.141 155.733 176.704 155.806 176.229 155.806ZM182.721 155.651L180.307 148.63H181.865L183.707 154.223H183.162L185.044 148.63H186.381L188.25 154.223H187.705L189.56 148.63H191.118L188.691 155.651H187.367L185.472 149.927H185.953L184.058 155.651H182.721Z" fill="#0074FF"/>
<rect x="12.9778" y="176.117" width="128.967" height="116.867" rx="9.73333" fill="white"/>
<rect x="13.3833" y="176.523" width="128.156" height="116.056" rx="9.32778" stroke="#0074FF" stroke-opacity="0.1" stroke-width="0.811111"/>
<path d="M25.3586 197.851V189.74H22.8539V188.182H29.6023V189.74H27.1365V197.851H25.3586ZM32.6645 198.007C32.1194 198.007 31.6435 197.885 31.2369 197.643C30.8389 197.401 30.5318 197.064 30.3155 196.631C30.1078 196.198 30.004 195.692 30.004 195.113V190.791H31.7041V194.97C31.7041 195.264 31.7604 195.523 31.8728 195.748C31.9939 195.965 32.1627 196.138 32.379 196.268C32.6039 196.389 32.8548 196.449 33.1317 196.449C33.4085 196.449 33.6551 196.389 33.8714 196.268C34.0877 196.138 34.2564 195.96 34.3775 195.735C34.4987 195.511 34.5592 195.242 34.5592 194.931V190.791H36.2593V197.851H34.6501V196.462L34.7928 196.709C34.6284 197.141 34.3559 197.466 33.9752 197.682C33.6032 197.898 33.1663 198.007 32.6645 198.007ZM37.9694 197.851V190.791H39.5657V192.18L39.4359 191.933C39.6003 191.509 39.8685 191.189 40.2406 190.973C40.6212 190.748 41.0625 190.635 41.5643 190.635C42.0834 190.635 42.5419 190.748 42.9399 190.973C43.3466 191.198 43.6624 191.513 43.8873 191.92C44.1123 192.318 44.2247 192.781 44.2247 193.309V197.851H42.5246V193.711C42.5246 193.399 42.4641 193.131 42.343 192.906C42.2218 192.681 42.0531 192.508 41.8368 192.387C41.6292 192.257 41.3826 192.193 41.0971 192.193C40.8202 192.193 40.5736 192.257 40.3574 192.387C40.1411 192.508 39.9723 192.681 39.8512 192.906C39.7301 193.131 39.6695 193.399 39.6695 193.711V197.851H37.9694ZM49.2182 200.706C48.6905 200.706 48.2016 200.619 47.7517 200.446C47.3018 200.273 46.9125 200.031 46.5837 199.72C46.2636 199.417 46.03 199.058 45.8829 198.642L47.4662 198.045C47.5701 198.374 47.7734 198.638 48.0762 198.837C48.3877 199.045 48.7683 199.149 49.2182 199.149C49.5643 199.149 49.8671 199.084 50.1267 198.954C50.3949 198.824 50.6025 198.634 50.7496 198.383C50.8967 198.141 50.9702 197.847 50.9702 197.5V195.891L51.2947 196.281C51.0524 196.704 50.728 197.025 50.3213 197.241C49.9147 197.457 49.4518 197.565 48.9327 197.565C48.2752 197.565 47.6869 197.414 47.1677 197.111C46.6486 196.808 46.242 196.393 45.9478 195.865C45.6537 195.337 45.5066 194.745 45.5066 194.087C45.5066 193.421 45.6537 192.828 45.9478 192.309C46.242 191.79 46.6443 191.384 47.1548 191.089C47.6652 190.787 48.2449 190.635 48.8938 190.635C49.4216 190.635 49.8844 190.748 50.2824 190.973C50.689 191.189 51.0265 191.505 51.2947 191.92L51.0611 192.348V190.791H52.6703V197.5C52.6703 198.115 52.5189 198.664 52.2161 199.149C51.9219 199.633 51.5153 200.014 50.9962 200.291C50.4857 200.568 49.8931 200.706 49.2182 200.706ZM49.1404 195.995C49.5037 195.995 49.8195 195.917 50.0877 195.761C50.3646 195.597 50.5809 195.372 50.7366 195.087C50.8924 194.801 50.9702 194.472 50.9702 194.1C50.9702 193.737 50.888 193.412 50.7237 193.127C50.5679 192.833 50.3516 192.603 50.0748 192.439C49.8066 192.275 49.4951 192.193 49.1404 192.193C48.7856 192.193 48.4655 192.275 48.18 192.439C47.8945 192.603 47.6696 192.833 47.5052 193.127C47.3494 193.412 47.2716 193.737 47.2716 194.1C47.2716 194.464 47.3494 194.788 47.5052 195.074C47.6696 195.359 47.8902 195.584 48.167 195.748C48.4525 195.913 48.777 195.995 49.1404 195.995ZM57.0743 198.007C56.3215 198.007 55.664 197.829 55.1016 197.474C54.5479 197.111 54.1672 196.622 53.9596 196.008L55.2314 195.398C55.4131 195.796 55.664 196.107 55.9841 196.332C56.3129 196.557 56.6763 196.67 57.0743 196.67C57.3857 196.67 57.6323 196.601 57.814 196.462C57.9957 196.324 58.0865 196.142 58.0865 195.917C58.0865 195.779 58.0476 195.666 57.9697 195.58C57.9005 195.485 57.801 195.407 57.6712 195.346C57.5501 195.277 57.416 195.221 57.2689 195.177L56.1139 194.853C55.5169 194.68 55.0627 194.416 54.7512 194.061C54.4484 193.707 54.297 193.287 54.297 192.802C54.297 192.37 54.4052 191.994 54.6215 191.673C54.8464 191.345 55.1535 191.089 55.5429 190.908C55.9409 190.726 56.3951 190.635 56.9055 190.635C57.5717 190.635 58.1601 190.795 58.6705 191.115C59.181 191.435 59.5444 191.885 59.7607 192.465L58.4629 193.075C58.3417 192.755 58.1384 192.5 57.8529 192.309C57.5674 192.119 57.2473 192.024 56.8926 192.024C56.6071 192.024 56.3821 192.089 56.2177 192.218C56.0533 192.348 55.9711 192.517 55.9711 192.725C55.9711 192.854 56.0057 192.967 56.075 193.062C56.1442 193.157 56.2393 193.235 56.3605 193.296C56.4903 193.356 56.6373 193.412 56.8017 193.464L57.9308 193.802C58.5105 193.975 58.956 194.234 59.2675 194.58C59.5876 194.927 59.7477 195.35 59.7477 195.852C59.7477 196.276 59.6352 196.653 59.4103 196.981C59.1853 197.301 58.8738 197.552 58.4759 197.734C58.0779 197.916 57.6107 198.007 57.0743 198.007ZM64.4024 197.929C63.6065 197.929 62.9879 197.712 62.5466 197.28C62.114 196.839 61.8977 196.22 61.8977 195.424V192.309H60.6778V190.791H60.8076C61.1537 190.791 61.4219 190.7 61.6122 190.518C61.8026 190.337 61.8977 190.073 61.8977 189.727V189.182H63.5978V190.791H65.22V192.309H63.5978V195.333C63.5978 195.567 63.6367 195.766 63.7146 195.93C63.8011 196.095 63.9309 196.22 64.1039 196.306C64.2856 196.393 64.5149 196.436 64.7918 196.436C64.8523 196.436 64.9215 196.432 64.9994 196.423C65.0859 196.415 65.1681 196.406 65.246 196.397V197.851C65.1249 197.868 64.9864 197.885 64.8307 197.903C64.675 197.92 64.5322 197.929 64.4024 197.929ZM66.6747 197.851V190.791H68.3748V197.851H66.6747ZM66.6747 189.999V188.182H68.3748V189.999H66.6747ZM70.0742 197.851V190.791H71.6705V192.18L71.5407 191.933C71.7051 191.509 71.9733 191.189 72.3453 190.973C72.726 190.748 73.1673 190.635 73.6691 190.635C74.1882 190.635 74.6467 190.748 75.0447 190.973C75.4514 191.198 75.7672 191.513 75.9921 191.92C76.217 192.318 76.3295 192.781 76.3295 193.309V197.851H74.6294V193.711C74.6294 193.399 74.5689 193.131 74.4477 192.906C74.3266 192.681 74.1579 192.508 73.9416 192.387C73.734 192.257 73.4874 192.193 73.2019 192.193C72.925 192.193 72.6784 192.257 72.4621 192.387C72.2458 192.508 72.0771 192.681 71.956 192.906C71.8349 193.131 71.7743 193.399 71.7743 193.711V197.851H70.0742Z" fill="#262535"/>
<path d="M23.4119 220.562V219.679L26.0853 216.785C26.6131 216.223 27.0327 215.76 27.3442 215.397C27.6643 215.033 27.8979 214.709 28.045 214.423C28.1921 214.138 28.2656 213.835 28.2656 213.515C28.2656 212.987 28.1099 212.581 27.7984 212.295C27.4869 212.01 27.076 211.867 26.5655 211.867C26.0464 211.867 25.6052 212.018 25.2418 212.321C24.8784 212.615 24.6275 213.035 24.4891 213.58L23.3341 213.281C23.4465 212.762 23.6542 212.312 23.957 211.932C24.2598 211.551 24.6362 211.257 25.0861 211.049C25.536 210.842 26.0291 210.738 26.5655 210.738C27.1538 210.738 27.6686 210.855 28.1099 211.088C28.5598 211.313 28.9102 211.629 29.1611 212.035C29.4206 212.442 29.5504 212.914 29.5504 213.45C29.5504 213.805 29.4769 214.151 29.3298 214.488C29.1827 214.826 28.9664 215.185 28.6809 215.565C28.3954 215.937 28.0234 216.37 27.5648 216.863L25.1769 219.459H29.7581V220.562H23.4119ZM35.3208 220.718C34.5507 220.718 33.8759 220.51 33.2962 220.095C32.7252 219.671 32.2796 219.087 31.9595 218.343C31.6394 217.59 31.4793 216.716 31.4793 215.721C31.4793 214.726 31.6394 213.857 31.9595 213.113C32.2796 212.36 32.7252 211.776 33.2962 211.361C33.8672 210.945 34.5378 210.738 35.3078 210.738C36.0778 210.738 36.7483 210.945 37.3193 211.361C37.8904 211.776 38.3359 212.36 38.656 213.113C38.9848 213.857 39.1492 214.726 39.1492 215.721C39.1492 216.716 38.9891 217.59 38.669 218.343C38.3489 219.095 37.899 219.679 37.3193 220.095C36.7483 220.51 36.0821 220.718 35.3208 220.718ZM35.3208 219.537C35.8399 219.537 36.2898 219.381 36.6704 219.069C37.0511 218.749 37.3453 218.304 37.5529 217.733C37.7692 217.162 37.8774 216.491 37.8774 215.721C37.8774 214.951 37.7692 214.281 37.5529 213.71C37.3453 213.139 37.0468 212.697 36.6575 212.386C36.2768 212.074 35.8269 211.919 35.3078 211.919C34.7887 211.919 34.3388 212.074 33.9581 212.386C33.5774 212.697 33.2789 213.139 33.0626 213.71C32.855 214.281 32.7512 214.951 32.7512 215.721C32.7512 216.483 32.855 217.149 33.0626 217.72C33.2789 218.291 33.5774 218.736 33.9581 219.056C34.3474 219.377 34.8016 219.537 35.3208 219.537ZM40.8315 220.562V219.679L43.505 216.785C44.0327 216.223 44.4523 215.76 44.7638 215.397C45.0839 215.033 45.3175 214.709 45.4646 214.423C45.6117 214.138 45.6852 213.835 45.6852 213.515C45.6852 212.987 45.5295 212.581 45.218 212.295C44.9066 212.01 44.4956 211.867 43.9851 211.867C43.466 211.867 43.0248 212.018 42.6614 212.321C42.298 212.615 42.0471 213.035 41.9087 213.58L40.7537 213.281C40.8662 212.762 41.0738 212.312 41.3766 211.932C41.6794 211.551 42.0558 211.257 42.5057 211.049C42.9556 210.842 43.4487 210.738 43.9851 210.738C44.5735 210.738 45.0883 210.855 45.5295 211.088C45.9794 211.313 46.3298 211.629 46.5807 212.035C46.8403 212.442 46.97 212.914 46.97 213.45C46.97 213.805 46.8965 214.151 46.7494 214.488C46.6023 214.826 46.386 215.185 46.1005 215.565C45.815 215.937 45.443 216.37 44.9844 216.863L42.5965 219.459H47.1777V220.562H40.8315ZM53.2106 220.562V218.33H48.4608V217.279L53.1847 210.893H54.4046V217.279H55.6634V218.33H54.4046V220.562H53.2106ZM49.4211 217.733L49.2394 217.279H53.2106V211.958L53.587 212.061L49.4211 217.733ZM57.4374 217.875V216.746H63.2774V217.875H57.4374ZM69.2475 220.718C68.4775 220.718 67.8026 220.51 67.223 220.095C66.652 219.671 66.2064 219.087 65.8863 218.343C65.5661 217.59 65.4061 216.716 65.4061 215.721C65.4061 214.726 65.5661 213.857 65.8863 213.113C66.2064 212.36 66.652 211.776 67.223 211.361C67.794 210.945 68.4645 210.738 69.2345 210.738C70.0045 210.738 70.6751 210.945 71.2461 211.361C71.8171 211.776 72.2627 212.36 72.5828 213.113C72.9116 213.857 73.076 214.726 73.076 215.721C73.076 216.716 72.9159 217.59 72.5958 218.343C72.2757 219.095 71.8258 219.679 71.2461 220.095C70.6751 220.51 70.0089 220.718 69.2475 220.718ZM69.2475 219.537C69.7666 219.537 70.2165 219.381 70.5972 219.069C70.9779 218.749 71.272 218.304 71.4797 217.733C71.696 217.162 71.8041 216.491 71.8041 215.721C71.8041 214.951 71.696 214.281 71.4797 213.71C71.272 213.139 70.9736 212.697 70.5842 212.386C70.2035 212.074 69.7536 211.919 69.2345 211.919C68.7154 211.919 68.2655 212.074 67.8848 212.386C67.5042 212.697 67.2057 213.139 66.9894 213.71C66.7817 214.281 66.6779 214.951 66.6779 215.721C66.6779 216.483 66.7817 217.149 66.9894 217.72C67.2057 218.291 67.5042 218.736 67.8848 219.056C68.2742 219.377 68.7284 219.537 69.2475 219.537ZM77.9638 220.718C77.3409 220.718 76.7872 220.579 76.3027 220.302C75.8268 220.025 75.4504 219.649 75.1736 219.173C74.8967 218.689 74.7583 218.139 74.7583 217.525C74.7583 217.188 74.7972 216.855 74.8751 216.526C74.953 216.197 75.0784 215.864 75.2515 215.527C75.4245 215.189 75.6451 214.839 75.9133 214.475L78.6387 210.893H80.17L76.8347 215.228L76.6011 215.202C76.7309 215.029 76.8737 214.895 77.0294 214.8C77.1938 214.705 77.3668 214.635 77.5485 214.592C77.7389 214.549 77.9379 214.527 78.1455 214.527C78.7165 214.527 79.227 214.661 79.6769 214.93C80.1354 215.189 80.4945 215.548 80.754 216.007C81.0222 216.465 81.1563 216.993 81.1563 217.59C81.1563 218.187 81.0179 218.723 80.7411 219.199C80.4642 219.666 80.0835 220.038 79.599 220.315C79.1232 220.584 78.5781 220.718 77.9638 220.718ZM77.9638 219.576C78.3272 219.576 78.6516 219.493 78.9371 219.329C79.2227 219.156 79.4476 218.918 79.612 218.615C79.785 218.312 79.8715 217.975 79.8715 217.603C79.8715 217.214 79.7894 216.876 79.625 216.591C79.4606 216.297 79.2356 216.063 78.9501 215.89C78.6646 215.717 78.3358 215.63 77.9638 215.63C77.6004 215.63 77.2717 215.717 76.9775 215.89C76.6833 216.063 76.4541 216.297 76.2897 216.591C76.1253 216.876 76.0431 217.214 76.0431 217.603C76.0431 217.975 76.1253 218.312 76.2897 218.615C76.4627 218.918 76.692 219.156 76.9775 219.329C77.2717 219.493 77.6004 219.576 77.9638 219.576ZM83.0853 217.875V216.746H88.9253V217.875H83.0853ZM92.4945 220.562V211.997H90.6646V210.893H93.7793V220.562H92.4945ZM97.5796 220.562V211.997H95.7498V210.893H98.8644V220.562H97.5796Z" fill="#262535"/>
<rect x="150.056" y="176.117" width="128.967" height="116.867" rx="9.73333" fill="white"/>
<rect x="150.461" y="176.523" width="128.156" height="116.056" rx="9.32778" stroke="#0074FF" stroke-opacity="0.1" stroke-width="0.811111"/>
<path d="M160.723 197.851V188.182H162.488V196.293H166.628V197.851H160.723ZM171.209 198.007C170.517 198.007 169.885 197.847 169.314 197.526C168.752 197.206 168.302 196.769 167.965 196.216C167.636 195.662 167.471 195.03 167.471 194.321C167.471 193.611 167.636 192.98 167.965 192.426C168.302 191.872 168.752 191.435 169.314 191.115C169.877 190.795 170.508 190.635 171.209 190.635C171.901 190.635 172.528 190.795 173.091 191.115C173.653 191.435 174.099 191.872 174.427 192.426C174.765 192.971 174.934 193.603 174.934 194.321C174.934 195.03 174.765 195.662 174.427 196.216C174.09 196.769 173.64 197.206 173.078 197.526C172.515 197.847 171.892 198.007 171.209 198.007ZM171.209 196.449C171.59 196.449 171.923 196.358 172.208 196.177C172.502 195.995 172.732 195.744 172.896 195.424C173.069 195.095 173.156 194.728 173.156 194.321C173.156 193.906 173.069 193.542 172.896 193.231C172.732 192.911 172.502 192.66 172.208 192.478C171.923 192.288 171.59 192.193 171.209 192.193C170.82 192.193 170.478 192.288 170.184 192.478C169.89 192.66 169.656 192.911 169.483 193.231C169.319 193.542 169.236 193.906 169.236 194.321C169.236 194.728 169.319 195.095 169.483 195.424C169.656 195.744 169.89 195.995 170.184 196.177C170.478 196.358 170.82 196.449 171.209 196.449ZM176.353 197.851V190.791H177.949V192.18L177.819 191.933C177.984 191.509 178.252 191.189 178.624 190.973C179.004 190.748 179.446 190.635 179.947 190.635C180.467 190.635 180.925 190.748 181.323 190.973C181.73 191.198 182.046 191.513 182.271 191.92C182.495 192.318 182.608 192.781 182.608 193.309V197.851H180.908V193.711C180.908 193.399 180.847 193.131 180.726 192.906C180.605 192.681 180.436 192.508 180.22 192.387C180.012 192.257 179.766 192.193 179.48 192.193C179.203 192.193 178.957 192.257 178.741 192.387C178.524 192.508 178.356 192.681 178.234 192.906C178.113 193.131 178.053 193.399 178.053 193.711V197.851H176.353ZM187.524 198.007C186.797 198.007 186.161 197.842 185.616 197.513C185.071 197.185 184.647 196.739 184.344 196.177C184.041 195.614 183.89 194.991 183.89 194.308C183.89 193.598 184.041 192.971 184.344 192.426C184.655 191.872 185.075 191.435 185.603 191.115C186.139 190.795 186.736 190.635 187.394 190.635C187.948 190.635 188.432 190.726 188.847 190.908C189.271 191.089 189.63 191.34 189.924 191.66C190.219 191.981 190.444 192.348 190.599 192.764C190.755 193.17 190.833 193.611 190.833 194.087C190.833 194.208 190.824 194.334 190.807 194.464C190.798 194.593 190.777 194.706 190.742 194.801H185.291V193.503H189.782L188.977 194.113C189.055 193.715 189.033 193.361 188.912 193.049C188.8 192.738 188.609 192.491 188.341 192.309C188.082 192.128 187.766 192.037 187.394 192.037C187.039 192.037 186.723 192.128 186.446 192.309C186.17 192.482 185.958 192.742 185.811 193.088C185.672 193.425 185.62 193.836 185.655 194.321C185.62 194.753 185.676 195.138 185.823 195.476C185.979 195.805 186.204 196.06 186.498 196.242C186.801 196.423 187.147 196.514 187.537 196.514C187.926 196.514 188.255 196.432 188.523 196.268C188.8 196.103 189.016 195.883 189.172 195.606L190.547 196.281C190.409 196.618 190.193 196.916 189.899 197.176C189.604 197.436 189.254 197.639 188.847 197.786C188.449 197.933 188.008 198.007 187.524 198.007ZM195.47 197.929C194.674 197.929 194.055 197.712 193.614 197.28C193.182 196.839 192.965 196.22 192.965 195.424V192.309H191.745V190.791H191.875C192.221 190.791 192.489 190.7 192.68 190.518C192.87 190.337 192.965 190.073 192.965 189.727V189.182H194.665V190.791H196.288V192.309H194.665V195.333C194.665 195.567 194.704 195.766 194.782 195.93C194.869 196.095 194.998 196.22 195.171 196.306C195.353 196.393 195.582 196.436 195.859 196.436C195.92 196.436 195.989 196.432 196.067 196.423C196.153 196.415 196.236 196.406 196.313 196.397V197.851C196.192 197.868 196.054 197.885 195.898 197.903C195.742 197.92 195.6 197.929 195.47 197.929ZM201.027 198.007C200.3 198.007 199.664 197.842 199.119 197.513C198.574 197.185 198.15 196.739 197.847 196.177C197.545 195.614 197.393 194.991 197.393 194.308C197.393 193.598 197.545 192.971 197.847 192.426C198.159 191.872 198.579 191.435 199.106 191.115C199.643 190.795 200.24 190.635 200.897 190.635C201.451 190.635 201.935 190.726 202.351 190.908C202.775 191.089 203.134 191.34 203.428 191.66C203.722 191.981 203.947 192.348 204.103 192.764C204.259 193.17 204.336 193.611 204.336 194.087C204.336 194.208 204.328 194.334 204.31 194.464C204.302 194.593 204.28 194.706 204.246 194.801H198.795V193.503H203.285L202.481 194.113C202.558 193.715 202.537 193.361 202.416 193.049C202.303 192.738 202.113 192.491 201.845 192.309C201.585 192.128 201.269 192.037 200.897 192.037C200.543 192.037 200.227 192.128 199.95 192.309C199.673 192.482 199.461 192.742 199.314 193.088C199.176 193.425 199.124 193.836 199.158 194.321C199.124 194.753 199.18 195.138 199.327 195.476C199.483 195.805 199.708 196.06 200.002 196.242C200.305 196.423 200.651 196.514 201.04 196.514C201.429 196.514 201.758 196.432 202.026 196.268C202.303 196.103 202.519 195.883 202.675 195.606L204.051 196.281C203.912 196.618 203.696 196.916 203.402 197.176C203.108 197.436 202.757 197.639 202.351 197.786C201.953 197.933 201.512 198.007 201.027 198.007Z" fill="#262535"/>
<path d="M160.49 220.562V219.679L163.163 216.785C163.691 216.223 164.111 215.76 164.422 215.397C164.742 215.033 164.976 214.709 165.123 214.423C165.27 214.138 165.343 213.835 165.343 213.515C165.343 212.987 165.188 212.581 164.876 212.295C164.565 212.01 164.154 211.867 163.643 211.867C163.124 211.867 162.683 212.018 162.32 212.321C161.956 212.615 161.705 213.035 161.567 213.58L160.412 213.281C160.524 212.762 160.732 212.312 161.035 211.932C161.338 211.551 161.714 211.257 162.164 211.049C162.614 210.842 163.107 210.738 163.643 210.738C164.232 210.738 164.746 210.855 165.188 211.088C165.638 211.313 165.988 211.629 166.239 212.035C166.498 212.442 166.628 212.914 166.628 213.45C166.628 213.805 166.555 214.151 166.408 214.488C166.261 214.826 166.044 215.185 165.759 215.565C165.473 215.937 165.101 216.37 164.643 216.863L162.255 219.459H166.836V220.562H160.49ZM172.399 220.718C171.629 220.718 170.954 220.51 170.374 220.095C169.803 219.671 169.357 219.087 169.037 218.343C168.717 217.59 168.557 216.716 168.557 215.721C168.557 214.726 168.717 213.857 169.037 213.113C169.357 212.36 169.803 211.776 170.374 211.361C170.945 210.945 171.616 210.738 172.386 210.738C173.156 210.738 173.826 210.945 174.397 211.361C174.968 211.776 175.414 212.36 175.734 213.113C176.063 213.857 176.227 214.726 176.227 215.721C176.227 216.716 176.067 217.59 175.747 218.343C175.427 219.095 174.977 219.679 174.397 220.095C173.826 220.51 173.16 220.718 172.399 220.718ZM172.399 219.537C172.918 219.537 173.368 219.381 173.748 219.069C174.129 218.749 174.423 218.304 174.631 217.733C174.847 217.162 174.955 216.491 174.955 215.721C174.955 214.951 174.847 214.281 174.631 213.71C174.423 213.139 174.125 212.697 173.735 212.386C173.355 212.074 172.905 211.919 172.386 211.919C171.866 211.919 171.417 212.074 171.036 212.386C170.655 212.697 170.357 213.139 170.14 213.71C169.933 214.281 169.829 214.951 169.829 215.721C169.829 216.483 169.933 217.149 170.14 217.72C170.357 218.291 170.655 218.736 171.036 219.056C171.425 219.377 171.879 219.537 172.399 219.537ZM177.909 220.562V219.679L180.583 216.785C181.111 216.223 181.53 215.76 181.842 215.397C182.162 215.033 182.395 214.709 182.542 214.423C182.69 214.138 182.763 213.835 182.763 213.515C182.763 212.987 182.607 212.581 182.296 212.295C181.984 212.01 181.573 211.867 181.063 211.867C180.544 211.867 180.103 212.018 179.739 212.321C179.376 212.615 179.125 213.035 178.987 213.58L177.832 213.281C177.944 212.762 178.152 212.312 178.454 211.932C178.757 211.551 179.134 211.257 179.584 211.049C180.033 210.842 180.527 210.738 181.063 210.738C181.651 210.738 182.166 210.855 182.607 211.088C183.057 211.313 183.408 211.629 183.659 212.035C183.918 212.442 184.048 212.914 184.048 213.45C184.048 213.805 183.974 214.151 183.827 214.488C183.68 214.826 183.464 215.185 183.178 215.565C182.893 215.937 182.521 216.37 182.062 216.863L179.674 219.459H184.256V220.562H177.909ZM190.288 220.562V218.33H185.539V217.279L190.262 210.893H191.482V217.279H192.741V218.33H191.482V220.562H190.288ZM186.499 217.733L186.317 217.279H190.288V211.958L190.665 212.061L186.499 217.733ZM194.515 217.875V216.746H200.355V217.875H194.515ZM206.325 220.718C205.555 220.718 204.88 220.51 204.301 220.095C203.73 219.671 203.284 219.087 202.964 218.343C202.644 217.59 202.484 216.716 202.484 215.721C202.484 214.726 202.644 213.857 202.964 213.113C203.284 212.36 203.73 211.776 204.301 211.361C204.872 210.945 205.542 210.738 206.312 210.738C207.082 210.738 207.753 210.945 208.324 211.361C208.895 211.776 209.34 212.36 209.661 213.113C209.989 213.857 210.154 214.726 210.154 215.721C210.154 216.716 209.994 217.59 209.674 218.343C209.353 219.095 208.904 219.679 208.324 220.095C207.753 220.51 207.087 220.718 206.325 220.718ZM206.325 219.537C206.844 219.537 207.294 219.381 207.675 219.069C208.056 218.749 208.35 218.304 208.558 217.733C208.774 217.162 208.882 216.491 208.882 215.721C208.882 214.951 208.774 214.281 208.558 213.71C208.35 213.139 208.051 212.697 207.662 212.386C207.281 212.074 206.831 211.919 206.312 211.919C205.793 211.919 205.343 212.074 204.963 212.386C204.582 212.697 204.283 213.139 204.067 213.71C203.86 214.281 203.756 214.951 203.756 215.721C203.756 216.483 203.86 217.149 204.067 217.72C204.283 218.291 204.582 218.736 204.963 219.056C205.352 219.377 205.806 219.537 206.325 219.537ZM215.042 220.718C214.419 220.718 213.865 220.579 213.38 220.302C212.905 220.025 212.528 219.649 212.251 219.173C211.975 218.689 211.836 218.139 211.836 217.525C211.836 217.188 211.875 216.855 211.953 216.526C212.031 216.197 212.156 215.864 212.329 215.527C212.502 215.189 212.723 214.839 212.991 214.475L215.716 210.893H217.248L213.913 215.228L213.679 215.202C213.809 215.029 213.951 214.895 214.107 214.8C214.272 214.705 214.445 214.635 214.626 214.592C214.817 214.549 215.016 214.527 215.223 214.527C215.794 214.527 216.305 214.661 216.755 214.93C217.213 215.189 217.572 215.548 217.832 216.007C218.1 216.465 218.234 216.993 218.234 217.59C218.234 218.187 218.096 218.723 217.819 219.199C217.542 219.666 217.161 220.038 216.677 220.315C216.201 220.584 215.656 220.718 215.042 220.718ZM215.042 219.576C215.405 219.576 215.729 219.493 216.015 219.329C216.3 219.156 216.525 218.918 216.69 218.615C216.863 218.312 216.949 217.975 216.949 217.603C216.949 217.214 216.867 216.876 216.703 216.591C216.538 216.297 216.313 216.063 216.028 215.89C215.742 215.717 215.414 215.63 215.042 215.63C214.678 215.63 214.349 215.717 214.055 215.89C213.761 216.063 213.532 216.297 213.367 216.591C213.203 216.876 213.121 217.214 213.121 217.603C213.121 217.975 213.203 218.312 213.367 218.615C213.541 218.918 213.77 219.156 214.055 219.329C214.349 219.493 214.678 219.576 215.042 219.576ZM220.163 217.875V216.746H226.003V217.875H220.163ZM229.572 220.562V211.997H227.742V210.893H230.857V220.562H229.572ZM234.657 220.562V211.997H232.828V210.893H235.942V220.562H234.657Z" fill="#262535"/>
<path d="M13.9771 30.6951V21.0267H17.4941C18.1429 21.0267 18.714 21.1478 19.2071 21.3901C19.7003 21.6237 20.0853 21.9697 20.3621 22.4283C20.6477 22.8782 20.7904 23.4189 20.7904 24.0505C20.7904 24.7167 20.6217 25.2877 20.2843 25.7636C19.9555 26.2394 19.5099 26.5855 18.9476 26.8018L21.1797 30.6951H19.4407L17.0658 26.4774L18.0651 27.0614H15.5085V30.6951H13.9771ZM15.5085 25.6987H17.52C17.8747 25.6987 18.1819 25.6295 18.4414 25.491C18.701 25.3526 18.9 25.1623 19.0384 24.92C19.1855 24.6691 19.259 24.375 19.259 24.0375C19.259 23.7001 19.1855 23.4103 19.0384 23.168C18.9 22.9171 18.701 22.7268 18.4414 22.597C18.1819 22.4586 17.8747 22.3894 17.52 22.3894H15.5085V25.6987ZM25.3589 30.8509C24.6581 30.8509 24.0352 30.6908 23.4901 30.3707C22.9537 30.0419 22.5341 29.6007 22.2312 29.047C21.9284 28.4846 21.777 27.8573 21.777 27.1652C21.777 26.4557 21.9284 25.8285 22.2312 25.2834C22.5427 24.7383 22.958 24.3101 23.4771 23.9986C23.9962 23.6785 24.5845 23.5184 25.2421 23.5184C25.7699 23.5184 26.2414 23.6093 26.6567 23.791C27.072 23.9726 27.4224 24.2235 27.7079 24.5437C27.9934 24.8551 28.2097 25.2142 28.3568 25.6208C28.5125 26.0275 28.5904 26.46 28.5904 26.9186C28.5904 27.0311 28.586 27.1479 28.5774 27.269C28.5687 27.3901 28.5514 27.5026 28.5255 27.6064H22.932V26.4384H27.6949L26.9941 26.9705C27.0806 26.5466 27.0503 26.1702 26.9032 25.8414C26.7648 25.504 26.5485 25.2401 26.2544 25.0498C25.9688 24.8508 25.6314 24.7513 25.2421 24.7513C24.8528 24.7513 24.5067 24.8508 24.2039 25.0498C23.9011 25.2401 23.6675 25.517 23.5031 25.8804C23.3387 26.2351 23.2738 26.6677 23.3084 27.1782C23.2651 27.654 23.33 28.0693 23.5031 28.424C23.6848 28.7787 23.9357 29.0556 24.2558 29.2546C24.5845 29.4536 24.9566 29.5531 25.3719 29.5531C25.7958 29.5531 26.1549 29.4579 26.449 29.2676C26.7518 29.0772 26.9898 28.8307 27.1628 28.5278L28.3568 29.1118C28.2183 29.4406 28.002 29.7391 27.7079 30.0073C27.4224 30.2669 27.0763 30.4745 26.6696 30.6302C26.2717 30.7773 25.8347 30.8509 25.3589 30.8509ZM33.4866 30.8509C32.7858 30.8509 32.1629 30.6908 31.6178 30.3707C31.0814 30.0419 30.6531 29.6007 30.333 29.047C30.0216 28.4932 29.8658 27.866 29.8658 27.1652C29.8658 26.473 30.0216 25.8501 30.333 25.2964C30.6445 24.7427 31.0728 24.3101 31.6178 23.9986C32.1629 23.6785 32.7858 23.5184 33.4866 23.5184C33.9625 23.5184 34.4081 23.6049 34.8233 23.778C35.2386 23.9424 35.5977 24.1716 35.9005 24.4658C36.212 24.76 36.4412 25.1017 36.5883 25.491L35.3035 26.088C35.1564 25.7246 34.9185 25.4348 34.5897 25.2185C34.2696 24.9936 33.9019 24.8811 33.4866 24.8811C33.0886 24.8811 32.7296 24.9806 32.4095 25.1796C32.098 25.3699 31.8514 25.6424 31.6697 25.9972C31.4881 26.3432 31.3972 26.7369 31.3972 27.1782C31.3972 27.6194 31.4881 28.0174 31.6697 28.3721C31.8514 28.7182 32.098 28.9907 32.4095 29.1897C32.7296 29.3887 33.0886 29.4882 33.4866 29.4882C33.9106 29.4882 34.2783 29.38 34.5897 29.1638C34.9099 28.9388 35.1478 28.6403 35.3035 28.2683L36.5883 28.8782C36.4499 29.2503 36.2249 29.5877 35.9135 29.8905C35.6107 30.1847 35.2516 30.4183 34.8363 30.5913C34.421 30.7643 33.9711 30.8509 33.4866 30.8509ZM41.4478 30.8509C40.747 30.8509 40.1241 30.6908 39.579 30.3707C39.0426 30.0419 38.623 29.6007 38.3201 29.047C38.0173 28.4846 37.8659 27.8573 37.8659 27.1652C37.8659 26.4557 38.0173 25.8285 38.3201 25.2834C38.6316 24.7383 39.0469 24.3101 39.566 23.9986C40.0851 23.6785 40.6734 23.5184 41.331 23.5184C41.8587 23.5184 42.3303 23.6093 42.7456 23.791C43.1609 23.9726 43.5113 24.2235 43.7968 24.5437C44.0823 24.8551 44.2986 25.2142 44.4457 25.6208C44.6014 26.0275 44.6793 26.46 44.6793 26.9186C44.6793 27.0311 44.6749 27.1479 44.6663 27.269C44.6576 27.3901 44.6403 27.5026 44.6144 27.6064H39.0209V26.4384H43.7838L43.083 26.9705C43.1695 26.5466 43.1392 26.1702 42.9921 25.8414C42.8537 25.504 42.6374 25.2401 42.3433 25.0498C42.0577 24.8508 41.7203 24.7513 41.331 24.7513C40.9417 24.7513 40.5956 24.8508 40.2928 25.0498C39.9899 25.2401 39.7563 25.517 39.592 25.8804C39.4276 26.2351 39.3627 26.6677 39.3973 27.1782C39.354 27.654 39.4189 28.0693 39.592 28.424C39.7737 28.7787 40.0246 29.0556 40.3447 29.2546C40.6734 29.4536 41.0455 29.5531 41.4608 29.5531C41.8847 29.5531 42.2438 29.4579 42.5379 29.2676C42.8407 29.0772 43.0787 28.8307 43.2517 28.5278L44.4457 29.1118C44.3072 29.4406 44.0909 29.7391 43.7968 30.0073C43.5113 30.2669 43.1652 30.4745 42.7585 30.6302C42.3606 30.7773 41.9236 30.8509 41.4478 30.8509ZM46.2402 30.6951V23.6742H47.6418V25.0498L47.4731 24.8681C47.6462 24.4269 47.923 24.0938 48.3037 23.8688C48.6844 23.6352 49.1256 23.5184 49.6274 23.5184C50.1465 23.5184 50.6051 23.6309 51.0031 23.8558C51.4011 24.0808 51.7125 24.3923 51.9375 24.7902C52.1624 25.1882 52.2749 25.6468 52.2749 26.1659V30.6951H50.8214V26.5552C50.8214 26.2005 50.7565 25.902 50.6267 25.6598C50.4969 25.4088 50.3109 25.2185 50.0687 25.0887C49.8351 24.9503 49.5669 24.8811 49.2641 24.8811C48.9612 24.8811 48.6887 24.9503 48.4465 25.0887C48.2129 25.2185 48.0312 25.4088 47.9014 25.6598C47.7716 25.9107 47.7067 26.2091 47.7067 26.5552V30.6951H46.2402ZM57.011 30.773C56.2756 30.773 55.7045 30.5654 55.2979 30.1501C54.8913 29.7348 54.688 29.1508 54.688 28.3981V24.9979H53.4551V23.6742H53.6497C53.9785 23.6742 54.2337 23.579 54.4154 23.3886C54.5971 23.1983 54.688 22.9387 54.688 22.61V22.0649H56.1544V23.6742H57.7507V24.9979H56.1544V28.3332C56.1544 28.5754 56.1934 28.7831 56.2712 28.9561C56.3491 29.1205 56.4746 29.2503 56.6476 29.3454C56.8206 29.432 57.0456 29.4752 57.3224 29.4752C57.3917 29.4752 57.4695 29.4709 57.556 29.4622C57.6426 29.4536 57.7248 29.4449 57.8026 29.4363V30.6951C57.6815 30.7124 57.5474 30.7297 57.4003 30.747C57.2532 30.7643 57.1235 30.773 57.011 30.773ZM61.9591 30.8509C61.241 30.8509 60.6094 30.6735 60.0643 30.3188C59.5279 29.964 59.1515 29.4882 58.9352 28.8912L60.0643 28.3591C60.2546 28.7571 60.5142 29.0729 60.843 29.3065C61.1804 29.5401 61.5524 29.6569 61.9591 29.6569C62.3051 29.6569 62.5863 29.579 62.8026 29.4233C63.0189 29.2676 63.1271 29.0556 63.1271 28.7874C63.1271 28.6144 63.0795 28.4759 62.9843 28.3721C62.8891 28.2596 62.768 28.1688 62.6209 28.0996C62.4825 28.0304 62.3397 27.9784 62.1927 27.9438L61.0896 27.6324C60.4839 27.4593 60.0297 27.1998 59.7269 26.8537C59.4327 26.499 59.2856 26.088 59.2856 25.6208C59.2856 25.1969 59.3938 24.8292 59.6101 24.5177C59.8264 24.1976 60.1249 23.951 60.5056 23.778C60.8862 23.6049 61.3145 23.5184 61.7904 23.5184C62.4306 23.5184 63.0016 23.6785 63.5034 23.9986C64.0052 24.3101 64.36 24.747 64.5676 25.3094L63.4385 25.8414C63.3001 25.504 63.0795 25.2358 62.7767 25.0368C62.4825 24.8378 62.1494 24.7383 61.7774 24.7383C61.4573 24.7383 61.202 24.8162 61.0117 24.9719C60.8213 25.119 60.7262 25.3137 60.7262 25.5559C60.7262 25.7203 60.7694 25.8587 60.856 25.9712C60.9425 26.075 61.0549 26.1616 61.1934 26.2308C61.3318 26.2913 61.4746 26.3432 61.6216 26.3865L62.7637 26.7239C63.3434 26.8883 63.7889 27.1479 64.1004 27.5026C64.4119 27.8487 64.5676 28.264 64.5676 28.7485C64.5676 29.1638 64.4551 29.5315 64.2302 29.8516C64.0139 30.163 63.7111 30.4096 63.3217 30.5913C62.9324 30.7643 62.4782 30.8509 61.9591 30.8509ZM67.8188 30.6951L71.219 21.0267H73.1138L76.5139 30.6951H74.8787L74.139 28.5278H70.2067L69.454 30.6951H67.8188ZM70.648 27.1652H73.6718L71.9587 22.1038H72.387L70.648 27.1652ZM80.7298 30.8509C80.029 30.8509 79.4061 30.6908 78.861 30.3707C78.3246 30.0419 77.8963 29.6007 77.5762 29.047C77.2647 28.4932 77.109 27.866 77.109 27.1652C77.109 26.473 77.2647 25.8501 77.5762 25.2964C77.8877 24.7427 78.3159 24.3101 78.861 23.9986C79.4061 23.6785 80.029 23.5184 80.7298 23.5184C81.2056 23.5184 81.6512 23.6049 82.0665 23.778C82.4818 23.9424 82.8409 24.1716 83.1437 24.4658C83.4551 24.76 83.6844 25.1017 83.8315 25.491L82.5467 26.088C82.3996 25.7246 82.1617 25.4348 81.8329 25.2185C81.5128 24.9936 81.1451 24.8811 80.7298 24.8811C80.3318 24.8811 79.9728 24.9806 79.6526 25.1796C79.3412 25.3699 79.0946 25.6424 78.9129 25.9972C78.7312 26.3432 78.6404 26.7369 78.6404 27.1782C78.6404 27.6194 78.7312 28.0174 78.9129 28.3721C79.0946 28.7182 79.3412 28.9907 79.6526 29.1897C79.9728 29.3887 80.3318 29.4882 80.7298 29.4882C81.1537 29.4882 81.5214 29.38 81.8329 29.1638C82.153 28.9388 82.391 28.6403 82.5467 28.2683L83.8315 28.8782C83.6931 29.2503 83.4681 29.5877 83.1566 29.8905C82.8538 30.1847 82.4948 30.4183 82.0795 30.5913C81.6642 30.7643 81.2143 30.8509 80.7298 30.8509ZM88.4314 30.773C87.696 30.773 87.125 30.5654 86.7183 30.1501C86.3117 29.7348 86.1084 29.1508 86.1084 28.3981V24.9979H84.8755V23.6742H85.0702C85.3989 23.6742 85.6542 23.579 85.8358 23.3886C86.0175 23.1983 86.1084 22.9387 86.1084 22.61V22.0649H87.5749V23.6742H89.1711V24.9979H87.5749V28.3332C87.5749 28.5754 87.6138 28.7831 87.6917 28.9561C87.7695 29.1205 87.895 29.2503 88.068 29.3454C88.2411 29.432 88.466 29.4752 88.7429 29.4752C88.8121 29.4752 88.8899 29.4709 88.9765 29.4622C89.063 29.4536 89.1452 29.4449 89.223 29.4363V30.6951C89.1019 30.7124 88.9678 30.7297 88.8207 30.747C88.6736 30.7643 88.5439 30.773 88.4314 30.773ZM90.7839 30.6951V23.6742H92.2504V30.6951H90.7839ZM90.7839 22.7138V21.0267H92.2504V22.7138H90.7839ZM96.1323 30.6951L93.381 23.6742H94.9773L97.0926 29.3974H96.5086L98.624 23.6742H100.233L97.469 30.6951H96.1323ZM101.36 30.6951V23.6742H102.826V30.6951H101.36ZM101.36 22.7138V21.0267H102.826V22.7138H101.36ZM107.707 30.773C106.972 30.773 106.401 30.5654 105.994 30.1501C105.588 29.7348 105.384 29.1508 105.384 28.3981V24.9979H104.152V23.6742H104.346C104.675 23.6742 104.93 23.579 105.112 23.3886C105.294 23.1983 105.384 22.9387 105.384 22.61V22.0649H106.851V23.6742H108.447V24.9979H106.851V28.3332C106.851 28.5754 106.89 28.7831 106.968 28.9561C107.046 29.1205 107.171 29.2503 107.344 29.3454C107.517 29.432 107.742 29.4752 108.019 29.4752C108.088 29.4752 108.166 29.4709 108.253 29.4622C108.339 29.4536 108.421 29.4449 108.499 29.4363V30.6951C108.378 30.7124 108.244 30.7297 108.097 30.747C107.95 30.7643 107.82 30.773 107.707 30.773ZM110.06 30.6951V23.6742H111.526V30.6951H110.06ZM110.06 22.7138V21.0267H111.526V22.7138H110.06ZM116.667 30.8509C115.966 30.8509 115.343 30.6908 114.798 30.3707C114.262 30.0419 113.842 29.6007 113.54 29.047C113.237 28.4846 113.085 27.8573 113.085 27.1652C113.085 26.4557 113.237 25.8285 113.54 25.2834C113.851 24.7383 114.266 24.3101 114.785 23.9986C115.305 23.6785 115.893 23.5184 116.55 23.5184C117.078 23.5184 117.55 23.6093 117.965 23.791C118.38 23.9726 118.731 24.2235 119.016 24.5437C119.302 24.8551 119.518 25.2142 119.665 25.6208C119.821 26.0275 119.899 26.46 119.899 26.9186C119.899 27.0311 119.894 27.1479 119.886 27.269C119.877 27.3901 119.86 27.5026 119.834 27.6064H114.24V26.4384H119.003L118.302 26.9705C118.389 26.5466 118.359 26.1702 118.212 25.8414C118.073 25.504 117.857 25.2401 117.563 25.0498C117.277 24.8508 116.94 24.7513 116.55 24.7513C116.161 24.7513 115.815 24.8508 115.512 25.0498C115.209 25.2401 114.976 25.517 114.811 25.8804C114.647 26.2351 114.582 26.6677 114.617 27.1782C114.573 27.654 114.638 28.0693 114.811 28.424C114.993 28.7787 115.244 29.0556 115.564 29.2546C115.893 29.4536 116.265 29.5531 116.68 29.5531C117.104 29.5531 117.463 29.4579 117.757 29.2676C118.06 29.0772 118.298 28.8307 118.471 28.5278L119.665 29.1118C119.527 29.4406 119.31 29.7391 119.016 30.0073C118.731 30.2669 118.385 30.4745 117.978 30.6302C117.58 30.7773 117.143 30.8509 116.667 30.8509ZM124.055 30.8509C123.337 30.8509 122.706 30.6735 122.16 30.3188C121.624 29.964 121.248 29.4882 121.031 28.8912L122.16 28.3591C122.351 28.7571 122.61 29.0729 122.939 29.3065C123.277 29.5401 123.649 29.6569 124.055 29.6569C124.401 29.6569 124.682 29.579 124.899 29.4233C125.115 29.2676 125.223 29.0556 125.223 28.7874C125.223 28.6144 125.176 28.4759 125.08 28.3721C124.985 28.2596 124.864 28.1688 124.717 28.0996C124.579 28.0304 124.436 27.9784 124.289 27.9438L123.186 27.6324C122.58 27.4593 122.126 27.1998 121.823 26.8537C121.529 26.499 121.382 26.088 121.382 25.6208C121.382 25.1969 121.49 24.8292 121.706 24.5177C121.923 24.1976 122.221 23.951 122.602 23.778C122.982 23.6049 123.411 23.5184 123.886 23.5184C124.527 23.5184 125.098 23.6785 125.6 23.9986C126.101 24.3101 126.456 24.747 126.664 25.3094L125.535 25.8414C125.396 25.504 125.176 25.2358 124.873 25.0368C124.579 24.8378 124.246 24.7383 123.874 24.7383C123.553 24.7383 123.298 24.8162 123.108 24.9719C122.917 25.119 122.822 25.3137 122.822 25.5559C122.822 25.7203 122.866 25.8587 122.952 25.9712C123.039 26.075 123.151 26.1616 123.29 26.2308C123.428 26.2913 123.571 26.3432 123.718 26.3865L124.86 26.7239C125.439 26.8883 125.885 27.1479 126.197 27.5026C126.508 27.8487 126.664 28.264 126.664 28.7485C126.664 29.1638 126.551 29.5315 126.326 29.8516C126.11 30.163 125.807 30.4096 125.418 30.5913C125.029 30.7643 124.574 30.8509 124.055 30.8509Z" fill="#262535"/>
<path d="M232.591 30.6951L229.165 21.0267H230.813L233.616 29.2806H233.292L236.082 21.0267H237.73L234.304 30.6951H232.591ZM238.855 30.6951V23.6742H240.321V30.6951H238.855ZM238.855 22.7138V21.0267H240.321V22.7138H238.855ZM245.462 30.8509C244.761 30.8509 244.138 30.6908 243.593 30.3707C243.057 30.0419 242.637 29.6007 242.334 29.047C242.031 28.4846 241.88 27.8573 241.88 27.1652C241.88 26.4557 242.031 25.8285 242.334 25.2834C242.646 24.7383 243.061 24.3101 243.58 23.9986C244.099 23.6785 244.688 23.5184 245.345 23.5184C245.873 23.5184 246.344 23.6093 246.76 23.791C247.175 23.9726 247.525 24.2235 247.811 24.5437C248.096 24.8551 248.313 25.2142 248.46 25.6208C248.616 26.0275 248.693 26.46 248.693 26.9186C248.693 27.0311 248.689 27.1479 248.68 27.269C248.672 27.3901 248.654 27.5026 248.628 27.6064H243.035V26.4384H247.798L247.097 26.9705C247.184 26.5466 247.153 26.1702 247.006 25.8414C246.868 25.504 246.652 25.2401 246.357 25.0498C246.072 24.8508 245.734 24.7513 245.345 24.7513C244.956 24.7513 244.61 24.8508 244.307 25.0498C244.004 25.2401 243.77 25.517 243.606 25.8804C243.442 26.2351 243.377 26.6677 243.411 27.1782C243.368 27.654 243.433 28.0693 243.606 28.424C243.788 28.7787 244.039 29.0556 244.359 29.2546C244.688 29.4536 245.06 29.5531 245.475 29.5531C245.899 29.5531 246.258 29.4579 246.552 29.2676C246.855 29.0772 247.093 28.8307 247.266 28.5278L248.46 29.1118C248.321 29.4406 248.105 29.7391 247.811 30.0073C247.525 30.2669 247.179 30.4745 246.773 30.6302C246.375 30.7773 245.938 30.8509 245.462 30.8509ZM251.954 30.6951L249.541 23.6742H251.098L252.941 29.2676H252.396L254.277 23.6742H255.614L257.483 29.2676H256.938L258.794 23.6742H260.351L257.924 30.6951H256.601L254.706 24.9719H255.186L253.291 30.6951H251.954ZM263.171 30.6951L266.571 21.0267H268.466L271.866 30.6951H270.231L269.491 28.5278H265.559L264.806 30.6951H263.171ZM266 27.1652H269.024L267.311 22.1038H267.739L266 27.1652ZM273 30.6951V20.871H274.466V30.6951H273ZM276.311 30.6951V20.871H277.777V30.6951H276.311Z" fill="#0074FF"/>
</g>
<defs>
<clipPath id="clip0_213_6133">
<rect width="292" height="724.065" rx="28.4878" fill="white"/>
</clipPath>
</defs>
</svg>
