<svg width="292" height="264" viewBox="0 0 292 264" fill="none" xmlns="http://www.w3.org/2000/svg">
<g clip-path="url(#clip0_213_7000)">
<rect width="292" height="459.561" fill="#F7F9FD"/>
<mask id="path-1-inside-1_213_7000" fill="white">
<path d="M-1036.38 0H712.209V78.1436H-1036.38V0Z"/>
</mask>
<path d="M-1036.38 0H712.209V78.1436H-1036.38V0Z" fill="white"/>
<path d="M712.209 76.9293H-1036.38V79.3579H712.209V76.9293Z" fill="#D7E1F4" mask="url(#path-1-inside-1_213_7000)"/>
<rect x="0.450534" y="20.0359" width="290.072" height="38.0717" rx="19.0358" fill="#0074FF" fill-opacity="0.05"/>
<rect x="0.450534" y="20.0359" width="290.072" height="38.0717" rx="19.0358" stroke="#ADD1FE" stroke-width="1.2143"/>
<path d="M30.9294 38.0853L33.1151 40.2711L37.4866 35.8996M25.1008 31.5281L31.8887 28.1341C33.1194 27.5188 34.568 27.5188 35.7987 28.1341L42.5867 31.5281C42.5867 31.5281 42.5867 37.9105 42.5867 41.2765C42.5867 44.6425 39.4752 46.9147 33.8437 50.4712C28.2123 46.9147 25.1008 43.914 25.1008 41.2765V31.5281Z" stroke="#0074FF" stroke-width="1.82145" stroke-linecap="round" stroke-linejoin="round"/>
<path d="M59.6258 46.5718V32.0973H64.3664C65.8689 32.0973 67.1706 32.4017 68.2716 33.0105C69.3855 33.6063 70.2469 34.4482 70.8556 35.5362C71.4644 36.6242 71.7688 37.8871 71.7688 39.3248C71.7688 40.7496 71.4644 42.0125 70.8556 43.1135C70.2469 44.2015 69.3855 45.0499 68.2716 45.6586C67.1706 46.2674 65.8689 46.5718 64.3664 46.5718H59.6258ZM61.9184 44.5318H64.4053C65.4285 44.5318 66.3158 44.318 67.067 43.8906C67.8312 43.4632 68.4205 42.8609 68.835 42.0837C69.2495 41.3066 69.4567 40.3869 69.4567 39.3248C69.4567 38.2627 69.243 37.3496 68.8156 36.5854C68.4011 35.8082 67.8183 35.2059 67.067 34.7785C66.3158 34.3511 65.4285 34.1373 64.4053 34.1373H61.9184V44.5318ZM77.0598 46.8049C76.3474 46.8049 75.7192 46.6819 75.1752 46.4358C74.6441 46.1767 74.2297 45.827 73.9317 45.3866C73.6338 44.9333 73.4849 44.4022 73.4849 43.7935C73.4849 43.2235 73.6079 42.7119 73.854 42.2586C74.1131 41.8052 74.5081 41.4231 75.0392 41.1123C75.5702 40.8014 76.2373 40.5812 77.0404 40.4517L80.693 39.8494V41.5786L77.4678 42.142C76.8849 42.2456 76.4575 42.4334 76.1855 42.7054C75.9135 42.9645 75.7775 43.3013 75.7775 43.7157C75.7775 44.1173 75.9264 44.4476 76.2243 44.7066C76.5352 44.9527 76.9303 45.0758 77.4095 45.0758C78.0053 45.0758 78.5234 44.9462 78.9638 44.6872C79.4171 44.4281 79.7669 44.0849 80.013 43.6575C80.2591 43.2171 80.3821 42.7314 80.3821 42.2003V39.4997C80.3821 38.9816 80.1878 38.5606 79.7992 38.2368C79.4236 37.9001 78.9185 37.7317 78.2838 37.7317C77.7009 37.7317 77.1893 37.8871 76.7489 38.198C76.3215 38.4959 76.0041 38.8845 75.7969 39.3637L73.9706 38.4505C74.1649 37.9324 74.4822 37.4791 74.9226 37.0905C75.363 36.689 75.8746 36.3781 76.4575 36.1579C77.0533 35.9378 77.6815 35.8277 78.3421 35.8277C79.171 35.8277 79.9029 35.9831 80.5375 36.2939C81.1852 36.6048 81.6838 37.0387 82.0336 37.5957C82.3962 38.1397 82.5776 38.7744 82.5776 39.4997V46.5718H80.4792V44.6678L80.9261 44.726C80.68 45.1535 80.3627 45.5226 79.9741 45.8335C79.5985 46.1443 79.1646 46.384 78.6724 46.5523C78.1931 46.7207 77.6556 46.8049 77.0598 46.8049ZM89.6955 46.6884C88.5945 46.6884 87.7396 46.3775 87.1309 45.7558C86.5221 45.134 86.2177 44.2598 86.2177 43.1329V38.0425H84.372V36.0608H84.6634C85.1556 36.0608 85.5377 35.9183 85.8097 35.6334C86.0817 35.3484 86.2177 34.9598 86.2177 34.4676V33.6516H88.4132V36.0608H90.8029V38.0425H88.4132V43.0357C88.4132 43.3984 88.4715 43.7093 88.588 43.9683C88.7046 44.2144 88.8924 44.4087 89.1515 44.5512C89.4105 44.6807 89.7473 44.7455 90.1618 44.7455C90.2654 44.7455 90.382 44.739 90.5115 44.726C90.641 44.7131 90.7641 44.7001 90.8806 44.6872V46.5718C90.6993 46.5977 90.4985 46.6236 90.2783 46.6495C90.0581 46.6754 89.8639 46.6884 89.6955 46.6884ZM96.27 46.8049C95.5576 46.8049 94.9294 46.6819 94.3854 46.4358C93.8544 46.1767 93.4399 45.827 93.142 45.3866C92.8441 44.9333 92.6951 44.4022 92.6951 43.7935C92.6951 43.2235 92.8181 42.7119 93.0642 42.2586C93.3233 41.8052 93.7183 41.4231 94.2494 41.1123C94.7805 40.8014 95.4475 40.5812 96.2506 40.4517L99.9032 39.8494V41.5786L96.678 42.142C96.0951 42.2456 95.6677 42.4334 95.3957 42.7054C95.1237 42.9645 94.9877 43.3013 94.9877 43.7157C94.9877 44.1173 95.1367 44.4476 95.4346 44.7066C95.7454 44.9527 96.1405 45.0758 96.6197 45.0758C97.2155 45.0758 97.7336 44.9462 98.174 44.6872C98.6274 44.4281 98.9771 44.0849 99.2232 43.6575C99.4693 43.2171 99.5923 42.7314 99.5923 42.2003V39.4997C99.5923 38.9816 99.398 38.5606 99.0095 38.2368C98.6338 37.9001 98.1287 37.7317 97.494 37.7317C96.9111 37.7317 96.3995 37.8871 95.9591 38.198C95.5317 38.4959 95.2144 38.8845 95.0071 39.3637L93.1808 38.4505C93.3751 37.9324 93.6924 37.4791 94.1328 37.0905C94.5732 36.689 95.0848 36.3781 95.6677 36.1579C96.2635 35.9378 96.8917 35.8277 97.5523 35.8277C98.3813 35.8277 99.1131 35.9831 99.7478 36.2939C100.395 36.6048 100.894 37.0387 101.244 37.5957C101.606 38.1397 101.788 38.7744 101.788 39.4997V46.5718H99.6895V44.6678L100.136 44.726C99.8902 45.1535 99.5729 45.5226 99.1843 45.8335C98.8087 46.1443 98.3748 46.384 97.8826 46.5523C97.4033 46.7207 96.8658 46.8049 96.27 46.8049ZM104.879 42.278V40.3351H112.651V42.278H104.879ZM115.962 46.5718V32.0973H118.254V44.5318H124.51V46.5718H115.962ZM131.351 46.8049C130.301 46.8049 129.369 46.5653 128.553 46.0861C127.75 45.5939 127.122 44.9333 126.668 44.1043C126.215 43.2624 125.988 42.3233 125.988 41.2871C125.988 40.225 126.215 39.286 126.668 38.47C127.134 37.654 127.756 37.0128 128.533 36.5465C129.31 36.0673 130.191 35.8277 131.176 35.8277C131.966 35.8277 132.672 35.9637 133.293 36.2357C133.915 36.5077 134.44 36.8833 134.867 37.3625C135.295 37.8288 135.618 38.3663 135.839 38.9751C136.072 39.5839 136.188 40.2315 136.188 40.918C136.188 41.0864 136.182 41.2612 136.169 41.4426C136.156 41.6239 136.13 41.7923 136.091 41.9477H127.717V40.1991H134.848L133.799 40.9957C133.928 40.361 133.883 39.7976 133.663 39.3054C133.455 38.8003 133.131 38.4052 132.691 38.1203C132.264 37.8223 131.759 37.6734 131.176 37.6734C130.593 37.6734 130.075 37.8223 129.621 38.1203C129.168 38.4052 128.818 38.8197 128.572 39.3637C128.326 39.8947 128.229 40.5424 128.281 41.3066C128.216 42.019 128.313 42.6407 128.572 43.1717C128.844 43.7028 129.22 44.1173 129.699 44.4152C130.191 44.7131 130.748 44.862 131.37 44.862C132.005 44.862 132.542 44.7196 132.983 44.4346C133.436 44.1497 133.792 43.7805 134.051 43.3272L135.839 44.2015C135.631 44.6937 135.308 45.1405 134.867 45.5421C134.44 45.9306 133.922 46.2415 133.313 46.4746C132.717 46.6948 132.063 46.8049 131.351 46.8049ZM141.578 46.8049C140.865 46.8049 140.237 46.6819 139.693 46.4358C139.162 46.1767 138.748 45.827 138.45 45.3866C138.152 44.9333 138.003 44.4022 138.003 43.7935C138.003 43.2235 138.126 42.7119 138.372 42.2586C138.631 41.8052 139.026 41.4231 139.557 41.1123C140.088 40.8014 140.755 40.5812 141.558 40.4517L145.211 39.8494V41.5786L141.986 42.142C141.403 42.2456 140.975 42.4334 140.703 42.7054C140.431 42.9645 140.295 43.3013 140.295 43.7157C140.295 44.1173 140.444 44.4476 140.742 44.7066C141.053 44.9527 141.448 45.0758 141.928 45.0758C142.523 45.0758 143.041 44.9462 143.482 44.6872C143.935 44.4281 144.285 44.0849 144.531 43.6575C144.777 43.2171 144.9 42.7314 144.9 42.2003V39.4997C144.9 38.9816 144.706 38.5606 144.317 38.2368C143.942 37.9001 143.436 37.7317 142.802 37.7317C142.219 37.7317 141.707 37.8871 141.267 38.198C140.839 38.4959 140.522 38.8845 140.315 39.3637L138.489 38.4505C138.683 37.9324 139 37.4791 139.441 37.0905C139.881 36.689 140.393 36.3781 140.975 36.1579C141.571 35.9378 142.2 35.8277 142.86 35.8277C143.689 35.8277 144.421 35.9831 145.056 36.2939C145.703 36.6048 146.202 37.0387 146.552 37.5957C146.914 38.1397 147.096 38.7744 147.096 39.4997V46.5718H144.997V44.6678L145.444 44.726C145.198 45.1535 144.881 45.5226 144.492 45.8335C144.116 46.1443 143.683 46.384 143.19 46.5523C142.711 46.7207 142.174 46.8049 141.578 46.8049ZM149.857 46.5718V31.8642H152.052V41.7146L151.197 41.5009L156.463 36.0608H159.202L155.239 40.2768L159.377 46.5718H156.851L153.16 40.9957L154.462 40.8209L151.353 44.1237L152.052 42.6666V46.5718H149.857Z" fill="#262535"/>
<rect x="170.451" y="24.893" width="115.214" height="28.3573" rx="14.1786" fill="white"/>
<rect x="170.451" y="24.893" width="115.214" height="28.3573" rx="14.1786" stroke="#ADD1FE" stroke-width="1.2143"/>
<path d="M185.737 44.7466C184.969 44.7466 184.255 44.6058 183.595 44.3241C182.944 44.0423 182.376 43.6538 181.89 43.1583C181.414 42.6532 181.04 42.0606 180.768 41.3806C180.496 40.7006 180.36 39.9526 180.36 39.1366C180.36 38.3303 180.491 37.5871 180.753 36.9071C181.025 36.2174 181.404 35.6248 181.89 35.1294C182.376 34.6242 182.944 34.2357 183.595 33.9637C184.246 33.6819 184.96 33.5411 185.737 33.5411C186.504 33.5411 187.189 33.6722 187.792 33.9345C188.404 34.1968 188.918 34.5417 189.336 34.9691C189.754 35.3868 190.055 35.8434 190.24 36.3388L188.695 37.0674C188.462 36.4845 188.088 36.0134 187.573 35.654C187.068 35.2848 186.456 35.1002 185.737 35.1002C185.018 35.1002 184.382 35.2702 183.828 35.6102C183.274 35.9503 182.842 36.4214 182.531 37.0237C182.23 37.626 182.079 38.3303 182.079 39.1366C182.079 39.9429 182.23 40.652 182.531 41.264C182.842 41.8663 183.274 42.3375 183.828 42.6775C184.382 43.0078 185.018 43.1729 185.737 43.1729C186.456 43.1729 187.068 42.9932 187.573 42.6338C188.088 42.2743 188.462 41.8032 188.695 41.2203L190.24 41.9489C190.055 42.4346 189.754 42.8912 189.336 43.3186C188.918 43.7461 188.404 44.0909 187.792 44.3532C187.189 44.6155 186.504 44.7466 185.737 44.7466ZM195.654 44.7466C194.896 44.7466 194.202 44.5669 193.57 44.2075C192.949 43.8481 192.453 43.3575 192.084 42.7358C191.715 42.114 191.53 41.4097 191.53 40.6229C191.53 39.8263 191.715 39.122 192.084 38.51C192.453 37.8883 192.949 37.4026 193.57 37.0528C194.192 36.6934 194.887 36.5137 195.654 36.5137C196.431 36.5137 197.126 36.6934 197.738 37.0528C198.359 37.4026 198.85 37.8883 199.209 38.51C199.579 39.122 199.763 39.8263 199.763 40.6229C199.763 41.4195 199.579 42.1286 199.209 42.7503C198.84 43.372 198.345 43.8626 197.723 44.2221C197.101 44.5718 196.412 44.7466 195.654 44.7466ZM195.654 43.2166C196.12 43.2166 196.533 43.1049 196.893 42.8815C197.252 42.658 197.534 42.352 197.738 41.9635C197.951 41.5652 198.058 41.1183 198.058 40.6229C198.058 40.1274 197.951 39.6854 197.738 39.2969C197.534 38.9083 197.252 38.6023 196.893 38.3788C196.533 38.1554 196.12 38.0437 195.654 38.0437C195.197 38.0437 194.785 38.1554 194.415 38.3788C194.056 38.6023 193.769 38.9083 193.556 39.2969C193.352 39.6854 193.25 40.1274 193.25 40.6229C193.25 41.1183 193.352 41.5652 193.556 41.9635C193.769 42.352 194.056 42.658 194.415 42.8815C194.785 43.1049 195.197 43.2166 195.654 43.2166ZM201.516 44.5718V36.6885H203.09V38.3934L202.886 38.1311C203.051 37.5968 203.352 37.1937 203.79 36.9217C204.227 36.6497 204.727 36.5137 205.291 36.5137C205.922 36.5137 206.481 36.6837 206.966 37.0237C207.462 37.354 207.792 37.796 207.957 38.3497L207.491 38.3934C207.724 37.762 208.079 37.2908 208.555 36.98C209.04 36.6691 209.594 36.5137 210.216 36.5137C210.76 36.5137 211.25 36.64 211.687 36.8925C212.134 37.1451 212.489 37.4948 212.751 37.9417C213.013 38.3886 213.145 38.8986 213.145 39.4717V44.5718H211.498V39.9234C211.498 39.5251 211.425 39.19 211.279 38.918C211.143 38.6363 210.949 38.4226 210.697 38.2768C210.454 38.1214 210.167 38.0437 209.837 38.0437C209.507 38.0437 209.215 38.1214 208.963 38.2768C208.71 38.4226 208.511 38.6363 208.365 38.918C208.219 39.1997 208.147 39.5349 208.147 39.9234V44.5718H206.515V39.9234C206.515 39.5251 206.442 39.19 206.296 38.918C206.16 38.6363 205.966 38.4226 205.713 38.2768C205.47 38.1214 205.179 38.0437 204.839 38.0437C204.509 38.0437 204.217 38.1214 203.965 38.2768C203.712 38.4226 203.513 38.6363 203.367 38.918C203.231 39.1997 203.163 39.5349 203.163 39.9234V44.5718H201.516ZM215.053 44.5718V36.6885H216.699V44.5718H215.053ZM215.053 35.6102V33.7159H216.699V35.6102H215.053ZM218.77 44.5718V36.6885H220.344V38.2331L220.154 38.0291C220.349 37.5337 220.66 37.1597 221.087 36.9071C221.514 36.6448 222.01 36.5137 222.573 36.5137C223.156 36.5137 223.671 36.64 224.118 36.8925C224.565 37.1451 224.915 37.4948 225.167 37.9417C225.42 38.3886 225.546 38.9034 225.546 39.4863V44.5718H223.914V39.9234C223.914 39.5251 223.841 39.19 223.695 38.918C223.55 38.6363 223.341 38.4226 223.069 38.2768C222.806 38.1214 222.505 38.0437 222.165 38.0437C221.825 38.0437 221.519 38.1214 221.247 38.2768C220.985 38.4226 220.781 38.6363 220.635 38.918C220.49 39.1997 220.417 39.5349 220.417 39.9234V44.5718H218.77ZM231.257 47.7775C230.684 47.7775 230.155 47.6852 229.669 47.5007C229.183 47.3161 228.765 47.0587 228.416 46.7284C228.066 46.4078 227.804 46.0289 227.629 45.5918L229.144 44.9652C229.28 45.3344 229.528 45.6404 229.887 45.8832C230.257 46.1261 230.708 46.2475 231.243 46.2475C231.66 46.2475 232.034 46.1649 232.365 45.9998C232.695 45.8444 232.957 45.6112 233.151 45.3004C233.346 44.9992 233.443 44.6349 233.443 44.2075V42.4298L233.734 42.7649C233.462 43.27 233.083 43.6538 232.598 43.9161C232.122 44.1783 231.583 44.3095 230.98 44.3095C230.252 44.3095 229.596 44.1395 229.013 43.7995C228.43 43.4595 227.969 42.9932 227.629 42.4006C227.298 41.808 227.133 41.1426 227.133 40.4043C227.133 39.6563 227.298 38.9909 227.629 38.408C227.969 37.8251 228.425 37.3637 228.999 37.0237C229.572 36.6837 230.227 36.5137 230.966 36.5137C231.568 36.5137 232.102 36.6448 232.569 36.9071C233.045 37.1597 233.433 37.5288 233.734 38.0146L233.516 38.4226V36.6885H235.075V44.2075C235.075 44.8875 234.91 45.4946 234.579 46.0289C234.259 46.5729 233.812 47.0004 233.239 47.3112C232.666 47.6221 232.005 47.7775 231.257 47.7775ZM231.17 42.7795C231.607 42.7795 231.995 42.6775 232.335 42.4735C232.675 42.2598 232.943 41.978 233.137 41.6283C233.341 41.2689 233.443 40.8657 233.443 40.4189C233.443 39.972 233.341 39.5689 233.137 39.2094C232.933 38.85 232.661 38.5683 232.321 38.3643C231.981 38.1506 231.597 38.0437 231.17 38.0437C230.723 38.0437 230.325 38.1506 229.975 38.3643C229.625 38.5683 229.348 38.85 229.144 39.2094C228.95 39.5591 228.853 39.9623 228.853 40.4189C228.853 40.856 228.95 41.2543 229.144 41.6137C229.348 41.9732 229.625 42.2598 229.975 42.4735C230.325 42.6775 230.723 42.7795 231.17 42.7795ZM243.804 44.7466C243.124 44.7466 242.493 44.6203 241.91 44.3678C241.327 44.1055 240.832 43.7509 240.424 43.304C240.016 42.8572 239.715 42.3423 239.52 41.7595L240.977 41.1475C241.24 41.8177 241.624 42.3326 242.129 42.692C242.634 43.0515 243.217 43.2312 243.877 43.2312C244.266 43.2312 244.606 43.1729 244.897 43.0563C245.189 42.93 245.412 42.7552 245.568 42.5318C245.733 42.3083 245.815 42.0509 245.815 41.7595C245.815 41.3612 245.704 41.0455 245.48 40.8123C245.257 40.5792 244.926 40.3946 244.489 40.2586L242.449 39.6174C241.633 39.3649 241.011 38.9811 240.584 38.4663C240.157 37.9417 239.943 37.3297 239.943 36.6303C239.943 36.0183 240.093 35.484 240.395 35.0274C240.696 34.5611 241.109 34.1968 241.633 33.9345C242.168 33.6722 242.775 33.5411 243.455 33.5411C244.106 33.5411 244.698 33.6577 245.232 33.8908C245.767 34.1142 246.223 34.4251 246.602 34.8234C246.991 35.2217 247.272 35.6831 247.447 36.2077L246.019 36.8343C245.806 36.2611 245.47 35.8191 245.014 35.5082C244.567 35.1974 244.047 35.042 243.455 35.042C243.095 35.042 242.78 35.1051 242.508 35.2314C242.236 35.348 242.022 35.5228 241.866 35.756C241.721 35.9794 241.648 36.2417 241.648 36.5428C241.648 36.8925 241.76 37.2034 241.983 37.4754C242.206 37.7474 242.546 37.9514 243.003 38.0874L244.897 38.6849C245.762 38.9471 246.413 39.326 246.85 39.8214C247.287 40.3072 247.506 40.9143 247.506 41.6429C247.506 42.2452 247.345 42.7795 247.025 43.2458C246.714 43.7121 246.282 44.0812 245.728 44.3532C245.174 44.6155 244.533 44.7466 243.804 44.7466ZM253.224 44.7466C252.467 44.7466 251.772 44.5669 251.141 44.2075C250.519 43.8481 250.023 43.3575 249.654 42.7358C249.285 42.114 249.101 41.4097 249.101 40.6229C249.101 39.8263 249.285 39.122 249.654 38.51C250.023 37.8883 250.519 37.4026 251.141 37.0528C251.762 36.6934 252.457 36.5137 253.224 36.5137C254.001 36.5137 254.696 36.6934 255.308 37.0528C255.93 37.4026 256.42 37.8883 256.78 38.51C257.149 39.122 257.334 39.8263 257.334 40.6229C257.334 41.4195 257.149 42.1286 256.78 42.7503C256.411 43.372 255.915 43.8626 255.294 44.2221C254.672 44.5718 253.982 44.7466 253.224 44.7466ZM253.224 43.2166C253.691 43.2166 254.103 43.1049 254.463 42.8815C254.822 42.658 255.104 42.352 255.308 41.9635C255.522 41.5652 255.629 41.1183 255.629 40.6229C255.629 40.1274 255.522 39.6854 255.308 39.2969C255.104 38.9083 254.822 38.6023 254.463 38.3788C254.103 38.1554 253.691 38.0437 253.224 38.0437C252.768 38.0437 252.355 38.1554 251.986 38.3788C251.626 38.6023 251.34 38.9083 251.126 39.2969C250.922 39.6854 250.82 40.1274 250.82 40.6229C250.82 41.1183 250.922 41.5652 251.126 41.9635C251.34 42.352 251.626 42.658 251.986 42.8815C252.355 43.1049 252.768 43.2166 253.224 43.2166ZM262.89 44.7466C262.132 44.7466 261.438 44.5669 260.806 44.2075C260.185 43.8481 259.689 43.3575 259.32 42.7358C258.951 42.114 258.766 41.4097 258.766 40.6229C258.766 39.8263 258.951 39.122 259.32 38.51C259.689 37.8883 260.185 37.4026 260.806 37.0528C261.428 36.6934 262.123 36.5137 262.89 36.5137C263.667 36.5137 264.362 36.6934 264.974 37.0528C265.595 37.4026 266.086 37.8883 266.445 38.51C266.815 39.122 266.999 39.8263 266.999 40.6229C266.999 41.4195 266.815 42.1286 266.445 42.7503C266.076 43.372 265.581 43.8626 264.959 44.2221C264.337 44.5718 263.648 44.7466 262.89 44.7466ZM262.89 43.2166C263.356 43.2166 263.769 43.1049 264.129 42.8815C264.488 42.658 264.77 42.352 264.974 41.9635C265.187 41.5652 265.294 41.1183 265.294 40.6229C265.294 40.1274 265.187 39.6854 264.974 39.2969C264.77 38.9083 264.488 38.6023 264.129 38.3788C263.769 38.1554 263.356 38.0437 262.89 38.0437C262.433 38.0437 262.021 38.1554 261.651 38.3788C261.292 38.6023 261.005 38.9083 260.792 39.2969C260.588 39.6854 260.486 40.1274 260.486 40.6229C260.486 41.1183 260.588 41.5652 260.792 41.9635C261.005 42.352 261.292 42.658 261.651 42.8815C262.021 43.1049 262.433 43.2166 262.89 43.2166ZM268.752 44.5718V36.6885H270.326V38.2331L270.137 38.0291C270.331 37.5337 270.642 37.1597 271.069 36.9071C271.497 36.6448 271.992 36.5137 272.556 36.5137C273.138 36.5137 273.653 36.64 274.1 36.8925C274.547 37.1451 274.897 37.4948 275.149 37.9417C275.402 38.3886 275.528 38.9034 275.528 39.4863V44.5718H273.896V39.9234C273.896 39.5251 273.823 39.19 273.678 38.918C273.532 38.6363 273.323 38.4226 273.051 38.2768C272.789 38.1214 272.488 38.0437 272.148 38.0437C271.808 38.0437 271.502 38.1214 271.23 38.2768C270.967 38.4226 270.763 38.6363 270.618 38.918C270.472 39.1997 270.399 39.5349 270.399 39.9234V44.5718H268.752Z" fill="#0074FF"/>
<g filter="url(#filter0_d_213_7000)">
<rect x="-582.864" y="169.292" width="776.016" height="138.615" rx="69.3074" fill="white"/>
<rect x="-581.953" y="170.203" width="774.194" height="136.793" rx="68.3967" stroke="#D7E1F4" stroke-width="1.82145"/>
</g>
<g filter="url(#filter1_d_213_7000)">
<rect x="202.866" y="208.242" width="68.0008" height="60.715" rx="30.3575" fill="white"/>
<rect x="203.777" y="209.153" width="66.1793" height="58.8935" rx="29.4468" stroke="#D7E1F4" stroke-width="1.82145"/>
</g>
</g>
<defs>
<filter id="filter0_d_213_7000" x="-619.293" y="154.72" width="848.874" height="211.473" filterUnits="userSpaceOnUse" color-interpolation-filters="sRGB">
<feFlood flood-opacity="0" result="BackgroundImageFix"/>
<feColorMatrix in="SourceAlpha" type="matrix" values="0 0 0 0 0 0 0 0 0 0 0 0 0 0 0 0 0 0 127 0" result="hardAlpha"/>
<feOffset dy="21.8574"/>
<feGaussianBlur stdDeviation="18.2145"/>
<feComposite in2="hardAlpha" operator="out"/>
<feColorMatrix type="matrix" values="0 0 0 0 0.899792 0 0 0 0 0.938333 0 0 0 0 0.976875 0 0 0 1 0"/>
<feBlend mode="normal" in2="BackgroundImageFix" result="effect1_dropShadow_213_7000"/>
<feBlend mode="normal" in="SourceGraphic" in2="effect1_dropShadow_213_7000" result="shape"/>
</filter>
<filter id="filter1_d_213_7000" x="166.437" y="193.671" width="140.859" height="133.573" filterUnits="userSpaceOnUse" color-interpolation-filters="sRGB">
<feFlood flood-opacity="0" result="BackgroundImageFix"/>
<feColorMatrix in="SourceAlpha" type="matrix" values="0 0 0 0 0 0 0 0 0 0 0 0 0 0 0 0 0 0 127 0" result="hardAlpha"/>
<feOffset dy="21.8574"/>
<feGaussianBlur stdDeviation="18.2145"/>
<feComposite in2="hardAlpha" operator="out"/>
<feColorMatrix type="matrix" values="0 0 0 0 0.899792 0 0 0 0 0.938333 0 0 0 0 0.976875 0 0 0 1 0"/>
<feBlend mode="normal" in2="BackgroundImageFix" result="effect1_dropShadow_213_7000"/>
<feBlend mode="normal" in="SourceGraphic" in2="effect1_dropShadow_213_7000" result="shape"/>
</filter>
<clipPath id="clip0_213_7000">
<rect width="292" height="459.561" fill="white"/>
</clipPath>
</defs>
</svg>
