<svg width="237" height="373" viewBox="0 0 237 373" fill="none" xmlns="http://www.w3.org/2000/svg">
<g clip-path="url(#clip0_213_6555)">
<rect width="237" height="373" fill="#F7F9FD"/>
<mask id="path-1-inside-1_213_6555" fill="white">
<path d="M-841.173 0H578.06V63.2501H-841.173V0Z"/>
</mask>
<path d="M-841.173 0H578.06V63.2501H-841.173V0Z" fill="white"/>
<path d="M578.06 62.2645H-841.173V64.2357H578.06V62.2645Z" fill="#D7E1F4" mask="url(#path-1-inside-1_213_6555)"/>
<rect x="0.292045" y="16.2621" width="235.918" height="30.726" rx="15.363" fill="#0074FF" fill-opacity="0.05"/>
<rect x="0.292045" y="16.2621" width="235.918" height="30.726" rx="15.363" stroke="#ADD1FE" stroke-width="0.985579"/>
<path d="M25.0301 30.8244L26.8041 32.5984L30.3522 29.0504M20.2993 25.5023L25.8087 22.7476C26.8076 22.2481 27.9834 22.2481 28.9822 22.7476L34.4917 25.5023C34.4917 25.5023 34.4917 30.6825 34.4917 33.4145C34.4917 36.1465 31.9662 37.9907 27.3955 40.8773C22.8248 37.9907 20.2993 35.5552 20.2993 33.4145V25.5023Z" stroke="#0074FF" stroke-width="1.47837" stroke-linecap="round" stroke-linejoin="round"/>
<path d="M48.3213 37.6251V25.877H52.169C53.3885 25.877 54.445 26.124 55.3386 26.6181C56.2427 27.1017 56.9418 27.785 57.4359 28.6681C57.93 29.5512 58.1771 30.5762 58.1771 31.7431C58.1771 32.8995 57.93 33.9245 57.4359 34.8181C56.9418 35.7012 56.2427 36.3898 55.3386 36.8839C54.445 37.378 53.3885 37.6251 52.169 37.6251H48.3213ZM50.1821 35.9693H52.2005C53.031 35.9693 53.7512 35.7958 54.3609 35.4489C54.9812 35.102 55.4595 34.6131 55.7959 33.9824C56.1323 33.3516 56.3005 32.6052 56.3005 31.7431C56.3005 30.8811 56.1271 30.1399 55.7801 29.5197C55.4437 28.8889 54.9707 28.4 54.3609 28.0531C53.7512 27.7062 53.031 27.5327 52.2005 27.5327H50.1821V35.9693ZM62.4715 37.8143C61.8933 37.8143 61.3834 37.7144 60.9419 37.5147C60.5108 37.3044 60.1744 37.0206 59.9326 36.6631C59.6908 36.2952 59.5699 35.8642 59.5699 35.3701C59.5699 34.9075 59.6698 34.4922 59.8696 34.1243C60.0798 33.7563 60.4005 33.4462 60.8315 33.1939C61.2625 32.9416 61.8039 32.7629 62.4557 32.6577L65.4203 32.1689V33.5724L62.8026 34.0297C62.3296 34.1138 61.9826 34.2662 61.7619 34.487C61.5411 34.6972 61.4307 34.9706 61.4307 35.307C61.4307 35.6329 61.5516 35.901 61.7934 36.1112C62.0457 36.311 62.3664 36.4108 62.7553 36.4108C63.2389 36.4108 63.6594 36.3057 64.0169 36.0954C64.3848 35.8852 64.6687 35.6066 64.8684 35.2597C65.0682 34.9022 65.168 34.508 65.168 34.077V31.8851C65.168 31.4645 65.0103 31.1229 64.695 30.86C64.3901 30.5867 63.9801 30.45 63.465 30.45C62.9919 30.45 62.5766 30.5762 62.2192 30.8285C61.8723 31.0703 61.6147 31.3857 61.4465 31.7747L59.9642 31.0335C60.1219 30.613 60.3794 30.245 60.7369 29.9297C61.0943 29.6038 61.5096 29.3515 61.9826 29.1727C62.4662 28.994 62.9761 28.9047 63.5123 28.9047C64.1851 28.9047 64.7791 29.0308 65.2942 29.2831C65.8198 29.5354 66.2246 29.8876 66.5084 30.3397C66.8028 30.7812 66.95 31.2963 66.95 31.8851V37.6251H65.2469V36.0797L65.6096 36.127C65.4098 36.4739 65.1523 36.7735 64.8369 37.0258C64.532 37.2781 64.1798 37.4726 63.7803 37.6093C63.3914 37.746 62.9551 37.8143 62.4715 37.8143ZM72.7272 37.7197C71.8336 37.7197 71.1397 37.4674 70.6456 36.9628C70.1515 36.4581 69.9045 35.7485 69.9045 34.8339V30.7024H68.4064V29.0939H68.6429C69.0424 29.0939 69.3526 28.9783 69.5733 28.747C69.7941 28.5157 69.9045 28.2003 69.9045 27.8008V27.1385H71.6864V29.0939H73.626V30.7024H71.6864V34.7551C71.6864 35.0494 71.7337 35.3017 71.8283 35.512C71.9229 35.7117 72.0754 35.8694 72.2856 35.9851C72.4959 36.0902 72.7692 36.1428 73.1056 36.1428C73.1897 36.1428 73.2844 36.1375 73.3895 36.127C73.4946 36.1165 73.5945 36.106 73.6891 36.0954V37.6251C73.5419 37.6461 73.379 37.6671 73.2003 37.6881C73.0215 37.7092 72.8638 37.7197 72.7272 37.7197ZM78.0633 37.8143C77.4851 37.8143 76.9753 37.7144 76.5337 37.5147C76.1027 37.3044 75.7663 37.0206 75.5245 36.6631C75.2827 36.2952 75.1618 35.8642 75.1618 35.3701C75.1618 34.9075 75.2617 34.4922 75.4614 34.1243C75.6717 33.7563 75.9923 33.4462 76.4233 33.1939C76.8544 32.9416 77.3958 32.7629 78.0476 32.6577L81.0122 32.1689V33.5724L78.3945 34.0297C77.9214 34.1138 77.5745 34.2662 77.3537 34.487C77.133 34.6972 77.0226 34.9706 77.0226 35.307C77.0226 35.6329 77.1435 35.901 77.3853 36.1112C77.6376 36.311 77.9582 36.4108 78.3472 36.4108C78.8308 36.4108 79.2513 36.3057 79.6087 36.0954C79.9767 35.8852 80.2605 35.6066 80.4603 35.2597C80.66 34.9022 80.7599 34.508 80.7599 34.077V31.8851C80.7599 31.4645 80.6022 31.1229 80.2868 30.86C79.9819 30.5867 79.5719 30.45 79.0568 30.45C78.5837 30.45 78.1685 30.5762 77.811 30.8285C77.4641 31.0703 77.2065 31.3857 77.0383 31.7747L75.556 31.0335C75.7137 30.613 75.9713 30.245 76.3287 29.9297C76.6862 29.6038 77.1014 29.3515 77.5745 29.1727C78.0581 28.994 78.568 28.9047 79.1041 28.9047C79.7769 28.9047 80.3709 29.0308 80.886 29.2831C81.4117 29.5354 81.8164 29.8876 82.1003 30.3397C82.3946 30.7812 82.5418 31.2963 82.5418 31.8851V37.6251H80.8387V36.0797L81.2014 36.127C81.0017 36.4739 80.7441 36.7735 80.4287 37.0258C80.1239 37.2781 79.7717 37.4726 79.3722 37.6093C78.9832 37.746 78.5469 37.8143 78.0633 37.8143ZM85.0511 34.1401V32.5631H91.3588V34.1401H85.0511ZM94.046 37.6251V25.877H95.9068V35.9693H100.984V37.6251H94.046ZM106.536 37.8143C105.685 37.8143 104.928 37.6198 104.265 37.2308C103.614 36.8313 103.104 36.2952 102.736 35.6224C102.368 34.939 102.184 34.1768 102.184 33.3358C102.184 32.4738 102.368 31.7116 102.736 31.0493C103.114 30.387 103.619 29.8666 104.25 29.4881C104.88 29.0991 105.595 28.9047 106.394 28.9047C107.036 28.9047 107.609 29.015 108.113 29.2358C108.618 29.4566 109.044 29.7615 109.39 30.1504C109.737 30.5289 110 30.9652 110.179 31.4593C110.368 31.9534 110.463 32.479 110.463 33.0362C110.463 33.1729 110.458 33.3148 110.447 33.462C110.436 33.6092 110.415 33.7458 110.384 33.872H103.587V32.4527H109.375L108.523 33.0993C108.628 32.5842 108.591 32.1268 108.413 31.7274C108.245 31.3174 107.982 30.9967 107.624 30.7654C107.277 30.5236 106.867 30.4027 106.394 30.4027C105.921 30.4027 105.501 30.5236 105.133 30.7654C104.765 30.9967 104.481 31.3331 104.281 31.7747C104.081 32.2057 104.003 32.7313 104.045 33.3516C103.992 33.9298 104.071 34.4344 104.281 34.8654C104.502 35.2965 104.807 35.6329 105.196 35.8747C105.595 36.1165 106.047 36.2374 106.552 36.2374C107.067 36.2374 107.503 36.1217 107.861 35.8904C108.229 35.6592 108.518 35.3595 108.728 34.9916L110.179 35.7012C110.011 36.1007 109.748 36.4634 109.39 36.7893C109.044 37.1047 108.623 37.357 108.129 37.5462C107.645 37.7249 107.114 37.8143 106.536 37.8143ZM114.837 37.8143C114.259 37.8143 113.749 37.7144 113.308 37.5147C112.876 37.3044 112.54 37.0206 112.298 36.6631C112.056 36.2952 111.936 35.8642 111.936 35.3701C111.936 34.9075 112.035 34.4922 112.235 34.1243C112.445 33.7563 112.766 33.4462 113.197 33.1939C113.628 32.9416 114.17 32.7629 114.821 32.6577L117.786 32.1689V33.5724L115.168 34.0297C114.695 34.1138 114.348 34.2662 114.128 34.487C113.907 34.6972 113.796 34.9706 113.796 35.307C113.796 35.6329 113.917 35.901 114.159 36.1112C114.411 36.311 114.732 36.4108 115.121 36.4108C115.605 36.4108 116.025 36.3057 116.383 36.0954C116.75 35.8852 117.034 35.6066 117.234 35.2597C117.434 34.9022 117.534 34.508 117.534 34.077V31.8851C117.534 31.4645 117.376 31.1229 117.061 30.86C116.756 30.5867 116.346 30.45 115.831 30.45C115.358 30.45 114.942 30.5762 114.585 30.8285C114.238 31.0703 113.98 31.3857 113.812 31.7747L112.33 31.0335C112.488 30.613 112.745 30.245 113.103 29.9297C113.46 29.6038 113.875 29.3515 114.348 29.1727C114.832 28.994 115.342 28.9047 115.878 28.9047C116.551 28.9047 117.145 29.0308 117.66 29.2831C118.185 29.5354 118.59 29.8876 118.874 30.3397C119.168 30.7812 119.316 31.2963 119.316 31.8851V37.6251H117.613V36.0797L117.975 36.127C117.775 36.4739 117.518 36.7735 117.203 37.0258C116.898 37.2781 116.545 37.4726 116.146 37.6093C115.757 37.746 115.321 37.8143 114.837 37.8143ZM121.557 37.6251V25.6877H123.339V33.6827L122.645 33.5093L126.918 29.0939H129.142L125.925 32.5158L129.284 37.6251H127.234L124.238 33.0993L125.294 32.9574L122.771 35.6381L123.339 34.4554V37.6251H121.557Z" fill="#262535"/>
<rect x="138.484" y="20.2044" width="93.7837" height="22.8414" rx="11.4207" fill="white"/>
<rect x="138.484" y="20.2044" width="93.7837" height="22.8414" rx="11.4207" stroke="#ADD1FE" stroke-width="0.985579"/>
<path d="M150.891 36.767C150.268 36.767 149.689 36.6527 149.152 36.4241C148.624 36.1954 148.163 35.88 147.769 35.4779C147.382 35.0679 147.079 34.5869 146.858 34.035C146.637 33.4831 146.527 32.876 146.527 32.2137C146.527 31.5592 146.633 30.9561 146.846 30.4041C147.067 29.8443 147.374 29.3634 147.769 28.9613C148.163 28.5513 148.624 28.2359 149.152 28.0151C149.681 27.7865 150.26 27.6721 150.891 27.6721C151.514 27.6721 152.07 27.7786 152.559 27.9915C153.055 28.2043 153.473 28.4842 153.812 28.8312C154.151 29.1702 154.396 29.5408 154.545 29.9429L153.292 30.5342C153.103 30.0612 152.799 29.6788 152.381 29.387C151.971 29.0874 151.474 28.9376 150.891 28.9376C150.308 28.9376 149.791 29.0756 149.342 29.3516C148.892 29.6275 148.541 30.0099 148.289 30.4988C148.045 30.9876 147.922 31.5592 147.922 32.2137C147.922 32.8681 148.045 33.4437 148.289 33.9404C148.541 34.4293 148.892 34.8117 149.342 35.0876C149.791 35.3557 150.308 35.4897 150.891 35.4897C151.474 35.4897 151.971 35.3439 152.381 35.0521C152.799 34.7604 153.103 34.378 153.292 33.9049L154.545 34.4963C154.396 34.8905 154.151 35.2611 153.812 35.608C153.473 35.9549 153.055 36.2348 152.559 36.4477C152.07 36.6606 151.514 36.767 150.891 36.767ZM158.94 36.767C158.325 36.767 157.761 36.6212 157.249 36.3294C156.744 36.0377 156.342 35.6395 156.043 35.1349C155.743 34.6303 155.593 34.0587 155.593 33.42C155.593 32.7735 155.743 32.2018 156.043 31.7051C156.342 31.2005 156.744 30.8063 157.249 30.5224C157.753 30.2307 158.317 30.0848 158.94 30.0848C159.571 30.0848 160.135 30.2307 160.631 30.5224C161.136 30.8063 161.534 31.2005 161.826 31.7051C162.126 32.2018 162.275 32.7735 162.275 33.42C162.275 34.0666 162.126 34.6421 161.826 35.1468C161.526 35.6514 161.124 36.0495 160.62 36.3413C160.115 36.6251 159.555 36.767 158.94 36.767ZM158.94 35.5252C159.319 35.5252 159.654 35.4345 159.945 35.2532C160.237 35.0718 160.466 34.8235 160.631 34.5081C160.805 34.1848 160.892 33.8221 160.892 33.42C160.892 33.0179 160.805 32.6592 160.631 32.3438C160.466 32.0284 160.237 31.78 159.945 31.5987C159.654 31.4173 159.319 31.3267 158.94 31.3267C158.57 31.3267 158.234 31.4173 157.935 31.5987C157.643 31.78 157.411 32.0284 157.237 32.3438C157.071 32.6592 156.989 33.0179 156.989 33.42C156.989 33.8221 157.071 34.1848 157.237 34.5081C157.411 34.8235 157.643 35.0718 157.935 35.2532C158.234 35.4345 158.57 35.5252 158.94 35.5252ZM163.698 36.6251V30.2267H164.976V31.6105L164.81 31.3976C164.944 30.964 165.189 30.6367 165.543 30.416C165.898 30.1952 166.304 30.0848 166.762 30.0848C167.274 30.0848 167.727 30.2228 168.122 30.4988C168.524 30.7668 168.792 31.1256 168.926 31.575L168.547 31.6105C168.737 31.098 169.024 30.7156 169.411 30.4633C169.805 30.211 170.254 30.0848 170.759 30.0848C171.201 30.0848 171.599 30.1873 171.954 30.3923C172.316 30.5973 172.604 30.8812 172.817 31.2439C173.03 31.6066 173.136 32.0205 173.136 32.4857V36.6251H171.8V32.8523C171.8 32.5291 171.741 32.257 171.622 32.0363C171.512 31.8076 171.354 31.6342 171.149 31.5159C170.952 31.3897 170.72 31.3267 170.452 31.3267C170.183 31.3267 169.947 31.3897 169.742 31.5159C169.537 31.6342 169.375 31.8076 169.257 32.0363C169.139 32.2649 169.08 32.5369 169.08 32.8523V36.6251H167.755V32.8523C167.755 32.5291 167.696 32.257 167.578 32.0363C167.467 31.8076 167.31 31.6342 167.105 31.5159C166.907 31.3897 166.671 31.3267 166.395 31.3267C166.127 31.3267 165.89 31.3897 165.685 31.5159C165.48 31.6342 165.319 31.8076 165.2 32.0363C165.09 32.2649 165.035 32.5369 165.035 32.8523V36.6251H163.698ZM174.685 36.6251V30.2267H176.021V36.6251H174.685ZM174.685 29.3516V27.814H176.021V29.3516H174.685ZM177.702 36.6251V30.2267H178.979V31.4804L178.826 31.3148C178.983 30.9127 179.236 30.6091 179.583 30.4041C179.93 30.1913 180.332 30.0848 180.789 30.0848C181.262 30.0848 181.68 30.1873 182.043 30.3923C182.405 30.5973 182.689 30.8812 182.894 31.2439C183.099 31.6066 183.202 32.0244 183.202 32.4975V36.6251H181.877V32.8523C181.877 32.5291 181.818 32.257 181.7 32.0363C181.581 31.8076 181.412 31.6342 181.191 31.5159C180.978 31.3897 180.734 31.3267 180.458 31.3267C180.182 31.3267 179.934 31.3897 179.713 31.5159C179.5 31.6342 179.334 31.8076 179.216 32.0363C179.098 32.2649 179.039 32.5369 179.039 32.8523V36.6251H177.702ZM187.837 39.227C187.372 39.227 186.942 39.1521 186.548 39.0023C186.154 38.8525 185.815 38.6436 185.531 38.3755C185.247 38.1153 185.034 37.8078 184.892 37.453L186.122 36.9444C186.233 37.2441 186.434 37.4924 186.725 37.6895C187.025 37.8867 187.392 37.9852 187.825 37.9852C188.164 37.9852 188.468 37.9182 188.736 37.7842C189.004 37.658 189.217 37.4688 189.375 37.2165C189.532 36.972 189.611 36.6764 189.611 36.3294V34.8866L189.848 35.1586C189.627 35.5686 189.319 35.88 188.925 36.0929C188.539 36.3058 188.101 36.4122 187.612 36.4122C187.021 36.4122 186.489 36.2743 186.016 35.9983C185.543 35.7223 185.168 35.3439 184.892 34.8629C184.624 34.3819 184.49 33.8418 184.49 33.2426C184.49 32.6355 184.624 32.0954 184.892 31.6223C185.168 31.1492 185.539 30.7747 186.004 30.4988C186.469 30.2228 187.001 30.0848 187.601 30.0848C188.089 30.0848 188.523 30.1913 188.902 30.4041C189.288 30.6091 189.603 30.9088 189.848 31.303L189.67 31.6342V30.2267H190.936V36.3294C190.936 36.8814 190.802 37.3742 190.534 37.8078C190.273 38.2494 189.911 38.5963 189.446 38.8486C188.98 39.1009 188.444 39.227 187.837 39.227ZM187.766 35.1704C188.121 35.1704 188.436 35.0876 188.712 34.922C188.988 34.7486 189.205 34.5199 189.363 34.2361C189.528 33.9443 189.611 33.6171 189.611 33.2544C189.611 32.8917 189.528 32.5645 189.363 32.2728C189.197 31.9811 188.976 31.7524 188.701 31.5868C188.425 31.4134 188.113 31.3267 187.766 31.3267C187.403 31.3267 187.08 31.4134 186.796 31.5868C186.513 31.7524 186.288 31.9811 186.122 32.2728C185.965 32.5567 185.886 32.8839 185.886 33.2544C185.886 33.6093 185.965 33.9325 186.122 34.2243C186.288 34.516 186.513 34.7486 186.796 34.922C187.08 35.0876 187.403 35.1704 187.766 35.1704ZM198.021 36.767C197.469 36.767 196.957 36.6645 196.484 36.4595C196.01 36.2467 195.608 35.9589 195.277 35.5962C194.946 35.2335 194.702 34.8156 194.544 34.3425L195.727 33.8458C195.94 34.3898 196.251 34.8077 196.661 35.0994C197.071 35.3912 197.544 35.537 198.08 35.537C198.396 35.537 198.672 35.4897 198.908 35.3951C199.145 35.2926 199.326 35.1507 199.452 34.9693C199.586 34.788 199.653 34.5791 199.653 34.3425C199.653 34.0193 199.563 33.763 199.381 33.5738C199.2 33.3845 198.932 33.2347 198.577 33.1243L196.921 32.604C196.259 32.399 195.754 32.0875 195.407 31.6696C195.06 31.2439 194.887 30.7471 194.887 30.1794C194.887 29.6827 195.009 29.2491 195.254 28.8785C195.498 28.5 195.833 28.2043 196.259 27.9915C196.693 27.7786 197.185 27.6721 197.737 27.6721C198.265 27.6721 198.746 27.7667 199.18 27.956C199.614 28.1373 199.984 28.3896 200.292 28.7129C200.607 29.0362 200.836 29.4107 200.978 29.8365L199.819 30.345C199.645 29.8798 199.373 29.5211 199.003 29.2688C198.64 29.0165 198.218 28.8903 197.737 28.8903C197.445 28.8903 197.189 28.9416 196.968 29.0441C196.748 29.1387 196.574 29.2806 196.448 29.4698C196.33 29.6512 196.271 29.8641 196.271 30.1085C196.271 30.3923 196.361 30.6446 196.543 30.8654C196.724 31.0862 197 31.2517 197.371 31.3621L198.908 31.847C199.61 32.0599 200.138 32.3674 200.493 32.7695C200.848 33.1638 201.025 33.6566 201.025 34.2479C201.025 34.7368 200.895 35.1704 200.635 35.5489C200.383 35.9273 200.032 36.2269 199.582 36.4477C199.133 36.6606 198.612 36.767 198.021 36.767ZM205.667 36.767C205.052 36.767 204.488 36.6212 203.975 36.3294C203.471 36.0377 203.069 35.6395 202.769 35.1349C202.47 34.6303 202.32 34.0587 202.32 33.42C202.32 32.7735 202.47 32.2018 202.769 31.7051C203.069 31.2005 203.471 30.8063 203.975 30.5224C204.48 30.2307 205.044 30.0848 205.667 30.0848C206.297 30.0848 206.861 30.2307 207.358 30.5224C207.863 30.8063 208.261 31.2005 208.552 31.7051C208.852 32.2018 209.002 32.7735 209.002 33.42C209.002 34.0666 208.852 34.6421 208.552 35.1468C208.253 35.6514 207.851 36.0495 207.346 36.3413C206.842 36.6251 206.282 36.767 205.667 36.767ZM205.667 35.5252C206.045 35.5252 206.38 35.4345 206.672 35.2532C206.964 35.0718 207.192 34.8235 207.358 34.5081C207.531 34.1848 207.618 33.8221 207.618 33.42C207.618 33.0179 207.531 32.6592 207.358 32.3438C207.192 32.0284 206.964 31.78 206.672 31.5987C206.38 31.4173 206.045 31.3267 205.667 31.3267C205.296 31.3267 204.961 31.4173 204.661 31.5987C204.37 31.78 204.137 32.0284 203.964 32.3438C203.798 32.6592 203.715 33.0179 203.715 33.42C203.715 33.8221 203.798 34.1848 203.964 34.5081C204.137 34.8235 204.37 35.0718 204.661 35.2532C204.961 35.4345 205.296 35.5252 205.667 35.5252ZM213.512 36.767C212.897 36.767 212.333 36.6212 211.821 36.3294C211.316 36.0377 210.914 35.6395 210.614 35.1349C210.315 34.6303 210.165 34.0587 210.165 33.42C210.165 32.7735 210.315 32.2018 210.614 31.7051C210.914 31.2005 211.316 30.8063 211.821 30.5224C212.325 30.2307 212.889 30.0848 213.512 30.0848C214.143 30.0848 214.706 30.2307 215.203 30.5224C215.708 30.8063 216.106 31.2005 216.398 31.7051C216.697 32.2018 216.847 32.7735 216.847 33.42C216.847 34.0666 216.697 34.6421 216.398 35.1468C216.098 35.6514 215.696 36.0495 215.191 36.3413C214.687 36.6251 214.127 36.767 213.512 36.767ZM213.512 35.5252C213.89 35.5252 214.225 35.4345 214.517 35.2532C214.809 35.0718 215.037 34.8235 215.203 34.5081C215.376 34.1848 215.463 33.8221 215.463 33.42C215.463 33.0179 215.376 32.6592 215.203 32.3438C215.037 32.0284 214.809 31.78 214.517 31.5987C214.225 31.4173 213.89 31.3267 213.512 31.3267C213.141 31.3267 212.806 31.4173 212.506 31.5987C212.215 31.78 211.982 32.0284 211.809 32.3438C211.643 32.6592 211.56 33.0179 211.56 33.42C211.56 33.8221 211.643 34.1848 211.809 34.5081C211.982 34.8235 212.215 35.0718 212.506 35.2532C212.806 35.4345 213.141 35.5252 213.512 35.5252ZM218.27 36.6251V30.2267H219.547V31.4804L219.394 31.3148C219.551 30.9127 219.804 30.6091 220.15 30.4041C220.497 30.1913 220.9 30.0848 221.357 30.0848C221.83 30.0848 222.248 30.1873 222.61 30.3923C222.973 30.5973 223.257 30.8812 223.462 31.2439C223.667 31.6066 223.77 32.0244 223.77 32.4975V36.6251H222.445V32.8523C222.445 32.5291 222.386 32.257 222.267 32.0363C222.149 31.8076 221.98 31.6342 221.759 31.5159C221.546 31.3897 221.302 31.3267 221.026 31.3267C220.75 31.3267 220.501 31.3897 220.281 31.5159C220.068 31.6342 219.902 31.8076 219.784 32.0363C219.666 32.2649 219.606 32.5369 219.606 32.8523V36.6251H218.27Z" fill="#0074FF"/>
<g filter="url(#filter0_d_213_6555)">
<rect x="-473.078" y="137.405" width="629.848" height="112.506" rx="56.2529" fill="white"/>
<rect x="-472.339" y="138.144" width="628.37" height="111.027" rx="55.5137" stroke="#D7E1F4" stroke-width="1.47837"/>
</g>
<g filter="url(#filter1_d_213_6555)">
<rect x="164.655" y="169.018" width="55.1924" height="49.2789" rx="24.6395" fill="white"/>
<rect x="165.394" y="169.757" width="53.714" height="47.8006" rx="23.9003" stroke="#D7E1F4" stroke-width="1.47837"/>
</g>
</g>
<defs>
<filter id="filter0_d_213_6555" x="-502.645" y="125.578" width="688.983" height="171.641" filterUnits="userSpaceOnUse" color-interpolation-filters="sRGB">
<feFlood flood-opacity="0" result="BackgroundImageFix"/>
<feColorMatrix in="SourceAlpha" type="matrix" values="0 0 0 0 0 0 0 0 0 0 0 0 0 0 0 0 0 0 127 0" result="hardAlpha"/>
<feOffset dy="17.7404"/>
<feGaussianBlur stdDeviation="14.7837"/>
<feComposite in2="hardAlpha" operator="out"/>
<feColorMatrix type="matrix" values="0 0 0 0 0.899792 0 0 0 0 0.938333 0 0 0 0 0.976875 0 0 0 1 0"/>
<feBlend mode="normal" in2="BackgroundImageFix" result="effect1_dropShadow_213_6555"/>
<feBlend mode="normal" in="SourceGraphic" in2="effect1_dropShadow_213_6555" result="shape"/>
</filter>
<filter id="filter1_d_213_6555" x="135.088" y="157.191" width="114.327" height="108.414" filterUnits="userSpaceOnUse" color-interpolation-filters="sRGB">
<feFlood flood-opacity="0" result="BackgroundImageFix"/>
<feColorMatrix in="SourceAlpha" type="matrix" values="0 0 0 0 0 0 0 0 0 0 0 0 0 0 0 0 0 0 127 0" result="hardAlpha"/>
<feOffset dy="17.7404"/>
<feGaussianBlur stdDeviation="14.7837"/>
<feComposite in2="hardAlpha" operator="out"/>
<feColorMatrix type="matrix" values="0 0 0 0 0.899792 0 0 0 0 0.938333 0 0 0 0 0.976875 0 0 0 1 0"/>
<feBlend mode="normal" in2="BackgroundImageFix" result="effect1_dropShadow_213_6555"/>
<feBlend mode="normal" in="SourceGraphic" in2="effect1_dropShadow_213_6555" result="shape"/>
</filter>
<clipPath id="clip0_213_6555">
<rect width="237" height="373" fill="white"/>
</clipPath>
</defs>
</svg>
