<svg width="292" height="120" viewBox="0 0 292 120" fill="none" xmlns="http://www.w3.org/2000/svg">
<rect y="0.102051" width="292" height="213.619" rx="18.0619" fill="#F7F9FD"/>
<path d="M19.3623 31.1641V17.708H21.7103L26.7496 24.5534H25.6297L30.5606 17.708H32.9087V31.1641H30.4342V20.5076L31.3915 20.7424L26.28 27.5517H25.991L21.0059 20.7424L21.8187 20.5076V31.1641H19.3623ZM38.446 31.3808C37.7597 31.3808 37.1637 31.2664 36.6579 31.0376C36.1522 30.8088 35.7608 30.4837 35.4839 30.0623C35.2069 29.6288 35.0685 29.1291 35.0685 28.5632C35.0685 28.0213 35.1889 27.5397 35.4297 27.1182C35.6705 26.6847 36.0438 26.3235 36.5495 26.0345C37.0553 25.7455 37.6935 25.5408 38.4641 25.4204L41.6791 24.8966V26.7028L38.9157 27.1724C38.446 27.2567 38.0968 27.4072 37.8681 27.6239C37.6393 27.8407 37.5249 28.1237 37.5249 28.4728C37.5249 28.81 37.6513 29.0809 37.9042 29.2856C38.1691 29.4783 38.4942 29.5746 38.8795 29.5746C39.3732 29.5746 39.8067 29.4723 40.18 29.2676C40.5653 29.0508 40.8603 28.7558 41.065 28.3825C41.2818 28.0093 41.3901 27.5999 41.3901 27.1543V24.6257C41.3901 24.2042 41.2215 23.855 40.8844 23.5781C40.5593 23.2891 40.1258 23.1446 39.5839 23.1446C39.0782 23.1446 38.6267 23.2831 38.2293 23.56C37.844 23.8249 37.561 24.1801 37.3804 24.6257L35.4478 23.6865C35.6404 23.1687 35.9415 22.7232 36.3509 22.3499C36.7723 21.9646 37.266 21.6635 37.8319 21.4468C38.3979 21.23 39.012 21.1217 39.6742 21.1217C40.481 21.1217 41.1914 21.2722 41.8055 21.5732C42.4197 21.8622 42.8953 22.2716 43.2324 22.8014C43.5816 23.3192 43.7562 23.9273 43.7562 24.6257V31.1641H41.5166V29.4843L42.0223 29.4482C41.7694 29.8696 41.4684 30.2248 41.1192 30.5138C40.77 30.7908 40.3726 31.0075 39.9271 31.1641C39.4816 31.3086 38.9879 31.3808 38.446 31.3808ZM46.1237 31.1641V21.3384H48.3454V23.271L48.1647 22.9279C48.3935 22.3378 48.7668 21.8923 49.2846 21.5913C49.8144 21.2782 50.4285 21.1217 51.1269 21.1217C51.8494 21.1217 52.4875 21.2782 53.0414 21.5913C53.6074 21.9044 54.0469 22.3439 54.3599 22.9098C54.673 23.4637 54.8296 24.1079 54.8296 24.8424V31.1641H52.4635V25.4023C52.4635 24.9688 52.3792 24.5956 52.2106 24.2825C52.042 23.9694 51.8072 23.7286 51.5062 23.56C51.2172 23.3794 50.874 23.2891 50.4766 23.2891C50.0913 23.2891 49.7482 23.3794 49.4471 23.56C49.1461 23.7286 48.9113 23.9694 48.7427 24.2825C48.5741 24.5956 48.4898 24.9688 48.4898 25.4023V31.1641H46.1237ZM59.9912 31.3808C59.3048 31.3808 58.7088 31.2664 58.203 31.0376C57.6973 30.8088 57.306 30.4837 57.029 30.0623C56.7521 29.6288 56.6136 29.1291 56.6136 28.5632C56.6136 28.0213 56.734 27.5397 56.9748 27.1182C57.2157 26.6847 57.5889 26.3235 58.0947 26.0345C58.6004 25.7455 59.2386 25.5408 60.0092 25.4204L63.2242 24.8966V26.7028L60.4608 27.1724C59.9912 27.2567 59.642 27.4072 59.4132 27.6239C59.1844 27.8407 59.07 28.1237 59.07 28.4728C59.07 28.81 59.1964 29.0809 59.4493 29.2856C59.7142 29.4783 60.0393 29.5746 60.4246 29.5746C60.9183 29.5746 61.3518 29.4723 61.7251 29.2676C62.1104 29.0508 62.4054 28.7558 62.6101 28.3825C62.8269 28.0093 62.9352 27.5999 62.9352 27.1543V24.6257C62.9352 24.2042 62.7667 23.855 62.4295 23.5781C62.1044 23.2891 61.6709 23.1446 61.1291 23.1446C60.6233 23.1446 60.1718 23.2831 59.7744 23.56C59.3891 23.8249 59.1061 24.1801 58.9255 24.6257L56.9929 23.6865C57.1855 23.1687 57.4866 22.7232 57.896 22.3499C58.3174 21.9646 58.8111 21.6635 59.3771 21.4468C59.943 21.23 60.5571 21.1217 61.2194 21.1217C62.0261 21.1217 62.7366 21.2722 63.3507 21.5732C63.9648 21.8622 64.4404 22.2716 64.7775 22.8014C65.1267 23.3192 65.3013 23.9273 65.3013 24.6257V31.1641H63.0617V29.4843L63.5674 29.4482C63.3145 29.8696 63.0135 30.2248 62.6643 30.5138C62.3151 30.7908 61.9178 31.0075 61.4722 31.1641C61.0267 31.3086 60.533 31.3808 59.9912 31.3808ZM72.4372 35.1377C71.7027 35.1377 71.0223 35.0173 70.3962 34.7764C69.7701 34.5356 69.2282 34.1985 68.7706 33.765C68.3251 33.3435 68 32.8438 67.7953 32.2658L69.9988 31.435C70.1433 31.8926 70.4263 32.2598 70.8477 32.5368C71.2812 32.8258 71.811 32.9702 72.4372 32.9702C72.9188 32.9702 73.3403 32.8799 73.7015 32.6993C74.0748 32.5187 74.3638 32.2538 74.5685 31.9046C74.7732 31.5674 74.8755 31.158 74.8755 30.6764V28.4367L75.3271 28.9786C74.9899 29.5686 74.5384 30.0141 73.9724 30.3152C73.4065 30.6162 72.7623 30.7667 72.0398 30.7667C71.1247 30.7667 70.3059 30.556 69.5834 30.1345C68.8609 29.7131 68.295 29.1351 67.8856 28.4006C67.4762 27.6661 67.2715 26.8413 67.2715 25.9261C67.2715 24.9989 67.4762 24.1741 67.8856 23.4516C68.295 22.7292 68.8549 22.1632 69.5653 21.7538C70.2758 21.3324 71.0825 21.1217 71.9856 21.1217C72.7202 21.1217 73.3644 21.2782 73.9183 21.5913C74.4842 21.8923 74.9538 22.3318 75.3271 22.9098L75.002 23.5058V21.3384H77.2416V30.6764C77.2416 31.5313 77.0309 32.2959 76.6095 32.9702C76.2001 33.6446 75.6341 34.1744 74.9117 34.5597C74.2012 34.945 73.3764 35.1377 72.4372 35.1377ZM72.3288 28.5812C72.8345 28.5812 73.2741 28.4728 73.6473 28.2561C74.0326 28.0273 74.3337 27.7142 74.5504 27.3169C74.7672 26.9195 74.8755 26.462 74.8755 25.9442C74.8755 25.4385 74.7611 24.9869 74.5324 24.5895C74.3156 24.1801 74.0146 23.8611 73.6293 23.6323C73.256 23.4035 72.8225 23.2891 72.3288 23.2891C71.8351 23.2891 71.3896 23.4035 70.9922 23.6323C70.5949 23.8611 70.2818 24.1801 70.053 24.5895C69.8363 24.9869 69.7279 25.4385 69.7279 25.9442C69.7279 26.4499 69.8363 26.9015 70.053 27.2988C70.2818 27.6962 70.5889 28.0093 70.9742 28.238C71.3715 28.4668 71.8231 28.5812 72.3288 28.5812ZM84.292 31.3808C83.2805 31.3808 82.3955 31.152 81.6369 30.6945C80.8783 30.2369 80.2883 29.6168 79.8668 28.8341C79.4454 28.0514 79.2347 27.1844 79.2347 26.2332C79.2347 25.2458 79.4454 24.3728 79.8668 23.6142C80.3003 22.8436 80.8843 22.2355 81.6188 21.79C82.3654 21.3444 83.1962 21.1217 84.1114 21.1217C84.882 21.1217 85.5563 21.2481 86.1343 21.501C86.7243 21.7538 87.224 22.103 87.6334 22.5486C88.0428 22.9941 88.3559 23.5058 88.5726 24.0838C88.7894 24.6498 88.8977 25.2639 88.8977 25.9261C88.8977 26.0947 88.8857 26.2693 88.8616 26.4499C88.8496 26.6305 88.8195 26.7871 88.7713 26.9195H81.1853V25.1133H87.4347L86.3149 25.9622C86.4233 25.4084 86.3932 24.9147 86.2246 24.4812C86.0681 24.0477 85.8031 23.7045 85.4299 23.4516C85.0686 23.1988 84.6291 23.0724 84.1114 23.0724C83.6177 23.0724 83.1782 23.1988 82.7928 23.4516C82.4075 23.6925 82.1125 24.0537 81.9078 24.5354C81.7151 25.005 81.6429 25.5769 81.6911 26.2512C81.6429 26.8533 81.7212 27.3891 81.9259 27.8587C82.1426 28.3163 82.4557 28.6715 82.8651 28.9244C83.2865 29.1773 83.7682 29.3037 84.31 29.3037C84.8519 29.3037 85.3095 29.1893 85.6827 28.9605C86.0681 28.7317 86.3691 28.4247 86.5858 28.0394L88.5004 28.9786C88.3077 29.4482 88.0067 29.8636 87.5973 30.2248C87.1879 30.5861 86.7002 30.8691 86.1343 31.0738C85.5804 31.2785 84.9663 31.3808 84.292 31.3808ZM94.4615 31.1641V17.708H99.4827C100.398 17.708 101.205 17.8766 101.903 18.2137C102.613 18.5388 103.167 19.0205 103.565 19.6587C103.962 20.2848 104.161 21.0494 104.161 21.9525C104.161 22.8436 103.956 23.6082 103.547 24.2464C103.149 24.8725 102.601 25.3542 101.903 25.6913C101.205 26.0285 100.398 26.1971 99.4827 26.1971H96.9179V31.1641H94.4615ZM96.9179 24.0296H99.5188C99.9643 24.0296 100.35 23.9453 100.675 23.7768C101 23.5961 101.253 23.3493 101.433 23.0362C101.614 22.7232 101.704 22.3619 101.704 21.9525C101.704 21.5311 101.614 21.1698 101.433 20.8688C101.253 20.5557 101 20.3149 100.675 20.1463C100.35 19.9657 99.9643 19.8754 99.5188 19.8754H96.9179V24.0296ZM110.463 31.3808C109.451 31.3808 108.566 31.152 107.808 30.6945C107.049 30.2369 106.459 29.6168 106.037 28.8341C105.616 28.0514 105.405 27.1844 105.405 26.2332C105.405 25.2458 105.616 24.3728 106.037 23.6142C106.471 22.8436 107.055 22.2355 107.789 21.79C108.536 21.3444 109.367 21.1217 110.282 21.1217C111.053 21.1217 111.727 21.2481 112.305 21.501C112.895 21.7538 113.395 22.103 113.804 22.5486C114.213 22.9941 114.527 23.5058 114.743 24.0838C114.96 24.6498 115.068 25.2639 115.068 25.9261C115.068 26.0947 115.056 26.2693 115.032 26.4499C115.02 26.6305 114.99 26.7871 114.942 26.9195H107.356V25.1133H113.605L112.486 25.9622C112.594 25.4084 112.564 24.9147 112.395 24.4812C112.239 24.0477 111.974 23.7045 111.601 23.4516C111.239 23.1988 110.8 23.0724 110.282 23.0724C109.788 23.0724 109.349 23.1988 108.963 23.4516C108.578 23.6925 108.283 24.0537 108.078 24.5354C107.886 25.005 107.814 25.5769 107.862 26.2512C107.814 26.8533 107.892 27.3891 108.097 27.8587C108.313 28.3163 108.626 28.6715 109.036 28.9244C109.457 29.1773 109.939 29.3037 110.481 29.3037C111.023 29.3037 111.48 29.1893 111.853 28.9605C112.239 28.7317 112.54 28.4247 112.756 28.0394L114.671 28.9786C114.478 29.4482 114.177 29.8636 113.768 30.2248C113.359 30.5861 112.871 30.8691 112.305 31.0738C111.751 31.2785 111.137 31.3808 110.463 31.3808ZM117.043 31.1641V21.3384H119.264V23.5239L119.084 23.1988C119.312 22.4643 119.668 21.9525 120.149 21.6635C120.643 21.3745 121.233 21.23 121.919 21.23H122.497V23.3252H121.648C120.974 23.3252 120.432 23.5359 120.023 23.9574C119.613 24.3668 119.409 24.9448 119.409 25.6913V31.1641H117.043ZM123.979 31.1641V21.3384H126.2V23.6142L125.948 23.2349C126.128 22.5245 126.489 21.9947 127.031 21.6455C127.573 21.2963 128.211 21.1217 128.946 21.1217C129.753 21.1217 130.463 21.3324 131.077 21.7538C131.691 22.1753 132.089 22.7292 132.269 23.4155L131.601 23.4697C131.902 22.687 132.353 22.103 132.956 21.7177C133.558 21.3204 134.25 21.1217 135.033 21.1217C135.731 21.1217 136.351 21.2782 136.893 21.5913C137.447 21.9044 137.88 22.3439 138.193 22.9098C138.507 23.4637 138.663 24.1079 138.663 24.8424V31.1641H136.297V25.4023C136.297 24.9688 136.219 24.5956 136.062 24.2825C135.906 23.9694 135.689 23.7286 135.412 23.56C135.135 23.3794 134.798 23.2891 134.4 23.2891C134.027 23.2891 133.696 23.3794 133.407 23.56C133.118 23.7286 132.895 23.9694 132.739 24.2825C132.582 24.5956 132.504 24.9688 132.504 25.4023V31.1641H130.138V25.4023C130.138 24.9688 130.06 24.5956 129.903 24.2825C129.747 23.9694 129.524 23.7286 129.235 23.56C128.958 23.3794 128.627 23.2891 128.241 23.2891C127.868 23.2891 127.537 23.3794 127.248 23.56C126.959 23.7286 126.736 23.9694 126.58 24.2825C126.423 24.5956 126.345 24.9688 126.345 25.4023V31.1641H123.979ZM140.845 31.1641V21.3384H143.212V31.1641H140.845ZM140.845 20.2366V17.708H143.212V20.2366H140.845ZM149.316 31.3808C148.268 31.3808 147.353 31.134 146.57 30.6403C145.8 30.1345 145.27 29.4542 144.981 28.5993L146.751 27.7504C147.004 28.3043 147.353 28.7378 147.798 29.0508C148.256 29.3639 148.762 29.5204 149.316 29.5204C149.749 29.5204 150.092 29.4241 150.345 29.2314C150.598 29.0388 150.724 28.7859 150.724 28.4728C150.724 28.2802 150.67 28.1237 150.562 28.0032C150.466 27.8708 150.327 27.7624 150.146 27.6781C149.978 27.5818 149.791 27.5035 149.587 27.4433L147.979 26.9918C147.148 26.7509 146.516 26.3837 146.083 25.89C145.661 25.3963 145.45 24.8123 145.45 24.138C145.45 23.5359 145.601 23.0121 145.902 22.5666C146.215 22.1091 146.642 21.7538 147.184 21.501C147.738 21.2481 148.37 21.1217 149.081 21.1217C150.008 21.1217 150.827 21.3444 151.537 21.79C152.248 22.2355 152.753 22.8616 153.054 23.6684L151.248 24.5173C151.08 24.0718 150.797 23.7166 150.399 23.4516C150.002 23.1867 149.556 23.0543 149.063 23.0543C148.665 23.0543 148.352 23.1446 148.124 23.3252C147.895 23.5058 147.78 23.7406 147.78 24.0296C147.78 24.2102 147.829 24.3668 147.925 24.4992C148.021 24.6317 148.154 24.7401 148.322 24.8244C148.503 24.9086 148.708 24.9869 148.936 25.0592L150.508 25.5288C151.314 25.7696 151.935 26.1308 152.368 26.6125C152.814 27.0941 153.036 27.6841 153.036 28.3825C153.036 28.9726 152.88 29.4964 152.567 29.9539C152.254 30.3994 151.82 30.7486 151.266 31.0015C150.712 31.2544 150.062 31.3808 149.316 31.3808ZM158.774 31.3808C157.727 31.3808 156.811 31.134 156.029 30.6403C155.258 30.1345 154.728 29.4542 154.439 28.5993L156.209 27.7504C156.462 28.3043 156.811 28.7378 157.257 29.0508C157.714 29.3639 158.22 29.5204 158.774 29.5204C159.208 29.5204 159.551 29.4241 159.804 29.2314C160.057 29.0388 160.183 28.7859 160.183 28.4728C160.183 28.2802 160.129 28.1237 160.02 28.0032C159.924 27.8708 159.786 27.7624 159.605 27.6781C159.436 27.5818 159.25 27.5035 159.045 27.4433L157.438 26.9918C156.607 26.7509 155.975 26.3837 155.541 25.89C155.12 25.3963 154.909 24.8123 154.909 24.138C154.909 23.5359 155.059 23.0121 155.36 22.5666C155.674 22.1091 156.101 21.7538 156.643 21.501C157.197 21.2481 157.829 21.1217 158.539 21.1217C159.466 21.1217 160.285 21.3444 160.996 21.79C161.706 22.2355 162.212 22.8616 162.513 23.6684L160.707 24.5173C160.538 24.0718 160.255 23.7166 159.858 23.4516C159.46 23.1867 159.015 23.0543 158.521 23.0543C158.124 23.0543 157.811 23.1446 157.582 23.3252C157.353 23.5058 157.239 23.7406 157.239 24.0296C157.239 24.2102 157.287 24.3668 157.383 24.4992C157.48 24.6317 157.612 24.7401 157.781 24.8244C157.961 24.9086 158.166 24.9869 158.395 25.0592L159.966 25.5288C160.773 25.7696 161.393 26.1308 161.827 26.6125C162.272 27.0941 162.495 27.6841 162.495 28.3825C162.495 28.9726 162.338 29.4964 162.025 29.9539C161.712 30.3994 161.279 30.7486 160.725 31.0015C160.171 31.2544 159.521 31.3808 158.774 31.3808ZM164.494 31.1641V21.3384H166.86V31.1641H164.494ZM164.494 20.2366V17.708H166.86V20.2366H164.494ZM174.03 31.3808C173.066 31.3808 172.187 31.158 171.393 30.7125C170.61 30.267 169.984 29.6589 169.514 28.8883C169.057 28.1176 168.828 27.2386 168.828 26.2512C168.828 25.2639 169.057 24.3848 169.514 23.6142C169.984 22.8436 170.61 22.2355 171.393 21.79C172.175 21.3444 173.054 21.1217 174.03 21.1217C174.993 21.1217 175.866 21.3444 176.649 21.79C177.431 22.2355 178.051 22.8436 178.509 23.6142C178.979 24.3728 179.213 25.2518 179.213 26.2512C179.213 27.2386 178.979 28.1176 178.509 28.8883C178.039 29.6589 177.413 30.267 176.631 30.7125C175.848 31.158 174.981 31.3808 174.03 31.3808ZM174.03 29.2134C174.559 29.2134 175.023 29.0869 175.42 28.8341C175.83 28.5812 176.149 28.232 176.378 27.7865C176.618 27.3289 176.739 26.8172 176.739 26.2512C176.739 25.6733 176.618 25.1675 176.378 24.734C176.149 24.2885 175.83 23.9393 175.42 23.6865C175.023 23.4215 174.559 23.2891 174.03 23.2891C173.488 23.2891 173.012 23.4215 172.603 23.6865C172.193 23.9393 171.868 24.2885 171.627 24.734C171.399 25.1675 171.284 25.6733 171.284 26.2512C171.284 26.8172 171.399 27.3289 171.627 27.7865C171.868 28.232 172.193 28.5812 172.603 28.8341C173.012 29.0869 173.488 29.2134 174.03 29.2134ZM181.188 31.1641V21.3384H183.41V23.271L183.229 22.9279C183.458 22.3378 183.831 21.8923 184.349 21.5913C184.879 21.2782 185.493 21.1217 186.191 21.1217C186.914 21.1217 187.552 21.2782 188.106 21.5913C188.672 21.9044 189.111 22.3439 189.425 22.9098C189.738 23.4637 189.894 24.1079 189.894 24.8424V31.1641H187.528V25.4023C187.528 24.9688 187.444 24.5956 187.275 24.2825C187.107 23.9694 186.872 23.7286 186.571 23.56C186.282 23.3794 185.939 23.2891 185.541 23.2891C185.156 23.2891 184.813 23.3794 184.512 23.56C184.211 23.7286 183.976 23.9694 183.807 24.2825C183.639 24.5956 183.554 24.9688 183.554 25.4023V31.1641H181.188ZM195.814 31.3808C194.767 31.3808 193.852 31.134 193.069 30.6403C192.298 30.1345 191.768 29.4542 191.479 28.5993L193.25 27.7504C193.502 28.3043 193.852 28.7378 194.297 29.0508C194.755 29.3639 195.26 29.5204 195.814 29.5204C196.248 29.5204 196.591 29.4241 196.844 29.2314C197.097 29.0388 197.223 28.7859 197.223 28.4728C197.223 28.2802 197.169 28.1237 197.061 28.0032C196.964 27.8708 196.826 27.7624 196.645 27.6781C196.477 27.5818 196.29 27.5035 196.085 27.4433L194.478 26.9918C193.647 26.7509 193.015 26.3837 192.581 25.89C192.16 25.3963 191.949 24.8123 191.949 24.138C191.949 23.5359 192.1 23.0121 192.401 22.5666C192.714 22.1091 193.141 21.7538 193.683 21.501C194.237 21.2481 194.869 21.1217 195.58 21.1217C196.507 21.1217 197.326 21.3444 198.036 21.79C198.746 22.2355 199.252 22.8616 199.553 23.6684L197.747 24.5173C197.578 24.0718 197.295 23.7166 196.898 23.4516C196.501 23.1867 196.055 23.0543 195.561 23.0543C195.164 23.0543 194.851 23.1446 194.622 23.3252C194.393 23.5058 194.279 23.7406 194.279 24.0296C194.279 24.2102 194.327 24.3668 194.424 24.4992C194.52 24.6317 194.652 24.7401 194.821 24.8244C195.002 24.9086 195.206 24.9869 195.435 25.0592L197.006 25.5288C197.813 25.7696 198.433 26.1308 198.867 26.6125C199.312 27.0941 199.535 27.6841 199.535 28.3825C199.535 28.9726 199.379 29.4964 199.065 29.9539C198.752 30.3994 198.319 30.7486 197.765 31.0015C197.211 31.2544 196.561 31.3808 195.814 31.3808Z" fill="#262535"/>
<path d="M18.989 60.2361V52.3867H19.7265L22.6766 56.6644H22.2657L25.2053 52.3867H25.9428V60.2361H25.0999V53.5246L25.3739 53.63L22.487 57.8128H22.4448L19.5685 53.63L19.8319 53.5246V60.2361H18.989ZM30.4305 60.3625C29.8967 60.3625 29.412 60.2361 28.9766 59.9832C28.5411 59.7233 28.1934 59.3721 27.9335 58.9296C27.6806 58.4801 27.5542 57.9708 27.5542 57.4019C27.5542 56.84 27.6806 56.3377 27.9335 55.8952C28.1863 55.4527 28.527 55.105 28.9555 54.8521C29.391 54.5923 29.8827 54.4623 30.4305 54.4623C30.9784 54.4623 31.4666 54.5887 31.895 54.8416C32.3305 55.0945 32.6712 55.4422 32.917 55.8847C33.1699 56.3272 33.2963 56.8329 33.2963 57.4019C33.2963 57.9779 33.1664 58.4906 32.9065 58.9401C32.6466 59.3827 32.2989 59.7304 31.8634 59.9832C31.435 60.2361 30.9573 60.3625 30.4305 60.3625ZM30.4305 59.5723C30.8098 59.5723 31.1505 59.4775 31.4525 59.2878C31.7616 59.0982 32.0039 58.8383 32.1795 58.5082C32.3621 58.178 32.4535 57.8093 32.4535 57.4019C32.4535 56.9945 32.3621 56.6292 32.1795 56.3061C32.0039 55.983 31.7616 55.7266 31.4525 55.537C31.1505 55.3473 30.8098 55.2525 30.4305 55.2525C30.0512 55.2525 29.7071 55.3473 29.398 55.537C29.096 55.7266 28.8536 55.983 28.671 56.3061C28.4884 56.6292 28.3971 56.9945 28.3971 57.4019C28.3971 57.8093 28.4884 58.178 28.671 58.5082C28.8536 58.8383 29.096 59.0982 29.398 59.2878C29.7071 59.4775 30.0512 59.5723 30.4305 59.5723ZM37.3451 60.3625C36.8183 60.3625 36.3442 60.2361 35.9227 59.9832C35.5013 59.7233 35.1676 59.3721 34.9218 58.9296C34.683 58.4801 34.5636 57.9743 34.5636 57.4124C34.5636 56.8435 34.683 56.3377 34.9218 55.8952C35.1676 55.4527 35.4978 55.105 35.9122 54.8521C36.3336 54.5923 36.8113 54.4623 37.3451 54.4623C37.8297 54.4623 38.2617 54.5677 38.641 54.7784C39.0203 54.9891 39.3188 55.2736 39.5366 55.6318L39.4102 55.8531V52.2603H40.2004V60.2361H39.4102V58.9718L39.5366 59.0877C39.3399 59.495 39.0449 59.8111 38.6516 60.0359C38.2652 60.2536 37.8297 60.3625 37.3451 60.3625ZM37.3872 59.5723C37.7665 59.5723 38.1072 59.4775 38.4092 59.2878C38.7183 59.0982 38.9606 58.8418 39.1362 58.5187C39.3188 58.1886 39.4102 57.8198 39.4102 57.4124C39.4102 57.005 39.3188 56.6398 39.1362 56.3167C38.9606 55.9865 38.7183 55.7266 38.4092 55.537C38.1072 55.3473 37.7665 55.2525 37.3872 55.2525C37.015 55.2525 36.6778 55.3473 36.3758 55.537C36.0737 55.7266 35.8349 55.983 35.6593 56.3061C35.4907 56.6292 35.4064 56.998 35.4064 57.4124C35.4064 57.8198 35.4907 58.1886 35.6593 58.5187C35.8349 58.8418 36.0702 59.0982 36.3652 59.2878C36.6673 59.4775 37.0079 59.5723 37.3872 59.5723ZM41.9282 60.2361V54.5887H42.7184V60.2361H41.9282ZM41.9282 53.5457V52.3867H42.7184V53.5457H41.9282ZM45.0207 60.2361V55.3789H43.8933V54.5887H45.0207V54.083C45.0207 53.6897 45.1085 53.3595 45.2841 53.0926C45.4597 52.8187 45.6915 52.6115 45.9795 52.471C46.2675 52.3305 46.5765 52.2603 46.9067 52.2603C46.9769 52.2603 47.0577 52.2673 47.149 52.2813C47.2403 52.2884 47.3141 52.2989 47.3702 52.3129V53.0294C47.3211 53.0154 47.2544 53.0083 47.1701 53.0083C47.0858 53.0013 47.0261 52.9978 46.9909 52.9978C46.6538 52.9978 46.3728 53.0786 46.1481 53.2401C45.9233 53.4017 45.8109 53.6826 45.8109 54.083V54.5887H47.1911V55.3789H45.8109V60.2361H45.0207ZM48.7987 62.554C48.6863 62.554 48.5704 62.5435 48.451 62.5224C48.3386 62.5084 48.2262 62.4803 48.1139 62.4381V61.7006C48.1841 61.7076 48.2719 61.7182 48.3773 61.7322C48.4897 61.7533 48.602 61.7638 48.7144 61.7638C49.0586 61.7638 49.322 61.6901 49.5046 61.5426C49.6873 61.4021 49.8664 61.1281 50.042 60.7207L50.4002 59.8779L50.3791 60.5732L47.9874 54.5887H48.8409L50.8006 59.5302H50.5793L52.5285 54.5887H53.403L50.8216 60.9525C50.7093 61.2265 50.5653 61.4864 50.3897 61.7322C50.2211 61.978 50.0068 62.1747 49.747 62.3222C49.4871 62.4768 49.171 62.554 48.7987 62.554ZM56.4485 60.2361V52.3867H59.1457C59.6585 52.3867 60.108 52.4886 60.4943 52.6922C60.8807 52.8889 61.1792 53.1699 61.3899 53.5351C61.6076 53.8934 61.7165 54.3113 61.7165 54.7889C61.7165 55.2666 61.6076 55.6845 61.3899 56.0427C61.1792 56.4009 60.8807 56.6819 60.4943 56.8856C60.115 57.0823 59.6655 57.1806 59.1457 57.1806H57.2914V60.2361H56.4485ZM57.2914 56.3904H59.1879C59.525 56.3904 59.82 56.3272 60.0729 56.2008C60.3258 56.0673 60.5224 55.8812 60.6629 55.6424C60.8034 55.3965 60.8736 55.1085 60.8736 54.7784C60.8736 54.4483 60.8034 54.1638 60.6629 53.925C60.5224 53.6862 60.3258 53.5035 60.0729 53.3771C59.82 53.2436 59.525 53.1769 59.1879 53.1769H57.2914V56.3904ZM65.5732 60.3625C65.0464 60.3625 64.5688 60.2361 64.1403 59.9832C63.7189 59.7233 63.3852 59.3686 63.1394 58.9191C62.8935 58.4695 62.7706 57.9603 62.7706 57.3913C62.7706 56.8224 62.89 56.3202 63.1289 55.8847C63.3677 55.4422 63.6908 55.0945 64.0982 54.8416C64.5126 54.5887 64.9762 54.4623 65.4889 54.4623C65.8963 54.4623 66.2581 54.5396 66.5741 54.6941C66.8973 54.8416 67.1712 55.0453 67.396 55.3052C67.6207 55.5581 67.7928 55.846 67.9122 56.1692C68.0316 56.4852 68.0913 56.8119 68.0913 57.149C68.0913 57.2193 68.0878 57.3 68.0808 57.3913C68.0738 57.4756 68.0632 57.5634 68.0492 57.6547H63.2764V56.9172H67.5961L67.2169 57.2333C67.2801 56.847 67.2344 56.5028 67.0799 56.2008C66.9324 55.8917 66.7181 55.6494 66.4372 55.4738C66.1562 55.2911 65.8401 55.1998 65.4889 55.1998C65.1377 55.1998 64.8111 55.2911 64.5091 55.4738C64.2141 55.6564 63.9823 55.9128 63.8137 56.2429C63.6451 56.566 63.5784 56.9523 63.6135 57.4019C63.5784 57.8514 63.6486 58.2448 63.8242 58.5819C64.0069 58.912 64.2527 59.1684 64.5618 59.3511C64.8778 59.5337 65.215 59.625 65.5732 59.625C65.9876 59.625 66.3353 59.5267 66.6163 59.33C66.8973 59.1333 67.1255 58.8875 67.3011 58.5925L67.9754 58.9507C67.8631 59.2035 67.691 59.4389 67.4592 59.6566C67.2274 59.8673 66.9499 60.0394 66.6268 60.1729C66.3107 60.2993 65.9595 60.3625 65.5732 60.3625ZM69.5899 60.2361V54.5887H70.3801V55.5159L70.2748 55.3789C70.4082 55.112 70.6084 54.9013 70.8753 54.7468C71.1493 54.5923 71.4794 54.515 71.8657 54.515H72.224V55.3052H71.7288C71.3214 55.3052 70.9947 55.4316 70.7489 55.6845C70.5031 55.9374 70.3801 56.2956 70.3801 56.7592V60.2361H69.5899ZM73.2553 60.2361V54.5887H74.0455V55.6634L73.9191 55.5054C74.0736 55.1753 74.3019 54.9189 74.604 54.7362C74.913 54.5536 75.2502 54.4623 75.6154 54.4623C76.0509 54.4623 76.4443 54.5852 76.7955 54.8311C77.1467 55.0769 77.396 55.3965 77.5435 55.7899L77.3223 55.8004C77.4628 55.3649 77.7051 55.0348 78.0493 54.81C78.4005 54.5782 78.7868 54.4623 79.2082 54.4623C79.5875 54.4623 79.9352 54.5536 80.2513 54.7362C80.5744 54.9189 80.8308 55.1717 81.0204 55.4948C81.2171 55.8109 81.3154 56.1692 81.3154 56.5695V60.2361H80.5252V56.8751C80.5252 56.5309 80.462 56.2394 80.3356 56.0006C80.2162 55.7618 80.0511 55.5791 79.8404 55.4527C79.6297 55.3192 79.3873 55.2525 79.1134 55.2525C78.8465 55.2525 78.6042 55.3192 78.3864 55.4527C78.1687 55.5791 77.9966 55.7653 77.8701 56.0111C77.7437 56.2499 77.6805 56.5379 77.6805 56.8751V60.2361H76.8903V56.8751C76.8903 56.5309 76.8271 56.2394 76.7006 56.0006C76.5812 55.7618 76.4162 55.5791 76.2054 55.4527C75.9947 55.3192 75.7524 55.2525 75.4785 55.2525C75.2045 55.2525 74.9587 55.3192 74.7409 55.4527C74.5302 55.5791 74.3616 55.7653 74.2352 56.0111C74.1088 56.2499 74.0455 56.5379 74.0455 56.8751V60.2361H73.2553ZM82.9296 60.2361V54.5887H83.7198V60.2361H82.9296ZM82.9296 53.5457V52.3867H83.7198V53.5457H82.9296ZM87.4023 60.3625C86.8615 60.3625 86.3874 60.2255 85.98 59.9516C85.5726 59.6777 85.2776 59.3054 85.0949 58.8348L85.7587 58.5187C85.9203 58.8629 86.145 59.1368 86.433 59.3405C86.728 59.5442 87.0511 59.6461 87.4023 59.6461C87.7395 59.6461 88.024 59.5653 88.2558 59.4037C88.4876 59.2352 88.6035 59.0174 88.6035 58.7505C88.6035 58.5538 88.5473 58.3993 88.4349 58.2869C88.3225 58.1675 88.1925 58.0762 88.045 58.013C87.8975 57.9498 87.7676 57.9041 87.6552 57.876L86.8439 57.6442C86.3241 57.4967 85.9484 57.2895 85.7166 57.0226C85.4848 56.7557 85.3689 56.4466 85.3689 56.0954C85.3689 55.7653 85.4532 55.4773 85.6217 55.2314C85.7903 54.9856 86.0186 54.796 86.3066 54.6625C86.5946 54.529 86.9142 54.4623 87.2654 54.4623C87.743 54.4623 88.175 54.5887 88.5613 54.8416C88.9547 55.0875 89.2321 55.4316 89.3937 55.8741L88.7193 56.1902C88.5789 55.8741 88.3752 55.6283 88.1083 55.4527C87.8484 55.2701 87.5569 55.1788 87.2338 55.1788C86.9177 55.1788 86.6648 55.2595 86.4752 55.4211C86.2855 55.5826 86.1907 55.7863 86.1907 56.0322C86.1907 56.2218 86.2399 56.3729 86.3382 56.4852C86.4365 56.5976 86.5489 56.6819 86.6753 56.7381C86.8088 56.7943 86.9247 56.8364 87.023 56.8645L87.9607 57.1385C88.4173 57.2719 88.772 57.4791 89.0249 57.7601C89.2848 58.0411 89.4147 58.3712 89.4147 58.7505C89.4147 59.0596 89.3269 59.337 89.1513 59.5828C88.9827 59.8287 88.7474 60.0219 88.4454 60.1623C88.1434 60.2958 87.7957 60.3625 87.4023 60.3625ZM92.8683 60.3625C92.3275 60.3625 91.8534 60.2255 91.446 59.9516C91.0386 59.6777 90.7436 59.3054 90.5609 58.8348L91.2247 58.5187C91.3863 58.8629 91.611 59.1368 91.899 59.3405C92.194 59.5442 92.5171 59.6461 92.8683 59.6461C93.2055 59.6461 93.49 59.5653 93.7218 59.4037C93.9536 59.2352 94.0695 59.0174 94.0695 58.7505C94.0695 58.5538 94.0133 58.3993 93.9009 58.2869C93.7885 58.1675 93.6585 58.0762 93.511 58.013C93.3635 57.9498 93.2336 57.9041 93.1212 57.876L92.3099 57.6442C91.7901 57.4967 91.4144 57.2895 91.1826 57.0226C90.9508 56.7557 90.8349 56.4466 90.8349 56.0954C90.8349 55.7653 90.9192 55.4773 91.0877 55.2314C91.2563 54.9856 91.4846 54.796 91.7726 54.6625C92.0606 54.529 92.3802 54.4623 92.7314 54.4623C93.209 54.4623 93.641 54.5887 94.0273 54.8416C94.4207 55.0875 94.6981 55.4316 94.8597 55.8741L94.1854 56.1902C94.0449 55.8741 93.8412 55.6283 93.5743 55.4527C93.3144 55.2701 93.0229 55.1788 92.6998 55.1788C92.3837 55.1788 92.1308 55.2595 91.9412 55.4211C91.7515 55.5826 91.6567 55.7863 91.6567 56.0322C91.6567 56.2218 91.7059 56.3729 91.8042 56.4852C91.9025 56.5976 92.0149 56.6819 92.1414 56.7381C92.2748 56.7943 92.3907 56.8364 92.489 56.8645L93.4268 57.1385C93.8833 57.2719 94.238 57.4791 94.4909 57.7601C94.7508 58.0411 94.8807 58.3712 94.8807 58.7505C94.8807 59.0596 94.7929 59.337 94.6173 59.5828C94.4488 59.8287 94.2134 60.0219 93.9114 60.1623C93.6094 60.2958 93.2617 60.3625 92.8683 60.3625ZM96.3746 60.2361V54.5887H97.1648V60.2361H96.3746ZM96.3746 53.5457V52.3867H97.1648V53.5457H96.3746ZM101.532 60.3625C100.998 60.3625 100.514 60.2361 100.078 59.9832C99.6427 59.7233 99.2951 59.3721 99.0352 58.9296C98.7823 58.4801 98.6559 57.9708 98.6559 57.4019C98.6559 56.84 98.7823 56.3377 99.0352 55.8952C99.288 55.4527 99.6287 55.105 100.057 54.8521C100.493 54.5923 100.984 54.4623 101.532 54.4623C102.08 54.4623 102.568 54.5887 102.997 54.8416C103.432 55.0945 103.773 55.4422 104.019 55.8847C104.272 56.3272 104.398 56.8329 104.398 57.4019C104.398 57.9779 104.268 58.4906 104.008 58.9401C103.748 59.3827 103.401 59.7304 102.965 59.9832C102.537 60.2361 102.059 60.3625 101.532 60.3625ZM101.532 59.5723C101.912 59.5723 102.252 59.4775 102.554 59.2878C102.863 59.0982 103.106 58.8383 103.281 58.5082C103.464 58.178 103.555 57.8093 103.555 57.4019C103.555 56.9945 103.464 56.6292 103.281 56.3061C103.106 55.983 102.863 55.7266 102.554 55.537C102.252 55.3473 101.912 55.2525 101.532 55.2525C101.153 55.2525 100.809 55.3473 100.5 55.537C100.198 55.7266 99.9553 55.983 99.7727 56.3061C99.5901 56.6292 99.4987 56.9945 99.4987 57.4019C99.4987 57.8093 99.5901 58.178 99.7727 58.5082C99.9553 58.8383 100.198 59.0982 100.5 59.2878C100.809 59.4775 101.153 59.5723 101.532 59.5723ZM105.897 60.2361V54.5887H106.687V55.6845L106.508 55.6424C106.649 55.2771 106.877 54.9891 107.193 54.7784C107.516 54.5677 107.888 54.4623 108.31 54.4623C108.71 54.4623 109.068 54.5536 109.384 54.7362C109.708 54.9189 109.96 55.1717 110.143 55.4948C110.333 55.8109 110.428 56.1692 110.428 56.5695V60.2361H109.637V56.8751C109.637 56.5309 109.574 56.2394 109.448 56.0006C109.328 55.7618 109.156 55.5791 108.931 55.4527C108.714 55.3192 108.461 55.2525 108.173 55.2525C107.885 55.2525 107.628 55.3192 107.404 55.4527C107.179 55.5791 107.003 55.7653 106.877 56.0111C106.75 56.2499 106.687 56.5379 106.687 56.8751V60.2361H105.897ZM114.002 60.3625C113.461 60.3625 112.987 60.2255 112.579 59.9516C112.172 59.6777 111.877 59.3054 111.694 58.8348L112.358 58.5187C112.52 58.8629 112.745 59.1368 113.033 59.3405C113.328 59.5442 113.651 59.6461 114.002 59.6461C114.339 59.6461 114.623 59.5653 114.855 59.4037C115.087 59.2352 115.203 59.0174 115.203 58.7505C115.203 58.5538 115.147 58.3993 115.034 58.2869C114.922 58.1675 114.792 58.0762 114.645 58.013C114.497 57.9498 114.367 57.9041 114.255 57.876L113.443 57.6442C112.924 57.4967 112.548 57.2895 112.316 57.0226C112.084 56.7557 111.968 56.4466 111.968 56.0954C111.968 55.7653 112.053 55.4773 112.221 55.2314C112.39 54.9856 112.618 54.796 112.906 54.6625C113.194 54.529 113.514 54.4623 113.865 54.4623C114.342 54.4623 114.774 54.5887 115.161 54.8416C115.554 55.0875 115.832 55.4316 115.993 55.8741L115.319 56.1902C115.178 55.8741 114.975 55.6283 114.708 55.4527C114.448 55.2701 114.156 55.1788 113.833 55.1788C113.517 55.1788 113.264 55.2595 113.075 55.4211C112.885 55.5826 112.79 55.7863 112.79 56.0322C112.79 56.2218 112.839 56.3729 112.938 56.4852C113.036 56.5976 113.148 56.6819 113.275 56.7381C113.408 56.7943 113.524 56.8364 113.623 56.8645L114.56 57.1385C115.017 57.2719 115.372 57.4791 115.624 57.7601C115.884 58.0411 116.014 58.3712 116.014 58.7505C116.014 59.0596 115.926 59.337 115.751 59.5828C115.582 59.8287 115.347 60.0219 115.045 60.1623C114.743 60.2958 114.395 60.3625 114.002 60.3625Z" fill="#4C689E"/>
<path d="M239.437 60.3625C238.882 60.3625 238.369 60.2642 237.899 60.0675C237.428 59.8638 237.021 59.5793 236.677 59.2141C236.332 58.8488 236.062 58.4204 235.865 57.9287C235.676 57.437 235.581 56.8997 235.581 56.3167C235.581 55.7266 235.676 55.1858 235.865 54.6941C236.055 54.2024 236.322 53.774 236.666 53.4087C237.01 53.0435 237.418 52.7625 237.888 52.5658C238.359 52.3621 238.872 52.2603 239.427 52.2603C239.967 52.2603 240.452 52.3551 240.88 52.5447C241.316 52.7344 241.681 52.9802 241.976 53.2823C242.278 53.5843 242.493 53.9074 242.619 54.2516L241.692 54.7046C241.509 54.2481 241.225 53.8863 240.838 53.6194C240.452 53.3525 239.981 53.2191 239.427 53.2191C238.879 53.2191 238.39 53.349 237.962 53.6089C237.541 53.8688 237.21 54.2305 236.972 54.6941C236.733 55.1577 236.613 55.6985 236.613 56.3167C236.613 56.9278 236.733 57.4651 236.972 57.9287C237.217 58.3923 237.551 58.754 237.973 59.0139C238.401 59.2738 238.889 59.4037 239.437 59.4037C239.915 59.4037 240.347 59.3019 240.733 59.0982C241.119 58.8945 241.425 58.6135 241.65 58.2553C241.874 57.8971 241.987 57.4827 241.987 57.012V56.5274L242.461 56.9699H239.427V56.0743H243.03V56.7697C243.03 57.3176 242.935 57.8128 242.745 58.2553C242.556 58.6978 242.296 59.0771 241.966 59.3932C241.636 59.7023 241.253 59.9411 240.817 60.1097C240.382 60.2782 239.922 60.3625 239.437 60.3625ZM247.111 60.3625C246.563 60.3625 246.068 60.2361 245.626 59.9832C245.183 59.7233 244.832 59.3686 244.572 58.9191C244.312 58.4695 244.182 57.9603 244.182 57.3913C244.182 56.8224 244.309 56.3167 244.562 55.8741C244.822 55.4316 245.173 55.0804 245.615 54.8205C246.058 54.5606 246.556 54.4307 247.111 54.4307C247.659 54.4307 248.154 54.5606 248.597 54.8205C249.039 55.0734 249.387 55.4211 249.64 55.8636C249.9 56.3061 250.03 56.8154 250.03 57.3913C250.03 57.9673 249.896 58.4801 249.629 58.9296C249.363 59.3721 249.008 59.7233 248.565 59.9832C248.13 60.2361 247.645 60.3625 247.111 60.3625ZM247.111 59.4143C247.463 59.4143 247.779 59.3265 248.06 59.1509C248.348 58.9753 248.572 58.7329 248.734 58.4239C248.902 58.1148 248.987 57.7706 248.987 57.3913C248.987 57.005 248.902 56.6644 248.734 56.3693C248.572 56.0673 248.348 55.8285 248.06 55.6529C247.779 55.4703 247.463 55.3789 247.111 55.3789C246.753 55.3789 246.43 55.4703 246.142 55.6529C245.861 55.8285 245.636 56.0673 245.468 56.3693C245.299 56.6644 245.215 57.005 245.215 57.3913C245.215 57.7706 245.299 58.1148 245.468 58.4239C245.636 58.7329 245.861 58.9753 246.142 59.1509C246.43 59.3265 246.753 59.4143 247.111 59.4143ZM254.11 60.3625C253.563 60.3625 253.067 60.2361 252.625 59.9832C252.182 59.7233 251.831 59.3686 251.571 58.9191C251.311 58.4695 251.181 57.9603 251.181 57.3913C251.181 56.8224 251.308 56.3167 251.561 55.8741C251.821 55.4316 252.172 55.0804 252.614 54.8205C253.057 54.5606 253.556 54.4307 254.11 54.4307C254.658 54.4307 255.154 54.5606 255.596 54.8205C256.039 55.0734 256.386 55.4211 256.639 55.8636C256.899 56.3061 257.029 56.8154 257.029 57.3913C257.029 57.9673 256.895 58.4801 256.629 58.9296C256.362 59.3721 256.007 59.7233 255.564 59.9832C255.129 60.2361 254.644 60.3625 254.11 60.3625ZM254.11 59.4143C254.462 59.4143 254.778 59.3265 255.059 59.1509C255.347 58.9753 255.571 58.7329 255.733 58.4239C255.902 58.1148 255.986 57.7706 255.986 57.3913C255.986 57.005 255.902 56.6644 255.733 56.3693C255.571 56.0673 255.347 55.8285 255.059 55.6529C254.778 55.4703 254.462 55.3789 254.11 55.3789C253.752 55.3789 253.429 55.4703 253.141 55.6529C252.86 55.8285 252.635 56.0673 252.467 56.3693C252.298 56.6644 252.214 57.005 252.214 57.3913C252.214 57.7706 252.298 58.1148 252.467 58.4239C252.635 58.7329 252.86 58.9753 253.141 59.1509C253.429 59.3265 253.752 59.4143 254.11 59.4143ZM261.12 62.554C260.72 62.554 260.347 62.4908 260.003 62.3644C259.666 62.2379 259.375 62.0623 259.129 61.8376C258.89 61.6198 258.707 61.3634 258.581 61.0684L259.498 60.647C259.596 60.9139 259.782 61.1387 260.056 61.3213C260.337 61.511 260.688 61.6058 261.11 61.6058C261.433 61.6058 261.724 61.5426 261.984 61.4161C262.251 61.2967 262.462 61.1141 262.616 60.8682C262.771 60.6294 262.848 60.3379 262.848 59.9938V58.7189L263.027 58.9085C262.83 59.2949 262.546 59.5899 262.174 59.7936C261.808 59.9973 261.405 60.0991 260.962 60.0991C260.428 60.0991 259.951 59.9762 259.529 59.7304C259.108 59.4775 258.778 59.1368 258.539 58.7084C258.3 58.2729 258.18 57.7917 258.18 57.2649C258.18 56.7311 258.3 56.2499 258.539 55.8215C258.778 55.393 259.104 55.0558 259.519 54.81C259.94 54.5571 260.418 54.4307 260.951 54.4307C261.394 54.4307 261.794 54.5326 262.153 54.7362C262.518 54.9329 262.809 55.2069 263.027 55.5581L262.88 55.8215V54.5571H263.838V59.9938C263.838 60.4854 263.722 60.9244 263.491 61.3108C263.259 61.6971 262.936 61.9991 262.521 62.2169C262.114 62.4416 261.647 62.554 261.12 62.554ZM261.046 59.1509C261.383 59.1509 261.685 59.0666 261.952 58.898C262.226 58.7294 262.444 58.5047 262.606 58.2237C262.767 57.9357 262.848 57.6161 262.848 57.2649C262.848 56.9207 262.767 56.6046 262.606 56.3167C262.444 56.0287 262.226 55.8004 261.952 55.6318C261.685 55.4632 261.383 55.3789 261.046 55.3789C260.702 55.3789 260.39 55.4632 260.109 55.6318C259.828 55.8004 259.606 56.0287 259.445 56.3167C259.29 56.5976 259.213 56.9137 259.213 57.2649C259.213 57.6161 259.29 57.9357 259.445 58.2237C259.606 58.5047 259.824 58.7294 260.098 58.898C260.379 59.0666 260.695 59.1509 261.046 59.1509ZM265.463 60.2361V52.2603H266.443V60.2361H265.463ZM270.681 60.3625C270.134 60.3625 269.645 60.2326 269.217 59.9727C268.788 59.7128 268.451 59.3581 268.205 58.9085C267.96 58.452 267.837 57.9427 267.837 57.3808C267.837 56.8119 267.956 56.3061 268.195 55.8636C268.441 55.4211 268.771 55.0734 269.185 54.8205C269.607 54.5606 270.077 54.4307 270.597 54.4307C271.019 54.4307 271.391 54.508 271.714 54.6625C272.044 54.81 272.322 55.0137 272.546 55.2736C272.778 55.5265 272.954 55.818 273.073 56.1481C273.2 56.4712 273.263 56.8083 273.263 57.1595C273.263 57.2368 273.256 57.3246 273.242 57.4229C273.235 57.5143 273.224 57.6021 273.21 57.6864H268.553V56.8435H272.641L272.178 57.2228C272.241 56.8575 272.206 56.5309 272.072 56.2429C271.939 55.9549 271.742 55.7266 271.482 55.5581C271.222 55.3895 270.927 55.3052 270.597 55.3052C270.267 55.3052 269.965 55.3895 269.691 55.5581C269.417 55.7266 269.203 55.969 269.048 56.2851C268.901 56.5941 268.841 56.9629 268.869 57.3913C268.841 57.8058 268.904 58.171 269.059 58.4871C269.22 58.7962 269.445 59.0385 269.733 59.2141C270.028 59.3827 270.348 59.4669 270.692 59.4669C271.071 59.4669 271.391 59.3791 271.651 59.2035C271.911 59.0279 272.121 58.8032 272.283 58.5292L273.105 58.9507C272.992 59.2106 272.817 59.4494 272.578 59.6671C272.346 59.8779 272.069 60.0464 271.746 60.1729C271.429 60.2993 271.075 60.3625 270.681 60.3625Z" fill="#262535"/>
<rect x="18.4381" y="72.6536" width="100.856" height="20.3196" rx="8.65464" fill="#F1F4FF"/>
<rect x="18.4381" y="72.6536" width="100.856" height="20.3196" rx="8.65464" stroke="#ECF0FF" stroke-width="0.752577"/>
<rect x="24.8351" y="77.5455" width="10.5361" height="10.5361" rx="2.25773" fill="white"/>
<rect x="24.8351" y="77.5455" width="10.5361" height="10.5361" rx="2.25773" stroke="#0074FF" stroke-width="1.50515"/>
<path d="M44.399 86.3135V79.5854H46.7742C47.2197 79.5854 47.611 79.6697 47.9482 79.8383C48.2854 80.0069 48.5472 80.2477 48.7339 80.5608C48.9265 80.8738 49.0229 81.2411 49.0229 81.6625C49.0229 82.1382 48.9025 82.5416 48.6616 82.8727C48.4208 83.2038 48.0957 83.4416 47.6863 83.5861L49.2487 86.3135H48.2191L46.5755 83.3965L47.1625 83.7397H45.2841V86.3135H44.399ZM45.2841 82.9269H46.8013C47.0662 82.9269 47.298 82.8757 47.4967 82.7734C47.6953 82.671 47.8489 82.5235 47.9572 82.3308C48.0716 82.1382 48.1288 81.9154 48.1288 81.6625C48.1288 81.4037 48.0716 81.1809 47.9572 80.9943C47.8489 80.8016 47.6953 80.6541 47.4967 80.5517C47.298 80.4494 47.0662 80.3982 46.8013 80.3982H45.2841V82.9269ZM52.2123 86.4218C51.7427 86.4218 51.3242 86.3105 50.957 86.0877C50.5897 85.8649 50.3007 85.5609 50.09 85.1756C49.8793 84.7842 49.7739 84.3477 49.7739 83.8661C49.7739 83.3784 49.8763 82.9449 50.081 82.5656C50.2917 82.1863 50.5747 81.8883 50.9299 81.6716C51.2911 81.4488 51.6945 81.3374 52.14 81.3374C52.5013 81.3374 52.8204 81.4037 53.0973 81.5361C53.3803 81.6625 53.6181 81.8371 53.8108 82.0599C54.0094 82.2767 54.1599 82.5265 54.2623 82.8095C54.3707 83.0864 54.4249 83.3754 54.4249 83.6764C54.4249 83.7427 54.4188 83.8179 54.4068 83.9022C54.4008 83.9805 54.3917 84.0557 54.3797 84.128H50.388V83.4055H53.892L53.4947 83.7306C53.5489 83.4176 53.5188 83.1376 53.4044 82.8908C53.29 82.6439 53.1214 82.4482 52.8986 82.3037C52.6759 82.1592 52.423 82.087 52.14 82.087C51.8571 82.087 51.5982 82.1592 51.3634 82.3037C51.1286 82.4482 50.9449 82.656 50.8125 82.9269C50.686 83.1918 50.6349 83.5079 50.659 83.8751C50.6349 84.2303 50.6891 84.5434 50.8215 84.8143C50.96 85.0792 51.1526 85.287 51.3995 85.4375C51.6524 85.582 51.9263 85.6542 52.2213 85.6542C52.5464 85.6542 52.8204 85.579 53.0431 85.4284C53.2659 85.2779 53.4465 85.0853 53.585 84.8505L54.2894 85.2117C54.1931 85.4345 54.0425 85.6392 53.8378 85.8258C53.6392 86.0064 53.4013 86.1509 53.1244 86.2593C52.8535 86.3677 52.5494 86.4218 52.2123 86.4218ZM56.9754 86.4218C56.6563 86.4218 56.3733 86.3647 56.1265 86.2503C55.8857 86.1298 55.696 85.9673 55.5575 85.7626C55.4191 85.5519 55.3498 85.311 55.3498 85.0401C55.3498 84.7812 55.404 84.5494 55.5124 84.3447C55.6268 84.134 55.8014 83.9564 56.0362 83.8119C56.277 83.6674 56.578 83.5651 56.9393 83.5049L58.7454 83.2068V83.9112L57.1289 84.1822C56.8158 84.2364 56.5871 84.3357 56.4426 84.4802C56.3041 84.6247 56.2348 84.8023 56.2348 85.013C56.2348 85.2117 56.3131 85.3773 56.4697 85.5097C56.6322 85.6422 56.8339 85.7084 57.0747 85.7084C57.3818 85.7084 57.6467 85.6452 57.8694 85.5188C58.0982 85.3863 58.2758 85.2087 58.4023 84.9859C58.5347 84.7632 58.601 84.5163 58.601 84.2454V83.0082C58.601 82.7432 58.5016 82.5295 58.3029 82.367C58.1103 82.1984 57.8544 82.1141 57.5353 82.1141C57.2584 82.1141 57.0115 82.1863 56.7948 82.3308C56.584 82.4693 56.4275 82.656 56.3252 82.8908L55.5937 82.5115C55.684 82.2887 55.8285 82.09 56.0271 81.9154C56.2258 81.7348 56.4576 81.5933 56.7225 81.491C56.9874 81.3886 57.2644 81.3374 57.5534 81.3374C57.9266 81.3374 58.2548 81.4097 58.5377 81.5542C58.8207 81.6927 59.0405 81.8883 59.197 82.1412C59.3595 82.388 59.4408 82.677 59.4408 83.0082V86.3135H58.619V85.3923L58.7725 85.4465C58.6702 85.6392 58.5317 85.8077 58.3571 85.9522C58.1825 86.0967 57.9778 86.2111 57.743 86.2954C57.5082 86.3797 57.2523 86.4218 56.9754 86.4218ZM63.0459 86.4218C62.5884 86.4218 62.176 86.3105 61.8087 86.0877C61.4475 85.8649 61.1615 85.5609 60.9508 85.1756C60.74 84.7903 60.6347 84.3598 60.6347 83.8842C60.6347 83.3965 60.74 82.963 60.9508 82.5837C61.1615 82.1984 61.4475 81.8943 61.8087 81.6716C62.176 81.4488 62.5884 81.3374 63.0459 81.3374C63.4493 81.3374 63.8075 81.4247 64.1206 81.5993C64.4337 81.7679 64.6805 81.9967 64.8611 82.2857L64.7257 82.4934V79.4771H65.5746V86.3135H64.7528V85.2749L64.8611 85.4194C64.6926 85.7385 64.4457 85.9854 64.1206 86.16C63.8015 86.3345 63.4433 86.4218 63.0459 86.4218ZM63.1182 85.6091C63.4252 85.6091 63.6992 85.5338 63.94 85.3833C64.1808 85.2328 64.3705 85.0281 64.5089 84.7692C64.6534 84.5043 64.7257 84.2093 64.7257 83.8842C64.7257 83.553 64.6534 83.258 64.5089 82.9991C64.3705 82.7342 64.1808 82.5265 63.94 82.376C63.6992 82.2255 63.4252 82.1502 63.1182 82.1502C62.8171 82.1502 62.5432 82.2285 62.2964 82.385C62.0555 82.5355 61.8659 82.7402 61.7274 82.9991C61.5889 83.252 61.5197 83.547 61.5197 83.8842C61.5197 84.2093 61.5889 84.5043 61.7274 84.7692C61.8659 85.0281 62.0555 85.2328 62.2964 85.3833C62.5372 85.5338 62.8111 85.6091 63.1182 85.6091ZM68.8781 88.3003C68.7697 88.3003 68.6613 88.2912 68.553 88.2732C68.4446 88.2611 68.3422 88.2341 68.2459 88.1919V87.4423C68.3121 87.4484 68.3934 87.4604 68.4897 87.4785C68.5921 87.4965 68.6914 87.5056 68.7878 87.5056C69.0707 87.5056 69.2845 87.4423 69.429 87.3159C69.5795 87.1895 69.721 86.9757 69.8534 86.6747L70.1605 85.9432L70.1424 86.6747L68.0653 81.4458H68.9774L70.594 85.6H70.323L71.9305 81.4458H72.8607L70.6662 86.8915C70.5639 87.1503 70.4314 87.3882 70.2688 87.6049C70.1123 87.8216 69.9196 87.9902 69.6909 88.1106C69.4621 88.2371 69.1911 88.3003 68.8781 88.3003ZM75.9219 86.4218C75.4523 86.4218 75.0279 86.3135 74.6486 86.0967C74.2693 85.874 73.9682 85.5699 73.7455 85.1846C73.5227 84.7993 73.4113 84.3628 73.4113 83.8751C73.4113 83.3875 73.5197 82.954 73.7364 82.5747C73.9592 82.1954 74.2602 81.8943 74.6395 81.6716C75.0188 81.4488 75.4463 81.3374 75.9219 81.3374C76.3915 81.3374 76.816 81.4488 77.1953 81.6716C77.5746 81.8883 77.8726 82.1863 78.0893 82.5656C78.3121 82.9449 78.4235 83.3814 78.4235 83.8751C78.4235 84.3688 78.3091 84.8083 78.0803 85.1936C77.8515 85.5729 77.5475 85.874 77.1682 86.0967C76.7949 86.3135 76.3795 86.4218 75.9219 86.4218ZM75.9219 85.6091C76.2229 85.6091 76.4939 85.5338 76.7347 85.3833C76.9815 85.2328 77.1742 85.0251 77.3127 84.7602C77.4572 84.4952 77.5294 84.2002 77.5294 83.8751C77.5294 83.544 77.4572 83.252 77.3127 82.9991C77.1742 82.7402 76.9815 82.5355 76.7347 82.385C76.4939 82.2285 76.2229 82.1502 75.9219 82.1502C75.6149 82.1502 75.3379 82.2285 75.0911 82.385C74.8502 82.5355 74.6576 82.7402 74.5131 82.9991C74.3686 83.252 74.2964 83.544 74.2964 83.8751C74.2964 84.2002 74.3686 84.4952 74.5131 84.7602C74.6576 85.0251 74.8502 85.2328 75.0911 85.3833C75.3379 85.5338 75.6149 85.6091 75.9219 85.6091ZM81.3341 86.4218C80.9849 86.4218 80.6688 86.3406 80.3859 86.178C80.1089 86.0155 79.8922 85.7897 79.7357 85.5007C79.5851 85.2057 79.5099 84.8685 79.5099 84.4892V81.4458H80.3498V84.3989C80.3498 84.6397 80.3979 84.8505 80.4942 85.0311C80.5966 85.2117 80.7351 85.3532 80.9097 85.4555C81.0903 85.5579 81.295 85.6091 81.5238 85.6091C81.7526 85.6091 81.9542 85.5579 82.1288 85.4555C82.3095 85.3532 82.4479 85.2057 82.5443 85.013C82.6466 84.8204 82.6978 84.5916 82.6978 84.3267V81.4458H83.5467V86.3135H82.7249V85.3652L82.8604 85.4465C82.746 85.7536 82.5503 85.9944 82.2733 86.169C82.0024 86.3376 81.6893 86.4218 81.3341 86.4218ZM84.9382 86.3135V81.4458H85.76V82.3399L85.6697 82.2134C85.7841 81.9365 85.9587 81.7318 86.1935 81.5993C86.4283 81.4609 86.7143 81.3916 87.0514 81.3916H87.3494V82.1863H86.925C86.5818 82.1863 86.3049 82.2947 86.0941 82.5115C85.8834 82.7222 85.778 83.0232 85.778 83.4145V86.3135H84.9382ZM92.0768 86.4218C91.6072 86.4218 91.1887 86.3105 90.8215 86.0877C90.4542 85.8649 90.1652 85.5609 89.9545 85.1756C89.7438 84.7842 89.6384 84.3477 89.6384 83.8661C89.6384 83.3784 89.7408 82.9449 89.9455 82.5656C90.1562 82.1863 90.4392 81.8883 90.7944 81.6716C91.1556 81.4488 91.559 81.3374 92.0045 81.3374C92.3658 81.3374 92.6848 81.4037 92.9618 81.5361C93.2448 81.6625 93.4826 81.8371 93.6752 82.0599C93.8739 82.2767 94.0244 82.5265 94.1268 82.8095C94.2352 83.0864 94.2893 83.3754 94.2893 83.6764C94.2893 83.7427 94.2833 83.8179 94.2713 83.9022C94.2653 83.9805 94.2562 84.0557 94.2442 84.128H90.2525V83.4055H93.7565L93.3592 83.7306C93.4133 83.4176 93.3832 83.1376 93.2689 82.8908C93.1545 82.6439 92.9859 82.4482 92.7631 82.3037C92.5404 82.1592 92.2875 82.087 92.0045 82.087C91.7216 82.087 91.4627 82.1592 91.2279 82.3037C90.9931 82.4482 90.8094 82.656 90.677 82.9269C90.5505 83.1918 90.4994 83.5079 90.5234 83.8751C90.4994 84.2303 90.5536 84.5434 90.686 84.8143C90.8245 85.0792 91.0171 85.287 91.264 85.4375C91.5169 85.582 91.7908 85.6542 92.0858 85.6542C92.4109 85.6542 92.6849 85.579 92.9076 85.4284C93.1304 85.2779 93.311 85.0853 93.4495 84.8505L94.1539 85.2117C94.0576 85.4345 93.907 85.6392 93.7023 85.8258C93.5037 86.0064 93.2658 86.1509 92.9889 86.2593C92.718 86.3677 92.4139 86.4218 92.0768 86.4218ZM95.4747 86.3135V81.4458H96.2965V82.4392L96.1791 82.2857C96.2995 81.9786 96.4922 81.7438 96.7571 81.5813C97.022 81.4187 97.32 81.3374 97.6512 81.3374C98.0305 81.3374 98.3706 81.4428 98.6717 81.6535C98.9787 81.8642 99.1894 82.1412 99.3038 82.4844L99.069 82.4934C99.1955 82.1141 99.4092 81.8281 99.7102 81.6355C100.011 81.4368 100.345 81.3374 100.713 81.3374C101.05 81.3374 101.354 81.4157 101.625 81.5722C101.902 81.7288 102.121 81.9455 102.284 82.2225C102.447 82.4994 102.528 82.8125 102.528 83.1617V86.3135H101.679V83.4326C101.679 83.1617 101.631 82.9329 101.534 82.7463C101.438 82.5596 101.306 82.4151 101.137 82.3128C100.975 82.2044 100.782 82.1502 100.559 82.1502C100.342 82.1502 100.147 82.2044 99.9721 82.3128C99.8035 82.4151 99.6681 82.5626 99.5657 82.7553C99.4694 82.9419 99.4212 83.1677 99.4212 83.4326V86.3135H98.5723V83.4326C98.5723 83.1617 98.5242 82.9329 98.4278 82.7463C98.3315 82.5596 98.1991 82.4151 98.0305 82.3128C97.8679 82.2044 97.6753 82.1502 97.4525 82.1502C97.2358 82.1502 97.0401 82.2044 96.8655 82.3128C96.6969 82.4151 96.5614 82.5626 96.4591 82.7553C96.3628 82.9419 96.3146 83.1677 96.3146 83.4326V86.3135H95.4747ZM105.238 86.4218C104.919 86.4218 104.636 86.3647 104.389 86.2503C104.148 86.1298 103.959 85.9673 103.82 85.7626C103.682 85.5519 103.612 85.311 103.612 85.0401C103.612 84.7812 103.667 84.5494 103.775 84.3447C103.889 84.134 104.064 83.9564 104.299 83.8119C104.54 83.6674 104.841 83.5651 105.202 83.5049L107.008 83.2068V83.9112L105.391 84.1822C105.078 84.2364 104.85 84.3357 104.705 84.4802C104.567 84.6247 104.497 84.8023 104.497 85.013C104.497 85.2117 104.576 85.3773 104.732 85.5097C104.895 85.6422 105.096 85.7084 105.337 85.7084C105.644 85.7084 105.909 85.6452 106.132 85.5188C106.361 85.3863 106.538 85.2087 106.665 84.9859C106.797 84.7632 106.864 84.5163 106.864 84.2454V83.0082C106.864 82.7432 106.764 82.5295 106.565 82.367C106.373 82.1984 106.117 82.1141 105.798 82.1141C105.521 82.1141 105.274 82.1863 105.057 82.3308C104.847 82.4693 104.69 82.656 104.588 82.8908L103.856 82.5115C103.947 82.2887 104.091 82.09 104.29 81.9154C104.488 81.7348 104.72 81.5933 104.985 81.491C105.25 81.3886 105.527 81.3374 105.816 81.3374C106.189 81.3374 106.517 81.4097 106.8 81.5542C107.083 81.6927 107.303 81.8883 107.46 82.1412C107.622 82.388 107.703 82.677 107.703 83.0082V86.3135H106.882V85.3923L107.035 85.4465C106.933 85.6392 106.794 85.8077 106.62 85.9522C106.445 86.0967 106.24 86.2111 106.006 86.2954C105.771 86.3797 105.515 86.4218 105.238 86.4218ZM109.096 86.3135V81.4458H109.936V86.3135H109.096ZM109.096 80.6691V79.5854H109.936V80.6691H109.096ZM111.329 86.3135V79.4771H112.169V86.3135H111.329Z" fill="#262535"/>
<rect x="18.4381" y="99.7464" width="125.856" height="20.3196" rx="8.65464" fill="#F1F4FF"/>
<rect x="18.4381" y="99.7464" width="125.856" height="20.3196" rx="8.65464" stroke="#ECF0FF" stroke-width="0.752577"/>
<g clip-path="url(#clip0_213_6720)">
<rect x="24.0825" y="103.886" width="12.0412" height="12.0412" rx="3.01031" fill="#0074FF"/>
<path d="M33.7155 107.197L28.3274 112.616L26.4907 110.769" stroke="white" stroke-width="1.50515" stroke-linecap="round" stroke-linejoin="round"/>
</g>
<path d="M43.7488 113.406L46.1601 106.678H47.2077L49.6189 113.406H48.6707L48.1198 111.826H45.2479L44.6971 113.406H43.7488ZM45.5279 111.013H47.8398L46.5574 107.319H46.8103L45.5279 111.013ZM52.539 113.515C52.0634 113.515 51.6389 113.403 51.2657 113.18C50.8984 112.958 50.6094 112.654 50.3987 112.268C50.188 111.883 50.0826 111.45 50.0826 110.968C50.0826 110.48 50.188 110.047 50.3987 109.667C50.6094 109.288 50.8984 108.987 51.2657 108.764C51.6389 108.542 52.0634 108.43 52.539 108.43C52.8581 108.43 53.1561 108.487 53.4331 108.602C53.71 108.716 53.9539 108.87 54.1646 109.062C54.3753 109.255 54.5288 109.481 54.6252 109.74L53.8756 110.101C53.7612 109.848 53.5866 109.643 53.3518 109.487C53.117 109.324 52.8461 109.243 52.539 109.243C52.244 109.243 51.9761 109.318 51.7353 109.469C51.5005 109.619 51.3138 109.824 51.1753 110.083C51.0369 110.342 50.9676 110.64 50.9676 110.977C50.9676 111.302 51.0369 111.597 51.1753 111.862C51.3138 112.121 51.5005 112.326 51.7353 112.476C51.9761 112.627 52.244 112.702 52.539 112.702C52.8461 112.702 53.117 112.624 53.3518 112.467C53.5866 112.304 53.7612 112.091 53.8756 111.826L54.6252 112.205C54.5288 112.458 54.3753 112.684 54.1646 112.882C53.9539 113.075 53.71 113.229 53.4331 113.343C53.1561 113.457 52.8581 113.515 52.539 113.515ZM58.0708 113.515C57.5952 113.515 57.1707 113.403 56.7974 113.18C56.4302 112.958 56.1412 112.654 55.9305 112.268C55.7198 111.883 55.6144 111.45 55.6144 110.968C55.6144 110.48 55.7198 110.047 55.9305 109.667C56.1412 109.288 56.4302 108.987 56.7974 108.764C57.1707 108.542 57.5952 108.43 58.0708 108.43C58.3899 108.43 58.6879 108.487 58.9649 108.602C59.2418 108.716 59.4857 108.87 59.6964 109.062C59.9071 109.255 60.0606 109.481 60.157 109.74L59.4074 110.101C59.293 109.848 59.1184 109.643 58.8836 109.487C58.6488 109.324 58.3779 109.243 58.0708 109.243C57.7758 109.243 57.5079 109.318 57.2671 109.469C57.0323 109.619 56.8456 109.824 56.7071 110.083C56.5687 110.342 56.4994 110.64 56.4994 110.977C56.4994 111.302 56.5687 111.597 56.7071 111.862C56.8456 112.121 57.0323 112.326 57.2671 112.476C57.5079 112.627 57.7758 112.702 58.0708 112.702C58.3779 112.702 58.6488 112.624 58.8836 112.467C59.1184 112.304 59.293 112.091 59.4074 111.826L60.157 112.205C60.0606 112.458 59.9071 112.684 59.6964 112.882C59.4857 113.075 59.2418 113.229 58.9649 113.343C58.6879 113.457 58.3899 113.515 58.0708 113.515ZM63.5845 113.515C63.1149 113.515 62.6965 113.403 62.3292 113.18C61.962 112.958 61.673 112.654 61.4623 112.268C61.2516 111.877 61.1462 111.441 61.1462 110.959C61.1462 110.471 61.2485 110.038 61.4532 109.658C61.664 109.279 61.9469 108.981 62.3022 108.764C62.6634 108.542 63.0668 108.43 63.5123 108.43C63.8735 108.43 64.1926 108.496 64.4696 108.629C64.7525 108.755 64.9904 108.93 65.183 109.153C65.3817 109.369 65.5322 109.619 65.6346 109.902C65.7429 110.179 65.7971 110.468 65.7971 110.769C65.7971 110.835 65.7911 110.911 65.7791 110.995C65.773 111.073 65.764 111.149 65.752 111.221H61.7603V110.498H65.2643L64.8669 110.823C64.9211 110.51 64.891 110.23 64.7766 109.984C64.6622 109.737 64.4937 109.541 64.2709 109.397C64.0481 109.252 63.7953 109.18 63.5123 109.18C63.2293 109.18 62.9704 109.252 62.7356 109.397C62.5008 109.541 62.3172 109.749 62.1847 110.02C62.0583 110.285 62.0071 110.601 62.0312 110.968C62.0071 111.323 62.0613 111.636 62.1938 111.907C62.3323 112.172 62.5249 112.38 62.7718 112.53C63.0246 112.675 63.2986 112.747 63.5936 112.747C63.9187 112.747 64.1926 112.672 64.4154 112.521C64.6382 112.371 64.8188 112.178 64.9572 111.943L65.6617 112.304C65.5653 112.527 65.4148 112.732 65.2101 112.919C65.0114 113.099 64.7736 113.244 64.4967 113.352C64.2257 113.46 63.9217 113.515 63.5845 113.515ZM68.7255 113.515C68.2378 113.515 67.8133 113.394 67.4521 113.153C67.0909 112.913 66.835 112.587 66.6845 112.178L67.3528 111.853C67.4912 112.142 67.6809 112.371 67.9217 112.539C68.1625 112.708 68.4305 112.792 68.7255 112.792C68.9904 112.792 69.2101 112.729 69.3847 112.602C69.5593 112.476 69.6466 112.31 69.6466 112.106C69.6466 111.961 69.6045 111.847 69.5202 111.763C69.4419 111.672 69.3456 111.603 69.2312 111.555C69.1168 111.501 69.0114 111.462 68.9151 111.438L68.1836 111.23C67.7441 111.103 67.422 110.923 67.2173 110.688C67.0186 110.453 66.9193 110.179 66.9193 109.866C66.9193 109.577 66.9915 109.327 67.136 109.117C67.2865 108.9 67.4882 108.731 67.7411 108.611C68 108.49 68.289 108.43 68.6081 108.43C69.0355 108.43 69.4178 108.539 69.755 108.755C70.0982 108.972 70.342 109.276 70.4865 109.667L69.8001 109.984C69.6918 109.731 69.5292 109.532 69.3125 109.387C69.0957 109.237 68.8519 109.162 68.581 109.162C68.3341 109.162 68.1385 109.225 67.994 109.351C67.8495 109.472 67.7772 109.625 67.7772 109.812C67.7772 109.95 67.8133 110.065 67.8856 110.155C67.9578 110.239 68.0451 110.306 68.1475 110.354C68.2498 110.396 68.3492 110.432 68.4455 110.462L69.2402 110.697C69.6376 110.811 69.9446 110.989 70.1614 111.23C70.3841 111.471 70.4955 111.76 70.4955 112.097C70.4955 112.368 70.4203 112.612 70.2698 112.828C70.1192 113.045 69.9115 113.214 69.6466 113.334C69.3817 113.454 69.0747 113.515 68.7255 113.515ZM73.4283 113.515C72.9406 113.515 72.5161 113.394 72.1549 113.153C71.7937 112.913 71.5378 112.587 71.3873 112.178L72.0556 111.853C72.194 112.142 72.3837 112.371 72.6245 112.539C72.8653 112.708 73.1332 112.792 73.4283 112.792C73.6932 112.792 73.9129 112.729 74.0875 112.602C74.2621 112.476 74.3494 112.31 74.3494 112.106C74.3494 111.961 74.3073 111.847 74.223 111.763C74.1447 111.672 74.0484 111.603 73.934 111.555C73.8196 111.501 73.7142 111.462 73.6179 111.438L72.8864 111.23C72.4469 111.103 72.1248 110.923 71.9201 110.688C71.7214 110.453 71.6221 110.179 71.6221 109.866C71.6221 109.577 71.6943 109.327 71.8388 109.117C71.9893 108.9 72.191 108.731 72.4439 108.611C72.7028 108.49 72.9918 108.43 73.3109 108.43C73.7383 108.43 74.1206 108.539 74.4578 108.755C74.801 108.972 75.0448 109.276 75.1893 109.667L74.5029 109.984C74.3946 109.731 74.232 109.532 74.0153 109.387C73.7985 109.237 73.5547 109.162 73.2838 109.162C73.0369 109.162 72.8412 109.225 72.6967 109.351C72.5523 109.472 72.48 109.625 72.48 109.812C72.48 109.95 72.5161 110.065 72.5884 110.155C72.6606 110.239 72.7479 110.306 72.8503 110.354C72.9526 110.396 73.052 110.432 73.1483 110.462L73.943 110.697C74.3404 110.811 74.6474 110.989 74.8642 111.23C75.0869 111.471 75.1983 111.76 75.1983 112.097C75.1983 112.368 75.1231 112.612 74.9725 112.828C74.822 113.045 74.6143 113.214 74.3494 113.334C74.0845 113.454 73.7775 113.515 73.4283 113.515ZM78.3013 115.393C78.1929 115.393 78.0845 115.384 77.9762 115.366C77.8678 115.354 77.7655 115.327 77.6691 115.285V114.535C77.7353 114.541 77.8166 114.553 77.913 114.571C78.0153 114.589 78.1146 114.598 78.211 114.598C78.4939 114.598 78.7077 114.535 78.8522 114.409C79.0027 114.282 79.1442 114.069 79.2766 113.767L79.5837 113.036L79.5656 113.767L77.4885 108.539H78.4006L80.0172 112.693H79.7462L81.3537 108.539H82.2839L80.0894 113.984C79.9871 114.243 79.8546 114.481 79.6921 114.698C79.5355 114.914 79.3429 115.083 79.1141 115.203C78.8853 115.33 78.6144 115.393 78.3013 115.393ZM85.3451 113.515C84.8755 113.515 84.4511 113.406 84.0718 113.19C83.6925 112.967 83.3914 112.663 83.1687 112.277C82.9459 111.892 82.8345 111.456 82.8345 110.968C82.8345 110.48 82.9429 110.047 83.1596 109.667C83.3824 109.288 83.6834 108.987 84.0627 108.764C84.442 108.542 84.8695 108.43 85.3451 108.43C85.8147 108.43 86.2392 108.542 86.6185 108.764C86.9978 108.981 87.2958 109.279 87.5126 109.658C87.7353 110.038 87.8467 110.474 87.8467 110.968C87.8467 111.462 87.7323 111.901 87.5035 112.286C87.2747 112.666 86.9707 112.967 86.5914 113.19C86.2181 113.406 85.8027 113.515 85.3451 113.515ZM85.3451 112.702C85.6462 112.702 85.9171 112.627 86.1579 112.476C86.4048 112.326 86.5974 112.118 86.7359 111.853C86.8804 111.588 86.9526 111.293 86.9526 110.968C86.9526 110.637 86.8804 110.345 86.7359 110.092C86.5974 109.833 86.4048 109.628 86.1579 109.478C85.9171 109.321 85.6462 109.243 85.3451 109.243C85.0381 109.243 84.7611 109.321 84.5143 109.478C84.2735 109.628 84.0808 109.833 83.9363 110.092C83.7918 110.345 83.7196 110.637 83.7196 110.968C83.7196 111.293 83.7918 111.588 83.9363 111.853C84.0808 112.118 84.2735 112.326 84.5143 112.476C84.7611 112.627 85.0381 112.702 85.3451 112.702ZM90.7573 113.515C90.4081 113.515 90.0921 113.433 89.8091 113.271C89.5321 113.108 89.3154 112.882 89.1589 112.593C89.0083 112.298 88.9331 111.961 88.9331 111.582V108.539H89.773V111.492C89.773 111.733 89.8211 111.943 89.9175 112.124C90.0198 112.304 90.1583 112.446 90.3329 112.548C90.5135 112.651 90.7182 112.702 90.947 112.702C91.1758 112.702 91.3775 112.651 91.5521 112.548C91.7327 112.446 91.8712 112.298 91.9675 112.106C92.0698 111.913 92.121 111.684 92.121 111.419V108.539H92.9699V113.406H92.1481V112.458L92.2836 112.539C92.1692 112.846 91.9735 113.087 91.6966 113.262C91.4256 113.43 91.1126 113.515 90.7573 113.515ZM94.3614 113.406V108.539H95.1832V109.433L95.0929 109.306C95.2073 109.029 95.3819 108.825 95.6167 108.692C95.8515 108.554 96.1375 108.484 96.4746 108.484H96.7726V109.279H96.3482C96.005 109.279 95.7281 109.387 95.5173 109.604C95.3066 109.815 95.2013 110.116 95.2013 110.507V113.406H94.3614ZM101.518 113.515C101.042 113.515 100.618 113.403 100.245 113.18C99.8774 112.958 99.5884 112.654 99.3777 112.268C99.167 111.883 99.0616 111.45 99.0616 110.968C99.0616 110.48 99.167 110.047 99.3777 109.667C99.5884 109.288 99.8774 108.987 100.245 108.764C100.618 108.542 101.042 108.43 101.518 108.43C101.837 108.43 102.135 108.487 102.412 108.602C102.689 108.716 102.933 108.87 103.144 109.062C103.354 109.255 103.508 109.481 103.604 109.74L102.855 110.101C102.74 109.848 102.566 109.643 102.331 109.487C102.096 109.324 101.825 109.243 101.518 109.243C101.223 109.243 100.955 109.318 100.714 109.469C100.479 109.619 100.293 109.824 100.154 110.083C100.016 110.342 99.9467 110.64 99.9467 110.977C99.9467 111.302 100.016 111.597 100.154 111.862C100.293 112.121 100.479 112.326 100.714 112.476C100.955 112.627 101.223 112.702 101.518 112.702C101.825 112.702 102.096 112.624 102.331 112.467C102.566 112.304 102.74 112.091 102.855 111.826L103.604 112.205C103.508 112.458 103.354 112.684 103.144 112.882C102.933 113.075 102.689 113.229 102.412 113.343C102.135 113.457 101.837 113.515 101.518 113.515ZM107.104 113.515C106.634 113.515 106.21 113.406 105.831 113.19C105.451 112.967 105.15 112.663 104.928 112.277C104.705 111.892 104.593 111.456 104.593 110.968C104.593 110.48 104.702 110.047 104.919 109.667C105.141 109.288 105.442 108.987 105.822 108.764C106.201 108.542 106.628 108.43 107.104 108.43C107.574 108.43 107.998 108.542 108.377 108.764C108.757 108.981 109.055 109.279 109.271 109.658C109.494 110.038 109.606 110.474 109.606 110.968C109.606 111.462 109.491 111.901 109.262 112.286C109.034 112.666 108.73 112.967 108.35 113.19C107.977 113.406 107.562 113.515 107.104 113.515ZM107.104 112.702C107.405 112.702 107.676 112.627 107.917 112.476C108.164 112.326 108.356 112.118 108.495 111.853C108.639 111.588 108.712 111.293 108.712 110.968C108.712 110.637 108.639 110.345 108.495 110.092C108.356 109.833 108.164 109.628 107.917 109.478C107.676 109.321 107.405 109.243 107.104 109.243C106.797 109.243 106.52 109.321 106.273 109.478C106.032 109.628 105.84 109.833 105.695 110.092C105.551 110.345 105.478 110.637 105.478 110.968C105.478 111.293 105.551 111.588 105.695 111.853C105.84 112.118 106.032 112.326 106.273 112.476C106.52 112.627 106.797 112.702 107.104 112.702ZM110.791 113.406V108.539H111.613V109.487L111.478 109.406C111.598 109.098 111.791 108.861 112.056 108.692C112.327 108.518 112.643 108.43 113.004 108.43C113.353 108.43 113.663 108.508 113.934 108.665C114.211 108.822 114.428 109.038 114.584 109.315C114.747 109.592 114.828 109.905 114.828 110.254V113.406H113.979V110.525C113.979 110.254 113.931 110.026 113.835 109.839C113.738 109.652 113.6 109.508 113.419 109.406C113.245 109.297 113.043 109.243 112.814 109.243C112.585 109.243 112.381 109.297 112.2 109.406C112.026 109.508 111.887 109.655 111.785 109.848C111.682 110.035 111.631 110.26 111.631 110.525V113.406H110.791ZM118.098 113.46C117.622 113.46 117.255 113.325 116.996 113.054C116.743 112.783 116.617 112.401 116.617 111.907V109.342H115.732V108.539H115.913C116.129 108.539 116.301 108.472 116.427 108.34C116.554 108.207 116.617 108.033 116.617 107.816V107.419H117.457V108.539H118.55V109.342H117.457V111.88C117.457 112.043 117.481 112.184 117.529 112.304C117.583 112.425 117.671 112.521 117.791 112.593C117.911 112.66 118.071 112.693 118.27 112.693C118.312 112.693 118.363 112.69 118.423 112.684C118.489 112.678 118.55 112.672 118.604 112.666V113.406C118.526 113.424 118.438 113.436 118.342 113.442C118.246 113.454 118.164 113.46 118.098 113.46ZM121.156 113.515C120.837 113.515 120.554 113.457 120.307 113.343C120.067 113.223 119.877 113.06 119.738 112.855C119.6 112.645 119.531 112.404 119.531 112.133C119.531 111.874 119.585 111.642 119.693 111.438C119.808 111.227 119.982 111.049 120.217 110.905C120.458 110.76 120.759 110.658 121.12 110.598L122.926 110.3V111.004L121.31 111.275C120.997 111.329 120.768 111.428 120.624 111.573C120.485 111.717 120.416 111.895 120.416 112.106C120.416 112.304 120.494 112.47 120.651 112.602C120.813 112.735 121.015 112.801 121.256 112.801C121.563 112.801 121.828 112.738 122.05 112.612C122.279 112.479 122.457 112.301 122.583 112.079C122.716 111.856 122.782 111.609 122.782 111.338V110.101C122.782 109.836 122.683 109.622 122.484 109.46C122.291 109.291 122.035 109.207 121.716 109.207C121.439 109.207 121.192 109.279 120.976 109.424C120.765 109.562 120.608 109.749 120.506 109.984L119.775 109.604C119.865 109.381 120.009 109.183 120.208 109.008C120.407 108.828 120.639 108.686 120.903 108.584C121.168 108.481 121.445 108.43 121.734 108.43C122.108 108.43 122.436 108.502 122.719 108.647C123.002 108.785 123.221 108.981 123.378 109.234C123.541 109.481 123.622 109.77 123.622 110.101V113.406H122.8V112.485L122.954 112.539C122.851 112.732 122.713 112.901 122.538 113.045C122.363 113.19 122.159 113.304 121.924 113.388C121.689 113.472 121.433 113.515 121.156 113.515ZM127.272 113.515C126.796 113.515 126.372 113.403 125.999 113.18C125.631 112.958 125.342 112.654 125.132 112.268C124.921 111.883 124.816 111.45 124.816 110.968C124.816 110.48 124.921 110.047 125.132 109.667C125.342 109.288 125.631 108.987 125.999 108.764C126.372 108.542 126.796 108.43 127.272 108.43C127.591 108.43 127.889 108.487 128.166 108.602C128.443 108.716 128.687 108.87 128.898 109.062C129.108 109.255 129.262 109.481 129.358 109.74L128.609 110.101C128.494 109.848 128.32 109.643 128.085 109.487C127.85 109.324 127.579 109.243 127.272 109.243C126.977 109.243 126.709 109.318 126.468 109.469C126.233 109.619 126.047 109.824 125.908 110.083C125.77 110.342 125.701 110.64 125.701 110.977C125.701 111.302 125.77 111.597 125.908 111.862C126.047 112.121 126.233 112.326 126.468 112.476C126.709 112.627 126.977 112.702 127.272 112.702C127.579 112.702 127.85 112.624 128.085 112.467C128.32 112.304 128.494 112.091 128.609 111.826L129.358 112.205C129.262 112.458 129.108 112.684 128.898 112.882C128.687 113.075 128.443 113.229 128.166 113.343C127.889 113.457 127.591 113.515 127.272 113.515ZM132.524 113.46C132.048 113.46 131.681 113.325 131.422 113.054C131.169 112.783 131.043 112.401 131.043 111.907V109.342H130.158V108.539H130.338C130.555 108.539 130.727 108.472 130.853 108.34C130.98 108.207 131.043 108.033 131.043 107.816V107.419H131.883V108.539H132.975V109.342H131.883V111.88C131.883 112.043 131.907 112.184 131.955 112.304C132.009 112.425 132.096 112.521 132.217 112.593C132.337 112.66 132.497 112.693 132.695 112.693C132.738 112.693 132.789 112.69 132.849 112.684C132.915 112.678 132.975 112.672 133.03 112.666V113.406C132.951 113.424 132.864 113.436 132.768 113.442C132.671 113.454 132.59 113.46 132.524 113.46ZM135.96 113.515C135.472 113.515 135.048 113.394 134.687 113.153C134.325 112.913 134.07 112.587 133.919 112.178L134.587 111.853C134.726 112.142 134.915 112.371 135.156 112.539C135.397 112.708 135.665 112.792 135.96 112.792C136.225 112.792 136.445 112.729 136.619 112.602C136.794 112.476 136.881 112.31 136.881 112.106C136.881 111.961 136.839 111.847 136.755 111.763C136.676 111.672 136.58 111.603 136.466 111.555C136.351 111.501 136.246 111.462 136.15 111.438L135.418 111.23C134.979 111.103 134.657 110.923 134.452 110.688C134.253 110.453 134.154 110.179 134.154 109.866C134.154 109.577 134.226 109.327 134.371 109.117C134.521 108.9 134.723 108.731 134.976 108.611C135.235 108.49 135.524 108.43 135.843 108.43C136.27 108.43 136.652 108.539 136.99 108.755C137.333 108.972 137.577 109.276 137.721 109.667L137.035 109.984C136.926 109.731 136.764 109.532 136.547 109.387C136.33 109.237 136.086 109.162 135.816 109.162C135.569 109.162 135.373 109.225 135.229 109.351C135.084 109.472 135.012 109.625 135.012 109.812C135.012 109.95 135.048 110.065 135.12 110.155C135.192 110.239 135.28 110.306 135.382 110.354C135.484 110.396 135.584 110.432 135.68 110.462L136.475 110.697C136.872 110.811 137.179 110.989 137.396 111.23C137.619 111.471 137.73 111.76 137.73 112.097C137.73 112.368 137.655 112.612 137.504 112.828C137.354 113.045 137.146 113.214 136.881 113.334C136.616 113.454 136.309 113.515 135.96 113.515Z" fill="#262535"/>
<defs>
<clipPath id="clip0_213_6720">
<rect x="24.0825" y="103.886" width="12.0412" height="12.0412" rx="3.01031" fill="white"/>
</clipPath>
</defs>
</svg>
