<svg width="238" height="116" viewBox="0 0 238 116" fill="none" xmlns="http://www.w3.org/2000/svg">
<rect x="0.468307" width="237.532" height="173.927" rx="14.6927" fill="#F7F9FD"/>
<path d="M16.2189 25.6927V14.7466H18.1289L22.2282 20.3152H21.3172L25.3283 14.7466H27.2384V25.6927H25.2255V17.024L26.0042 17.215L21.8461 22.7542H21.6111L17.5559 17.215L18.2171 17.024V25.6927H16.2189ZM31.7428 25.869C31.1845 25.869 30.6996 25.7759 30.2882 25.5898C29.8768 25.4037 29.5585 25.1393 29.3332 24.7964C29.1079 24.4438 28.9953 24.0373 28.9953 23.5769C28.9953 23.1362 29.0932 22.7444 29.2891 22.4015C29.485 22.0489 29.7887 21.755 30.2001 21.52C30.6115 21.2849 31.1306 21.1184 31.7575 21.0204L34.3728 20.5943V22.0636L32.1248 22.4456C31.7428 22.5142 31.4588 22.6366 31.2727 22.8129C31.0865 22.9892 30.9935 23.2194 30.9935 23.5035C30.9935 23.7777 31.0963 23.9981 31.302 24.1646C31.5175 24.3214 31.782 24.3997 32.0954 24.3997C32.497 24.3997 32.8497 24.3165 33.1533 24.15C33.4668 23.9736 33.7067 23.7337 33.8733 23.43C34.0496 23.1264 34.1377 22.7933 34.1377 22.4309V20.3739C34.1377 20.0311 34.0006 19.7471 33.7263 19.5218C33.4619 19.2867 33.1092 19.1691 32.6685 19.1691C32.2571 19.1691 31.8897 19.2818 31.5665 19.5071C31.2531 19.7226 31.0229 20.0115 30.8759 20.3739L29.3038 19.6099C29.4606 19.1887 29.7054 18.8263 30.0385 18.5227C30.3813 18.2092 30.7829 17.9643 31.2433 17.788C31.7036 17.6117 32.2032 17.5236 32.7419 17.5236C33.3982 17.5236 33.9761 17.646 34.4757 17.8909C34.9752 18.126 35.3621 18.459 35.6364 18.89C35.9204 19.3112 36.0625 19.8058 36.0625 20.3739V25.6927H34.2406V24.3263L34.652 24.2969C34.4463 24.6397 34.2014 24.9287 33.9173 25.1638C33.6333 25.389 33.31 25.5654 32.9476 25.6927C32.5852 25.8102 32.1836 25.869 31.7428 25.869ZM37.9884 25.6927V17.6999H39.7956V19.272L39.6486 18.9928C39.8347 18.5129 40.1384 18.1504 40.5596 17.9056C40.9906 17.6509 41.4901 17.5236 42.0582 17.5236C42.6459 17.5236 43.1651 17.6509 43.6157 17.9056C44.076 18.1602 44.4335 18.5178 44.6882 18.9781C44.9429 19.4287 45.0702 19.9527 45.0702 20.5502V25.6927H43.1455V21.0057C43.1455 20.6531 43.0769 20.3494 42.9398 20.0948C42.8027 19.8401 42.6117 19.6442 42.3668 19.5071C42.1317 19.3601 41.8525 19.2867 41.5293 19.2867C41.2158 19.2867 40.9367 19.3601 40.6918 19.5071C40.4469 19.6442 40.2559 19.8401 40.1188 20.0948C39.9817 20.3494 39.9131 20.6531 39.9131 21.0057V25.6927H37.9884ZM49.269 25.869C48.7107 25.869 48.2258 25.7759 47.8144 25.5898C47.403 25.4037 47.0847 25.1393 46.8594 24.7964C46.6341 24.4438 46.5215 24.0373 46.5215 23.5769C46.5215 23.1362 46.6194 22.7444 46.8153 22.4015C47.0112 22.0489 47.3149 21.755 47.7263 21.52C48.1377 21.2849 48.6568 21.1184 49.2837 21.0204L51.899 20.5943V22.0636L49.651 22.4456C49.269 22.5142 48.9849 22.6366 48.7988 22.8129C48.6127 22.9892 48.5197 23.2194 48.5197 23.5035C48.5197 23.7777 48.6225 23.9981 48.8282 24.1646C49.0437 24.3214 49.3082 24.3997 49.6216 24.3997C50.0232 24.3997 50.3759 24.3165 50.6795 24.15C50.9929 23.9736 51.2329 23.7337 51.3994 23.43C51.5758 23.1264 51.6639 22.7933 51.6639 22.4309V20.3739C51.6639 20.0311 51.5268 19.7471 51.2525 19.5218C50.988 19.2867 50.6354 19.1691 50.1946 19.1691C49.7832 19.1691 49.4159 19.2818 49.0927 19.5071C48.7792 19.7226 48.5491 20.0115 48.4021 20.3739L46.83 19.6099C46.9867 19.1887 47.2316 18.8263 47.5647 18.5227C47.9075 18.2092 48.3091 17.9643 48.7695 17.788C49.2298 17.6117 49.7294 17.5236 50.2681 17.5236C50.9244 17.5236 51.5023 17.646 52.0018 17.8909C52.5014 18.126 52.8883 18.459 53.1626 18.89C53.4466 19.3112 53.5886 19.8058 53.5886 20.3739V25.6927H51.7668V24.3263L52.1782 24.2969C51.9725 24.6397 51.7276 24.9287 51.4435 25.1638C51.1595 25.389 50.8362 25.5654 50.4738 25.6927C50.1114 25.8102 49.7098 25.869 49.269 25.869ZM59.3934 28.9251C58.7959 28.9251 58.2425 28.8271 57.7331 28.6312C57.2238 28.4353 56.783 28.1611 56.4108 27.8084C56.0484 27.4656 55.7839 27.0591 55.6174 26.5889L57.4099 25.9131C57.5274 26.2853 57.7576 26.584 58.1005 26.8093C58.4531 27.0444 58.8841 27.162 59.3934 27.162C59.7852 27.162 60.128 27.0885 60.4219 26.9416C60.7255 26.7946 60.9606 26.5791 61.1271 26.2951C61.2937 26.0208 61.3769 25.6878 61.3769 25.296V23.4741L61.7442 23.9149C61.47 24.3948 61.1027 24.7573 60.6423 25.0021C60.1819 25.247 59.6579 25.3694 59.0702 25.3694C58.3257 25.3694 57.6597 25.198 57.072 24.8552C56.4843 24.5124 56.0239 24.0422 55.6909 23.4447C55.3578 22.8472 55.1913 22.1762 55.1913 21.4318C55.1913 20.6776 55.3578 20.0066 55.6909 19.4189C56.0239 18.8312 56.4794 18.3708 57.0573 18.0378C57.6352 17.695 58.2915 17.5236 59.0261 17.5236C59.6236 17.5236 60.1476 17.6509 60.5982 17.9056C61.0586 18.1504 61.4406 18.508 61.7442 18.9781L61.4798 19.463V17.6999H63.3017V25.296C63.3017 25.9914 63.1302 26.6134 62.7874 27.162C62.4544 27.7105 61.994 28.1415 61.4063 28.4549C60.8284 28.7684 60.1574 28.9251 59.3934 28.9251ZM59.3053 23.5916C59.7166 23.5916 60.0742 23.5035 60.3778 23.3272C60.6913 23.1411 60.9361 22.8864 61.1125 22.5631C61.2888 22.2399 61.3769 21.8677 61.3769 21.4465C61.3769 21.0351 61.2839 20.6678 61.0978 20.3446C60.9214 20.0115 60.6766 19.7519 60.3631 19.5658C60.0595 19.3797 59.7069 19.2867 59.3053 19.2867C58.9037 19.2867 58.5412 19.3797 58.218 19.5658C57.8948 19.7519 57.6401 20.0115 57.454 20.3446C57.2777 20.6678 57.1895 21.0351 57.1895 21.4465C57.1895 21.8579 57.2777 22.2252 57.454 22.5485C57.6401 22.8717 57.8899 23.1264 58.2033 23.3125C58.5265 23.4986 58.8939 23.5916 59.3053 23.5916ZM69.0369 25.869C68.2141 25.869 67.4941 25.6829 66.877 25.3107C66.2599 24.9385 65.78 24.434 65.4371 23.7973C65.0943 23.1606 64.9229 22.4554 64.9229 21.6816C64.9229 20.8784 65.0943 20.1682 65.4371 19.5511C65.7898 18.9243 66.2648 18.4296 66.8623 18.0672C67.4696 17.7048 68.1455 17.5236 68.8899 17.5236C69.5168 17.5236 70.0653 17.6264 70.5355 17.8321C71.0155 18.0378 71.422 18.3219 71.755 18.6843C72.088 19.0467 72.3427 19.463 72.519 19.9332C72.6953 20.3935 72.7835 20.8931 72.7835 21.4318C72.7835 21.5689 72.7737 21.711 72.7541 21.8579C72.7443 22.0048 72.7198 22.1322 72.6806 22.2399H66.5097V20.7706H71.5934L70.6824 21.4612C70.7706 21.0106 70.7461 20.609 70.609 20.2564C70.4816 19.9038 70.2661 19.6246 69.9625 19.4189C69.6686 19.2132 69.3111 19.1104 68.8899 19.1104C68.4883 19.1104 68.1308 19.2132 67.8174 19.4189C67.5039 19.6148 67.2639 19.9087 67.0974 20.3005C66.9407 20.6825 66.8819 21.1478 66.9211 21.6963C66.8819 22.186 66.9456 22.6219 67.1121 23.0039C67.2884 23.3761 67.5431 23.6651 67.8761 23.8708C68.219 24.0765 68.6108 24.1793 69.0515 24.1793C69.4923 24.1793 69.8645 24.0863 70.1682 23.9002C70.4816 23.7141 70.7265 23.4643 70.9028 23.1509L72.4602 23.9149C72.3035 24.2969 72.0586 24.6348 71.7256 24.9287C71.3926 25.2225 70.9959 25.4527 70.5355 25.6192C70.0849 25.7857 69.5854 25.869 69.0369 25.869ZM77.3094 25.6927V14.7466H81.394C82.1384 14.7466 82.7947 14.8838 83.3628 15.158C83.9407 15.4225 84.3913 15.8143 84.7145 16.3335C85.0378 16.8428 85.1994 17.4648 85.1994 18.1994C85.1994 18.9243 85.0329 19.5463 84.6998 20.0654C84.3766 20.5747 83.9309 20.9665 83.3628 21.2408C82.7947 21.5151 82.1384 21.6522 81.394 21.6522H79.3076V25.6927H77.3094ZM79.3076 19.8891H81.4234C81.7858 19.8891 82.0992 19.8205 82.3637 19.6834C82.6282 19.5365 82.8339 19.3357 82.9808 19.081C83.1277 18.8263 83.2012 18.5325 83.2012 18.1994C83.2012 17.8566 83.1277 17.5627 82.9808 17.3179C82.8339 17.0632 82.6282 16.8673 82.3637 16.7302C82.0992 16.5832 81.7858 16.5098 81.4234 16.5098H79.3076V19.8891ZM90.3257 25.869C89.503 25.869 88.783 25.6829 88.1659 25.3107C87.5488 24.9385 87.0689 24.434 86.726 23.7973C86.3832 23.1606 86.2118 22.4554 86.2118 21.6816C86.2118 20.8784 86.3832 20.1682 86.726 19.5511C87.0787 18.9243 87.5537 18.4296 88.1512 18.0672C88.7585 17.7048 89.4344 17.5236 90.1788 17.5236C90.8057 17.5236 91.3542 17.6264 91.8244 17.8321C92.3044 18.0378 92.7109 18.3219 93.0439 18.6843C93.3769 19.0467 93.6316 19.463 93.8079 19.9332C93.9842 20.3935 94.0724 20.8931 94.0724 21.4318C94.0724 21.5689 94.0626 21.711 94.043 21.8579C94.0332 22.0048 94.0087 22.1322 93.9695 22.2399H87.7986V20.7706H92.8823L91.9713 21.4612C92.0595 21.0106 92.035 20.609 91.8979 20.2564C91.7705 19.9038 91.555 19.6246 91.2514 19.4189C90.9575 19.2132 90.6 19.1104 90.1788 19.1104C89.7772 19.1104 89.4197 19.2132 89.1063 19.4189C88.7928 19.6148 88.5528 19.9087 88.3863 20.3005C88.2296 20.6825 88.1708 21.1478 88.21 21.6963C88.1708 22.186 88.2345 22.6219 88.401 23.0039C88.5773 23.3761 88.832 23.6651 89.165 23.8708C89.5079 24.0765 89.8997 24.1793 90.3404 24.1793C90.7812 24.1793 91.1534 24.0863 91.4571 23.9002C91.7705 23.7141 92.0154 23.4643 92.1917 23.1509L93.7491 23.9149C93.5924 24.2969 93.3475 24.6348 93.0145 24.9287C92.6815 25.2225 92.2848 25.4527 91.8244 25.6192C91.3738 25.7857 90.8743 25.869 90.3257 25.869ZM95.6784 25.6927V17.6999H97.4856V19.4777L97.3386 19.2132C97.5247 18.6157 97.8137 18.1994 98.2055 17.9643C98.6071 17.7293 99.0871 17.6117 99.6454 17.6117H100.116V19.3161H99.425C98.8765 19.3161 98.4357 19.4875 98.1027 19.8303C97.7696 20.1633 97.6031 20.6335 97.6031 21.2408V25.6927H95.6784ZM101.321 25.6927V17.6999H103.128V19.5511L102.922 19.2426C103.069 18.6647 103.363 18.2337 103.804 17.9496C104.245 17.6656 104.764 17.5236 105.361 17.5236C106.017 17.5236 106.595 17.695 107.095 18.0378C107.594 18.3806 107.918 18.8312 108.065 19.3895L107.521 19.4336C107.766 18.7969 108.133 18.3219 108.623 18.0084C109.113 17.6852 109.676 17.5236 110.313 17.5236C110.881 17.5236 111.385 17.6509 111.826 17.9056C112.277 18.1602 112.629 18.5178 112.884 18.9781C113.138 19.4287 113.266 19.9527 113.266 20.5502V25.6927H111.341V21.0057C111.341 20.6531 111.277 20.3494 111.15 20.0948C111.023 19.8401 110.846 19.6442 110.621 19.5071C110.396 19.3601 110.122 19.2867 109.798 19.2867C109.495 19.2867 109.225 19.3601 108.99 19.5071C108.755 19.6442 108.574 19.8401 108.447 20.0948C108.319 20.3494 108.256 20.6531 108.256 21.0057V25.6927H106.331V21.0057C106.331 20.6531 106.267 20.3494 106.14 20.0948C106.013 19.8401 105.831 19.6442 105.596 19.5071C105.371 19.3601 105.102 19.2867 104.788 19.2867C104.485 19.2867 104.215 19.3601 103.98 19.5071C103.745 19.6442 103.564 19.8401 103.436 20.0948C103.309 20.3494 103.245 20.6531 103.245 21.0057V25.6927H101.321ZM115.041 25.6927V17.6999H116.966V25.6927H115.041ZM115.041 16.8036V14.7466H116.966V16.8036H115.041ZM121.931 25.869C121.079 25.869 120.335 25.6682 119.698 25.2666C119.071 24.8552 118.64 24.3018 118.405 23.6063L119.845 22.9158C120.051 23.3663 120.335 23.719 120.697 23.9736C121.069 24.2283 121.481 24.3557 121.931 24.3557C122.284 24.3557 122.563 24.2773 122.769 24.1206C122.974 23.9638 123.077 23.7582 123.077 23.5035C123.077 23.3468 123.033 23.2194 122.945 23.1215C122.867 23.0137 122.754 22.9256 122.607 22.857C122.47 22.7786 122.318 22.715 122.152 22.666L120.844 22.2987C120.168 22.1028 119.654 21.804 119.301 21.4024C118.958 21.0008 118.787 20.5258 118.787 19.9772C118.787 19.4875 118.91 19.0614 119.154 18.699C119.409 18.3268 119.757 18.0378 120.198 17.8321C120.648 17.6264 121.162 17.5236 121.74 17.5236C122.495 17.5236 123.161 17.7048 123.739 18.0672C124.316 18.4296 124.728 18.939 124.973 19.5952L123.503 20.2858C123.366 19.9234 123.136 19.6344 122.813 19.4189C122.49 19.2034 122.127 19.0957 121.726 19.0957C121.402 19.0957 121.148 19.1691 120.962 19.3161C120.775 19.463 120.682 19.654 120.682 19.8891C120.682 20.036 120.722 20.1633 120.8 20.2711C120.878 20.3788 120.986 20.467 121.123 20.5356C121.27 20.6041 121.437 20.6678 121.623 20.7266L122.901 21.1086C123.557 21.3045 124.062 21.5983 124.414 21.9901C124.777 22.3819 124.958 22.8619 124.958 23.43C124.958 23.91 124.831 24.3361 124.576 24.7083C124.321 25.0707 123.969 25.3548 123.518 25.5605C123.068 25.7662 122.539 25.869 121.931 25.869ZM129.625 25.869C128.773 25.869 128.029 25.6682 127.392 25.2666C126.765 24.8552 126.334 24.3018 126.099 23.6063L127.539 22.9158C127.745 23.3663 128.029 23.719 128.391 23.9736C128.763 24.2283 129.175 24.3557 129.625 24.3557C129.978 24.3557 130.257 24.2773 130.463 24.1206C130.669 23.9638 130.771 23.7582 130.771 23.5035C130.771 23.3468 130.727 23.2194 130.639 23.1215C130.561 23.0137 130.448 22.9256 130.301 22.857C130.164 22.7786 130.012 22.715 129.846 22.666L128.538 22.2987C127.862 22.1028 127.348 21.804 126.995 21.4024C126.653 21.0008 126.481 20.5258 126.481 19.9772C126.481 19.4875 126.604 19.0614 126.849 18.699C127.103 18.3268 127.451 18.0378 127.892 17.8321C128.342 17.6264 128.857 17.5236 129.434 17.5236C130.189 17.5236 130.855 17.7048 131.433 18.0672C132.011 18.4296 132.422 18.939 132.667 19.5952L131.198 20.2858C131.06 19.9234 130.83 19.6344 130.507 19.4189C130.184 19.2034 129.821 19.0957 129.42 19.0957C129.097 19.0957 128.842 19.1691 128.656 19.3161C128.47 19.463 128.377 19.654 128.377 19.8891C128.377 20.036 128.416 20.1633 128.494 20.2711C128.572 20.3788 128.68 20.467 128.817 20.5356C128.964 20.6041 129.131 20.6678 129.317 20.7266L130.595 21.1086C131.251 21.3045 131.756 21.5983 132.109 21.9901C132.471 22.3819 132.652 22.8619 132.652 23.43C132.652 23.91 132.525 24.3361 132.27 24.7083C132.015 25.0707 131.663 25.3548 131.212 25.5605C130.762 25.7662 130.233 25.869 129.625 25.869ZM134.278 25.6927V17.6999H136.203V25.6927H134.278ZM134.278 16.8036V14.7466H136.203V16.8036H134.278ZM142.035 25.869C141.252 25.869 140.537 25.6878 139.89 25.3254C139.253 24.963 138.744 24.4683 138.362 23.8414C137.99 23.2145 137.804 22.4995 137.804 21.6963C137.804 20.8931 137.99 20.178 138.362 19.5511C138.744 18.9243 139.253 18.4296 139.89 18.0672C140.527 17.7048 141.242 17.5236 142.035 17.5236C142.819 17.5236 143.529 17.7048 144.166 18.0672C144.802 18.4296 145.307 18.9243 145.679 19.5511C146.061 20.1682 146.252 20.8833 146.252 21.6963C146.252 22.4995 146.061 23.2145 145.679 23.8414C145.297 24.4683 144.788 24.963 144.151 25.3254C143.514 25.6878 142.809 25.869 142.035 25.869ZM142.035 24.1059C142.466 24.1059 142.843 24.003 143.167 23.7973C143.5 23.5916 143.759 23.3076 143.945 22.9452C144.141 22.5729 144.239 22.1566 144.239 21.6963C144.239 21.2261 144.141 20.8147 143.945 20.4621C143.759 20.0997 143.5 19.8156 143.167 19.6099C142.843 19.3944 142.466 19.2867 142.035 19.2867C141.594 19.2867 141.208 19.3944 140.875 19.6099C140.541 19.8156 140.277 20.0997 140.081 20.4621C139.895 20.8147 139.802 21.2261 139.802 21.6963C139.802 22.1566 139.895 22.5729 140.081 22.9452C140.277 23.3076 140.541 23.5916 140.875 23.7973C141.208 24.003 141.594 24.1059 142.035 24.1059ZM147.859 25.6927V17.6999H149.666V19.272L149.519 18.9928C149.705 18.5129 150.009 18.1504 150.43 17.9056C150.861 17.6509 151.36 17.5236 151.928 17.5236C152.516 17.5236 153.035 17.6509 153.486 17.9056C153.946 18.1602 154.304 18.5178 154.558 18.9781C154.813 19.4287 154.94 19.9527 154.94 20.5502V25.6927H153.016V21.0057C153.016 20.6531 152.947 20.3494 152.81 20.0948C152.673 19.8401 152.482 19.6442 152.237 19.5071C152.002 19.3601 151.723 19.2867 151.4 19.2867C151.086 19.2867 150.807 19.3601 150.562 19.5071C150.317 19.6442 150.126 19.8401 149.989 20.0948C149.852 20.3494 149.783 20.6531 149.783 21.0057V25.6927H147.859ZM159.756 25.869C158.904 25.869 158.16 25.6682 157.523 25.2666C156.896 24.8552 156.465 24.3018 156.23 23.6063L157.67 22.9158C157.876 23.3663 158.16 23.719 158.522 23.9736C158.894 24.2283 159.306 24.3557 159.756 24.3557C160.109 24.3557 160.388 24.2773 160.594 24.1206C160.8 23.9638 160.902 23.7582 160.902 23.5035C160.902 23.3468 160.858 23.2194 160.77 23.1215C160.692 23.0137 160.579 22.9256 160.432 22.857C160.295 22.7786 160.143 22.715 159.977 22.666L158.669 22.2987C157.993 22.1028 157.479 21.804 157.126 21.4024C156.784 21.0008 156.612 20.5258 156.612 19.9772C156.612 19.4875 156.735 19.0614 156.979 18.699C157.234 18.3268 157.582 18.0378 158.023 17.8321C158.473 17.6264 158.987 17.5236 159.565 17.5236C160.32 17.5236 160.986 17.7048 161.564 18.0672C162.141 18.4296 162.553 18.939 162.798 19.5952L161.328 20.2858C161.191 19.9234 160.961 19.6344 160.638 19.4189C160.315 19.2034 159.952 19.0957 159.551 19.0957C159.227 19.0957 158.973 19.1691 158.787 19.3161C158.601 19.463 158.507 19.654 158.507 19.8891C158.507 20.036 158.547 20.1633 158.625 20.2711C158.703 20.3788 158.811 20.467 158.948 20.5356C159.095 20.6041 159.262 20.6678 159.448 20.7266L160.726 21.1086C161.382 21.3045 161.887 21.5983 162.239 21.9901C162.602 22.3819 162.783 22.8619 162.783 23.43C162.783 23.91 162.656 24.3361 162.401 24.7083C162.146 25.0707 161.794 25.3548 161.343 25.5605C160.893 25.7662 160.364 25.869 159.756 25.869Z" fill="#262535"/>
<path d="M15.9152 48.8342V42.449H16.5152L18.915 45.9287H18.5807L20.9719 42.449H21.5719V48.8342H20.8862V43.3746L21.1091 43.4603L18.7607 46.8629H18.7264L16.3866 43.4603L16.6009 43.3746V48.8342H15.9152ZM25.2225 48.937C24.7882 48.937 24.394 48.8342 24.0397 48.6285C23.6855 48.4171 23.4026 48.1314 23.1912 47.7714C22.9855 47.4057 22.8827 46.9915 22.8827 46.5286C22.8827 46.0715 22.9855 45.663 23.1912 45.303C23.3969 44.9431 23.674 44.6602 24.0226 44.4545C24.3768 44.2431 24.7768 44.1374 25.2225 44.1374C25.6682 44.1374 26.0653 44.2403 26.4138 44.446C26.7681 44.6517 27.0452 44.9345 27.2452 45.2945C27.4509 45.6544 27.5537 46.0658 27.5537 46.5286C27.5537 46.9972 27.448 47.4143 27.2366 47.78C27.0252 48.1399 26.7424 48.4228 26.3881 48.6285C26.0396 48.8342 25.651 48.937 25.2225 48.937ZM25.2225 48.2942C25.531 48.2942 25.8081 48.2171 26.0538 48.0628C26.3053 47.9085 26.5024 47.6971 26.6452 47.4286C26.7938 47.16 26.8681 46.86 26.8681 46.5286C26.8681 46.1972 26.7938 45.9001 26.6452 45.6373C26.5024 45.3744 26.3053 45.1659 26.0538 45.0116C25.8081 44.8573 25.531 44.7802 25.2225 44.7802C24.9139 44.7802 24.634 44.8573 24.3826 45.0116C24.1369 45.1659 23.9397 45.3744 23.7912 45.6373C23.6426 45.9001 23.5683 46.1972 23.5683 46.5286C23.5683 46.86 23.6426 47.16 23.7912 47.4286C23.9397 47.6971 24.1369 47.9085 24.3826 48.0628C24.634 48.2171 24.9139 48.2942 25.2225 48.2942ZM30.8472 48.937C30.4187 48.937 30.033 48.8342 29.6902 48.6285C29.3473 48.4171 29.0759 48.1314 28.876 47.7714C28.6817 47.4057 28.5846 46.9943 28.5846 46.5372C28.5846 46.0744 28.6817 45.663 28.876 45.303C29.0759 44.9431 29.3445 44.6602 29.6816 44.4545C30.0244 44.2431 30.413 44.1374 30.8472 44.1374C31.2415 44.1374 31.5929 44.2231 31.9014 44.3945C32.21 44.5659 32.4528 44.7974 32.6299 45.0888L32.5271 45.2687V42.3461H33.1699V48.8342H32.5271V47.8057L32.6299 47.9C32.4699 48.2314 32.23 48.4885 31.91 48.6713C31.5957 48.8485 31.2415 48.937 30.8472 48.937ZM30.8815 48.2942C31.1901 48.2942 31.4672 48.2171 31.7129 48.0628C31.9643 47.9085 32.1614 47.7 32.3042 47.4371C32.4528 47.1686 32.5271 46.8686 32.5271 46.5372C32.5271 46.2058 32.4528 45.9087 32.3042 45.6459C32.1614 45.3773 31.9643 45.1659 31.7129 45.0116C31.4672 44.8573 31.1901 44.7802 30.8815 44.7802C30.5787 44.7802 30.3044 44.8573 30.0587 45.0116C29.813 45.1659 29.6188 45.3744 29.4759 45.6373C29.3388 45.9001 29.2702 46.2001 29.2702 46.5372C29.2702 46.8686 29.3388 47.1686 29.4759 47.4371C29.6188 47.7 29.8102 47.9085 30.0501 48.0628C30.2958 48.2171 30.573 48.2942 30.8815 48.2942ZM34.5754 48.8342V44.2403H35.2182V48.8342H34.5754ZM34.5754 43.3918V42.449H35.2182V43.3918H34.5754ZM37.0911 48.8342V44.8831H36.174V44.2403H37.0911V43.8289C37.0911 43.5089 37.1625 43.2403 37.3053 43.0232C37.4482 42.8004 37.6367 42.6318 37.871 42.5175C38.1053 42.4033 38.3567 42.3461 38.6252 42.3461C38.6824 42.3461 38.7481 42.3518 38.8224 42.3633C38.8966 42.369 38.9566 42.3776 39.0023 42.389V42.9718C38.9623 42.9604 38.9081 42.9546 38.8395 42.9546C38.7709 42.9489 38.7224 42.9461 38.6938 42.9461C38.4195 42.9461 38.191 43.0118 38.0081 43.1432C37.8253 43.2746 37.7339 43.5032 37.7339 43.8289V44.2403H38.8566V44.8831H37.7339V48.8342H37.0911ZM40.1643 50.7197C40.0729 50.7197 39.9786 50.7112 39.8815 50.694C39.7901 50.6826 39.6987 50.6597 39.6072 50.6255V50.0255C39.6644 50.0312 39.7358 50.0398 39.8215 50.0512C39.9129 50.0684 40.0044 50.0769 40.0958 50.0769C40.3758 50.0769 40.59 50.0169 40.7386 49.8969C40.8871 49.7827 41.0328 49.5598 41.1757 49.2284L41.4671 48.5428L41.45 49.1084L39.5044 44.2403H40.1986L41.7928 48.2599H41.6128L43.1984 44.2403H43.9098L41.8099 49.417C41.7185 49.6398 41.6014 49.8512 41.4585 50.0512C41.3214 50.2512 41.1471 50.4112 40.9357 50.5312C40.7243 50.6569 40.4672 50.7197 40.1643 50.7197ZM46.3872 48.8342V42.449H48.5813C48.9984 42.449 49.3641 42.5318 49.6783 42.6975C49.9926 42.8575 50.2354 43.0861 50.4068 43.3832C50.584 43.6746 50.6725 44.0146 50.6725 44.4031C50.6725 44.7916 50.584 45.1316 50.4068 45.423C50.2354 45.7144 49.9926 45.943 49.6783 46.1087C49.3698 46.2687 49.0041 46.3487 48.5813 46.3487H47.0728V48.8342H46.3872ZM47.0728 45.7059H48.6156C48.8898 45.7059 49.1298 45.6544 49.3355 45.5516C49.5412 45.443 49.7012 45.2916 49.8155 45.0973C49.9297 44.8973 49.9869 44.6631 49.9869 44.3945C49.9869 44.126 49.9297 43.8946 49.8155 43.7003C49.7012 43.506 49.5412 43.3575 49.3355 43.2546C49.1298 43.1461 48.8898 43.0918 48.6156 43.0918H47.0728V45.7059ZM53.8098 48.937C53.3813 48.937 52.9927 48.8342 52.6442 48.6285C52.3014 48.4171 52.03 48.1285 51.83 47.7628C51.63 47.3971 51.53 46.9829 51.53 46.5201C51.53 46.0573 51.6271 45.6487 51.8214 45.2945C52.0157 44.9345 52.2785 44.6517 52.6099 44.446C52.947 44.2403 53.3241 44.1374 53.7413 44.1374C54.0727 44.1374 54.3669 44.2003 54.624 44.326C54.8869 44.446 55.1097 44.6117 55.2926 44.8231C55.4754 45.0288 55.6154 45.263 55.7125 45.5259C55.8097 45.783 55.8582 46.0487 55.8582 46.3229C55.8582 46.3801 55.8554 46.4458 55.8497 46.5201C55.8439 46.5886 55.8354 46.6601 55.8239 46.7343H51.9414V46.1344H55.4554L55.1469 46.3915C55.1983 46.0772 55.1611 45.7973 55.0354 45.5516C54.9154 45.3002 54.7412 45.103 54.5126 44.9602C54.2841 44.8116 54.0269 44.7374 53.7413 44.7374C53.4556 44.7374 53.1899 44.8116 52.9442 44.9602C52.7042 45.1088 52.5156 45.3173 52.3785 45.5859C52.2414 45.8487 52.1871 46.163 52.2157 46.5286C52.1871 46.8943 52.2442 47.2143 52.3871 47.4886C52.5356 47.7571 52.7356 47.9657 52.987 48.1142C53.2441 48.2628 53.5184 48.3371 53.8098 48.3371C54.1469 48.3371 54.4298 48.2571 54.6583 48.0971C54.8869 47.9371 55.0726 47.7371 55.2154 47.4971L55.7639 47.7885C55.6725 47.9942 55.5325 48.1856 55.344 48.3628C55.1554 48.5342 54.9297 48.6742 54.6669 48.7827C54.4098 48.8856 54.1241 48.937 53.8098 48.937ZM57.0773 48.8342V44.2403H57.7201V44.9945L57.6344 44.8831C57.7429 44.6659 57.9058 44.4945 58.1229 44.3688C58.3457 44.2431 58.6143 44.1803 58.9286 44.1803H59.22V44.8231H58.8171C58.4857 44.8231 58.22 44.9259 58.0201 45.1316C57.8201 45.3373 57.7201 45.6287 57.7201 46.0058V48.8342H57.0773ZM60.059 48.8342V44.2403H60.7018V45.1145L60.5989 44.9859C60.7246 44.7174 60.9103 44.5088 61.156 44.3602C61.4074 44.2117 61.6817 44.1374 61.9788 44.1374C62.3331 44.1374 62.653 44.2374 62.9387 44.4374C63.2244 44.6374 63.4272 44.8973 63.5472 45.2173L63.3673 45.2259C63.4815 44.8716 63.6787 44.6031 63.9586 44.4202C64.2443 44.2317 64.5586 44.1374 64.9014 44.1374C65.21 44.1374 65.4928 44.2117 65.7499 44.3602C66.0128 44.5088 66.2213 44.7145 66.3756 44.9773C66.5356 45.2345 66.6156 45.5259 66.6156 45.8516V48.8342H65.9728V46.1001C65.9728 45.8201 65.9213 45.583 65.8185 45.3887C65.7213 45.1945 65.5871 45.0459 65.4157 44.9431C65.2442 44.8345 65.0471 44.7802 64.8243 44.7802C64.6072 44.7802 64.41 44.8345 64.2329 44.9431C64.0558 45.0459 63.9158 45.1973 63.8129 45.3973C63.7101 45.5916 63.6587 45.8258 63.6587 46.1001V48.8342H63.0159V46.1001C63.0159 45.8201 62.9644 45.583 62.8616 45.3887C62.7644 45.1945 62.6302 45.0459 62.4588 44.9431C62.2873 44.8345 62.0902 44.7802 61.8674 44.7802C61.6445 44.7802 61.4446 44.8345 61.2674 44.9431C61.096 45.0459 60.9589 45.1973 60.856 45.3973C60.7532 45.5916 60.7018 45.8258 60.7018 46.1001V48.8342H60.059ZM67.9286 48.8342V44.2403H68.5714V48.8342H67.9286ZM67.9286 43.3918V42.449H68.5714V43.3918H67.9286ZM71.567 48.937C71.1271 48.937 70.7414 48.8256 70.41 48.6028C70.0786 48.3799 69.8386 48.0771 69.69 47.6943L70.23 47.4371C70.3614 47.7171 70.5443 47.94 70.7785 48.1057C71.0185 48.2714 71.2813 48.3542 71.567 48.3542C71.8413 48.3542 72.0727 48.2885 72.2613 48.1571C72.4498 48.0199 72.5441 47.8428 72.5441 47.6257C72.5441 47.4657 72.4984 47.34 72.407 47.2486C72.3155 47.1514 72.2098 47.0772 72.0898 47.0257C71.9699 46.9743 71.8642 46.9372 71.7727 46.9143L71.1128 46.7258C70.69 46.6058 70.3843 46.4372 70.1957 46.2201C70.0072 46.003 69.9129 45.7516 69.9129 45.4659C69.9129 45.1973 69.9814 44.9631 70.1186 44.7631C70.2557 44.5631 70.4414 44.4088 70.6757 44.3003C70.9099 44.1917 71.1699 44.1374 71.4556 44.1374C71.8442 44.1374 72.1956 44.2403 72.5098 44.446C72.8298 44.6459 73.0555 44.9259 73.1869 45.2859L72.6384 45.543C72.5241 45.2859 72.3584 45.0859 72.1413 44.9431C71.9299 44.7945 71.6927 44.7202 71.4299 44.7202C71.1728 44.7202 70.9671 44.7859 70.8128 44.9173C70.6585 45.0488 70.5814 45.2145 70.5814 45.4144C70.5814 45.5687 70.6214 45.6916 70.7014 45.783C70.7814 45.8744 70.8728 45.943 70.9757 45.9887C71.0842 46.0344 71.1785 46.0687 71.2585 46.0915L72.0213 46.3144C72.3927 46.4229 72.6812 46.5915 72.8869 46.82C73.0983 47.0486 73.204 47.3171 73.204 47.6257C73.204 47.8771 73.1326 48.1028 72.9898 48.3028C72.8526 48.5028 72.6612 48.6599 72.4155 48.7742C72.1698 48.8827 71.887 48.937 71.567 48.937ZM76.0134 48.937C75.5735 48.937 75.1878 48.8256 74.8564 48.6028C74.525 48.3799 74.285 48.0771 74.1364 47.6943L74.6764 47.4371C74.8078 47.7171 74.9907 47.94 75.2249 48.1057C75.4649 48.2714 75.7277 48.3542 76.0134 48.3542C76.2877 48.3542 76.5191 48.2885 76.7077 48.1571C76.8962 48.0199 76.9905 47.8428 76.9905 47.6257C76.9905 47.4657 76.9448 47.34 76.8534 47.2486C76.7619 47.1514 76.6562 47.0772 76.5362 47.0257C76.4163 46.9743 76.3106 46.9372 76.2191 46.9143L75.5592 46.7258C75.1364 46.6058 74.8307 46.4372 74.6421 46.2201C74.4536 46.003 74.3593 45.7516 74.3593 45.4659C74.3593 45.1973 74.4278 44.9631 74.565 44.7631C74.7021 44.5631 74.8878 44.4088 75.1221 44.3003C75.3563 44.1917 75.6163 44.1374 75.902 44.1374C76.2906 44.1374 76.642 44.2403 76.9562 44.446C77.2762 44.6459 77.5019 44.9259 77.6333 45.2859L77.0848 45.543C76.9705 45.2859 76.8048 45.0859 76.5877 44.9431C76.3763 44.7945 76.1391 44.7202 75.8763 44.7202C75.6192 44.7202 75.4135 44.7859 75.2592 44.9173C75.1049 45.0488 75.0278 45.2145 75.0278 45.4144C75.0278 45.5687 75.0678 45.6916 75.1478 45.783C75.2278 45.8744 75.3192 45.943 75.4221 45.9887C75.5306 46.0344 75.6249 46.0687 75.7049 46.0915L76.4677 46.3144C76.8391 46.4229 77.1276 46.5915 77.3333 46.82C77.5447 47.0486 77.6504 47.3171 77.6504 47.6257C77.6504 47.8771 77.579 48.1028 77.4362 48.3028C77.299 48.5028 77.1076 48.6599 76.8619 48.7742C76.6162 48.8827 76.3334 48.937 76.0134 48.937ZM78.8657 48.8342V44.2403H79.5085V48.8342H78.8657ZM78.8657 43.3918V42.449H79.5085V43.3918H78.8657ZM83.0612 48.937C82.6269 48.937 82.2327 48.8342 81.8784 48.6285C81.5242 48.4171 81.2413 48.1314 81.0299 47.7714C80.8242 47.4057 80.7214 46.9915 80.7214 46.5286C80.7214 46.0715 80.8242 45.663 81.0299 45.303C81.2356 44.9431 81.5127 44.6602 81.8613 44.4545C82.2155 44.2431 82.6155 44.1374 83.0612 44.1374C83.5069 44.1374 83.904 44.2403 84.2525 44.446C84.6068 44.6517 84.8839 44.9345 85.0839 45.2945C85.2896 45.6544 85.3924 46.0658 85.3924 46.5286C85.3924 46.9972 85.2867 47.4143 85.0753 47.78C84.8639 48.1399 84.5811 48.4228 84.2268 48.6285C83.8783 48.8342 83.4897 48.937 83.0612 48.937ZM83.0612 48.2942C83.3697 48.2942 83.6469 48.2171 83.8925 48.0628C84.144 47.9085 84.3411 47.6971 84.4839 47.4286C84.6325 47.16 84.7068 46.86 84.7068 46.5286C84.7068 46.1972 84.6325 45.9001 84.4839 45.6373C84.3411 45.3744 84.144 45.1659 83.8925 45.0116C83.6469 44.8573 83.3697 44.7802 83.0612 44.7802C82.7526 44.7802 82.4727 44.8573 82.2213 45.0116C81.9756 45.1659 81.7784 45.3744 81.6299 45.6373C81.4813 45.9001 81.407 46.1972 81.407 46.5286C81.407 46.86 81.4813 47.16 81.6299 47.4286C81.7784 47.6971 81.9756 47.9085 82.2213 48.0628C82.4727 48.2171 82.7526 48.2942 83.0612 48.2942ZM86.6118 48.8342V44.2403H87.2546V45.1316L87.1089 45.0973C87.2232 44.8002 87.4089 44.5659 87.666 44.3945C87.9288 44.2231 88.2317 44.1374 88.5745 44.1374C88.9002 44.1374 89.1916 44.2117 89.4487 44.3602C89.7116 44.5088 89.9173 44.7145 90.0658 44.9773C90.2201 45.2345 90.2972 45.5259 90.2972 45.8516V48.8342H89.6544V46.1001C89.6544 45.8201 89.603 45.583 89.5001 45.3887C89.403 45.1945 89.263 45.0459 89.0802 44.9431C88.9031 44.8345 88.6974 44.7802 88.4631 44.7802C88.2288 44.7802 88.0203 44.8345 87.8374 44.9431C87.6546 45.0459 87.5117 45.1973 87.4089 45.3973C87.306 45.5916 87.2546 45.8258 87.2546 46.1001V48.8342H86.6118ZM93.2048 48.937C92.7648 48.937 92.3791 48.8256 92.0477 48.6028C91.7163 48.3799 91.4763 48.0771 91.3278 47.6943L91.8677 47.4371C91.9992 47.7171 92.182 47.94 92.4163 48.1057C92.6563 48.2714 92.9191 48.3542 93.2048 48.3542C93.479 48.3542 93.7105 48.2885 93.899 48.1571C94.0876 48.0199 94.1818 47.8428 94.1818 47.6257C94.1818 47.4657 94.1361 47.34 94.0447 47.2486C93.9533 47.1514 93.8476 47.0772 93.7276 47.0257C93.6076 46.9743 93.5019 46.9372 93.4105 46.9143L92.7505 46.7258C92.3277 46.6058 92.022 46.4372 91.8335 46.2201C91.6449 46.003 91.5506 45.7516 91.5506 45.4659C91.5506 45.1973 91.6192 44.9631 91.7563 44.7631C91.8935 44.5631 92.0792 44.4088 92.3134 44.3003C92.5477 44.1917 92.8077 44.1374 93.0934 44.1374C93.4819 44.1374 93.8333 44.2403 94.1476 44.446C94.4675 44.6459 94.6932 44.9259 94.8246 45.2859L94.2761 45.543C94.1618 45.2859 93.9961 45.0859 93.779 44.9431C93.5676 44.7945 93.3305 44.7202 93.0676 44.7202C92.8105 44.7202 92.6048 44.7859 92.4506 44.9173C92.2963 45.0488 92.2191 45.2145 92.2191 45.4144C92.2191 45.5687 92.2591 45.6916 92.3391 45.783C92.4191 45.8744 92.5105 45.943 92.6134 45.9887C92.722 46.0344 92.8162 46.0687 92.8962 46.0915L93.659 46.3144C94.0304 46.4229 94.319 46.5915 94.5247 46.82C94.7361 47.0486 94.8418 47.3171 94.8418 47.6257C94.8418 47.8771 94.7704 48.1028 94.6275 48.3028C94.4904 48.5028 94.299 48.6599 94.0533 48.7742C93.8076 48.8827 93.5248 48.937 93.2048 48.937Z" fill="#4C689E"/>
<path d="M194.967 48.937C194.516 48.937 194.099 48.857 193.716 48.697C193.333 48.5313 193.001 48.2999 192.721 48.0028C192.442 47.7057 192.222 47.3571 192.062 46.9572C191.907 46.5572 191.83 46.1201 191.83 45.6459C191.83 45.1659 191.907 44.7259 192.062 44.326C192.216 43.926 192.433 43.5775 192.713 43.2803C192.993 42.9832 193.324 42.7547 193.707 42.5947C194.09 42.429 194.507 42.3461 194.958 42.3461C195.398 42.3461 195.793 42.4233 196.141 42.5775C196.495 42.7318 196.793 42.9318 197.033 43.1775C197.278 43.4232 197.453 43.686 197.555 43.966L196.801 44.3345C196.653 43.9631 196.421 43.6689 196.107 43.4517C195.793 43.2346 195.41 43.1261 194.958 43.1261C194.513 43.1261 194.116 43.2318 193.767 43.4432C193.424 43.6546 193.156 43.9489 192.961 44.326C192.767 44.7031 192.67 45.143 192.67 45.6459C192.67 46.143 192.767 46.5801 192.961 46.9572C193.161 47.3343 193.433 47.6286 193.776 47.84C194.124 48.0514 194.521 48.1571 194.967 48.1571C195.356 48.1571 195.707 48.0742 196.021 47.9085C196.335 47.7428 196.584 47.5143 196.767 47.2229C196.95 46.9315 197.041 46.5943 197.041 46.2115V45.8173L197.427 46.1772H194.958V45.4487H197.89V46.0144C197.89 46.4601 197.812 46.8629 197.658 47.2229C197.504 47.5828 197.293 47.8914 197.024 48.1485C196.755 48.3999 196.444 48.5942 196.09 48.7313C195.736 48.8685 195.361 48.937 194.967 48.937ZM201.21 48.937C200.764 48.937 200.361 48.8342 200.001 48.6285C199.641 48.4171 199.356 48.1285 199.144 47.7628C198.933 47.3971 198.827 46.9829 198.827 46.5201C198.827 46.0573 198.93 45.6459 199.136 45.2859C199.347 44.9259 199.633 44.6402 199.993 44.4288C200.353 44.2174 200.758 44.1117 201.21 44.1117C201.655 44.1117 202.058 44.2174 202.418 44.4288C202.778 44.6345 203.061 44.9173 203.267 45.2773C203.478 45.6373 203.584 46.0515 203.584 46.5201C203.584 46.9886 203.475 47.4057 203.258 47.7714C203.041 48.1314 202.753 48.4171 202.393 48.6285C202.038 48.8342 201.644 48.937 201.21 48.937ZM201.21 48.1657C201.495 48.1657 201.753 48.0942 201.981 47.9514C202.215 47.8085 202.398 47.6114 202.53 47.36C202.667 47.1086 202.735 46.8286 202.735 46.5201C202.735 46.2058 202.667 45.9287 202.53 45.6887C202.398 45.443 202.215 45.2487 201.981 45.1059C201.753 44.9573 201.495 44.8831 201.21 44.8831C200.918 44.8831 200.656 44.9573 200.421 45.1059C200.193 45.2487 200.01 45.443 199.873 45.6887C199.736 45.9287 199.667 46.2058 199.667 46.5201C199.667 46.8286 199.736 47.1086 199.873 47.36C200.01 47.6114 200.193 47.8085 200.421 47.9514C200.656 48.0942 200.918 48.1657 201.21 48.1657ZM206.903 48.937C206.458 48.937 206.055 48.8342 205.695 48.6285C205.335 48.4171 205.049 48.1285 204.838 47.7628C204.626 47.3971 204.521 46.9829 204.521 46.5201C204.521 46.0573 204.623 45.6459 204.829 45.2859C205.041 44.9259 205.326 44.6402 205.686 44.4288C206.046 44.2174 206.452 44.1117 206.903 44.1117C207.349 44.1117 207.752 44.2174 208.112 44.4288C208.472 44.6345 208.755 44.9173 208.96 45.2773C209.172 45.6373 209.277 46.0515 209.277 46.5201C209.277 46.9886 209.169 47.4057 208.952 47.7714C208.735 48.1314 208.446 48.4171 208.086 48.6285C207.732 48.8342 207.338 48.937 206.903 48.937ZM206.903 48.1657C207.189 48.1657 207.446 48.0942 207.675 47.9514C207.909 47.8085 208.092 47.6114 208.223 47.36C208.36 47.1086 208.429 46.8286 208.429 46.5201C208.429 46.2058 208.36 45.9287 208.223 45.6887C208.092 45.443 207.909 45.2487 207.675 45.1059C207.446 44.9573 207.189 44.8831 206.903 44.8831C206.612 44.8831 206.349 44.9573 206.115 45.1059C205.886 45.2487 205.703 45.443 205.566 45.6887C205.429 45.9287 205.361 46.2058 205.361 46.5201C205.361 46.8286 205.429 47.1086 205.566 47.36C205.703 47.6114 205.886 47.8085 206.115 47.9514C206.349 48.0942 206.612 48.1657 206.903 48.1657ZM212.605 50.7197C212.28 50.7197 211.977 50.6683 211.697 50.5655C211.423 50.4626 211.185 50.3198 210.986 50.1369C210.791 49.9598 210.643 49.7512 210.54 49.5113L211.285 49.1684C211.365 49.3856 211.517 49.5684 211.74 49.717C211.968 49.8712 212.254 49.9484 212.597 49.9484C212.86 49.9484 213.097 49.8969 213.308 49.7941C213.525 49.697 213.697 49.5484 213.822 49.3484C213.948 49.1541 214.011 48.917 214.011 48.637V47.6L214.157 47.7543C213.997 48.0685 213.765 48.3085 213.462 48.4742C213.165 48.6399 212.837 48.7227 212.477 48.7227C212.043 48.7227 211.654 48.6228 211.311 48.4228C210.968 48.2171 210.7 47.94 210.506 47.5914C210.311 47.2372 210.214 46.8458 210.214 46.4172C210.214 45.983 210.311 45.5916 210.506 45.243C210.7 44.8945 210.966 44.6202 211.303 44.4202C211.645 44.2145 212.034 44.1117 212.468 44.1117C212.828 44.1117 213.154 44.1945 213.445 44.3602C213.742 44.5202 213.98 44.7431 214.157 45.0288L214.037 45.243V44.2145H214.817V48.637C214.817 49.037 214.722 49.3941 214.534 49.7084C214.345 50.0226 214.082 50.2683 213.745 50.4455C213.414 50.6283 213.034 50.7197 212.605 50.7197ZM212.545 47.9514C212.82 47.9514 213.065 47.8828 213.282 47.7457C213.505 47.6086 213.682 47.4257 213.814 47.1972C213.945 46.9629 214.011 46.7029 214.011 46.4172C214.011 46.1372 213.945 45.8801 213.814 45.6459C213.682 45.4116 213.505 45.2259 213.282 45.0888C213.065 44.9516 212.82 44.8831 212.545 44.8831C212.265 44.8831 212.011 44.9516 211.783 45.0888C211.554 45.2259 211.374 45.4116 211.243 45.6459C211.117 45.8744 211.054 46.1315 211.054 46.4172C211.054 46.7029 211.117 46.9629 211.243 47.1972C211.374 47.4257 211.551 47.6086 211.774 47.7457C212.003 47.8828 212.26 47.9514 212.545 47.9514ZM216.138 48.8342V42.3461H216.935V48.8342H216.138ZM220.383 48.937C219.938 48.937 219.54 48.8313 219.192 48.6199C218.843 48.4085 218.569 48.1199 218.369 47.7543C218.169 47.3829 218.069 46.9686 218.069 46.5115C218.069 46.0487 218.166 45.6373 218.36 45.2773C218.56 44.9173 218.829 44.6345 219.166 44.4288C219.509 44.2174 219.892 44.1117 220.315 44.1117C220.657 44.1117 220.96 44.1745 221.223 44.3003C221.492 44.4202 221.717 44.5859 221.9 44.7974C222.089 45.0031 222.232 45.2402 222.329 45.5087C222.432 45.7716 222.483 46.0458 222.483 46.3315C222.483 46.3944 222.477 46.4658 222.466 46.5458C222.46 46.6201 222.452 46.6915 222.44 46.7601H218.652V46.0744H221.977L221.6 46.3829C221.652 46.0858 221.623 45.8201 221.515 45.5859C221.406 45.3516 221.246 45.1659 221.035 45.0288C220.823 44.8916 220.583 44.8231 220.315 44.8231C220.046 44.8231 219.8 44.8916 219.578 45.0288C219.355 45.1659 219.18 45.363 219.055 45.6201C218.935 45.8716 218.886 46.1715 218.909 46.5201C218.886 46.8572 218.938 47.1543 219.063 47.4114C219.195 47.6628 219.378 47.86 219.612 48.0028C219.852 48.1399 220.112 48.2085 220.392 48.2085C220.7 48.2085 220.96 48.1371 221.172 47.9942C221.383 47.8514 221.555 47.6685 221.686 47.4457L222.354 47.7885C222.263 47.9999 222.12 48.1942 221.926 48.3713C221.737 48.5428 221.512 48.6799 221.249 48.7827C220.992 48.8856 220.703 48.937 220.383 48.937Z" fill="#262535"/>
<rect x="15.4671" y="58.9354" width="82.1" height="16.5293" rx="7.04024" fill="#F1F4FF"/>
<rect x="15.4671" y="58.9354" width="82.1" height="16.5293" rx="7.04024" stroke="#ECF0FF" stroke-width="0.612195"/>
<rect x="20.6707" y="62.9148" width="8.57073" height="8.57073" rx="1.83659" fill="white"/>
<rect x="20.6707" y="62.9148" width="8.57073" height="8.57073" rx="1.83659" stroke="#0074FF" stroke-width="1.22439"/>
<path d="M36.5854 69.7V64.2269H38.5175C38.8799 64.2269 39.1982 64.2955 39.4725 64.4326C39.7467 64.5698 39.9598 64.7657 40.1116 65.0203C40.2683 65.275 40.3467 65.5738 40.3467 65.9166C40.3467 66.3035 40.2487 66.6316 40.0528 66.901C39.8569 67.1704 39.5925 67.3638 39.2594 67.4814L40.5303 69.7H39.6929L38.3558 67.3271L38.8333 67.6062H37.3053V69.7H36.5854ZM37.3053 66.9451H38.5395C38.755 66.9451 38.9435 66.9034 39.1052 66.8202C39.2668 66.7369 39.3917 66.6169 39.4798 66.4602C39.5729 66.3035 39.6194 66.1223 39.6194 65.9166C39.6194 65.706 39.5729 65.5248 39.4798 65.373C39.3917 65.2162 39.2668 65.0962 39.1052 65.013C38.9435 64.9297 38.755 64.8881 38.5395 64.8881H37.3053V66.9451ZM42.9412 69.7881C42.5591 69.7881 42.2188 69.6975 41.92 69.5163C41.6213 69.3351 41.3862 69.0878 41.2148 68.7743C41.0433 68.456 40.9576 68.1009 40.9576 67.7091C40.9576 67.3124 41.0409 66.9598 41.2074 66.6512C41.3788 66.3427 41.609 66.1002 41.898 65.9239C42.1918 65.7427 42.52 65.6521 42.8824 65.6521C43.1762 65.6521 43.4358 65.706 43.6611 65.8137C43.8913 65.9166 44.0847 66.0586 44.2415 66.2398C44.4031 66.4161 44.5255 66.6194 44.6088 66.8496C44.6969 67.0749 44.741 67.3099 44.741 67.5548C44.741 67.6087 44.7361 67.6699 44.7263 67.7385C44.7214 67.8021 44.7141 67.8634 44.7043 67.9221H41.4572V67.3344H44.3076L43.9843 67.5989C44.0284 67.3442 44.0039 67.1165 43.9109 66.9157C43.8178 66.7149 43.6807 66.5557 43.4995 66.4382C43.3183 66.3206 43.1126 66.2619 42.8824 66.2619C42.6522 66.2619 42.4416 66.3206 42.2506 66.4382C42.0596 66.5557 41.9102 66.7247 41.8025 66.9451C41.6996 67.1606 41.658 67.4177 41.6776 67.7164C41.658 68.0054 41.7021 68.2601 41.8098 68.4805C41.9225 68.696 42.0792 68.8649 42.28 68.9874C42.4857 69.1049 42.7085 69.1637 42.9485 69.1637C43.213 69.1637 43.4358 69.1024 43.617 68.98C43.7982 68.8576 43.9452 68.7008 44.0578 68.5098L44.6308 68.8037C44.5524 68.9849 44.43 69.1514 44.2635 69.3032C44.1019 69.4502 43.9084 69.5677 43.6831 69.6559C43.4627 69.744 43.2154 69.7881 42.9412 69.7881ZM46.8158 69.7881C46.5562 69.7881 46.326 69.7416 46.1252 69.6485C45.9293 69.5506 45.775 69.4183 45.6624 69.2518C45.5498 69.0804 45.4934 68.8845 45.4934 68.6641C45.4934 68.4535 45.5375 68.265 45.6257 68.0984C45.7187 67.927 45.8607 67.7826 46.0518 67.665C46.2477 67.5475 46.4925 67.4642 46.7864 67.4152L48.2557 67.1728V67.7458L46.9407 67.9662C46.686 68.0103 46.4999 68.0911 46.3823 68.2086C46.2697 68.3262 46.2134 68.4707 46.2134 68.6421C46.2134 68.8037 46.277 68.9384 46.4044 69.0461C46.5366 69.1539 46.7007 69.2077 46.8966 69.2077C47.1464 69.2077 47.3619 69.1563 47.5431 69.0535C47.7292 68.9457 47.8736 68.8012 47.9765 68.62C48.0842 68.4388 48.1381 68.238 48.1381 68.0176V67.0112C48.1381 66.7957 48.0573 66.6218 47.8957 66.4896C47.739 66.3525 47.5308 66.2839 47.2712 66.2839C47.046 66.2839 46.8452 66.3427 46.6688 66.4602C46.4974 66.5729 46.3701 66.7247 46.2868 66.9157L45.6918 66.6071C45.7652 66.4259 45.8828 66.2643 46.0444 66.1223C46.206 65.9754 46.3946 65.8603 46.6101 65.777C46.8256 65.6937 47.0509 65.6521 47.2859 65.6521C47.5896 65.6521 47.8565 65.7109 48.0867 65.8284C48.3169 65.9411 48.4956 66.1002 48.623 66.3059C48.7552 66.5067 48.8213 66.7418 48.8213 67.0112V69.7H48.1528V68.9506L48.2777 68.9947C48.1944 69.1514 48.0818 69.2886 47.9398 69.4061C47.7977 69.5236 47.6312 69.6167 47.4402 69.6853C47.2492 69.7538 47.0411 69.7881 46.8158 69.7881ZM51.7539 69.7881C51.3817 69.7881 51.0462 69.6975 50.7475 69.5163C50.4536 69.3351 50.221 69.0878 50.0496 68.7743C49.8782 68.4609 49.7925 68.1107 49.7925 67.7238C49.7925 67.3271 49.8782 66.9745 50.0496 66.6659C50.221 66.3525 50.4536 66.1051 50.7475 65.9239C51.0462 65.7427 51.3817 65.6521 51.7539 65.6521C52.0821 65.6521 52.3735 65.7231 52.6282 65.8652C52.8828 66.0023 53.0836 66.1884 53.2306 66.4235L53.1204 66.5924V64.1388H53.8109V69.7H53.1424V68.8551L53.2306 68.9727C53.0934 69.2322 52.8926 69.433 52.6282 69.5751C52.3686 69.7171 52.0772 69.7881 51.7539 69.7881ZM51.8127 69.1269C52.0625 69.1269 52.2853 69.0657 52.4812 68.9433C52.6771 68.8208 52.8314 68.6543 52.9441 68.4437C53.0616 68.2282 53.1204 67.9883 53.1204 67.7238C53.1204 67.4544 53.0616 67.2144 52.9441 67.0038C52.8314 66.7884 52.6771 66.6194 52.4812 66.4969C52.2853 66.3745 52.0625 66.3133 51.8127 66.3133C51.5678 66.3133 51.345 66.377 51.1442 66.5043C50.9483 66.6267 50.794 66.7932 50.6814 67.0038C50.5687 67.2095 50.5124 67.4495 50.5124 67.7238C50.5124 67.9883 50.5687 68.2282 50.6814 68.4437C50.794 68.6543 50.9483 68.8208 51.1442 68.9433C51.3401 69.0657 51.5629 69.1269 51.8127 69.1269ZM56.4982 71.3161C56.41 71.3161 56.3219 71.3088 56.2337 71.2941C56.1456 71.2843 56.0623 71.2623 55.9839 71.228V70.6182C56.0378 70.6231 56.1039 70.6329 56.1823 70.6476C56.2656 70.6623 56.3464 70.6697 56.4247 70.6697C56.6549 70.6697 56.8288 70.6182 56.9463 70.5154C57.0688 70.4125 57.1838 70.2387 57.2916 69.9938L57.5414 69.3988L57.5267 69.9938L55.837 65.7403H56.579L57.894 69.1196H57.6736L58.9813 65.7403H59.7379L57.9528 70.1701C57.8695 70.3807 57.7618 70.5742 57.6295 70.7505C57.5022 70.9268 57.3455 71.0639 57.1594 71.1619C56.9733 71.2647 56.7529 71.3161 56.4982 71.3161ZM62.2281 69.7881C61.8461 69.7881 61.5008 69.7 61.1923 69.5236C60.8837 69.3424 60.6388 69.0951 60.4576 68.7817C60.2764 68.4682 60.1858 68.1131 60.1858 67.7164C60.1858 67.3197 60.274 66.9671 60.4503 66.6586C60.6315 66.35 60.8764 66.1051 61.1849 65.9239C61.4935 65.7427 61.8412 65.6521 62.2281 65.6521C62.6101 65.6521 62.9554 65.7427 63.2639 65.9239C63.5725 66.1002 63.8149 66.3427 63.9912 66.6512C64.1724 66.9598 64.263 67.3148 64.263 67.7164C64.263 68.118 64.17 68.4756 63.9839 68.789C63.7978 69.0976 63.5504 69.3424 63.2419 69.5236C62.9383 69.7 62.6003 69.7881 62.2281 69.7881ZM62.2281 69.1269C62.473 69.1269 62.6934 69.0657 62.8893 68.9433C63.0901 68.8208 63.2468 68.6519 63.3594 68.4364C63.477 68.2209 63.5358 67.9809 63.5358 67.7164C63.5358 67.4471 63.477 67.2095 63.3594 67.0038C63.2468 66.7932 63.0901 66.6267 62.8893 66.5043C62.6934 66.377 62.473 66.3133 62.2281 66.3133C61.9783 66.3133 61.753 66.377 61.5522 66.5043C61.3563 66.6267 61.1996 66.7932 61.0821 67.0038C60.9645 67.2095 60.9058 67.4471 60.9058 67.7164C60.9058 67.9809 60.9645 68.2209 61.0821 68.4364C61.1996 68.6519 61.3563 68.8208 61.5522 68.9433C61.753 69.0657 61.9783 69.1269 62.2281 69.1269ZM66.6307 69.7881C66.3467 69.7881 66.0896 69.722 65.8594 69.5898C65.6341 69.4575 65.4578 69.2739 65.3304 69.0388C65.208 68.7988 65.1468 68.5245 65.1468 68.216V65.7403H65.83V68.1425C65.83 68.3384 65.8692 68.5098 65.9475 68.6568C66.0308 68.8037 66.1434 68.9188 66.2855 69.002C66.4324 69.0853 66.5989 69.1269 66.785 69.1269C66.9711 69.1269 67.1352 69.0853 67.2772 69.002C67.4241 68.9188 67.5368 68.7988 67.6152 68.6421C67.6984 68.4854 67.74 68.2992 67.74 68.0838V65.7403H68.4306V69.7H67.7621V68.9286L67.8723 68.9947C67.7792 69.2445 67.6201 69.4404 67.3948 69.5824C67.1744 69.7195 66.9197 69.7881 66.6307 69.7881ZM69.5625 69.7V65.7403H70.231V66.4676L70.1576 66.3647C70.2506 66.1394 70.3926 65.9729 70.5836 65.8652C70.7747 65.7525 71.0073 65.6962 71.2815 65.6962H71.524V66.3427H71.1787C70.8995 66.3427 70.6743 66.4308 70.5028 66.6071C70.3314 66.7786 70.2457 67.0234 70.2457 67.3418V69.7H69.5625ZM75.3695 69.7881C74.9875 69.7881 74.6471 69.6975 74.3484 69.5163C74.0496 69.3351 73.8145 69.0878 73.6431 68.7743C73.4717 68.456 73.386 68.1009 73.386 67.7091C73.386 67.3124 73.4692 66.9598 73.6358 66.6512C73.8072 66.3427 74.0374 66.1002 74.3263 65.9239C74.6202 65.7427 74.9483 65.6521 75.3107 65.6521C75.6046 65.6521 75.8642 65.706 76.0894 65.8137C76.3196 65.9166 76.5131 66.0586 76.6698 66.2398C76.8314 66.4161 76.9539 66.6194 77.0371 66.8496C77.1253 67.0749 77.1694 67.3099 77.1694 67.5548C77.1694 67.6087 77.1645 67.6699 77.1547 67.7385C77.1498 67.8021 77.1424 67.8634 77.1326 67.9221H73.8855V67.3344H76.7359L76.4127 67.5989C76.4568 67.3442 76.4323 67.1165 76.3392 66.9157C76.2462 66.7149 76.109 66.5557 75.9278 66.4382C75.7466 66.3206 75.5409 66.2619 75.3107 66.2619C75.0805 66.2619 74.87 66.3206 74.6789 66.4382C74.4879 66.5557 74.3386 66.7247 74.2308 66.9451C74.128 67.1606 74.0863 67.4177 74.1059 67.7164C74.0863 68.0054 74.1304 68.2601 74.2382 68.4805C74.3508 68.696 74.5075 68.8649 74.7083 68.9874C74.914 69.1049 75.1369 69.1637 75.3768 69.1637C75.6413 69.1637 75.8642 69.1024 76.0454 68.98C76.2266 68.8576 76.3735 68.7008 76.4861 68.5098L77.0592 68.8037C76.9808 68.9849 76.8584 69.1514 76.6918 69.3032C76.5302 69.4502 76.3368 69.5677 76.1115 69.6559C75.8911 69.744 75.6438 69.7881 75.3695 69.7881ZM78.1336 69.7V65.7403H78.8021V66.5484L78.7066 66.4235C78.8046 66.1737 78.9613 65.9827 79.1768 65.8505C79.3923 65.7182 79.6347 65.6521 79.9041 65.6521C80.2126 65.6521 80.4893 65.7378 80.7342 65.9092C80.984 66.0807 81.1554 66.3059 81.2485 66.5851L81.0575 66.5924C81.1603 66.2839 81.3342 66.0513 81.5791 65.8945C81.8239 65.7329 82.0957 65.6521 82.3945 65.6521C82.6688 65.6521 82.9161 65.7158 83.1365 65.8431C83.3618 65.9705 83.5405 66.1468 83.6728 66.3721C83.805 66.5973 83.8711 66.852 83.8711 67.1361V69.7H83.1806V67.3565C83.1806 67.1361 83.1414 66.95 83.063 66.7981C82.9847 66.6463 82.8769 66.5288 82.7398 66.4455C82.6075 66.3574 82.4508 66.3133 82.2696 66.3133C82.0933 66.3133 81.9341 66.3574 81.7921 66.4455C81.655 66.5288 81.5448 66.6488 81.4615 66.8055C81.3832 66.9573 81.344 67.141 81.344 67.3565V69.7H80.6534V67.3565C80.6534 67.1361 80.6142 66.95 80.5359 66.7981C80.4575 66.6463 80.3498 66.5288 80.2126 66.4455C80.0804 66.3574 79.9237 66.3133 79.7425 66.3133C79.5662 66.3133 79.407 66.3574 79.265 66.4455C79.1278 66.5288 79.0176 66.6488 78.9344 66.8055C78.856 66.9573 78.8168 67.141 78.8168 67.3565V69.7H78.1336ZM86.0756 69.7881C85.8161 69.7881 85.5859 69.7416 85.3851 69.6485C85.1892 69.5506 85.0349 69.4183 84.9223 69.2518C84.8096 69.0804 84.7533 68.8845 84.7533 68.6641C84.7533 68.4535 84.7974 68.265 84.8855 68.0984C84.9786 67.927 85.1206 67.7826 85.3116 67.665C85.5075 67.5475 85.7524 67.4642 86.0463 67.4152L87.5155 67.1728V67.7458L86.2005 67.9662C85.9459 68.0103 85.7598 68.0911 85.6422 68.2086C85.5296 68.3262 85.4732 68.4707 85.4732 68.6421C85.4732 68.8037 85.5369 68.9384 85.6642 69.0461C85.7965 69.1539 85.9606 69.2077 86.1565 69.2077C86.4062 69.2077 86.6217 69.1563 86.8029 69.0535C86.989 68.9457 87.1335 68.8012 87.2364 68.62C87.3441 68.4388 87.398 68.238 87.398 68.0176V67.0112C87.398 66.7957 87.3172 66.6218 87.1556 66.4896C86.9988 66.3525 86.7907 66.2839 86.5311 66.2839C86.3058 66.2839 86.105 66.3427 85.9287 66.4602C85.7573 66.5729 85.63 66.7247 85.5467 66.9157L84.9517 66.6071C85.0251 66.4259 85.1427 66.2643 85.3043 66.1223C85.4659 65.9754 85.6545 65.8603 85.8699 65.777C86.0854 65.6937 86.3107 65.6521 86.5458 65.6521C86.8495 65.6521 87.1164 65.7109 87.3466 65.8284C87.5767 65.9411 87.7555 66.1002 87.8828 66.3059C88.0151 66.5067 88.0812 66.7418 88.0812 67.0112V69.7H87.4127V68.9506L87.5376 68.9947C87.4543 69.1514 87.3417 69.2886 87.1996 69.4061C87.0576 69.5236 86.8911 69.6167 86.7001 69.6853C86.5091 69.7538 86.3009 69.7881 86.0756 69.7881ZM89.214 69.7V65.7403H89.8972V69.7H89.214ZM89.214 65.1085V64.2269H89.8972V65.1085H89.214ZM91.0307 69.7V64.1388H91.714V69.7H91.0307Z" fill="#262535"/>
<rect x="15.4671" y="80.9744" width="102.1" height="16.5293" rx="7.04024" fill="#F1F4FF"/>
<rect x="15.4671" y="80.9744" width="102.1" height="16.5293" rx="7.04024" stroke="#ECF0FF" stroke-width="0.612195"/>
<g clip-path="url(#clip0_213_6273)">
<rect x="20.0585" y="84.3413" width="9.79512" height="9.79512" rx="2.44878" fill="#0074FF"/>
<path d="M27.8947 87.035L23.5116 91.4428L22.0176 89.9403" stroke="white" stroke-width="1.22439" stroke-linecap="round" stroke-linejoin="round"/>
</g>
<path d="M36.0564 91.739L38.0179 86.266H38.8701L40.8315 91.739H40.0602L39.6121 90.4534H37.2759L36.8278 91.739H36.0564ZM37.5037 89.7922H39.3843L38.3411 86.7876H38.5468L37.5037 89.7922ZM43.2069 91.8272C42.82 91.8272 42.4748 91.7366 42.1711 91.5554C41.8724 91.3741 41.6373 91.1268 41.4659 90.8134C41.2944 90.4999 41.2087 90.1473 41.2087 89.7555C41.2087 89.3588 41.2944 89.0062 41.4659 88.6976C41.6373 88.3891 41.8724 88.1442 42.1711 87.963C42.4748 87.7818 42.82 87.6912 43.2069 87.6912C43.4665 87.6912 43.7089 87.7377 43.9342 87.8308C44.1595 87.9238 44.3579 88.0487 44.5293 88.2054C44.7007 88.3621 44.8256 88.5458 44.9039 88.7564L44.2942 89.0503C44.2011 88.8446 44.0591 88.678 43.8681 88.5507C43.6771 88.4185 43.4567 88.3524 43.2069 88.3524C42.967 88.3524 42.749 88.4136 42.5531 88.536C42.3621 88.6584 42.2103 88.825 42.0976 89.0356C41.985 89.2462 41.9287 89.4886 41.9287 89.7628C41.9287 90.0273 41.985 90.2673 42.0976 90.4828C42.2103 90.6934 42.3621 90.8599 42.5531 90.9823C42.749 91.1048 42.967 91.166 43.2069 91.166C43.4567 91.166 43.6771 91.1023 43.8681 90.975C44.0591 90.8428 44.2011 90.6689 44.2942 90.4534L44.9039 90.762C44.8256 90.9676 44.7007 91.1513 44.5293 91.3129C44.3579 91.4696 44.1595 91.5945 43.9342 91.6876C43.7089 91.7806 43.4665 91.8272 43.2069 91.8272ZM47.7069 91.8272C47.32 91.8272 46.9747 91.7366 46.671 91.5554C46.3723 91.3741 46.1372 91.1268 45.9658 90.8134C45.7944 90.4999 45.7087 90.1473 45.7087 89.7555C45.7087 89.3588 45.7944 89.0062 45.9658 88.6976C46.1372 88.3891 46.3723 88.1442 46.671 87.963C46.9747 87.7818 47.32 87.6912 47.7069 87.6912C47.9664 87.6912 48.2089 87.7377 48.4341 87.8308C48.6594 87.9238 48.8578 88.0487 49.0292 88.2054C49.2006 88.3621 49.3255 88.5458 49.4039 88.7564L48.7941 89.0503C48.7011 88.8446 48.559 88.678 48.368 88.5507C48.177 88.4185 47.9566 88.3524 47.7069 88.3524C47.4669 88.3524 47.2489 88.4136 47.053 88.536C46.862 88.6584 46.7102 88.825 46.5976 89.0356C46.4849 89.2462 46.4286 89.4886 46.4286 89.7628C46.4286 90.0273 46.4849 90.2673 46.5976 90.4828C46.7102 90.6934 46.862 90.8599 47.053 90.9823C47.2489 91.1048 47.4669 91.166 47.7069 91.166C47.9566 91.166 48.177 91.1023 48.368 90.975C48.559 90.8428 48.7011 90.6689 48.7941 90.4534L49.4039 90.762C49.3255 90.9676 49.2006 91.1513 49.0292 91.3129C48.8578 91.4696 48.6594 91.5945 48.4341 91.6876C48.2089 91.7806 47.9664 91.8272 47.7069 91.8272ZM52.1921 91.8272C51.8101 91.8272 51.4697 91.7366 51.1709 91.5554C50.8722 91.3741 50.6371 91.1268 50.4657 90.8134C50.2943 90.495 50.2086 90.14 50.2086 89.7482C50.2086 89.3515 50.2918 88.9988 50.4584 88.6903C50.6298 88.3817 50.86 88.1393 51.1489 87.963C51.4428 87.7818 51.7709 87.6912 52.1333 87.6912C52.4272 87.6912 52.6867 87.7451 52.912 87.8528C53.1422 87.9556 53.3357 88.0977 53.4924 88.2789C53.654 88.4552 53.7764 88.6584 53.8597 88.8886C53.9479 89.1139 53.9919 89.349 53.9919 89.5939C53.9919 89.6478 53.987 89.709 53.9772 89.7775C53.9723 89.8412 53.965 89.9024 53.9552 89.9612H50.7081V89.3735H53.5585L53.2353 89.638C53.2793 89.3833 53.2549 89.1556 53.1618 88.9548C53.0688 88.754 52.9316 88.5948 52.7504 88.4772C52.5692 88.3597 52.3635 88.3009 52.1333 88.3009C51.9031 88.3009 51.6925 88.3597 51.5015 88.4772C51.3105 88.5948 51.1612 88.7637 51.0534 88.9841C50.9506 89.1996 50.9089 89.4568 50.9285 89.7555C50.9089 90.0445 50.953 90.2991 51.0608 90.5195C51.1734 90.735 51.3301 90.904 51.5309 91.0264C51.7366 91.144 51.9595 91.2027 52.1994 91.2027C52.4639 91.2027 52.6867 91.1415 52.868 91.0191C53.0492 90.8966 53.1961 90.7399 53.3087 90.5489L53.8817 90.8428C53.8034 91.024 53.6809 91.1905 53.5144 91.3423C53.3528 91.4892 53.1594 91.6068 52.9341 91.6949C52.7137 91.7831 52.4664 91.8272 52.1921 91.8272ZM56.374 91.8272C55.9773 91.8272 55.6321 91.7292 55.3382 91.5333C55.0444 91.3374 54.8362 91.0729 54.7138 90.7399L55.2574 90.4754C55.37 90.7105 55.5243 90.8966 55.7202 91.0338C55.9161 91.1709 56.1341 91.2395 56.374 91.2395C56.5895 91.2395 56.7683 91.188 56.9103 91.0852C57.0524 90.9823 57.1234 90.8477 57.1234 90.6811C57.1234 90.5636 57.0891 90.4705 57.0205 90.402C56.9569 90.3285 56.8785 90.2722 56.7854 90.233C56.6924 90.1889 56.6067 90.1571 56.5283 90.1375L55.9333 89.9685C55.5757 89.8657 55.3137 89.7188 55.1472 89.5278C54.9856 89.3368 54.9048 89.1139 54.9048 88.8592C54.9048 88.6242 54.9636 88.4209 55.0811 88.2495C55.2035 88.0732 55.3676 87.9361 55.5733 87.8381C55.7839 87.7402 56.019 87.6912 56.2785 87.6912C56.6263 87.6912 56.9373 87.7793 57.2115 87.9556C57.4907 88.132 57.689 88.3793 57.8066 88.6976L57.2483 88.9548C57.1601 88.7491 57.0279 88.5874 56.8516 88.4699C56.6752 88.3475 56.4769 88.2862 56.2565 88.2862C56.0557 88.2862 55.8965 88.3377 55.779 88.4405C55.6615 88.5385 55.6027 88.6633 55.6027 88.8152C55.6027 88.9278 55.6321 89.0209 55.6908 89.0943C55.7496 89.1629 55.8206 89.2168 55.9039 89.256C55.9871 89.2902 56.068 89.3196 56.1463 89.3441L56.7928 89.5351C57.116 89.6282 57.3658 89.7726 57.5421 89.9685C57.7233 90.1644 57.8139 90.3995 57.8139 90.6738C57.8139 90.8942 57.7527 91.0925 57.6303 91.2688C57.5078 91.4452 57.3389 91.5823 57.1234 91.6802C56.9079 91.7782 56.6581 91.8272 56.374 91.8272ZM60.1996 91.8272C59.8029 91.8272 59.4576 91.7292 59.1638 91.5333C58.8699 91.3374 58.6618 91.0729 58.5393 90.7399L59.083 90.4754C59.1956 90.7105 59.3499 90.8966 59.5458 91.0338C59.7417 91.1709 59.9596 91.2395 60.1996 91.2395C60.4151 91.2395 60.5939 91.188 60.7359 91.0852C60.8779 90.9823 60.9489 90.8477 60.9489 90.6811C60.9489 90.5636 60.9146 90.4705 60.8461 90.402C60.7824 90.3285 60.704 90.2722 60.611 90.233C60.5179 90.1889 60.4322 90.1571 60.3539 90.1375L59.7588 89.9685C59.4013 89.8657 59.1393 89.7188 58.9728 89.5278C58.8111 89.3368 58.7303 89.1139 58.7303 88.8592C58.7303 88.6242 58.7891 88.4209 58.9066 88.2495C59.0291 88.0732 59.1931 87.9361 59.3988 87.8381C59.6094 87.7402 59.8445 87.6912 60.1041 87.6912C60.4518 87.6912 60.7628 87.7793 61.0371 87.9556C61.3162 88.132 61.5146 88.3793 61.6321 88.6976L61.0738 88.9548C60.9857 88.7491 60.8534 88.5874 60.6771 88.4699C60.5008 88.3475 60.3024 88.2862 60.0821 88.2862C59.8813 88.2862 59.7221 88.3377 59.6045 88.4405C59.487 88.5385 59.4282 88.6633 59.4282 88.8152C59.4282 88.9278 59.4576 89.0209 59.5164 89.0943C59.5752 89.1629 59.6462 89.2168 59.7294 89.256C59.8127 89.2902 59.8935 89.3196 59.9719 89.3441L60.6183 89.5351C60.9416 89.6282 61.1914 89.7726 61.3677 89.9685C61.5489 90.1644 61.6395 90.3995 61.6395 90.6738C61.6395 90.8942 61.5783 91.0925 61.4558 91.2688C61.3334 91.4452 61.1644 91.5823 60.9489 91.6802C60.7334 91.7782 60.4837 91.8272 60.1996 91.8272ZM64.1636 93.3552C64.0755 93.3552 63.9873 93.3479 63.8992 93.3332C63.811 93.3234 63.7278 93.3013 63.6494 93.2671V92.6573C63.7033 92.6622 63.7694 92.672 63.8477 92.6867C63.931 92.7014 64.0118 92.7087 64.0902 92.7087C64.3204 92.7087 64.4942 92.6573 64.6118 92.5545C64.7342 92.4516 64.8493 92.2777 64.957 92.0329L65.2068 91.4378L65.1921 92.0329L63.5025 87.7793H64.2444L65.5594 91.1587H65.3391L66.6467 87.7793H67.4034L65.6182 92.2092C65.535 92.4198 65.4272 92.6132 65.295 92.7895C65.1676 92.9659 65.0109 93.103 64.8248 93.2009C64.6387 93.3038 64.4183 93.3552 64.1636 93.3552ZM69.8936 91.8272C69.5115 91.8272 69.1663 91.739 68.8577 91.5627C68.5492 91.3815 68.3043 91.1342 68.1231 90.8207C67.9419 90.5073 67.8513 90.1522 67.8513 89.7555C67.8513 89.3588 67.9394 89.0062 68.1157 88.6976C68.2969 88.3891 68.5418 88.1442 68.8504 87.963C69.1589 87.7818 69.5066 87.6912 69.8936 87.6912C70.2756 87.6912 70.6208 87.7818 70.9294 87.963C71.2379 88.1393 71.4804 88.3817 71.6567 88.6903C71.8379 88.9988 71.9285 89.3539 71.9285 89.7555C71.9285 90.1571 71.8354 90.5146 71.6493 90.8281C71.4632 91.1366 71.2159 91.3815 70.9073 91.5627C70.6037 91.739 70.2658 91.8272 69.8936 91.8272ZM69.8936 91.166C70.1384 91.166 70.3588 91.1048 70.5547 90.9823C70.7555 90.8599 70.9122 90.6909 71.0249 90.4754C71.1424 90.26 71.2012 90.02 71.2012 89.7555C71.2012 89.4861 71.1424 89.2486 71.0249 89.0429C70.9122 88.8323 70.7555 88.6658 70.5547 88.5434C70.3588 88.416 70.1384 88.3524 69.8936 88.3524C69.6438 88.3524 69.4185 88.416 69.2177 88.5434C69.0218 88.6658 68.8651 88.8323 68.7475 89.0429C68.63 89.2486 68.5712 89.4861 68.5712 89.7555C68.5712 90.02 68.63 90.26 68.7475 90.4754C68.8651 90.6909 69.0218 90.8599 69.2177 90.9823C69.4185 91.1048 69.6438 91.166 69.8936 91.166ZM74.2962 91.8272C74.0121 91.8272 73.755 91.7611 73.5248 91.6288C73.2995 91.4966 73.1232 91.3129 72.9959 91.0778C72.8734 90.8379 72.8122 90.5636 72.8122 90.2551V87.7793H73.4954V90.1816C73.4954 90.3775 73.5346 90.5489 73.613 90.6958C73.6962 90.8428 73.8089 90.9579 73.9509 91.0411C74.0978 91.1244 74.2644 91.166 74.4505 91.166C74.6366 91.166 74.8006 91.1244 74.9427 91.0411C75.0896 90.9579 75.2022 90.8379 75.2806 90.6811C75.3639 90.5244 75.4055 90.3383 75.4055 90.1228V87.7793H76.096V91.739H75.4275V90.9676L75.5377 91.0338C75.4447 91.2835 75.2855 91.4794 75.0602 91.6215C74.8398 91.7586 74.5851 91.8272 74.2962 91.8272ZM77.228 91.739V87.7793H77.8965V88.5066L77.823 88.4038C77.9161 88.1785 78.0581 88.012 78.2491 87.9042C78.4401 87.7916 78.6727 87.7353 78.947 87.7353H79.1894V88.3817H78.8441C78.565 88.3817 78.3397 88.4699 78.1683 88.6462C77.9969 88.8176 77.9112 89.0625 77.9112 89.3808V91.739H77.228ZM83.0496 91.8272C82.6627 91.8272 82.3175 91.7366 82.0138 91.5554C81.7151 91.3741 81.48 91.1268 81.3086 90.8134C81.1371 90.4999 81.0514 90.1473 81.0514 89.7555C81.0514 89.3588 81.1371 89.0062 81.3086 88.6976C81.48 88.3891 81.7151 88.1442 82.0138 87.963C82.3175 87.7818 82.6627 87.6912 83.0496 87.6912C83.3092 87.6912 83.5516 87.7377 83.7769 87.8308C84.0022 87.9238 84.2006 88.0487 84.372 88.2054C84.5434 88.3621 84.6683 88.5458 84.7466 88.7564L84.1369 89.0503C84.0438 88.8446 83.9018 88.678 83.7108 88.5507C83.5198 88.4185 83.2994 88.3524 83.0496 88.3524C82.8097 88.3524 82.5917 88.4136 82.3958 88.536C82.2048 88.6584 82.053 88.825 81.9403 89.0356C81.8277 89.2462 81.7714 89.4886 81.7714 89.7628C81.7714 90.0273 81.8277 90.2673 81.9403 90.4828C82.053 90.6934 82.2048 90.8599 82.3958 90.9823C82.5917 91.1048 82.8097 91.166 83.0496 91.166C83.2994 91.166 83.5198 91.1023 83.7108 90.975C83.9018 90.8428 84.0438 90.6689 84.1369 90.4534L84.7466 90.762C84.6683 90.9676 84.5434 91.1513 84.372 91.3129C84.2006 91.4696 84.0022 91.5945 83.7769 91.6876C83.5516 91.7806 83.3092 91.8272 83.0496 91.8272ZM87.5936 91.8272C87.2116 91.8272 86.8664 91.739 86.5578 91.5627C86.2493 91.3815 86.0044 91.1342 85.8232 90.8207C85.642 90.5073 85.5514 90.1522 85.5514 89.7555C85.5514 89.3588 85.6395 89.0062 85.8158 88.6976C85.997 88.3891 86.2419 88.1442 86.5505 87.963C86.859 87.7818 87.2067 87.6912 87.5936 87.6912C87.9756 87.6912 88.3209 87.7818 88.6295 87.963C88.938 88.1393 89.1804 88.3817 89.3568 88.6903C89.538 88.9988 89.6286 89.3539 89.6286 89.7555C89.6286 90.1571 89.5355 90.5146 89.3494 90.8281C89.1633 91.1366 88.916 91.3815 88.6074 91.5627C88.3038 91.739 87.9659 91.8272 87.5936 91.8272ZM87.5936 91.166C87.8385 91.166 88.0589 91.1048 88.2548 90.9823C88.4556 90.8599 88.6123 90.6909 88.725 90.4754C88.8425 90.26 88.9013 90.02 88.9013 89.7555C88.9013 89.4861 88.8425 89.2486 88.725 89.0429C88.6123 88.8323 88.4556 88.6658 88.2548 88.5434C88.0589 88.416 87.8385 88.3524 87.5936 88.3524C87.3439 88.3524 87.1186 88.416 86.9178 88.5434C86.7219 88.6658 86.5652 88.8323 86.4476 89.0429C86.3301 89.2486 86.2713 89.4861 86.2713 89.7555C86.2713 90.02 86.3301 90.26 86.4476 90.4754C86.5652 90.6909 86.7219 90.8599 86.9178 90.9823C87.1186 91.1048 87.3439 91.166 87.5936 91.166ZM90.5931 91.739V87.7793H91.2616V88.5507L91.1514 88.4846C91.2494 88.2348 91.4061 88.0414 91.6216 87.9042C91.842 87.7622 92.0991 87.6912 92.393 87.6912C92.677 87.6912 92.9293 87.7548 93.1497 87.8822C93.3749 88.0095 93.5513 88.1858 93.6786 88.4111C93.8108 88.6364 93.8769 88.8911 93.8769 89.1751V91.739H93.1864V89.3955C93.1864 89.1751 93.1472 88.989 93.0688 88.8372C92.9905 88.6854 92.8778 88.5678 92.7309 88.4846C92.5889 88.3964 92.4248 88.3524 92.2387 88.3524C92.0526 88.3524 91.8861 88.3964 91.7392 88.4846C91.5971 88.5678 91.4845 88.6878 91.4012 88.8446C91.318 88.9964 91.2763 89.18 91.2763 89.3955V91.739H90.5931ZM96.5369 91.7831C96.15 91.7831 95.8512 91.6729 95.6406 91.4525C95.4349 91.2321 95.3321 90.9211 95.3321 90.5195V88.4332H94.6121V87.7793H94.7591C94.9354 87.7793 95.075 87.7255 95.1778 87.6177C95.2807 87.51 95.3321 87.3679 95.3321 87.1916V86.8684H96.0153V87.7793H96.9042V88.4332H96.0153V90.4975C96.0153 90.6297 96.0349 90.7448 96.0741 90.8428C96.1181 90.9407 96.1892 91.0191 96.2871 91.0778C96.3851 91.1317 96.5149 91.1587 96.6765 91.1587C96.7108 91.1587 96.7524 91.1562 96.8014 91.1513C96.8552 91.1464 96.9042 91.1415 96.9483 91.1366V91.739C96.8846 91.7537 96.8136 91.7635 96.7352 91.7684C96.6569 91.7782 96.5908 91.7831 96.5369 91.7831ZM99.0247 91.8272C98.7651 91.8272 98.535 91.7806 98.3342 91.6876C98.1383 91.5896 97.984 91.4574 97.8713 91.2909C97.7587 91.1195 97.7024 90.9236 97.7024 90.7032C97.7024 90.4926 97.7465 90.304 97.8346 90.1375C97.9277 89.9661 98.0697 89.8216 98.2607 89.7041C98.4566 89.5865 98.7015 89.5033 98.9953 89.4543L100.465 89.2119V89.7849L99.1496 90.0053C98.8949 90.0494 98.7088 90.1302 98.5913 90.2477C98.4786 90.3652 98.4223 90.5097 98.4223 90.6811C98.4223 90.8428 98.486 90.9774 98.6133 91.0852C98.7456 91.1929 98.9096 91.2468 99.1055 91.2468C99.3553 91.2468 99.5708 91.1954 99.752 91.0925C99.9381 90.9848 100.083 90.8403 100.185 90.6591C100.293 90.4779 100.347 90.2771 100.347 90.0567V89.0503C100.347 88.8348 100.266 88.6609 100.105 88.5287C99.9479 88.3915 99.7398 88.323 99.4802 88.323C99.2549 88.323 99.0541 88.3817 98.8778 88.4993C98.7064 88.6119 98.579 88.7637 98.4958 88.9548L97.9007 88.6462C97.9742 88.465 98.0917 88.3034 98.2533 88.1613C98.415 88.0144 98.6035 87.8993 98.819 87.8161C99.0345 87.7328 99.2598 87.6912 99.4949 87.6912C99.7985 87.6912 100.065 87.75 100.296 87.8675C100.526 87.9801 100.705 88.1393 100.832 88.345C100.964 88.5458 101.03 88.7809 101.03 89.0503V91.739H100.362V90.9897L100.487 91.0338C100.403 91.1905 100.291 91.3276 100.149 91.4452C100.007 91.5627 99.8402 91.6558 99.6492 91.7243C99.4581 91.7929 99.25 91.8272 99.0247 91.8272ZM104 91.8272C103.613 91.8272 103.267 91.7366 102.964 91.5554C102.665 91.3741 102.43 91.1268 102.259 90.8134C102.087 90.4999 102.001 90.1473 102.001 89.7555C102.001 89.3588 102.087 89.0062 102.259 88.6976C102.43 88.3891 102.665 88.1442 102.964 87.963C103.267 87.7818 103.613 87.6912 104 87.6912C104.259 87.6912 104.502 87.7377 104.727 87.8308C104.952 87.9238 105.151 88.0487 105.322 88.2054C105.493 88.3621 105.618 88.5458 105.697 88.7564L105.087 89.0503C104.994 88.8446 104.852 88.678 104.661 88.5507C104.47 88.4185 104.249 88.3524 104 88.3524C103.76 88.3524 103.542 88.4136 103.346 88.536C103.155 88.6584 103.003 88.825 102.89 89.0356C102.778 89.2462 102.721 89.4886 102.721 89.7628C102.721 90.0273 102.778 90.2673 102.89 90.4828C103.003 90.6934 103.155 90.8599 103.346 90.9823C103.542 91.1048 103.76 91.166 104 91.166C104.249 91.166 104.47 91.1023 104.661 90.975C104.852 90.8428 104.994 90.6689 105.087 90.4534L105.697 90.762C105.618 90.9676 105.493 91.1513 105.322 91.3129C105.151 91.4696 104.952 91.5945 104.727 91.6876C104.502 91.7806 104.259 91.8272 104 91.8272ZM108.272 91.7831C107.885 91.7831 107.586 91.6729 107.376 91.4525C107.17 91.2321 107.067 90.9211 107.067 90.5195V88.4332H106.347V87.7793H106.494C106.67 87.7793 106.81 87.7255 106.913 87.6177C107.016 87.51 107.067 87.3679 107.067 87.1916V86.8684H107.75V87.7793H108.639V88.4332H107.75V90.4975C107.75 90.6297 107.77 90.7448 107.809 90.8428C107.853 90.9407 107.924 91.0191 108.022 91.0778C108.12 91.1317 108.25 91.1587 108.411 91.1587C108.446 91.1587 108.487 91.1562 108.536 91.1513C108.59 91.1464 108.639 91.1415 108.683 91.1366V91.739C108.62 91.7537 108.549 91.7635 108.47 91.7684C108.392 91.7782 108.326 91.7831 108.272 91.7831ZM111.067 91.8272C110.67 91.8272 110.325 91.7292 110.031 91.5333C109.737 91.3374 109.529 91.0729 109.407 90.7399L109.95 90.4754C110.063 90.7105 110.217 90.8966 110.413 91.0338C110.609 91.1709 110.827 91.2395 111.067 91.2395C111.282 91.2395 111.461 91.188 111.603 91.0852C111.745 90.9823 111.816 90.8477 111.816 90.6811C111.816 90.5636 111.782 90.4705 111.713 90.402C111.65 90.3285 111.571 90.2722 111.478 90.233C111.385 90.1889 111.3 90.1571 111.221 90.1375L110.626 89.9685C110.269 89.8657 110.007 89.7188 109.84 89.5278C109.679 89.3368 109.598 89.1139 109.598 88.8592C109.598 88.6242 109.656 88.4209 109.774 88.2495C109.896 88.0732 110.061 87.9361 110.266 87.8381C110.477 87.7402 110.712 87.6912 110.971 87.6912C111.319 87.6912 111.63 87.7793 111.904 87.9556C112.184 88.132 112.382 88.3793 112.5 88.6976L111.941 88.9548C111.853 88.7491 111.721 88.5874 111.544 88.4699C111.368 88.3475 111.17 88.2862 110.949 88.2862C110.749 88.2862 110.589 88.3377 110.472 88.4405C110.354 88.5385 110.296 88.6633 110.296 88.8152C110.296 88.9278 110.325 89.0209 110.384 89.0943C110.443 89.1629 110.514 89.2168 110.597 89.256C110.68 89.2902 110.761 89.3196 110.839 89.3441L111.486 89.5351C111.809 89.6282 112.059 89.7726 112.235 89.9685C112.416 90.1644 112.507 90.3995 112.507 90.6738C112.507 90.8942 112.446 91.0925 112.323 91.2688C112.201 91.4452 112.032 91.5823 111.816 91.6802C111.601 91.7782 111.351 91.8272 111.067 91.8272Z" fill="#262535"/>
<rect x="15.4671" y="103.013" width="93.1" height="16.5293" rx="7.04024" fill="#F1F4FF"/>
<rect x="15.4671" y="103.013" width="93.1" height="16.5293" rx="7.04024" stroke="#ECF0FF" stroke-width="0.612195"/>
<g clip-path="url(#clip1_213_6273)">
<rect x="20.0585" y="106.38" width="9.79512" height="9.79512" rx="2.44878" fill="#0074FF"/>
<path d="M27.8947 109.074L23.5116 113.482L22.0176 111.979" stroke="white" stroke-width="1.22439" stroke-linecap="round" stroke-linejoin="round"/>
</g>
<path d="M38.0326 113.778L36.0564 108.305H36.8278L38.5028 113.117H38.3485L40.0234 108.305H40.7948L38.826 113.778H38.0326ZM41.478 113.778V109.818H42.1612V113.778H41.478ZM41.478 109.186V108.305H42.1612V109.186H41.478ZM45.1166 113.866C44.7346 113.866 44.3943 113.776 44.0955 113.594C43.7968 113.413 43.5617 113.166 43.3903 112.852C43.2188 112.534 43.1331 112.179 43.1331 111.787C43.1331 111.39 43.2164 111.038 43.3829 110.729C43.5543 110.421 43.7845 110.178 44.0735 110.002C44.3673 109.821 44.6955 109.73 45.0579 109.73C45.3517 109.73 45.6113 109.784 45.8366 109.892C46.0668 109.995 46.2602 110.137 46.4169 110.318C46.5786 110.494 46.701 110.697 46.7843 110.928C46.8724 111.153 46.9165 111.388 46.9165 111.633C46.9165 111.687 46.9116 111.748 46.9018 111.816C46.8969 111.88 46.8896 111.941 46.8798 112H43.6327V111.412H46.4831L46.1598 111.677C46.2039 111.422 46.1794 111.194 46.0864 110.994C45.9933 110.793 45.8562 110.634 45.675 110.516C45.4938 110.399 45.2881 110.34 45.0579 110.34C44.8277 110.34 44.6171 110.399 44.4261 110.516C44.2351 110.634 44.0857 110.803 43.978 111.023C43.8751 111.239 43.8335 111.496 43.8531 111.794C43.8335 112.083 43.8776 112.338 43.9853 112.558C44.098 112.774 44.2547 112.943 44.4555 113.065C44.6612 113.183 44.884 113.242 45.124 113.242C45.3885 113.242 45.6113 113.18 45.7925 113.058C45.9737 112.936 46.1206 112.779 46.2333 112.588L46.8063 112.882C46.7279 113.063 46.6055 113.229 46.439 113.381C46.2774 113.528 46.0839 113.646 45.8586 113.734C45.6382 113.822 45.3909 113.866 45.1166 113.866ZM48.7917 113.778L47.4326 109.818H48.1893L49.2692 113.131L49.0048 113.124L50.0626 109.818H50.7091L51.767 113.124L51.5025 113.131L52.5898 109.818H53.3391L51.98 113.778H51.3262L50.283 110.472H50.4887L49.4455 113.778H48.7917ZM55.5799 115.394C55.4917 115.394 55.4036 115.387 55.3154 115.372C55.2273 115.362 55.144 115.34 55.0657 115.306V114.696C55.1195 114.701 55.1856 114.711 55.264 114.726C55.3473 114.74 55.4281 114.748 55.5064 114.748C55.7366 114.748 55.9105 114.696 56.028 114.593C56.1505 114.491 56.2656 114.317 56.3733 114.072L56.6231 113.477L56.6084 114.072L54.9187 109.818H55.6607L56.9757 113.198H56.7553L58.063 109.818H58.8196L57.0345 114.248C56.9512 114.459 56.8435 114.652 56.7112 114.828C56.5839 115.005 56.4272 115.142 56.2411 115.24C56.055 115.343 55.8346 115.394 55.5799 115.394ZM61.3098 113.866C60.9278 113.866 60.5825 113.778 60.274 113.602C59.9654 113.42 59.7206 113.173 59.5393 112.86C59.3581 112.546 59.2675 112.191 59.2675 111.794C59.2675 111.398 59.3557 111.045 59.532 110.737C59.7132 110.428 59.9581 110.183 60.2666 110.002C60.5752 109.821 60.9229 109.73 61.3098 109.73C61.6918 109.73 62.0371 109.821 62.3456 110.002C62.6542 110.178 62.8966 110.421 63.0729 110.729C63.2541 111.038 63.3447 111.393 63.3447 111.794C63.3447 112.196 63.2517 112.554 63.0656 112.867C62.8795 113.176 62.6322 113.42 62.3236 113.602C62.02 113.778 61.682 113.866 61.3098 113.866ZM61.3098 113.205C61.5547 113.205 61.7751 113.144 61.971 113.021C62.1718 112.899 62.3285 112.73 62.4411 112.514C62.5587 112.299 62.6175 112.059 62.6175 111.794C62.6175 111.525 62.5587 111.288 62.4411 111.082C62.3285 110.871 62.1718 110.705 61.971 110.582C61.7751 110.455 61.5547 110.391 61.3098 110.391C61.06 110.391 60.8347 110.455 60.6339 110.582C60.438 110.705 60.2813 110.871 60.1638 111.082C60.0462 111.288 59.9875 111.525 59.9875 111.794C59.9875 112.059 60.0462 112.299 60.1638 112.514C60.2813 112.73 60.438 112.899 60.6339 113.021C60.8347 113.144 61.06 113.205 61.3098 113.205ZM65.7125 113.866C65.4284 113.866 65.1713 113.8 64.9411 113.668C64.7158 113.536 64.5395 113.352 64.4121 113.117C64.2897 112.877 64.2285 112.603 64.2285 112.294V109.818H64.9117V112.221C64.9117 112.416 64.9509 112.588 65.0292 112.735C65.1125 112.882 65.2251 112.997 65.3672 113.08C65.5141 113.163 65.6806 113.205 65.8667 113.205C66.0528 113.205 66.2169 113.163 66.3589 113.08C66.5059 112.997 66.6185 112.877 66.6969 112.72C66.7801 112.563 66.8217 112.377 66.8217 112.162V109.818H67.5123V113.778H66.8438V113.007L66.954 113.073C66.8609 113.322 66.7018 113.518 66.4765 113.66C66.2561 113.798 66.0014 113.866 65.7125 113.866ZM68.6442 113.778V109.818H69.3127V110.546L69.2393 110.443C69.3323 110.217 69.4743 110.051 69.6654 109.943C69.8564 109.831 70.089 109.774 70.3633 109.774H70.6057V110.421H70.2604C69.9812 110.421 69.756 110.509 69.5845 110.685C69.4131 110.857 69.3274 111.101 69.3274 111.42V113.778H68.6442ZM74.4659 113.866C74.079 113.866 73.7337 113.776 73.4301 113.594C73.1313 113.413 72.8962 113.166 72.7248 112.852C72.5534 112.539 72.4677 112.186 72.4677 111.794C72.4677 111.398 72.5534 111.045 72.7248 110.737C72.8962 110.428 73.1313 110.183 73.4301 110.002C73.7337 109.821 74.079 109.73 74.4659 109.73C74.7255 109.73 74.9679 109.777 75.1932 109.87C75.4185 109.963 75.6168 110.088 75.7882 110.244C75.9597 110.401 76.0845 110.585 76.1629 110.795L75.5532 111.089C75.4601 110.883 75.3181 110.717 75.1271 110.59C74.9361 110.457 74.7157 110.391 74.4659 110.391C74.2259 110.391 74.008 110.453 73.8121 110.575C73.6211 110.697 73.4692 110.864 73.3566 111.075C73.244 111.285 73.1876 111.528 73.1876 111.802C73.1876 112.066 73.244 112.306 73.3566 112.522C73.4692 112.732 73.6211 112.899 73.8121 113.021C74.008 113.144 74.2259 113.205 74.4659 113.205C74.7157 113.205 74.9361 113.141 75.1271 113.014C75.3181 112.882 75.4601 112.708 75.5532 112.492L76.1629 112.801C76.0845 113.007 75.9597 113.19 75.7882 113.352C75.6168 113.509 75.4185 113.633 75.1932 113.727C74.9679 113.82 74.7255 113.866 74.4659 113.866ZM78.2397 113.866C77.9802 113.866 77.75 113.82 77.5492 113.727C77.3533 113.629 77.199 113.496 77.0864 113.33C76.9737 113.158 76.9174 112.963 76.9174 112.742C76.9174 112.532 76.9615 112.343 77.0496 112.176C77.1427 112.005 77.2847 111.861 77.4757 111.743C77.6716 111.625 77.9165 111.542 78.2104 111.493L79.6796 111.251V111.824L78.3646 112.044C78.11 112.088 77.9238 112.169 77.8063 112.287C77.6937 112.404 77.6373 112.549 77.6373 112.72C77.6373 112.882 77.701 113.016 77.8283 113.124C77.9606 113.232 78.1246 113.286 78.3205 113.286C78.5703 113.286 78.7858 113.234 78.967 113.131C79.1531 113.024 79.2976 112.879 79.4005 112.698C79.5082 112.517 79.5621 112.316 79.5621 112.096V111.089C79.5621 110.874 79.4813 110.7 79.3196 110.568C79.1629 110.43 78.9548 110.362 78.6952 110.362C78.4699 110.362 78.2691 110.421 78.0928 110.538C77.9214 110.651 77.7941 110.803 77.7108 110.994L77.1157 110.685C77.1892 110.504 77.3068 110.342 77.4684 110.2C77.63 110.053 77.8185 109.938 78.034 109.855C78.2495 109.772 78.4748 109.73 78.7099 109.73C79.0136 109.73 79.2805 109.789 79.5107 109.906C79.7408 110.019 79.9196 110.178 80.0469 110.384C80.1792 110.585 80.2453 110.82 80.2453 111.089V113.778H79.5768V113.029L79.7017 113.073C79.6184 113.229 79.5058 113.367 79.3637 113.484C79.2217 113.602 79.0552 113.695 78.8642 113.763C78.6732 113.832 78.465 113.866 78.2397 113.866ZM81.3781 113.778V108.217H82.0613V113.778H81.3781ZM85.0167 113.866C84.6347 113.866 84.2943 113.776 83.9956 113.594C83.6968 113.413 83.4618 113.166 83.2903 112.852C83.1189 112.534 83.0332 112.179 83.0332 111.787C83.0332 111.39 83.1165 111.038 83.283 110.729C83.4544 110.421 83.6846 110.178 83.9736 110.002C84.2674 109.821 84.5955 109.73 84.958 109.73C85.2518 109.73 85.5114 109.784 85.7367 109.892C85.9669 109.995 86.1603 110.137 86.317 110.318C86.4787 110.494 86.6011 110.697 86.6844 110.928C86.7725 111.153 86.8166 111.388 86.8166 111.633C86.8166 111.687 86.8117 111.748 86.8019 111.816C86.797 111.88 86.7897 111.941 86.7799 112H83.5328V111.412H86.3832L86.0599 111.677C86.104 111.422 86.0795 111.194 85.9865 110.994C85.8934 110.793 85.7563 110.634 85.5751 110.516C85.3938 110.399 85.1882 110.34 84.958 110.34C84.7278 110.34 84.5172 110.399 84.3262 110.516C84.1352 110.634 83.9858 110.803 83.8781 111.023C83.7752 111.239 83.7336 111.496 83.7532 111.794C83.7336 112.083 83.7777 112.338 83.8854 112.558C83.998 112.774 84.1548 112.943 84.3556 113.065C84.5613 113.183 84.7841 113.242 85.0241 113.242C85.2886 113.242 85.5114 113.18 85.6926 113.058C85.8738 112.936 86.0207 112.779 86.1334 112.588L86.7064 112.882C86.628 113.063 86.5056 113.229 86.3391 113.381C86.1775 113.528 85.984 113.646 85.7587 113.734C85.5383 113.822 85.291 113.866 85.0167 113.866ZM87.7809 113.778V109.818H88.4494V110.59L88.3392 110.524C88.4371 110.274 88.5939 110.08 88.8093 109.943C89.0297 109.801 89.2869 109.73 89.5807 109.73C89.8648 109.73 90.117 109.794 90.3374 109.921C90.5627 110.048 90.739 110.225 90.8663 110.45C90.9986 110.675 91.0647 110.93 91.0647 111.214V113.778H90.3741V111.434C90.3741 111.214 90.3349 111.028 90.2566 110.876C90.1782 110.724 90.0656 110.607 89.9186 110.524C89.7766 110.435 89.6125 110.391 89.4264 110.391C89.2403 110.391 89.0738 110.435 88.9269 110.524C88.7849 110.607 88.6722 110.727 88.589 110.883C88.5057 111.035 88.4641 111.219 88.4641 111.434V113.778H87.7809ZM93.9156 113.866C93.5434 113.866 93.2079 113.776 92.9092 113.594C92.6153 113.413 92.3827 113.166 92.2113 112.852C92.0399 112.539 91.9542 112.189 91.9542 111.802C91.9542 111.405 92.0399 111.052 92.2113 110.744C92.3827 110.43 92.6153 110.183 92.9092 110.002C93.2079 109.821 93.5434 109.73 93.9156 109.73C94.2438 109.73 94.5352 109.801 94.7898 109.943C95.0445 110.08 95.2453 110.266 95.3922 110.501L95.282 110.67V108.217H95.9726V113.778H95.3041V112.933L95.3922 113.051C95.2551 113.31 95.0543 113.511 94.7898 113.653C94.5303 113.795 94.2389 113.866 93.9156 113.866ZM93.9744 113.205C94.2242 113.205 94.447 113.144 94.6429 113.021C94.8388 112.899 94.9931 112.732 95.1057 112.522C95.2233 112.306 95.282 112.066 95.282 111.802C95.282 111.532 95.2233 111.292 95.1057 111.082C94.9931 110.866 94.8388 110.697 94.6429 110.575C94.447 110.453 94.2242 110.391 93.9744 110.391C93.7295 110.391 93.5067 110.455 93.3059 110.582C93.11 110.705 92.9557 110.871 92.8431 111.082C92.7304 111.288 92.6741 111.528 92.6741 111.802C92.6741 112.066 92.7304 112.306 92.8431 112.522C92.9557 112.732 93.11 112.899 93.3059 113.021C93.5018 113.144 93.7246 113.205 93.9744 113.205ZM98.2643 113.866C98.0047 113.866 97.7745 113.82 97.5737 113.727C97.3778 113.629 97.2235 113.496 97.1109 113.33C96.9982 113.158 96.9419 112.963 96.9419 112.742C96.9419 112.532 96.986 112.343 97.0741 112.176C97.1672 112.005 97.3092 111.861 97.5002 111.743C97.6961 111.625 97.941 111.542 98.2349 111.493L99.7041 111.251V111.824L98.3891 112.044C98.1345 112.088 97.9484 112.169 97.8308 112.287C97.7182 112.404 97.6619 112.549 97.6619 112.72C97.6619 112.882 97.7255 113.016 97.8529 113.124C97.9851 113.232 98.1492 113.286 98.3451 113.286C98.5948 113.286 98.8103 113.234 98.9915 113.131C99.1776 113.024 99.3221 112.879 99.425 112.698C99.5327 112.517 99.5866 112.316 99.5866 112.096V111.089C99.5866 110.874 99.5058 110.7 99.3442 110.568C99.1874 110.43 98.9793 110.362 98.7197 110.362C98.4944 110.362 98.2936 110.421 98.1173 110.538C97.9459 110.651 97.8186 110.803 97.7353 110.994L97.1403 110.685C97.2137 110.504 97.3313 110.342 97.4929 110.2C97.6545 110.053 97.8431 109.938 98.0586 109.855C98.274 109.772 98.4993 109.73 98.7344 109.73C99.0381 109.73 99.305 109.789 99.5352 109.906C99.7654 110.019 99.9441 110.178 100.071 110.384C100.204 110.585 100.27 110.82 100.27 111.089V113.778H99.6013V113.029L99.7262 113.073C99.6429 113.229 99.5303 113.367 99.3882 113.484C99.2462 113.602 99.0797 113.695 98.8887 113.763C98.6977 113.832 98.4895 113.866 98.2643 113.866ZM101.403 113.778V109.818H102.071V110.546L101.998 110.443C102.091 110.217 102.233 110.051 102.424 109.943C102.615 109.831 102.847 109.774 103.122 109.774H103.364V110.421H103.019C102.74 110.421 102.514 110.509 102.343 110.685C102.171 110.857 102.086 111.101 102.086 111.42V113.778H101.403Z" fill="#262535"/>
<defs>
<clipPath id="clip0_213_6273">
<rect x="20.0585" y="84.3413" width="9.79512" height="9.79512" rx="2.44878" fill="white"/>
</clipPath>
<clipPath id="clip1_213_6273">
<rect x="20.0585" y="106.38" width="9.79512" height="9.79512" rx="2.44878" fill="white"/>
</clipPath>
</defs>
</svg>
