<svg width="360" height="354" viewBox="0 0 360 354" fill="none" xmlns="http://www.w3.org/2000/svg">
<g opacity="0.8">
<path d="M0 24C0 10.7452 10.7452 0 24 0H336C349.255 0 360 10.7452 360 24V351H0V24Z" fill="#5CA6FF"/>
</g>
<g clip-path="url(#clip0_169_336)">
<mask id="path-2-inside-1_169_336" fill="white">
<path d="M25 39C25 32.3726 30.3726 27 37 27H320C326.627 27 332 32.3726 332 39V354H25V39Z"/>
</mask>
<path d="M25 39C25 32.3726 30.3726 27 37 27H320C326.627 27 332 32.3726 332 39V354H25V39Z" fill="#F2F8FF"/>
<g clip-path="url(#clip1_169_336)">
<rect width="309.41" height="1370" transform="translate(23.2949 35)" fill="#F7F9FD"/>
<mask id="path-4-inside-2_169_336" fill="white">
<path d="M23.2949 35H332.705V76.2547H23.2949V35Z"/>
</mask>
<path d="M23.2949 35H332.705V76.2547H23.2949V35Z" fill="white"/>
<path d="M332.705 75.3952H23.2949V77.1142H332.705V75.3952Z" fill="#D7E1F4" mask="url(#path-4-inside-2_169_336)"/>
<g clip-path="url(#clip2_169_336)">
<path d="M37.0466 61.3705V49.8841H41.4564C42.2477 49.8841 42.9491 50.0228 43.5609 50.3006C44.1724 50.5779 44.6528 50.9892 45.0025 51.5339C45.3518 52.0786 45.5268 52.752 45.5268 53.5537C45.5268 54.335 45.3494 54.9977 44.9949 55.5424C44.6404 56.0872 44.1572 56.5008 43.5457 56.7837C42.9342 57.0663 42.238 57.2078 41.4567 57.2078H39.4369V61.3705H37.0473H37.0466ZM39.4362 55.1264H41.4712C41.8105 55.1264 42.1035 55.0596 42.3501 54.9258C42.5967 54.7919 42.7893 54.6069 42.9284 54.3707C43.067 54.1344 43.1366 53.8619 43.1366 53.5534C43.1366 53.2348 43.067 52.9571 42.9284 52.7209C42.7897 52.4847 42.597 52.2993 42.3501 52.1658C42.1035 52.0323 41.8105 51.9652 41.4712 51.9652H39.4362V55.126V55.1264Z" fill="#262535"/>
<path d="M52.5108 61.5556C51.6887 61.5556 50.9254 61.4065 50.2212 61.1084C49.5174 60.8103 48.9031 60.3942 48.3788 59.8595C47.8548 59.3251 47.446 58.6977 47.153 57.9783C46.8601 57.259 46.7138 56.4725 46.7138 55.6196C46.7138 54.7663 46.858 53.9774 47.1454 53.2528C47.4332 52.5279 47.8392 51.9012 48.3636 51.3717C48.8875 50.8425 49.5018 50.4313 50.206 50.1384C50.9101 49.8454 51.6783 49.6991 52.5111 49.6991C53.3436 49.6991 54.0917 49.8381 54.7544 50.1155C55.4174 50.3929 55.9801 50.763 56.4425 51.2254C56.905 51.6878 57.2339 52.2018 57.4293 52.7672L55.3171 53.7848C55.1217 53.2297 54.78 52.7697 54.2916 52.4048C53.8036 52.0399 53.2098 51.8573 52.5108 51.8573C51.8326 51.8573 51.2363 52.0167 50.7223 52.3353C50.2084 52.6542 49.81 53.0934 49.5274 53.6533C49.2448 54.2136 49.1034 54.869 49.1034 55.6192C49.1034 56.3697 49.2448 57.0276 49.5274 57.5927C49.81 58.1578 50.2084 58.5999 50.7223 58.9184C51.2363 59.2373 51.8326 59.3964 52.5108 59.3964C53.2098 59.3964 53.8033 59.2138 54.2916 58.8489C54.7796 58.484 55.1217 58.024 55.3171 57.4689L57.4293 58.4864C57.2339 59.0519 56.905 59.5658 56.4425 60.0283C55.9801 60.4907 55.4174 60.8608 54.7544 61.1381C54.0914 61.4155 53.3436 61.5545 52.5111 61.5545L52.5108 61.5556Z" fill="#262535"/>
<path d="M58.9556 61.3706V52.8133H61.2681L65.5699 58.5179H64.4904L68.6688 52.8133H70.9816V61.3706H68.5917V55.4494L69.5473 55.6652L65.1227 61.3699H64.8142L60.5435 55.6652L61.3452 55.4494V61.3706H58.9556Z" fill="#262535"/>
<path d="M83.4577 61.3705L79.5727 49.8841H76.3966L72.5112 61.3705H75.1169C76.204 58.0658 77.2347 54.8345 78.3086 51.5187H77.6611C78.7336 54.8016 79.7888 58.0904 80.8679 61.3705H83.4581H83.4577Z" fill="#262535"/>
<path fill-rule="evenodd" clip-rule="evenodd" d="M60.7832 52.0887L58.9556 49.6991H70.9816L68.9507 52.0887H60.7832Z" fill="#262535"/>
<path fill-rule="evenodd" clip-rule="evenodd" d="M65.0064 56.3258L62.3575 52.8133H67.5793L65.0064 56.3258Z" fill="#0074FF"/>
</g>
<rect x="131.078" y="41.8758" width="107.255" height="27.5031" rx="8.59473" fill="#0074FF"/>
<path d="M154.685 47.3764C155.698 47.3764 156.519 48.186 156.519 49.1848L156.519 52.2719C156.519 53.2706 155.698 54.0803 154.685 54.0803H151.935C150.922 54.0803 150.101 53.2706 150.101 52.2719L150.101 49.1848C150.101 48.186 150.922 47.3764 151.935 47.3764L154.685 47.3764Z" stroke="white" stroke-width="1.28921" stroke-linecap="round" stroke-linejoin="round"/>
<path d="M141.851 47.3764C140.838 47.3764 140.017 48.186 140.017 49.1848L140.017 52.2719C140.017 53.2706 140.838 54.0803 141.851 54.0803H144.601C145.613 54.0803 146.434 53.2706 146.434 52.2719L146.434 49.1848C146.434 48.186 145.613 47.3764 144.601 47.3764L141.851 47.3764Z" stroke="white" stroke-width="1.28921" stroke-linecap="round" stroke-linejoin="round"/>
<path d="M154.685 57.1744C155.698 57.1744 156.519 57.984 156.519 58.9828V62.0698C156.519 63.0686 155.698 63.8783 154.685 63.8783H151.935C150.922 63.8783 150.101 63.0686 150.101 62.0698L150.101 58.9828C150.101 57.984 150.922 57.1744 151.935 57.1744H154.685Z" stroke="white" stroke-width="1.28921" stroke-linecap="round" stroke-linejoin="round"/>
<path d="M141.851 57.1744C140.838 57.1744 140.017 57.984 140.017 58.9828L140.017 62.0698C140.017 63.0686 140.838 63.8783 141.851 63.8783H144.601C145.613 63.8783 146.434 63.0686 146.434 62.0698L146.434 58.9828C146.434 57.984 145.613 57.1744 144.601 57.1744H141.851Z" stroke="white" stroke-width="1.28921" stroke-linecap="round" stroke-linejoin="round"/>
<path d="M171.494 61.7924C170.752 61.7924 170.06 61.6594 169.418 61.3936C168.785 61.1277 168.226 60.7564 167.74 60.2797C167.263 59.803 166.887 59.2437 166.612 58.602C166.347 57.9603 166.214 57.2589 166.214 56.498C166.214 55.7371 166.347 55.0358 166.612 54.394C166.887 53.7431 167.263 53.1839 167.74 52.7163C168.217 52.2396 168.776 51.8729 169.418 51.6162C170.06 51.3503 170.752 51.2174 171.494 51.2174C172.246 51.2174 172.938 51.3503 173.571 51.6162C174.213 51.8729 174.772 52.2396 175.248 52.7163C175.734 53.1931 176.11 53.7523 176.376 54.394C176.642 55.0358 176.775 55.7371 176.775 56.498C176.775 57.2589 176.637 57.9603 176.362 58.602C176.096 59.2437 175.725 59.803 175.248 60.2797C174.772 60.7564 174.213 61.1277 173.571 61.3936C172.929 61.6594 172.237 61.7924 171.494 61.7924ZM171.494 60.3072C172.026 60.3072 172.512 60.2109 172.952 60.0184C173.401 59.8259 173.791 59.56 174.121 59.2208C174.451 58.8725 174.708 58.4691 174.891 58.0107C175.074 57.5431 175.166 57.0389 175.166 56.498C175.166 55.9571 175.074 55.4575 174.891 54.9991C174.708 54.5407 174.451 54.1373 174.121 53.789C173.791 53.4406 173.401 53.1701 172.952 52.9776C172.512 52.7851 172.026 52.6888 171.494 52.6888C170.963 52.6888 170.472 52.7851 170.023 52.9776C169.583 53.1701 169.198 53.4406 168.868 53.789C168.538 54.1373 168.281 54.5407 168.098 54.9991C167.923 55.4575 167.836 55.9571 167.836 56.498C167.836 57.0389 167.923 57.5431 168.098 58.0107C168.281 58.4691 168.538 58.8725 168.868 59.2208C169.198 59.56 169.587 59.8259 170.037 60.0184C170.486 60.2109 170.972 60.3072 171.494 60.3072ZM180.734 61.6273L177.819 54.1878H179.51L181.752 60.2522H181.133L183.375 54.1878H185.08L182.151 61.6273H180.734ZM189.632 61.7924C188.89 61.7924 188.23 61.6228 187.652 61.2836C187.084 60.9352 186.639 60.4676 186.318 59.8809C185.997 59.285 185.837 58.6203 185.837 57.8869C185.837 57.1352 185.997 56.4705 186.318 55.8929C186.648 55.3154 187.088 54.8616 187.638 54.5315C188.188 54.1923 188.812 54.0227 189.508 54.0227C190.068 54.0227 190.567 54.119 191.007 54.3115C191.447 54.504 191.819 54.7699 192.121 55.1091C192.424 55.4391 192.653 55.8196 192.809 56.2505C192.974 56.6814 193.056 57.1398 193.056 57.6256C193.056 57.7448 193.052 57.8686 193.043 57.9969C193.033 58.1253 193.015 58.2445 192.988 58.3545H187.061V57.1168H192.107L191.365 57.6806C191.457 57.2314 191.424 56.8326 191.269 56.4843C191.122 56.1267 190.893 55.8471 190.581 55.6454C190.278 55.4346 189.921 55.3291 189.508 55.3291C189.096 55.3291 188.729 55.4346 188.408 55.6454C188.087 55.8471 187.84 56.1405 187.666 56.5255C187.492 56.9014 187.423 57.3598 187.459 57.9007C187.414 58.4049 187.482 58.8449 187.666 59.2208C187.858 59.5967 188.124 59.8901 188.463 60.1009C188.812 60.3118 189.206 60.4172 189.646 60.4172C190.095 60.4172 190.476 60.3164 190.787 60.1147C191.108 59.913 191.36 59.6517 191.544 59.3308L192.809 59.9497C192.662 60.298 192.433 60.6143 192.121 60.8985C191.819 61.1735 191.452 61.3936 191.021 61.5586C190.599 61.7144 190.136 61.7924 189.632 61.7924ZM194.71 61.6273V54.1878H196.196V55.6867L196.058 55.4666C196.223 54.9808 196.489 54.6324 196.856 54.4215C197.222 54.2015 197.662 54.0915 198.176 54.0915H198.63V55.5079H197.983C197.47 55.5079 197.053 55.6683 196.732 55.9892C196.42 56.3009 196.264 56.7501 196.264 57.3369V61.6273H194.71ZM201.989 61.6273L199.074 54.1878H200.765L203.007 60.2522H202.388L204.629 54.1878H206.335L203.406 61.6273H201.989ZM207.528 61.6273V54.1878H209.082V61.6273H207.528ZM207.528 53.1701V51.3824H209.082V53.1701H207.528ZM214.529 61.7924C213.787 61.7924 213.127 61.6228 212.549 61.2836C211.981 60.9352 211.536 60.4676 211.215 59.8809C210.894 59.285 210.734 58.6203 210.734 57.8869C210.734 57.1352 210.894 56.4705 211.215 55.8929C211.545 55.3154 211.985 54.8616 212.536 54.5315C213.086 54.1923 213.709 54.0227 214.406 54.0227C214.965 54.0227 215.465 54.119 215.905 54.3115C216.345 54.504 216.716 54.7699 217.019 55.1091C217.321 55.4391 217.55 55.8196 217.706 56.2505C217.871 56.6814 217.954 57.1398 217.954 57.6256C217.954 57.7448 217.949 57.8686 217.94 57.9969C217.931 58.1253 217.912 58.2445 217.885 58.3545H211.958V57.1168H217.005L216.262 57.6806C216.354 57.2314 216.322 56.8326 216.166 56.4843C216.019 56.1267 215.79 55.8471 215.478 55.6454C215.176 55.4346 214.818 55.3291 214.406 55.3291C213.993 55.3291 213.626 55.4346 213.306 55.6454C212.985 55.8471 212.737 56.1405 212.563 56.5255C212.389 56.9014 212.32 57.3598 212.357 57.9007C212.311 58.4049 212.38 58.8449 212.563 59.2208C212.756 59.5967 213.021 59.8901 213.361 60.1009C213.709 60.3118 214.103 60.4172 214.543 60.4172C214.992 60.4172 215.373 60.3164 215.685 60.1147C216.005 59.913 216.258 59.6517 216.441 59.3308L217.706 59.9497C217.559 60.298 217.33 60.6143 217.019 60.8985C216.716 61.1735 216.349 61.3936 215.918 61.5586C215.497 61.7144 215.034 61.7924 214.529 61.7924ZM221.409 61.6273L218.851 54.1878H220.502L222.454 60.1147H221.877L223.871 54.1878H225.287L227.267 60.1147H226.69L228.656 54.1878H230.306L227.735 61.6273H226.332L224.324 55.5629H224.833L222.826 61.6273H221.409Z" fill="white"/>
<path d="M286.88 60.6273V51.663H288.204L291.573 56.3317H290.911L294.22 51.663H295.544V60.6273H294.136V53.3356L294.665 53.48L291.284 58.1005H291.14L287.831 53.48L288.3 53.3356V60.6273H286.88ZM300.441 60.7717C299.791 60.7717 299.214 60.6233 298.708 60.3265C298.211 60.0217 297.822 59.6126 297.541 59.0992C297.261 58.5778 297.12 57.9962 297.12 57.3545C297.12 56.6967 297.261 56.1151 297.541 55.6097C297.83 55.1044 298.215 54.7073 298.696 54.4185C299.178 54.1217 299.723 53.9733 300.333 53.9733C300.822 53.9733 301.259 54.0575 301.644 54.226C302.029 54.3945 302.354 54.6271 302.619 54.9239C302.884 55.2127 303.084 55.5456 303.221 55.9226C303.365 56.2996 303.437 56.7007 303.437 57.1259C303.437 57.2301 303.433 57.3384 303.425 57.4507C303.417 57.563 303.401 57.6673 303.377 57.7636H298.191V56.6806H302.607L301.957 57.174C302.038 56.7809 302.009 56.432 301.873 56.1271C301.745 55.8143 301.544 55.5696 301.271 55.3932C301.007 55.2087 300.694 55.1164 300.333 55.1164C299.972 55.1164 299.651 55.2087 299.37 55.3932C299.09 55.5696 298.873 55.8263 298.721 56.1632C298.568 56.4921 298.508 56.8932 298.54 57.3665C298.5 57.8077 298.56 58.1927 298.721 58.5216C298.889 58.8505 299.122 59.1072 299.418 59.2917C299.723 59.4762 300.068 59.5685 300.453 59.5685C300.846 59.5685 301.179 59.4802 301.452 59.3038C301.733 59.1273 301.953 58.8987 302.114 58.6179L303.221 59.1594C303.092 59.4642 302.892 59.7409 302.619 59.9896C302.354 60.2303 302.033 60.4228 301.656 60.5672C301.287 60.7036 300.882 60.7717 300.441 60.7717ZM304.885 60.6273V54.1177H306.184V55.3932L306.028 55.2247C306.188 54.8156 306.445 54.5068 306.798 54.2982C307.151 54.0816 307.56 53.9733 308.025 53.9733C308.506 53.9733 308.932 54.0776 309.301 54.2862C309.67 54.4947 309.958 54.7835 310.167 55.1525C310.375 55.5215 310.48 55.9467 310.48 56.428V60.6273H309.132V56.7889C309.132 56.4601 309.072 56.1833 308.952 55.9587C308.831 55.7261 308.659 55.5496 308.434 55.4293C308.218 55.3009 307.969 55.2367 307.688 55.2367C307.407 55.2367 307.155 55.3009 306.93 55.4293C306.714 55.5496 306.545 55.7261 306.425 55.9587C306.304 56.1913 306.244 56.4681 306.244 56.7889V60.6273H304.885ZM314.378 60.7717C313.888 60.7717 313.459 60.6634 313.09 60.4469C312.721 60.2223 312.432 59.9134 312.224 59.5203C312.023 59.1193 311.923 58.658 311.923 58.1366V54.1177H313.283V58.0163C313.283 58.3131 313.343 58.5738 313.463 58.7984C313.583 59.023 313.752 59.1995 313.968 59.3278C314.185 59.4482 314.434 59.5083 314.714 59.5083C315.003 59.5083 315.256 59.4441 315.473 59.3158C315.689 59.1874 315.858 59.007 315.978 58.7743C316.106 58.5417 316.17 58.269 316.17 57.9561V54.1177H317.518V60.6273H316.231V59.3519L316.375 59.5203C316.223 59.9214 315.97 60.2303 315.617 60.4469C315.264 60.6634 314.851 60.7717 314.378 60.7717Z" fill="#262535"/>
<rect x="37.9059" y="91.7252" width="281.048" height="521.109" rx="20.6274" fill="white"/>
<rect x="38.7654" y="92.5847" width="279.329" height="519.39" rx="19.7679" stroke="#0074FF" stroke-opacity="0.1" stroke-width="1.71895"/>
<rect x="59.3927" y="113.212" width="231.198" height="102.774" rx="9.4542" stroke="#0074FF" stroke-opacity="0.05" stroke-width="1.71895"/>
<path d="M86.3802 129.886H79.1606C77.4518 129.886 76.0665 131.271 76.0665 132.98V143.294C76.0665 145.003 77.4518 146.388 79.1606 146.388H89.4743C91.1831 146.388 92.5684 145.003 92.5684 143.294V137.621M91.537 132.464L84.3175 139.684L82.2547 137.621" stroke="#01F971" stroke-width="1.28921" stroke-linecap="round" stroke-linejoin="round"/>
<path d="M101.658 144.137L105.399 133.892H106.581L110.322 144.137H109.167L108.286 141.634H103.707L102.813 144.137H101.658ZM104.065 140.603H107.901L105.825 134.717H106.155L104.065 140.603ZM111.674 146.887V136.766H112.705V138.416L112.54 138.127C112.834 137.66 113.223 137.289 113.709 137.014C114.204 136.739 114.768 136.601 115.401 136.601C116.097 136.601 116.716 136.771 117.257 137.11C117.807 137.44 118.238 137.894 118.55 138.471C118.871 139.049 119.031 139.709 119.031 140.451C119.031 141.185 118.871 141.845 118.55 142.432C118.238 143.009 117.807 143.468 117.257 143.807C116.716 144.137 116.097 144.302 115.401 144.302C114.768 144.302 114.195 144.16 113.682 143.876C113.178 143.582 112.797 143.17 112.54 142.638L112.705 142.487V146.887H111.674ZM115.346 143.271C115.841 143.271 116.281 143.147 116.666 142.899C117.06 142.652 117.367 142.317 117.587 141.895C117.816 141.464 117.931 140.983 117.931 140.451C117.931 139.911 117.816 139.429 117.587 139.008C117.367 138.586 117.06 138.251 116.666 138.004C116.281 137.756 115.841 137.632 115.346 137.632C114.851 137.632 114.401 137.756 113.998 138.004C113.604 138.251 113.288 138.59 113.049 139.021C112.82 139.443 112.705 139.92 112.705 140.451C112.705 140.983 112.82 141.464 113.049 141.895C113.288 142.317 113.604 142.652 113.998 142.899C114.401 143.147 114.851 143.271 115.346 143.271ZM120.984 146.887V136.766H122.015V138.416L121.85 138.127C122.143 137.66 122.533 137.289 123.019 137.014C123.514 136.739 124.078 136.601 124.71 136.601C125.407 136.601 126.026 136.771 126.567 137.11C127.117 137.44 127.548 137.894 127.86 138.471C128.18 139.049 128.341 139.709 128.341 140.451C128.341 141.185 128.18 141.845 127.86 142.432C127.548 143.009 127.117 143.468 126.567 143.807C126.026 144.137 125.407 144.302 124.71 144.302C124.078 144.302 123.505 144.16 122.991 143.876C122.487 143.582 122.107 143.17 121.85 142.638L122.015 142.487V146.887H120.984ZM124.655 143.271C125.15 143.271 125.591 143.147 125.976 142.899C126.37 142.652 126.677 142.317 126.897 141.895C127.126 141.464 127.241 140.983 127.241 140.451C127.241 139.911 127.126 139.429 126.897 139.008C126.677 138.586 126.37 138.251 125.976 138.004C125.591 137.756 125.15 137.632 124.655 137.632C124.16 137.632 123.711 137.756 123.308 138.004C122.914 138.251 122.597 138.59 122.359 139.021C122.13 139.443 122.015 139.92 122.015 140.451C122.015 140.983 122.13 141.464 122.359 141.895C122.597 142.317 122.914 142.652 123.308 142.899C123.711 143.147 124.16 143.271 124.655 143.271ZM130.293 144.137V136.766H131.325V137.976L131.187 137.797C131.361 137.449 131.623 137.174 131.971 136.972C132.329 136.771 132.76 136.67 133.264 136.67H133.731V137.701H133.085C132.553 137.701 132.127 137.866 131.806 138.196C131.485 138.526 131.325 138.994 131.325 139.599V144.137H130.293ZM138.529 144.302C137.832 144.302 137.2 144.137 136.631 143.807C136.063 143.468 135.609 143.009 135.27 142.432C134.94 141.845 134.775 141.18 134.775 140.438C134.775 139.704 134.94 139.049 135.27 138.471C135.6 137.894 136.045 137.44 136.604 137.11C137.172 136.771 137.814 136.601 138.529 136.601C139.244 136.601 139.881 136.766 140.441 137.096C141.009 137.426 141.454 137.88 141.774 138.457C142.105 139.035 142.27 139.695 142.27 140.438C142.27 141.189 142.1 141.859 141.761 142.445C141.422 143.023 140.968 143.477 140.399 143.807C139.84 144.137 139.217 144.302 138.529 144.302ZM138.529 143.271C139.024 143.271 139.469 143.147 139.863 142.899C140.266 142.652 140.583 142.313 140.812 141.882C141.05 141.451 141.169 140.969 141.169 140.438C141.169 139.906 141.05 139.429 140.812 139.008C140.583 138.586 140.266 138.251 139.863 138.004C139.469 137.756 139.024 137.632 138.529 137.632C138.034 137.632 137.585 137.756 137.181 138.004C136.787 138.251 136.471 138.586 136.233 139.008C135.994 139.429 135.875 139.906 135.875 140.438C135.875 140.969 135.994 141.451 136.233 141.882C136.471 142.313 136.787 142.652 137.181 142.899C137.585 143.147 138.034 143.271 138.529 143.271ZM146.058 144.137L143.184 136.766H144.339L146.76 143.229H146.388L148.822 136.766H149.991L147.09 144.137H146.058ZM154.554 144.302C153.867 144.302 153.243 144.137 152.684 143.807C152.134 143.468 151.699 143.005 151.378 142.418C151.057 141.831 150.897 141.167 150.897 140.424C150.897 139.681 151.052 139.026 151.364 138.457C151.676 137.88 152.097 137.426 152.629 137.096C153.17 136.766 153.775 136.601 154.444 136.601C154.976 136.601 155.448 136.702 155.861 136.904C156.283 137.096 156.64 137.362 156.933 137.701C157.227 138.031 157.451 138.407 157.607 138.829C157.763 139.241 157.841 139.668 157.841 140.108C157.841 140.199 157.836 140.305 157.827 140.424C157.818 140.534 157.804 140.649 157.786 140.768H151.557V139.805H157.195L156.7 140.218C156.782 139.713 156.723 139.264 156.521 138.87C156.328 138.467 156.049 138.15 155.682 137.921C155.315 137.683 154.903 137.564 154.444 137.564C153.986 137.564 153.56 137.683 153.166 137.921C152.78 138.16 152.478 138.494 152.258 138.925C152.038 139.347 151.951 139.851 151.997 140.438C151.951 141.024 152.042 141.538 152.272 141.978C152.51 142.409 152.831 142.743 153.234 142.982C153.647 143.22 154.087 143.339 154.554 143.339C155.095 143.339 155.549 143.211 155.916 142.954C156.283 142.698 156.58 142.377 156.81 141.992L157.69 142.459C157.543 142.789 157.318 143.096 157.016 143.381C156.713 143.656 156.351 143.88 155.93 144.054C155.517 144.219 155.059 144.302 154.554 144.302ZM163.125 144.302C162.437 144.302 161.818 144.137 161.268 143.807C160.718 143.468 160.283 143.009 159.962 142.432C159.65 141.845 159.494 141.185 159.494 140.451C159.494 139.709 159.65 139.049 159.962 138.471C160.283 137.894 160.714 137.44 161.255 137.11C161.805 136.771 162.428 136.601 163.125 136.601C163.757 136.601 164.321 136.739 164.816 137.014C165.311 137.289 165.701 137.66 165.985 138.127L165.82 138.416V133.727H166.852V144.137H165.82V142.487L165.985 142.638C165.729 143.17 165.343 143.582 164.83 143.876C164.326 144.16 163.757 144.302 163.125 144.302ZM163.18 143.271C163.675 143.271 164.12 143.147 164.514 142.899C164.917 142.652 165.233 142.317 165.463 141.895C165.701 141.464 165.82 140.983 165.82 140.451C165.82 139.92 165.701 139.443 165.463 139.021C165.233 138.59 164.917 138.251 164.514 138.004C164.12 137.756 163.675 137.632 163.18 137.632C162.694 137.632 162.254 137.756 161.86 138.004C161.466 138.251 161.154 138.586 160.925 139.008C160.705 139.429 160.595 139.911 160.595 140.451C160.595 140.983 160.705 141.464 160.925 141.895C161.154 142.317 161.461 142.652 161.846 142.899C162.24 143.147 162.685 143.271 163.18 143.271ZM171.732 144.137V133.892H175.253C175.922 133.892 176.509 134.025 177.013 134.291C177.517 134.547 177.907 134.914 178.182 135.391C178.466 135.858 178.608 136.404 178.608 137.027C178.608 137.752 178.415 138.37 178.03 138.884C177.655 139.397 177.141 139.759 176.49 139.97L178.883 144.137H177.59L175.088 139.723L175.83 140.149H172.832V144.137H171.732ZM172.832 139.118H175.308C175.748 139.118 176.133 139.035 176.463 138.87C176.793 138.696 177.049 138.453 177.233 138.141C177.416 137.82 177.508 137.444 177.508 137.014C177.508 136.583 177.416 136.211 177.233 135.9C177.049 135.588 176.793 135.35 176.463 135.185C176.133 135.01 175.748 134.923 175.308 134.923H172.832V139.118ZM183.467 144.302C182.78 144.302 182.156 144.137 181.597 143.807C181.047 143.468 180.611 143.005 180.29 142.418C179.97 141.831 179.809 141.167 179.809 140.424C179.809 139.681 179.965 139.026 180.277 138.457C180.588 137.88 181.01 137.426 181.542 137.096C182.083 136.766 182.688 136.601 183.357 136.601C183.889 136.601 184.361 136.702 184.774 136.904C185.195 137.096 185.553 137.362 185.846 137.701C186.139 138.031 186.364 138.407 186.52 138.829C186.676 139.241 186.754 139.668 186.754 140.108C186.754 140.199 186.749 140.305 186.74 140.424C186.731 140.534 186.717 140.649 186.699 140.768H180.469V139.805H186.107L185.612 140.218C185.695 139.713 185.635 139.264 185.434 138.87C185.241 138.467 184.961 138.15 184.595 137.921C184.228 137.683 183.815 137.564 183.357 137.564C182.899 137.564 182.472 137.683 182.078 137.921C181.693 138.16 181.391 138.494 181.171 138.925C180.951 139.347 180.863 139.851 180.909 140.438C180.863 141.024 180.955 141.538 181.184 141.978C181.423 142.409 181.744 142.743 182.147 142.982C182.559 143.22 183 143.339 183.467 143.339C184.008 143.339 184.462 143.211 184.829 142.954C185.195 142.698 185.493 142.377 185.722 141.992L186.602 142.459C186.456 142.789 186.231 143.096 185.929 143.381C185.626 143.656 185.264 143.88 184.842 144.054C184.43 144.219 183.971 144.302 183.467 144.302ZM194.733 146.887V142.487L194.898 142.638C194.641 143.17 194.256 143.582 193.743 143.876C193.239 144.16 192.67 144.302 192.038 144.302C191.35 144.302 190.731 144.137 190.181 143.807C189.631 143.468 189.196 143.009 188.875 142.432C188.563 141.845 188.407 141.185 188.407 140.451C188.407 139.709 188.563 139.049 188.875 138.471C189.196 137.894 189.626 137.44 190.167 137.11C190.717 136.771 191.341 136.601 192.038 136.601C192.67 136.601 193.234 136.739 193.729 137.014C194.224 137.289 194.614 137.66 194.898 138.127L194.733 138.416V136.766H195.764V146.887H194.733ZM192.093 143.271C192.588 143.271 193.032 143.147 193.426 142.899C193.83 142.652 194.146 142.317 194.375 141.895C194.614 141.464 194.733 140.983 194.733 140.451C194.733 139.92 194.614 139.443 194.375 139.021C194.146 138.59 193.83 138.251 193.426 138.004C193.032 137.756 192.588 137.632 192.093 137.632C191.607 137.632 191.167 137.756 190.772 138.004C190.378 138.251 190.066 138.586 189.837 139.008C189.617 139.429 189.507 139.911 189.507 140.451C189.507 140.983 189.617 141.464 189.837 141.895C190.066 142.317 190.374 142.652 190.759 142.899C191.153 143.147 191.598 143.271 192.093 143.271ZM200.632 144.302C200.119 144.302 199.651 144.183 199.23 143.944C198.808 143.697 198.473 143.358 198.226 142.927C197.987 142.487 197.868 141.982 197.868 141.414V136.766H198.899V141.29C198.899 141.685 198.977 142.033 199.133 142.335C199.298 142.629 199.523 142.858 199.807 143.023C200.1 143.188 200.435 143.271 200.811 143.271C201.187 143.271 201.521 143.188 201.815 143.023C202.108 142.849 202.337 142.606 202.502 142.294C202.667 141.973 202.75 141.593 202.75 141.153V136.766H203.781V144.137H202.75V142.707L202.984 142.762C202.81 143.238 202.512 143.614 202.09 143.889C201.668 144.164 201.182 144.302 200.632 144.302ZM209.395 144.302C208.708 144.302 208.084 144.137 207.525 143.807C206.975 143.468 206.54 143.005 206.219 142.418C205.898 141.831 205.737 141.167 205.737 140.424C205.737 139.681 205.893 139.026 206.205 138.457C206.517 137.88 206.938 137.426 207.47 137.096C208.011 136.766 208.616 136.601 209.285 136.601C209.817 136.601 210.289 136.702 210.702 136.904C211.123 137.096 211.481 137.362 211.774 137.701C212.068 138.031 212.292 138.407 212.448 138.829C212.604 139.241 212.682 139.668 212.682 140.108C212.682 140.199 212.677 140.305 212.668 140.424C212.659 140.534 212.645 140.649 212.627 140.768H206.397V139.805H212.036L211.541 140.218C211.623 139.713 211.563 139.264 211.362 138.87C211.169 138.467 210.89 138.15 210.523 137.921C210.156 137.683 209.744 137.564 209.285 137.564C208.827 137.564 208.401 137.683 208.006 137.921C207.621 138.16 207.319 138.494 207.099 138.925C206.879 139.347 206.792 139.851 206.837 140.438C206.792 141.024 206.883 141.538 207.112 141.978C207.351 142.409 207.672 142.743 208.075 142.982C208.488 143.22 208.928 143.339 209.395 143.339C209.936 143.339 210.39 143.211 210.757 142.954C211.123 142.698 211.421 142.377 211.651 141.992L212.531 142.459C212.384 142.789 212.159 143.096 211.857 143.381C211.554 143.656 211.192 143.88 210.77 144.054C210.358 144.219 209.899 144.302 209.395 144.302ZM217.196 144.302C216.49 144.302 215.871 144.123 215.339 143.766C214.807 143.408 214.422 142.922 214.184 142.308L215.05 141.895C215.261 142.345 215.555 142.702 215.93 142.968C216.316 143.234 216.737 143.367 217.196 143.367C217.636 143.367 218.007 143.261 218.309 143.051C218.612 142.83 218.763 142.546 218.763 142.198C218.763 141.941 218.69 141.74 218.543 141.593C218.397 141.437 218.227 141.318 218.034 141.235C217.842 141.153 217.672 141.093 217.526 141.057L216.467 140.754C215.788 140.561 215.298 140.291 214.995 139.943C214.693 139.594 214.542 139.191 214.542 138.733C214.542 138.302 214.652 137.926 214.872 137.605C215.092 137.284 215.39 137.036 215.765 136.862C216.141 136.688 216.558 136.601 217.017 136.601C217.64 136.601 218.204 136.766 218.708 137.096C219.222 137.417 219.584 137.866 219.795 138.444L218.915 138.856C218.731 138.444 218.465 138.123 218.117 137.894C217.778 137.655 217.397 137.536 216.976 137.536C216.563 137.536 216.233 137.642 215.985 137.852C215.738 138.063 215.614 138.329 215.614 138.65C215.614 138.898 215.678 139.095 215.807 139.241C215.935 139.388 216.082 139.498 216.247 139.571C216.421 139.645 216.572 139.7 216.701 139.736L217.924 140.094C218.52 140.268 218.983 140.539 219.313 140.905C219.653 141.272 219.822 141.703 219.822 142.198C219.822 142.601 219.708 142.963 219.478 143.284C219.258 143.605 218.951 143.857 218.557 144.041C218.163 144.215 217.709 144.302 217.196 144.302ZM224.591 144.219C223.931 144.219 223.422 144.027 223.065 143.642C222.707 143.257 222.528 142.707 222.528 141.992V137.797H221.167V136.766H221.511C221.822 136.766 222.07 136.665 222.253 136.464C222.437 136.253 222.528 135.991 222.528 135.68V135.061H223.56V136.766H225.182V137.797H223.56V141.992C223.56 142.239 223.596 142.459 223.67 142.652C223.743 142.835 223.867 142.982 224.041 143.092C224.224 143.202 224.467 143.257 224.77 143.257C224.843 143.257 224.93 143.252 225.031 143.243C225.132 143.234 225.219 143.225 225.292 143.216V144.137C225.182 144.164 225.059 144.183 224.921 144.192C224.784 144.21 224.674 144.219 224.591 144.219ZM229.799 144.302C229.093 144.302 228.474 144.123 227.942 143.766C227.411 143.408 227.025 142.922 226.787 142.308L227.653 141.895C227.864 142.345 228.158 142.702 228.534 142.968C228.919 143.234 229.34 143.367 229.799 143.367C230.239 143.367 230.61 143.261 230.913 143.051C231.215 142.83 231.366 142.546 231.366 142.198C231.366 141.941 231.293 141.74 231.146 141.593C231 141.437 230.83 141.318 230.638 141.235C230.445 141.153 230.275 141.093 230.129 141.057L229.07 140.754C228.391 140.561 227.901 140.291 227.598 139.943C227.296 139.594 227.145 139.191 227.145 138.733C227.145 138.302 227.255 137.926 227.475 137.605C227.695 137.284 227.993 137.036 228.369 136.862C228.744 136.688 229.162 136.601 229.62 136.601C230.243 136.601 230.807 136.766 231.311 137.096C231.825 137.417 232.187 137.866 232.398 138.444L231.518 138.856C231.334 138.444 231.068 138.123 230.72 137.894C230.381 137.655 230 137.536 229.579 137.536C229.166 137.536 228.836 137.642 228.589 137.852C228.341 138.063 228.217 138.329 228.217 138.65C228.217 138.898 228.281 139.095 228.41 139.241C228.538 139.388 228.685 139.498 228.85 139.571C229.024 139.645 229.175 139.7 229.304 139.736L230.528 140.094C231.123 140.268 231.586 140.539 231.916 140.905C232.256 141.272 232.425 141.703 232.425 142.198C232.425 142.601 232.311 142.963 232.081 143.284C231.861 143.605 231.554 143.857 231.16 144.041C230.766 144.215 230.312 144.302 229.799 144.302Z" fill="#262535"/>
<path opacity="0.5" d="M165.167 193.218V176.331H161.179V172.729H169.43V193.218H165.167ZM173.283 193.218V189.918L178.784 184.252C179.866 183.134 180.682 182.254 181.232 181.612C181.8 180.952 182.185 180.402 182.387 179.962C182.607 179.522 182.717 179.091 182.717 178.669C182.717 177.918 182.469 177.331 181.974 176.909C181.497 176.469 180.892 176.249 180.159 176.249C179.407 176.249 178.738 176.469 178.151 176.909C177.564 177.331 177.134 177.982 176.859 178.862L173.146 177.652C173.366 176.588 173.824 175.662 174.521 174.874C175.218 174.085 176.061 173.48 177.051 173.059C178.041 172.619 179.077 172.399 180.159 172.399C181.516 172.399 182.708 172.637 183.734 173.114C184.761 173.59 185.559 174.26 186.127 175.121C186.696 175.983 186.98 176.992 186.98 178.147C186.98 178.88 186.851 179.604 186.595 180.319C186.338 181.016 185.944 181.731 185.412 182.465C184.899 183.18 184.229 183.959 183.404 184.802L178.701 189.643H187.172V193.218H173.283Z" fill="#262535"/>
<rect x="59.3927" y="238.333" width="229.479" height="102.774" rx="9.4542" stroke="#0074FF" stroke-opacity="0.05" stroke-width="1.71895"/>
<path d="M84.6612 255.006H77.4416C75.7328 255.006 74.3475 256.392 74.3475 258.101V268.414C74.3475 270.123 75.7328 271.508 77.4416 271.508H87.7553C89.4641 271.508 90.8494 270.123 90.8494 268.414V262.742M89.818 257.585L82.5985 264.804L80.5357 262.742" stroke="#F9B401" stroke-width="1.28921" stroke-linecap="round" stroke-linejoin="round"/>
<path d="M100.998 269.257V259.012H104.519C105.188 259.012 105.774 259.145 106.279 259.411C106.783 259.668 107.173 260.035 107.448 260.511C107.732 260.979 107.874 261.524 107.874 262.148C107.874 262.771 107.732 263.317 107.448 263.784C107.173 264.252 106.783 264.618 106.279 264.884C105.784 265.141 105.197 265.269 104.519 265.269H102.098V269.257H100.998ZM102.098 264.238H104.574C105.014 264.238 105.399 264.156 105.729 263.991C106.059 263.816 106.315 263.573 106.499 263.262C106.682 262.941 106.774 262.565 106.774 262.134C106.774 261.703 106.682 261.332 106.499 261.02C106.315 260.708 106.059 260.47 105.729 260.305C105.399 260.131 105.014 260.044 104.574 260.044H102.098V264.238ZM112.908 269.422C112.22 269.422 111.597 269.257 111.037 268.927C110.487 268.588 110.052 268.125 109.731 267.538C109.41 266.952 109.25 266.287 109.25 265.544C109.25 264.802 109.406 264.146 109.717 263.578C110.029 263 110.451 262.547 110.982 262.217C111.523 261.887 112.128 261.721 112.798 261.721C113.329 261.721 113.801 261.822 114.214 262.024C114.636 262.217 114.993 262.482 115.287 262.822C115.58 263.152 115.805 263.528 115.96 263.949C116.116 264.362 116.194 264.788 116.194 265.228C116.194 265.32 116.19 265.425 116.18 265.544C116.171 265.654 116.158 265.769 116.139 265.888H109.91V264.926H115.548L115.053 265.338C115.135 264.834 115.076 264.385 114.874 263.991C114.682 263.587 114.402 263.271 114.035 263.042C113.669 262.803 113.256 262.684 112.798 262.684C112.339 262.684 111.913 262.803 111.519 263.042C111.134 263.28 110.831 263.615 110.611 264.046C110.391 264.467 110.304 264.971 110.35 265.558C110.304 266.145 110.396 266.658 110.625 267.098C110.863 267.529 111.184 267.864 111.587 268.102C112 268.341 112.44 268.46 112.908 268.46C113.449 268.46 113.902 268.331 114.269 268.075C114.636 267.818 114.934 267.497 115.163 267.112L116.043 267.58C115.896 267.91 115.672 268.217 115.369 268.501C115.067 268.776 114.704 269.001 114.283 269.175C113.87 269.34 113.412 269.422 112.908 269.422ZM118.15 269.257V261.887H119.182V263.317L118.948 263.262C119.131 262.785 119.429 262.409 119.842 262.134C120.263 261.859 120.749 261.721 121.299 261.721C121.822 261.721 122.289 261.841 122.702 262.079C123.124 262.317 123.454 262.647 123.692 263.069C123.94 263.482 124.063 263.949 124.063 264.472V269.257H123.032V264.871C123.032 264.421 122.949 264.041 122.784 263.729C122.629 263.418 122.404 263.179 122.111 263.014C121.826 262.84 121.496 262.753 121.121 262.753C120.745 262.753 120.41 262.84 120.117 263.014C119.823 263.179 119.594 263.422 119.429 263.743C119.264 264.055 119.182 264.431 119.182 264.871V269.257H118.15ZM129.499 269.422C128.811 269.422 128.192 269.257 127.642 268.927C127.092 268.588 126.657 268.13 126.336 267.552C126.024 266.965 125.868 266.305 125.868 265.572C125.868 264.829 126.024 264.169 126.336 263.592C126.657 263.014 127.087 262.56 127.628 262.23C128.178 261.891 128.802 261.721 129.499 261.721C130.131 261.721 130.695 261.859 131.19 262.134C131.685 262.409 132.075 262.78 132.359 263.248L132.194 263.537V258.847H133.225V269.257H132.194V267.607L132.359 267.758C132.102 268.29 131.717 268.703 131.204 268.996C130.7 269.28 130.131 269.422 129.499 269.422ZM129.554 268.391C130.049 268.391 130.493 268.267 130.887 268.02C131.291 267.772 131.607 267.438 131.836 267.016C132.075 266.585 132.194 266.104 132.194 265.572C132.194 265.04 132.075 264.563 131.836 264.142C131.607 263.711 131.291 263.372 130.887 263.124C130.493 262.877 130.049 262.753 129.554 262.753C129.068 262.753 128.628 262.877 128.233 263.124C127.839 263.372 127.527 263.706 127.298 264.128C127.078 264.55 126.968 265.031 126.968 265.572C126.968 266.104 127.078 266.585 127.298 267.016C127.527 267.438 127.835 267.772 128.22 268.02C128.614 268.267 129.058 268.391 129.554 268.391ZM135.48 269.257V261.887H136.512V269.257H135.48ZM135.48 260.525V259.012H136.512V260.525H135.48ZM138.76 269.257V261.887H139.792V263.317L139.558 263.262C139.741 262.785 140.039 262.409 140.452 262.134C140.873 261.859 141.359 261.721 141.909 261.721C142.432 261.721 142.9 261.841 143.312 262.079C143.734 262.317 144.064 262.647 144.302 263.069C144.55 263.482 144.674 263.949 144.674 264.472V269.257H143.642V264.871C143.642 264.421 143.56 264.041 143.395 263.729C143.239 263.418 143.014 263.179 142.721 263.014C142.437 262.84 142.107 262.753 141.731 262.753C141.355 262.753 141.02 262.84 140.727 263.014C140.433 263.179 140.204 263.422 140.039 263.743C139.874 264.055 139.792 264.431 139.792 264.871V269.257H138.76ZM150.274 272.283C149.77 272.283 149.302 272.205 148.871 272.049C148.449 271.893 148.083 271.678 147.771 271.403C147.468 271.137 147.235 270.825 147.07 270.467L148.018 269.959C148.165 270.307 148.426 270.61 148.802 270.866C149.178 271.123 149.659 271.251 150.246 271.251C150.695 271.251 151.108 271.164 151.484 270.99C151.86 270.816 152.162 270.559 152.391 270.22C152.621 269.881 152.735 269.464 152.735 268.969V267.332L152.9 267.483C152.644 268.015 152.263 268.428 151.759 268.721C151.255 269.005 150.705 269.147 150.109 269.147C149.421 269.147 148.802 268.982 148.252 268.652C147.702 268.322 147.267 267.878 146.946 267.318C146.634 266.75 146.478 266.122 146.478 265.434C146.478 264.738 146.634 264.11 146.946 263.55C147.267 262.991 147.698 262.547 148.238 262.217C148.789 261.887 149.412 261.721 150.109 261.721C150.705 261.721 151.246 261.859 151.731 262.134C152.226 262.409 152.616 262.78 152.9 263.248L152.735 263.537V261.887H153.767V268.969C153.767 269.601 153.615 270.165 153.313 270.66C153.019 271.164 152.607 271.558 152.075 271.843C151.553 272.136 150.952 272.283 150.274 272.283ZM150.164 268.116C150.64 268.116 151.071 267.997 151.456 267.758C151.841 267.511 152.149 267.185 152.378 266.782C152.616 266.37 152.735 265.92 152.735 265.434C152.735 264.949 152.616 264.504 152.378 264.101C152.149 263.688 151.841 263.363 151.456 263.124C151.071 262.877 150.64 262.753 150.164 262.753C149.678 262.753 149.238 262.877 148.844 263.124C148.449 263.363 148.138 263.683 147.908 264.087C147.688 264.49 147.578 264.939 147.578 265.434C147.578 265.92 147.688 266.37 147.908 266.782C148.138 267.185 148.445 267.511 148.83 267.758C149.224 267.997 149.669 268.116 150.164 268.116ZM158.649 269.257V259.012H162.169C162.839 259.012 163.425 259.145 163.929 259.411C164.434 259.668 164.823 260.035 165.098 260.511C165.383 260.979 165.525 261.524 165.525 262.148C165.525 262.872 165.332 263.491 164.947 264.004C164.571 264.518 164.058 264.88 163.407 265.091L165.8 269.257H164.507L162.004 264.843L162.747 265.269H159.749V269.257H158.649ZM159.749 264.238H162.224C162.664 264.238 163.049 264.156 163.379 263.991C163.709 263.816 163.966 263.573 164.149 263.262C164.333 262.941 164.425 262.565 164.425 262.134C164.425 261.703 164.333 261.332 164.149 261.02C163.966 260.708 163.709 260.47 163.379 260.305C163.049 260.131 162.664 260.044 162.224 260.044H159.749V264.238ZM170.384 269.422C169.696 269.422 169.073 269.257 168.514 268.927C167.964 268.588 167.528 268.125 167.207 267.538C166.886 266.952 166.726 266.287 166.726 265.544C166.726 264.802 166.882 264.146 167.193 263.578C167.505 263 167.927 262.547 168.459 262.217C168.999 261.887 169.605 261.721 170.274 261.721C170.806 261.721 171.278 261.822 171.69 262.024C172.112 262.217 172.469 262.482 172.763 262.822C173.056 263.152 173.281 263.528 173.437 263.949C173.592 264.362 173.67 264.788 173.67 265.228C173.67 265.32 173.666 265.425 173.657 265.544C173.647 265.654 173.634 265.769 173.615 265.888H167.386V264.926H173.024L172.529 265.338C172.612 264.834 172.552 264.385 172.35 263.991C172.158 263.587 171.878 263.271 171.511 263.042C171.145 262.803 170.732 262.684 170.274 262.684C169.815 262.684 169.389 262.803 168.995 263.042C168.61 263.28 168.307 263.615 168.087 264.046C167.867 264.467 167.78 264.971 167.826 265.558C167.78 266.145 167.872 266.658 168.101 267.098C168.339 267.529 168.66 267.864 169.064 268.102C169.476 268.341 169.916 268.46 170.384 268.46C170.925 268.46 171.378 268.331 171.745 268.075C172.112 267.818 172.41 267.497 172.639 267.112L173.519 267.58C173.372 267.91 173.148 268.217 172.845 268.501C172.543 268.776 172.181 269.001 171.759 269.175C171.346 269.34 170.888 269.422 170.384 269.422ZM181.65 272.008V267.607L181.815 267.758C181.558 268.29 181.173 268.703 180.659 268.996C180.155 269.28 179.587 269.422 178.954 269.422C178.267 269.422 177.648 269.257 177.098 268.927C176.548 268.588 176.112 268.13 175.791 267.552C175.48 266.965 175.324 266.305 175.324 265.572C175.324 264.829 175.48 264.169 175.791 263.592C176.112 263.014 176.543 262.56 177.084 262.23C177.634 261.891 178.257 261.721 178.954 261.721C179.587 261.721 180.151 261.859 180.646 262.134C181.141 262.409 181.53 262.78 181.815 263.248L181.65 263.537V261.887H182.681V272.008H181.65ZM179.009 268.391C179.504 268.391 179.949 268.267 180.343 268.02C180.747 267.772 181.063 267.438 181.292 267.016C181.53 266.585 181.65 266.104 181.65 265.572C181.65 265.04 181.53 264.563 181.292 264.142C181.063 263.711 180.747 263.372 180.343 263.124C179.949 262.877 179.504 262.753 179.009 262.753C178.523 262.753 178.083 262.877 177.689 263.124C177.295 263.372 176.983 263.706 176.754 264.128C176.534 264.55 176.424 265.031 176.424 265.572C176.424 266.104 176.534 266.585 176.754 267.016C176.983 267.438 177.29 267.772 177.675 268.02C178.07 268.267 178.514 268.391 179.009 268.391ZM187.549 269.422C187.035 269.422 186.568 269.303 186.146 269.065C185.724 268.817 185.39 268.478 185.142 268.047C184.904 267.607 184.785 267.103 184.785 266.535V261.887H185.816V266.411C185.816 266.805 185.894 267.153 186.05 267.456C186.215 267.749 186.44 267.978 186.724 268.143C187.017 268.308 187.352 268.391 187.728 268.391C188.104 268.391 188.438 268.308 188.732 268.143C189.025 267.969 189.254 267.726 189.419 267.415C189.584 267.094 189.667 266.713 189.667 266.273V261.887H190.698V269.257H189.667V267.827L189.9 267.882C189.726 268.359 189.428 268.735 189.007 269.01C188.585 269.285 188.099 269.422 187.549 269.422ZM196.312 269.422C195.624 269.422 195.001 269.257 194.442 268.927C193.892 268.588 193.456 268.125 193.135 267.538C192.814 266.952 192.654 266.287 192.654 265.544C192.654 264.802 192.81 264.146 193.122 263.578C193.433 263 193.855 262.547 194.387 262.217C194.928 261.887 195.533 261.721 196.202 261.721C196.734 261.721 197.206 261.822 197.618 262.024C198.04 262.217 198.398 262.482 198.691 262.822C198.984 263.152 199.209 263.528 199.365 263.949C199.521 264.362 199.599 264.788 199.599 265.228C199.599 265.32 199.594 265.425 199.585 265.544C199.576 265.654 199.562 265.769 199.544 265.888H193.314V264.926H198.952L198.457 265.338C198.54 264.834 198.48 264.385 198.278 263.991C198.086 263.587 197.806 263.271 197.44 263.042C197.073 262.803 196.66 262.684 196.202 262.684C195.744 262.684 195.317 262.803 194.923 263.042C194.538 263.28 194.235 263.615 194.015 264.046C193.795 264.467 193.708 264.971 193.754 265.558C193.708 266.145 193.8 266.658 194.029 267.098C194.268 267.529 194.588 267.864 194.992 268.102C195.404 268.341 195.844 268.46 196.312 268.46C196.853 268.46 197.307 268.331 197.673 268.075C198.04 267.818 198.338 267.497 198.567 267.112L199.447 267.58C199.301 267.91 199.076 268.217 198.773 268.501C198.471 268.776 198.109 269.001 197.687 269.175C197.275 269.34 196.816 269.422 196.312 269.422ZM204.112 269.422C203.406 269.422 202.788 269.244 202.256 268.886C201.724 268.529 201.339 268.043 201.101 267.428L201.967 267.016C202.178 267.465 202.471 267.823 202.847 268.088C203.232 268.354 203.654 268.487 204.112 268.487C204.552 268.487 204.924 268.382 205.226 268.171C205.529 267.951 205.68 267.667 205.68 267.318C205.68 267.062 205.607 266.86 205.46 266.713C205.313 266.557 205.144 266.438 204.951 266.356C204.759 266.273 204.589 266.214 204.442 266.177L203.383 265.874C202.705 265.682 202.215 265.411 201.912 265.063C201.61 264.715 201.458 264.311 201.458 263.853C201.458 263.422 201.568 263.046 201.788 262.725C202.008 262.404 202.306 262.157 202.682 261.983C203.058 261.809 203.475 261.721 203.934 261.721C204.557 261.721 205.121 261.887 205.625 262.217C206.138 262.537 206.5 262.987 206.711 263.564L205.831 263.977C205.648 263.564 205.382 263.243 205.034 263.014C204.694 262.776 204.314 262.657 203.892 262.657C203.48 262.657 203.15 262.762 202.902 262.973C202.655 263.184 202.531 263.45 202.531 263.77C202.531 264.018 202.595 264.215 202.723 264.362C202.852 264.508 202.998 264.618 203.163 264.692C203.338 264.765 203.489 264.82 203.617 264.857L204.841 265.214C205.437 265.389 205.9 265.659 206.23 266.026C206.569 266.392 206.739 266.823 206.739 267.318C206.739 267.722 206.624 268.084 206.395 268.405C206.175 268.726 205.868 268.978 205.474 269.161C205.08 269.335 204.626 269.422 204.112 269.422ZM211.508 269.34C210.848 269.34 210.339 269.147 209.981 268.762C209.624 268.377 209.445 267.827 209.445 267.112V262.918H208.084V261.887H208.427C208.739 261.887 208.987 261.786 209.17 261.584C209.353 261.373 209.445 261.112 209.445 260.8V260.181H210.476V261.887H212.099V262.918H210.476V267.112C210.476 267.36 210.513 267.58 210.586 267.772C210.66 267.956 210.783 268.102 210.958 268.212C211.141 268.322 211.384 268.377 211.687 268.377C211.76 268.377 211.847 268.373 211.948 268.364C212.049 268.354 212.136 268.345 212.209 268.336V269.257C212.099 269.285 211.975 269.303 211.838 269.312C211.7 269.331 211.59 269.34 211.508 269.34ZM216.715 269.422C216.009 269.422 215.391 269.244 214.859 268.886C214.327 268.529 213.942 268.043 213.704 267.428L214.57 267.016C214.781 267.465 215.074 267.823 215.45 268.088C215.835 268.354 216.257 268.487 216.715 268.487C217.155 268.487 217.527 268.382 217.829 268.171C218.132 267.951 218.283 267.667 218.283 267.318C218.283 267.062 218.21 266.86 218.063 266.713C217.916 266.557 217.747 266.438 217.554 266.356C217.362 266.273 217.192 266.214 217.045 266.177L215.987 265.874C215.308 265.682 214.818 265.411 214.515 265.063C214.213 264.715 214.061 264.311 214.061 263.853C214.061 263.422 214.171 263.046 214.391 262.725C214.611 262.404 214.909 262.157 215.285 261.983C215.661 261.809 216.078 261.721 216.537 261.721C217.16 261.721 217.724 261.887 218.228 262.217C218.741 262.537 219.104 262.987 219.314 263.564L218.434 263.977C218.251 263.564 217.985 263.243 217.637 263.014C217.298 262.776 216.917 262.657 216.495 262.657C216.083 262.657 215.753 262.762 215.505 262.973C215.258 263.184 215.134 263.45 215.134 263.77C215.134 264.018 215.198 264.215 215.326 264.362C215.455 264.508 215.602 264.618 215.767 264.692C215.941 264.765 216.092 264.82 216.22 264.857L217.444 265.214C218.04 265.389 218.503 265.659 218.833 266.026C219.172 266.392 219.342 266.823 219.342 267.318C219.342 267.722 219.227 268.084 218.998 268.405C218.778 268.726 218.471 268.978 218.077 269.161C217.683 269.335 217.229 269.422 216.715 269.422Z" fill="#262535"/>
<path opacity="0.5" d="M173.663 318.669C172.527 318.669 171.445 318.458 170.418 318.036C169.391 317.596 168.52 316.982 167.805 316.194C167.09 315.405 166.613 314.479 166.375 313.416L170.143 312.151C170.455 313.031 170.913 313.7 171.518 314.158C172.123 314.598 172.838 314.818 173.663 314.818C174.342 314.818 174.919 314.69 175.396 314.433C175.891 314.177 176.276 313.819 176.551 313.361C176.826 312.884 176.964 312.334 176.964 311.711C176.964 311.087 176.826 310.556 176.551 310.115C176.294 309.657 175.919 309.309 175.424 309.07C174.947 308.814 174.36 308.685 173.663 308.685C173.26 308.685 172.857 308.731 172.453 308.823C172.05 308.914 171.683 309.043 171.353 309.208L170.363 307.145L175.616 301.424H167.613V297.849H180.402V301.149L175.011 307.283L175.148 305.55C176.377 305.55 177.44 305.807 178.339 306.32C179.256 306.815 179.962 307.512 180.457 308.41C180.97 309.309 181.227 310.354 181.227 311.546C181.227 312.902 180.897 314.122 180.237 315.204C179.576 316.285 178.678 317.138 177.541 317.761C176.404 318.366 175.112 318.669 173.663 318.669Z" fill="#262535"/>
</g>
</g>
<path d="M13 39C13 25.7452 23.7452 15 37 15H320C333.255 15 344 25.7452 344 39H320H37H13ZM332 354H25H332ZM13 354V39C13 25.7452 23.7452 15 37 15V39V354H13ZM320 15C333.255 15 344 25.7452 344 39V354H320V39V15Z" fill="white" mask="url(#path-2-inside-1_169_336)"/>
<defs>
<clipPath id="clip0_169_336">
<path d="M25 39C25 32.3726 30.3726 27 37 27H320C326.627 27 332 32.3726 332 39V354H25V39Z" fill="white"/>
</clipPath>
<clipPath id="clip1_169_336">
<rect width="309.41" height="1370" fill="white" transform="translate(23.2949 35)"/>
</clipPath>
<clipPath id="clip2_169_336">
<rect width="46.4115" height="11.8565" fill="white" transform="translate(37.0464 49.6991)"/>
</clipPath>
</defs>
</svg>
