<svg width="292" height="120" viewBox="0 0 292 120" fill="none" xmlns="http://www.w3.org/2000/svg">
<rect x="0.292" y="0.292" width="291.416" height="303.68" rx="13.724" fill="#F7F9FD"/>
<rect x="0.292" y="0.292" width="291.416" height="303.68" rx="13.724" stroke="#D7E1F4" stroke-width="0.584"/>
<path d="M112.443 25.5242V16.8226H113.553L118.435 23.5619L117.91 23.6437V16.8226H119.276V25.5242H118.167L113.319 18.7381L113.822 18.6446V25.5242H112.443ZM124.231 25.6643C123.624 25.6643 123.067 25.5203 122.561 25.2322C122.063 24.9441 121.666 24.5508 121.37 24.0525C121.074 23.5541 120.926 22.9896 120.926 22.3589C120.926 21.7204 121.074 21.1558 121.37 20.6653C121.666 20.1669 122.063 19.7776 122.561 19.4973C123.06 19.2092 123.616 19.0651 124.231 19.0651C124.854 19.0651 125.411 19.2092 125.902 19.4973C126.4 19.7776 126.793 20.1669 127.081 20.6653C127.377 21.1558 127.525 21.7204 127.525 22.3589C127.525 22.9974 127.377 23.5658 127.081 24.0642C126.786 24.5625 126.388 24.9557 125.89 25.2438C125.392 25.5242 124.839 25.6643 124.231 25.6643ZM124.231 24.4379C124.605 24.4379 124.936 24.3484 125.224 24.1693C125.512 23.9902 125.738 23.7449 125.902 23.4334C126.073 23.1142 126.159 22.756 126.159 22.3589C126.159 21.9618 126.073 21.6075 125.902 21.296C125.738 20.9845 125.512 20.7393 125.224 20.5602C124.936 20.3811 124.605 20.2915 124.231 20.2915C123.866 20.2915 123.535 20.3811 123.239 20.5602C122.951 20.7393 122.721 20.9845 122.55 21.296C122.386 21.6075 122.304 21.9618 122.304 22.3589C122.304 22.756 122.386 23.1142 122.55 23.4334C122.721 23.7449 122.951 23.9902 123.239 24.1693C123.535 24.3484 123.866 24.4379 124.231 24.4379ZM131.666 25.5942C131.005 25.5942 130.491 25.4074 130.125 25.0336C129.759 24.6598 129.576 24.1342 129.576 23.4568V20.3966H128.466V19.2053H128.641C128.937 19.2053 129.167 19.1196 129.33 18.9483C129.494 18.777 129.576 18.5434 129.576 18.2475V17.757H130.896V19.2053H132.332V20.3966H130.896V23.3984C130.896 23.6164 130.931 23.8033 131.001 23.959C131.071 24.107 131.184 24.2238 131.339 24.3094C131.495 24.3873 131.698 24.4262 131.947 24.4262C132.009 24.4262 132.079 24.4224 132.157 24.4146C132.235 24.4068 132.309 24.399 132.379 24.3912V25.5242C132.27 25.5397 132.149 25.5553 132.017 25.5709C131.884 25.5865 131.768 25.5942 131.666 25.5942ZM133.901 25.5242V19.2053H135.22V25.5242H133.901ZM133.901 18.341V16.8226H135.22V18.341H133.901ZM137.71 25.5242V20.3966H136.542V19.2053H137.71V18.8782C137.71 18.4033 137.807 18.0061 138.002 17.6869C138.196 17.3598 138.465 17.1107 138.807 16.9394C139.158 16.7681 139.559 16.6824 140.011 16.6824C140.096 16.6824 140.194 16.6902 140.303 16.7058C140.412 16.7136 140.501 16.7252 140.571 16.7408V17.8854C140.509 17.8699 140.439 17.8621 140.361 17.8621C140.283 17.8543 140.221 17.8504 140.174 17.8504C139.824 17.8504 139.543 17.9322 139.333 18.0957C139.123 18.2514 139.018 18.5123 139.018 18.8782V19.2053H142.043V20.3966H139.018V25.5242H137.71ZM141.424 25.5242V19.2053H142.732V25.5242H141.424ZM147.361 25.6643C146.731 25.6643 146.17 25.5203 145.679 25.2322C145.197 24.9363 144.811 24.5392 144.523 24.0408C144.243 23.5425 144.103 22.9779 144.103 22.3472C144.103 21.7243 144.243 21.1636 144.523 20.6653C144.803 20.1669 145.189 19.7776 145.679 19.4973C146.17 19.2092 146.731 19.0651 147.361 19.0651C147.79 19.0651 148.191 19.143 148.564 19.2987C148.938 19.4467 149.261 19.653 149.534 19.9178C149.814 20.1825 150.021 20.4901 150.153 20.8405L148.997 21.3778C148.864 21.0507 148.65 20.7899 148.354 20.5952C148.066 20.3928 147.735 20.2915 147.361 20.2915C147.003 20.2915 146.68 20.3811 146.392 20.5602C146.112 20.7315 145.89 20.9768 145.726 21.296C145.563 21.6075 145.481 21.9618 145.481 22.3589C145.481 22.756 145.563 23.1142 145.726 23.4334C145.89 23.7449 146.112 23.9902 146.392 24.1693C146.68 24.3484 147.003 24.4379 147.361 24.4379C147.743 24.4379 148.074 24.3406 148.354 24.1459C148.642 23.9435 148.856 23.6748 148.997 23.34L150.153 23.889C150.028 24.2238 149.826 24.5275 149.546 24.8C149.273 25.0648 148.95 25.275 148.576 25.4307C148.202 25.5865 147.797 25.6643 147.361 25.6643ZM153.512 25.6643C153.083 25.6643 152.706 25.5904 152.379 25.4424C152.059 25.2867 151.81 25.0764 151.631 24.8117C151.452 24.5392 151.362 24.2199 151.362 23.8539C151.362 23.5113 151.436 23.2037 151.584 22.9312C151.74 22.6587 151.978 22.429 152.297 22.2421C152.616 22.0552 153.017 21.9228 153.5 21.845L155.696 21.4829V22.5224L153.757 22.8611C153.406 22.9234 153.15 23.0363 152.986 23.1998C152.822 23.3556 152.741 23.558 152.741 23.8072C152.741 24.0486 152.83 24.2472 153.009 24.4029C153.196 24.5508 153.434 24.6248 153.722 24.6248C154.08 24.6248 154.392 24.5469 154.656 24.3912C154.929 24.2355 155.139 24.0291 155.287 23.7722C155.435 23.5074 155.509 23.2154 155.509 22.8962V21.2726C155.509 20.9612 155.392 20.7081 155.158 20.5134C154.933 20.311 154.629 20.2098 154.247 20.2098C153.897 20.2098 153.589 20.3032 153.325 20.4901C153.068 20.6692 152.877 20.9028 152.752 21.1909L151.654 20.6419C151.771 20.3305 151.962 20.0579 152.227 19.8243C152.492 19.5829 152.799 19.3961 153.15 19.2637C153.508 19.1313 153.885 19.0651 154.282 19.0651C154.781 19.0651 155.221 19.1586 155.602 19.3454C155.992 19.5323 156.291 19.7932 156.502 20.128C156.72 20.455 156.829 20.8366 156.829 21.2726V25.5242H155.567V24.3795L155.836 24.4146C155.688 24.6715 155.497 24.8934 155.264 25.0803C155.038 25.2672 154.777 25.4113 154.481 25.5125C154.193 25.6137 153.87 25.6643 153.512 25.6643ZM161.225 25.5942C160.563 25.5942 160.049 25.4074 159.683 25.0336C159.317 24.6598 159.134 24.1342 159.134 23.4568V20.3966H158.024V19.2053H158.199C158.495 19.2053 158.725 19.1196 158.889 18.9483C159.052 18.777 159.134 18.5434 159.134 18.2475V17.757H160.454V19.2053H161.89V20.3966H160.454V23.3984C160.454 23.6164 160.489 23.8033 160.559 23.959C160.629 24.107 160.742 24.2238 160.898 24.3094C161.053 24.3873 161.256 24.4262 161.505 24.4262C161.567 24.4262 161.637 24.4224 161.715 24.4146C161.793 24.4068 161.867 24.399 161.937 24.3912V25.5242C161.828 25.5397 161.707 25.5553 161.575 25.5709C161.443 25.5865 161.326 25.5942 161.225 25.5942ZM163.459 25.5242V19.2053H164.779V25.5242H163.459ZM163.459 18.341V16.8226H164.779V18.341H163.459ZM169.604 25.6643C168.996 25.6643 168.44 25.5203 167.933 25.2322C167.435 24.9441 167.038 24.5508 166.742 24.0525C166.446 23.5541 166.298 22.9896 166.298 22.3589C166.298 21.7204 166.446 21.1558 166.742 20.6653C167.038 20.1669 167.435 19.7776 167.933 19.4973C168.432 19.2092 168.989 19.0651 169.604 19.0651C170.227 19.0651 170.783 19.2092 171.274 19.4973C171.772 19.7776 172.166 20.1669 172.454 20.6653C172.75 21.1558 172.897 21.7204 172.897 22.3589C172.897 22.9974 172.75 23.5658 172.454 24.0642C172.158 24.5625 171.761 24.9557 171.262 25.2438C170.764 25.5242 170.211 25.6643 169.604 25.6643ZM169.604 24.4379C169.977 24.4379 170.308 24.3484 170.597 24.1693C170.885 23.9902 171.11 23.7449 171.274 23.4334C171.445 23.1142 171.531 22.756 171.531 22.3589C171.531 21.9618 171.445 21.6075 171.274 21.296C171.11 20.9845 170.885 20.7393 170.597 20.5602C170.308 20.3811 169.977 20.2915 169.604 20.2915C169.238 20.2915 168.907 20.3811 168.611 20.5602C168.323 20.7393 168.093 20.9845 167.922 21.296C167.758 21.6075 167.677 21.9618 167.677 22.3589C167.677 22.756 167.758 23.1142 167.922 23.4334C168.093 23.7449 168.323 23.9902 168.611 24.1693C168.907 24.3484 169.238 24.4379 169.604 24.4379ZM174.42 25.5242V19.2053H175.681V20.4434L175.529 20.2798C175.685 19.8827 175.934 19.5829 176.277 19.3805C176.619 19.1702 177.016 19.0651 177.468 19.0651C177.935 19.0651 178.348 19.1664 178.706 19.3688C179.064 19.5713 179.345 19.8516 179.547 20.2098C179.75 20.568 179.851 20.9806 179.851 21.4478V25.5242H178.543V21.7982C178.543 21.479 178.484 21.2104 178.367 20.9923C178.251 20.7665 178.083 20.5952 177.865 20.4784C177.655 20.3538 177.414 20.2915 177.141 20.2915C176.869 20.2915 176.623 20.3538 176.405 20.4784C176.195 20.5952 176.031 20.7665 175.915 20.9923C175.798 21.2181 175.739 21.4868 175.739 21.7982V25.5242H174.42ZM183.833 25.6643C183.187 25.6643 182.618 25.5047 182.128 25.1854C181.645 24.8662 181.306 24.4379 181.112 23.9006L182.128 23.4218C182.299 23.78 182.533 24.0642 182.829 24.2744C183.132 24.4846 183.467 24.5898 183.833 24.5898C184.144 24.5898 184.398 24.5197 184.592 24.3795C184.787 24.2394 184.884 24.0486 184.884 23.8072C184.884 23.6515 184.841 23.5269 184.756 23.4334C184.67 23.3322 184.561 23.2505 184.429 23.1882C184.304 23.1259 184.176 23.0792 184.043 23.048L183.05 22.7677C182.505 22.612 182.097 22.3784 181.824 22.0669C181.559 21.7476 181.427 21.3778 181.427 20.9573C181.427 20.5757 181.524 20.2448 181.719 19.9645C181.914 19.6764 182.182 19.4545 182.525 19.2987C182.867 19.143 183.253 19.0651 183.681 19.0651C184.257 19.0651 184.771 19.2092 185.223 19.4973C185.675 19.7776 185.994 20.1708 186.181 20.677L185.165 21.1558C185.04 20.8522 184.841 20.6108 184.569 20.4317C184.304 20.2526 184.004 20.163 183.669 20.163C183.381 20.163 183.152 20.2331 182.98 20.3733C182.809 20.5057 182.723 20.6809 182.723 20.8989C182.723 21.0468 182.762 21.1714 182.84 21.2726C182.918 21.3661 183.019 21.444 183.144 21.5062C183.268 21.5608 183.397 21.6075 183.529 21.6464L184.557 21.9501C185.079 22.098 185.48 22.3316 185.76 22.6509C186.041 22.9624 186.181 23.3361 186.181 23.7722C186.181 24.1459 186.079 24.4769 185.877 24.765C185.682 25.0453 185.41 25.2672 185.059 25.4307C184.709 25.5865 184.3 25.6643 183.833 25.6643Z" fill="#6882B6"/>
<path d="M275.728 16.9362L267.552 25.1122M275.728 25.1122L267.552 16.9362" stroke="#0074FF" stroke-width="0.876" stroke-linecap="round"/>
<path d="M15.7902 48.048V42.5701H14.1059V41.9569H18.1122V42.5701H16.4443V48.048H15.7902ZM20.4702 48.1461C20.0559 48.1461 19.6798 48.048 19.3419 47.8517C19.0039 47.6501 18.7341 47.3775 18.5325 47.0341C18.3362 46.6853 18.2381 46.2901 18.2381 45.8486C18.2381 45.4126 18.3362 45.0229 18.5325 44.6795C18.7287 44.3361 18.993 44.0663 19.3255 43.87C19.6635 43.6684 20.045 43.5675 20.4702 43.5675C20.8953 43.5675 21.2742 43.6656 21.6066 43.8619C21.9446 44.0581 22.2089 44.3279 22.3997 44.6713C22.5959 45.0147 22.694 45.4071 22.694 45.8486C22.694 46.2956 22.5932 46.6935 22.3915 47.0423C22.1899 47.3857 21.9201 47.6555 21.5821 47.8517C21.2496 48.048 20.879 48.1461 20.4702 48.1461ZM20.4702 47.5329C20.7645 47.5329 21.0289 47.4593 21.2632 47.3121C21.5031 47.165 21.6911 46.9633 21.8274 46.7071C21.9691 46.4509 22.04 46.1648 22.04 45.8486C22.04 45.5325 21.9691 45.2491 21.8274 44.9983C21.6911 44.7476 21.5031 44.5486 21.2632 44.4015C21.0289 44.2543 20.7645 44.1807 20.4702 44.1807C20.1758 44.1807 19.9088 44.2543 19.6689 44.4015C19.4346 44.5486 19.2465 44.7476 19.1048 44.9983C18.9631 45.2491 18.8922 45.5325 18.8922 45.8486C18.8922 46.1648 18.9631 46.4509 19.1048 46.7071C19.2465 46.9633 19.4346 47.165 19.6689 47.3121C19.9088 47.4593 20.1758 47.5329 20.4702 47.5329ZM25.9176 48.1461C25.5088 48.1461 25.1409 48.048 24.8139 47.8517C24.4868 47.6501 24.2279 47.3775 24.0371 47.0341C23.8518 46.6853 23.7592 46.2929 23.7592 45.8568C23.7592 45.4153 23.8518 45.0229 24.0371 44.6795C24.2279 44.3361 24.4841 44.0663 24.8057 43.87C25.1327 43.6684 25.5034 43.5675 25.9176 43.5675C26.2937 43.5675 26.6289 43.6493 26.9233 43.8128C27.2176 43.9763 27.4493 44.1971 27.6182 44.4751L27.5201 44.6468V41.8587H28.1333V48.048H27.5201V47.0669L27.6182 47.1568C27.4656 47.4729 27.2367 47.7182 26.9315 47.8926C26.6317 48.0616 26.2937 48.1461 25.9176 48.1461ZM25.9503 47.5329C26.2447 47.5329 26.509 47.4593 26.7434 47.3121C26.9832 47.165 27.1713 46.966 27.3075 46.7153C27.4493 46.4591 27.5201 46.1729 27.5201 45.8568C27.5201 45.5407 27.4493 45.2572 27.3075 45.0065C27.1713 44.7503 26.9832 44.5486 26.7434 44.4015C26.509 44.2543 26.2447 44.1807 25.9503 44.1807C25.6614 44.1807 25.3998 44.2543 25.1654 44.4015C24.9311 44.5486 24.7457 44.7476 24.6095 44.9983C24.4787 45.2491 24.4132 45.5352 24.4132 45.8568C24.4132 46.1729 24.4787 46.4591 24.6095 46.7153C24.7457 46.966 24.9283 47.165 25.1573 47.3121C25.3916 47.4593 25.656 47.5329 25.9503 47.5329ZM30.8232 48.1461C30.5452 48.1461 30.2972 48.0943 30.0791 47.9907C29.8611 47.8817 29.6894 47.7346 29.5641 47.5492C29.4387 47.3639 29.376 47.1513 29.376 46.9115C29.376 46.6826 29.4251 46.4755 29.5232 46.2901C29.6213 46.0994 29.7739 45.9386 29.981 45.8077C30.1882 45.6769 30.4525 45.5843 30.7741 45.5298L32.4911 45.2436V45.7996L30.9213 46.0612C30.6051 46.1157 30.3762 46.2165 30.2345 46.3637C30.0982 46.5109 30.0301 46.6853 30.0301 46.887C30.0301 47.0832 30.1064 47.2495 30.259 47.3857C30.4171 47.522 30.6188 47.5901 30.864 47.5901C31.1638 47.5901 31.4255 47.5274 31.6489 47.4021C31.8724 47.2713 32.0468 47.0968 32.1722 46.8788C32.2976 46.6608 32.3603 46.4182 32.3603 46.1511V45.0392C32.3603 44.7776 32.2649 44.565 32.0741 44.4015C31.8833 44.238 31.6353 44.1562 31.3301 44.1562C31.063 44.1562 30.8286 44.2243 30.6269 44.3606C30.4253 44.4914 30.2754 44.6631 30.1773 44.8757L29.6213 44.5732C29.7031 44.3879 29.8311 44.2189 30.0056 44.0663C30.1854 43.9136 30.3898 43.7937 30.6188 43.7065C30.8477 43.6139 31.0848 43.5675 31.3301 43.5675C31.6517 43.5675 31.9351 43.6302 32.1804 43.7556C32.4311 43.8809 32.6246 44.0554 32.7609 44.2788C32.9026 44.4969 32.9735 44.7503 32.9735 45.0392V48.048H32.3603V47.1731L32.4502 47.2631C32.3739 47.4266 32.254 47.5765 32.0904 47.7128C31.9324 47.8436 31.7443 47.9499 31.5263 48.0316C31.3137 48.1079 31.0793 48.1461 30.8232 48.1461ZM34.4882 49.8467C34.401 49.8467 34.311 49.8385 34.2184 49.8222C34.1312 49.8113 34.044 49.7895 33.9567 49.7568V49.1844C34.0113 49.1899 34.0794 49.1981 34.1611 49.209C34.2484 49.2253 34.3356 49.2335 34.4228 49.2335C34.6899 49.2335 34.8943 49.1763 35.036 49.0618C35.1777 48.9528 35.3167 48.7402 35.453 48.4241L35.7309 47.77L35.7146 48.3096L33.8586 43.6656H34.5209L36.0416 47.5002H35.8699L37.3825 43.6656H38.0611L36.058 48.6039C35.9708 48.8165 35.859 49.0182 35.7228 49.209C35.5919 49.3997 35.4257 49.5524 35.224 49.6668C35.0224 49.7867 34.7771 49.8467 34.4882 49.8467Z" fill="#6882B6"/>
<rect x="14.016" y="55.056" width="261.048" height="50.032" rx="7.008" fill="white"/>
<rect x="14.308" y="55.348" width="260.464" height="49.448" rx="6.716" stroke="#0074FF" stroke-opacity="0.1" stroke-width="0.584"/>
<path d="M23.9487 70.3999V64.3088H25.9355C26.5787 64.3088 27.1374 64.4396 27.6116 64.7012C28.0912 64.9574 28.4619 65.3144 28.7235 65.7723C28.9851 66.2247 29.116 66.7507 29.116 67.3503C29.116 67.9444 28.9851 68.4731 28.7235 68.9364C28.4619 69.3943 28.0912 69.754 27.6116 70.0156C27.1374 70.2718 26.5787 70.3999 25.9355 70.3999H23.9487ZM25.0607 69.4188H25.96C26.3743 69.4188 26.7313 69.3343 27.0311 69.1653C27.3363 68.9909 27.5734 68.7511 27.7424 68.4458C27.9114 68.1352 27.9958 67.77 27.9958 67.3503C27.9958 66.9251 27.9114 66.5599 27.7424 66.2547C27.5734 65.9494 27.3363 65.7123 27.0311 65.5434C26.7313 65.3744 26.3743 65.2899 25.96 65.2899H25.0607V69.4188ZM31.4075 70.498C31.0968 70.498 30.827 70.4462 30.5981 70.3427C30.3692 70.2391 30.192 70.0919 30.0667 69.9012C29.9413 69.7049 29.8786 69.4787 29.8786 69.2226C29.8786 68.9773 29.9331 68.7593 30.0421 68.5685C30.1512 68.3723 30.3201 68.2087 30.5491 68.0779C30.778 67.9471 31.0669 67.8544 31.4157 67.7999L32.871 67.5628V68.3804L31.6201 68.593C31.4075 68.6312 31.2495 68.6993 31.1459 68.7974C31.0423 68.8955 30.9906 69.0236 30.9906 69.1817C30.9906 69.3343 31.0478 69.4569 31.1623 69.5496C31.2822 69.6368 31.4293 69.6804 31.6038 69.6804C31.8272 69.6804 32.0235 69.6341 32.1924 69.5414C32.3668 69.4433 32.5004 69.3098 32.5931 69.1408C32.6912 68.9718 32.7402 68.7865 32.7402 68.5848V67.4402C32.7402 67.2494 32.6639 67.0913 32.5113 66.966C32.3641 66.8352 32.1679 66.7698 31.9226 66.7698C31.6937 66.7698 31.4893 66.8324 31.3094 66.9578C31.135 67.0777 31.0069 67.2385 30.9251 67.4402L30.0503 67.015C30.1375 66.7807 30.2738 66.579 30.4591 66.41C30.6499 66.2356 30.8734 66.0993 31.1295 66.0012C31.3857 65.9031 31.6637 65.854 31.9635 65.854C32.3287 65.854 32.6503 65.9222 32.9283 66.0584C33.2063 66.1893 33.4216 66.3746 33.5742 66.6144C33.7322 66.8488 33.8113 67.1241 33.8113 67.4402V70.3999H32.7975V69.6395L33.0264 69.6232C32.9119 69.814 32.7756 69.9748 32.6176 70.1056C32.4595 70.2309 32.2796 70.329 32.078 70.3999C31.8763 70.4653 31.6528 70.498 31.4075 70.498ZM36.9125 70.449C36.4111 70.449 36.0213 70.3127 35.7434 70.0402C35.4708 69.7622 35.3346 69.3725 35.3346 68.871V66.9087H34.566V65.9522H34.6478C34.8658 65.9522 35.0348 65.8949 35.1547 65.7805C35.2746 65.666 35.3346 65.4998 35.3346 65.2817V64.9383H36.4056V65.9522H37.4276V66.9087H36.4056V68.8138C36.4056 68.9609 36.4301 69.0863 36.4792 69.1899C36.5337 69.2934 36.6155 69.3725 36.7245 69.427C36.8389 69.4815 36.9834 69.5087 37.1578 69.5087C37.196 69.5087 37.2396 69.506 37.2886 69.5005C37.3431 69.4951 37.3949 69.4896 37.444 69.4842V70.3999C37.3677 70.4108 37.2805 70.4217 37.1823 70.4326C37.0842 70.4435 36.9943 70.449 36.9125 70.449ZM39.7589 70.498C39.4482 70.498 39.1784 70.4462 38.9494 70.3427C38.7205 70.2391 38.5434 70.0919 38.418 69.9012C38.2926 69.7049 38.23 69.4787 38.23 69.2226C38.23 68.9773 38.2845 68.7593 38.3935 68.5685C38.5025 68.3723 38.6715 68.2087 38.9004 68.0779C39.1293 67.9471 39.4182 67.8544 39.767 67.7999L41.2224 67.5628V68.3804L39.9714 68.593C39.7589 68.6312 39.6008 68.6993 39.4972 68.7974C39.3937 68.8955 39.3419 69.0236 39.3419 69.1817C39.3419 69.3343 39.3991 69.4569 39.5136 69.5496C39.6335 69.6368 39.7807 69.6804 39.9551 69.6804C40.1786 69.6804 40.3748 69.6341 40.5438 69.5414C40.7182 69.4433 40.8517 69.3098 40.9444 69.1408C41.0425 68.9718 41.0916 68.7865 41.0916 68.5848V67.4402C41.0916 67.2494 41.0152 67.0913 40.8626 66.966C40.7155 66.8352 40.5192 66.7698 40.274 66.7698C40.045 66.7698 39.8406 66.8324 39.6608 66.9578C39.4863 67.0777 39.3582 67.2385 39.2765 67.4402L38.4017 67.015C38.4889 66.7807 38.6251 66.579 38.8105 66.41C39.0012 66.2356 39.2247 66.0993 39.4809 66.0012C39.7371 65.9031 40.015 65.854 40.3148 65.854C40.68 65.854 41.0016 65.9222 41.2796 66.0584C41.5576 66.1893 41.7729 66.3746 41.9255 66.6144C42.0836 66.8488 42.1626 67.1241 42.1626 67.4402V70.3999H41.1488V69.6395L41.3777 69.6232C41.2633 69.814 41.127 69.9748 40.9689 70.1056C40.8108 70.2309 40.631 70.329 40.4293 70.3999C40.2276 70.4653 40.0041 70.498 39.7589 70.498ZM44.5239 70.3999L46.6252 64.3088H48.0642L50.1654 70.3999H48.9553L48.522 69.0917H46.1673L45.7258 70.3999H44.5239ZM46.4862 68.1106H48.2031L47.1893 65.0773H47.5L46.4862 68.1106ZM52.8993 70.498C52.4578 70.498 52.0599 70.3972 51.7056 70.1955C51.3568 69.9884 51.0815 69.7104 50.8798 69.3616C50.6782 69.0073 50.5773 68.6094 50.5773 68.1679C50.5773 67.7264 50.6782 67.3312 50.8798 66.9823C51.0815 66.6335 51.3568 66.3582 51.7056 66.1566C52.0599 65.9549 52.4578 65.854 52.8993 65.854C53.2154 65.854 53.5098 65.9113 53.7823 66.0257C54.0548 66.1348 54.2892 66.2874 54.4854 66.4836C54.6871 66.6744 54.8316 66.9033 54.9188 67.1704L53.9785 67.5792C53.8968 67.3557 53.7578 67.1758 53.5616 67.0396C53.3708 66.9033 53.15 66.8352 52.8993 66.8352C52.6649 66.8352 52.4551 66.8924 52.2697 67.0069C52.0899 67.1213 51.9482 67.2794 51.8446 67.4811C51.741 67.6827 51.6892 67.9144 51.6892 68.176C51.6892 68.4377 51.741 68.6693 51.8446 68.871C51.9482 69.0727 52.0899 69.2307 52.2697 69.3452C52.4551 69.4597 52.6649 69.5169 52.8993 69.5169C53.1555 69.5169 53.379 69.4488 53.5697 69.3125C53.7605 69.1762 53.8968 68.9936 53.9785 68.7647L54.9188 69.1899C54.8316 69.4406 54.6898 69.6668 54.4936 69.8685C54.2974 70.0647 54.063 70.22 53.7905 70.3345C53.5179 70.4435 53.2209 70.498 52.8993 70.498ZM58.0371 70.498C57.5956 70.498 57.1977 70.3972 56.8434 70.1955C56.4945 69.9884 56.2193 69.7104 56.0176 69.3616C55.8159 69.0073 55.7151 68.6094 55.7151 68.1679C55.7151 67.7264 55.8159 67.3312 56.0176 66.9823C56.2193 66.6335 56.4945 66.3582 56.8434 66.1566C57.1977 65.9549 57.5956 65.854 58.0371 65.854C58.3532 65.854 58.6476 65.9113 58.9201 66.0257C59.1926 66.1348 59.427 66.2874 59.6232 66.4836C59.8249 66.6744 59.9693 66.9033 60.0566 67.1704L59.1163 67.5792C59.0346 67.3557 58.8956 67.1758 58.6993 67.0396C58.5086 66.9033 58.2878 66.8352 58.0371 66.8352C57.8027 66.8352 57.5929 66.8924 57.4075 67.0069C57.2277 67.1213 57.0859 67.2794 56.9824 67.4811C56.8788 67.6827 56.827 67.9144 56.827 68.176C56.827 68.4377 56.8788 68.6693 56.9824 68.871C57.0859 69.0727 57.2277 69.2307 57.4075 69.3452C57.5929 69.4597 57.8027 69.5169 58.0371 69.5169C58.2933 69.5169 58.5167 69.4488 58.7075 69.3125C58.8983 69.1762 59.0346 68.9936 59.1163 68.7647L60.0566 69.1899C59.9693 69.4406 59.8276 69.6668 59.6314 69.8685C59.4352 70.0647 59.2008 70.22 58.9283 70.3345C58.6557 70.4435 58.3587 70.498 58.0371 70.498ZM63.1422 70.498C62.6843 70.498 62.2837 70.3945 61.9403 70.1873C61.5969 69.9802 61.3298 69.6995 61.139 69.3452C60.9483 68.9909 60.8529 68.5985 60.8529 68.1679C60.8529 67.7209 60.9483 67.3257 61.139 66.9823C61.3353 66.6335 61.5996 66.3582 61.9321 66.1566C62.2701 65.9549 62.6462 65.854 63.0604 65.854C63.4093 65.854 63.7145 65.9113 63.9761 66.0257C64.2432 66.1402 64.4694 66.2983 64.6547 66.4999C64.8401 66.7016 64.9818 66.9333 65.0799 67.1949C65.178 67.4511 65.227 67.7291 65.227 68.0289C65.227 68.1052 65.2216 68.1842 65.2107 68.266C65.2052 68.3477 65.1916 68.4186 65.1698 68.4785H61.7359V67.6609H64.5648L64.0579 68.0452C64.1069 67.7945 64.0933 67.571 64.017 67.3748C63.9461 67.1786 63.8262 67.0232 63.6573 66.9087C63.4937 66.7943 63.2948 66.7371 63.0604 66.7371C62.8369 66.7371 62.638 66.7943 62.4636 66.9087C62.2891 67.0178 62.1556 67.1813 62.0629 67.3993C61.9757 67.6119 61.943 67.8708 61.9648 68.176C61.943 68.4486 61.9785 68.6911 62.0711 68.9037C62.1692 69.1108 62.3109 69.2716 62.4963 69.3861C62.687 69.5005 62.9051 69.5578 63.1503 69.5578C63.3956 69.5578 63.6027 69.506 63.7717 69.4024C63.9461 69.2989 64.0824 69.1599 64.1805 68.9855L65.0472 69.4106C64.96 69.6232 64.8237 69.8112 64.6384 69.9748C64.4531 70.1383 64.2323 70.2664 63.9761 70.359C63.7254 70.4517 63.4474 70.498 63.1422 70.498ZM67.8949 70.498C67.4207 70.498 67.0065 70.3863 66.6522 70.1628C66.3033 69.9339 66.0635 69.6259 65.9327 69.2389L66.7339 68.8546C66.8484 69.1054 67.0065 69.3016 67.2081 69.4433C67.4153 69.585 67.6442 69.6559 67.8949 69.6559C68.0911 69.6559 68.2465 69.6123 68.3609 69.5251C68.4754 69.4379 68.5326 69.3234 68.5326 69.1817C68.5326 69.0945 68.5081 69.0236 68.4591 68.9691C68.4155 68.9091 68.3528 68.8601 68.271 68.8219C68.1947 68.7783 68.1102 68.7429 68.0176 68.7156L67.2899 68.5112C66.9138 68.4022 66.6276 68.236 66.4314 68.0125C66.2406 67.789 66.1453 67.5247 66.1453 67.2194C66.1453 66.9469 66.2134 66.7098 66.3497 66.5081C66.4914 66.301 66.6849 66.1402 66.9301 66.0257C67.1809 65.9113 67.467 65.854 67.7886 65.854C68.2083 65.854 68.579 65.9549 68.9006 66.1566C69.2222 66.3582 69.4511 66.6417 69.5873 67.0069L68.7697 67.3911C68.6934 67.1895 68.5653 67.0287 68.3855 66.9087C68.2056 66.7888 68.0039 66.7289 67.7805 66.7289C67.6006 66.7289 67.4589 66.7698 67.3553 66.8515C67.2517 66.9333 67.2 67.0396 67.2 67.1704C67.2 67.2521 67.2218 67.323 67.2654 67.383C67.309 67.4429 67.3689 67.492 67.4452 67.5301C67.527 67.5683 67.6197 67.6037 67.7232 67.6364L68.4345 67.849C68.7997 67.958 69.0804 68.1215 69.2767 68.3396C69.4783 68.5576 69.5792 68.8247 69.5792 69.1408C69.5792 69.4079 69.5083 69.645 69.3666 69.8521C69.2249 70.0538 69.0287 70.2119 68.7779 70.3263C68.5272 70.4408 68.2329 70.498 67.8949 70.498ZM72.2582 70.498C71.784 70.498 71.3698 70.3863 71.0155 70.1628C70.6666 69.9339 70.4268 69.6259 70.296 69.2389L71.0972 68.8546C71.2117 69.1054 71.3698 69.3016 71.5714 69.4433C71.7786 69.585 72.0075 69.6559 72.2582 69.6559C72.4544 69.6559 72.6098 69.6123 72.7242 69.5251C72.8387 69.4379 72.8959 69.3234 72.8959 69.1817C72.8959 69.0945 72.8714 69.0236 72.8224 68.9691C72.7788 68.9091 72.7161 68.8601 72.6343 68.8219C72.558 68.7783 72.4735 68.7429 72.3809 68.7156L71.6532 68.5112C71.2771 68.4022 70.9909 68.236 70.7947 68.0125C70.6039 67.789 70.5086 67.5247 70.5086 67.2194C70.5086 66.9469 70.5767 66.7098 70.713 66.5081C70.8547 66.301 71.0482 66.1402 71.2934 66.0257C71.5442 65.9113 71.8303 65.854 72.1519 65.854C72.5716 65.854 72.9423 65.9549 73.2639 66.1566C73.5855 66.3582 73.8144 66.6417 73.9506 67.0069L73.133 67.3911C73.0567 67.1895 72.9286 67.0287 72.7488 66.9087C72.5689 66.7888 72.3672 66.7289 72.1438 66.7289C71.9639 66.7289 71.8222 66.7698 71.7186 66.8515C71.615 66.9333 71.5633 67.0396 71.5633 67.1704C71.5633 67.2521 71.5851 67.323 71.6287 67.383C71.6723 67.4429 71.7322 67.492 71.8085 67.5301C71.8903 67.5683 71.983 67.6037 72.0865 67.6364L72.7978 67.849C73.163 67.958 73.4437 68.1215 73.64 68.3396C73.8416 68.5576 73.9425 68.8247 73.9425 69.1408C73.9425 69.4079 73.8716 69.645 73.7299 69.8521C73.5882 70.0538 73.392 70.2119 73.1412 70.3263C72.8905 70.4408 72.5962 70.498 72.2582 70.498ZM76.6357 70.3999V64.3088H78.9004C79.3147 64.3088 79.6799 64.3851 79.996 64.5377C80.3176 64.6849 80.5684 64.9029 80.7482 65.1918C80.9281 65.4752 81.018 65.8213 81.018 66.2301C81.018 66.6498 80.9172 67.0069 80.7155 67.3012C80.5193 67.5955 80.2522 67.8136 79.9143 67.9553L81.3124 70.3999H80.0533L78.5571 67.7263L79.2765 68.1515H77.7476V70.3999H76.6357ZM77.7476 67.1704H78.9168C79.1185 67.1704 79.2929 67.1322 79.4401 67.0559C79.5872 66.9742 79.7017 66.8624 79.7835 66.7207C79.8652 66.579 79.9061 66.4155 79.9061 66.2301C79.9061 66.0394 79.8652 65.8758 79.7835 65.7396C79.7017 65.5979 79.5872 65.4889 79.4401 65.4125C79.2929 65.3308 79.1185 65.2899 78.9168 65.2899H77.7476V67.1704ZM83.9766 70.498C83.5187 70.498 83.1181 70.3945 82.7747 70.1873C82.4313 69.9802 82.1642 69.6995 81.9735 69.3452C81.7827 68.9909 81.6873 68.5985 81.6873 68.1679C81.6873 67.7209 81.7827 67.3257 81.9735 66.9823C82.1697 66.6335 82.4341 66.3582 82.7665 66.1566C83.1045 65.9549 83.4806 65.854 83.8948 65.854C84.2437 65.854 84.5489 65.9113 84.8105 66.0257C85.0776 66.1402 85.3038 66.2983 85.4892 66.4999C85.6745 66.7016 85.8162 66.9333 85.9143 67.1949C86.0124 67.4511 86.0615 67.7291 86.0615 68.0289C86.0615 68.1052 86.056 68.1842 86.0451 68.266C86.0397 68.3477 86.026 68.4186 86.0042 68.4785H82.5703V67.6609H85.3992L84.8923 68.0452C84.9414 67.7945 84.9277 67.571 84.8514 67.3748C84.7806 67.1786 84.6607 67.0232 84.4917 66.9087C84.3282 66.7943 84.1292 66.7371 83.8948 66.7371C83.6714 66.7371 83.4724 66.7943 83.298 66.9087C83.1236 67.0178 82.99 67.1813 82.8974 67.3993C82.8102 67.6119 82.7774 67.8708 82.7993 68.176C82.7774 68.4486 82.8129 68.6911 82.9055 68.9037C83.0037 69.1108 83.1454 69.2716 83.3307 69.3861C83.5215 69.5005 83.7395 69.5578 83.9848 69.5578C84.2301 69.5578 84.4372 69.506 84.6061 69.4024C84.7806 69.2989 84.9168 69.1599 85.0149 68.9855L85.8816 69.4106C85.7944 69.6232 85.6581 69.8112 85.4728 69.9748C85.2875 70.1383 85.0667 70.2664 84.8105 70.359C84.5598 70.4517 84.2818 70.498 83.9766 70.498ZM90.4627 72.0351V69.5414L90.6344 69.754C90.4817 69.9938 90.2692 70.1792 89.9966 70.31C89.7241 70.4353 89.427 70.498 89.1054 70.498C88.6748 70.498 88.2906 70.3972 87.9526 70.1955C87.6147 69.9884 87.3476 69.7077 87.1514 69.3534C86.9551 68.9991 86.857 68.6066 86.857 68.176C86.857 67.74 86.9551 67.3475 87.1514 66.9987C87.3476 66.6498 87.6147 66.3719 87.9526 66.1647C88.296 65.9576 88.6776 65.854 89.0973 65.854C89.4352 65.854 89.735 65.9222 89.9966 66.0584C90.2637 66.1893 90.4736 66.3746 90.6262 66.6144L90.5199 66.8352V65.9522H91.5337V72.0351H90.4627ZM89.2199 69.5169C89.4652 69.5169 89.6805 69.4597 89.8658 69.3452C90.0511 69.2307 90.1956 69.0727 90.2991 68.871C90.4081 68.6693 90.4627 68.4377 90.4627 68.176C90.4627 67.9198 90.4081 67.6909 90.2991 67.4892C90.1956 67.2821 90.0511 67.1213 89.8658 67.0069C89.6805 66.8924 89.4652 66.8352 89.2199 66.8352C88.9801 66.8352 88.7648 66.8951 88.574 67.015C88.3832 67.1295 88.2333 67.2876 88.1243 67.4892C88.0208 67.6855 87.969 67.9144 87.969 68.176C87.969 68.4377 88.0208 68.6693 88.1243 68.871C88.2333 69.0727 88.3832 69.2307 88.574 69.3452C88.7648 69.4597 88.9801 69.5169 89.2199 69.5169ZM94.2798 70.498C93.9364 70.498 93.6366 70.4217 93.3805 70.2691C93.1297 70.1165 92.9362 69.9039 92.8 69.6314C92.6692 69.3588 92.6037 69.04 92.6037 68.6748V65.9522H93.6748V68.5848C93.6748 68.7702 93.7102 68.9337 93.7811 69.0754C93.8574 69.2117 93.9637 69.3207 94.1 69.4024C94.2417 69.4787 94.3997 69.5169 94.5742 69.5169C94.7486 69.5169 94.9039 69.4787 95.0402 69.4024C95.1765 69.3207 95.2827 69.2089 95.3591 69.0672C95.4354 68.9255 95.4735 68.7565 95.4735 68.5603V65.9522H96.5446V70.3999H95.5308V69.5251L95.6207 69.6804C95.5171 69.9529 95.3454 70.1573 95.1056 70.2936C94.8712 70.4299 94.596 70.498 94.2798 70.498ZM99.8131 70.498C99.3553 70.498 98.9546 70.3945 98.6113 70.1873C98.2679 69.9802 98.0008 69.6995 97.81 69.3452C97.6192 68.9909 97.5238 68.5985 97.5238 68.1679C97.5238 67.7209 97.6192 67.3257 97.81 66.9823C98.0062 66.6335 98.2706 66.3582 98.6031 66.1566C98.941 65.9549 99.3171 65.854 99.7314 65.854C100.08 65.854 100.385 65.9113 100.647 66.0257C100.914 66.1402 101.14 66.2983 101.326 66.4999C101.511 66.7016 101.653 66.9333 101.751 67.1949C101.849 67.4511 101.898 67.7291 101.898 68.0289C101.898 68.1052 101.893 68.1842 101.882 68.266C101.876 68.3477 101.863 68.4186 101.841 68.4785H98.4069V67.6609H101.236L100.729 68.0452C100.778 67.7945 100.764 67.571 100.688 67.3748C100.617 67.1786 100.497 67.0232 100.328 66.9087C100.165 66.7943 99.9657 66.7371 99.7314 66.7371C99.5079 66.7371 99.3089 66.7943 99.1345 66.9087C98.9601 67.0178 98.8266 67.1813 98.7339 67.3993C98.6467 67.6119 98.614 67.8708 98.6358 68.176C98.614 68.4486 98.6494 68.6911 98.7421 68.9037C98.8402 69.1108 98.9819 69.2716 99.1672 69.3861C99.358 69.5005 99.576 69.5578 99.8213 69.5578C100.067 69.5578 100.274 69.506 100.443 69.4024C100.617 69.2989 100.753 69.1599 100.851 68.9855L101.718 69.4106C101.631 69.6232 101.495 69.8112 101.309 69.9748C101.124 70.1383 100.903 70.2664 100.647 70.359C100.396 70.4517 100.118 70.498 99.8131 70.498ZM104.566 70.498C104.092 70.498 103.677 70.3863 103.323 70.1628C102.974 69.9339 102.734 69.6259 102.604 69.2389L103.405 68.8546C103.519 69.1054 103.677 69.3016 103.879 69.4433C104.086 69.585 104.315 69.6559 104.566 69.6559C104.762 69.6559 104.917 69.6123 105.032 69.5251C105.146 69.4379 105.204 69.3234 105.204 69.1817C105.204 69.0945 105.179 69.0236 105.13 68.9691C105.086 68.9091 105.024 68.8601 104.942 68.8219C104.866 68.7783 104.781 68.7429 104.689 68.7156L103.961 68.5112C103.585 68.4022 103.299 68.236 103.102 68.0125C102.912 67.789 102.816 67.5247 102.816 67.2194C102.816 66.9469 102.884 66.7098 103.021 66.5081C103.162 66.301 103.356 66.1402 103.601 66.0257C103.852 65.9113 104.138 65.854 104.46 65.854C104.879 65.854 105.25 65.9549 105.572 66.1566C105.893 66.3582 106.122 66.6417 106.258 67.0069L105.441 67.3911C105.364 67.1895 105.236 67.0287 105.056 66.9087C104.877 66.7888 104.675 66.7289 104.451 66.7289C104.272 66.7289 104.13 66.7698 104.026 66.8515C103.923 66.9333 103.871 67.0396 103.871 67.1704C103.871 67.2521 103.893 67.323 103.936 67.383C103.98 67.4429 104.04 67.492 104.116 67.5301C104.198 67.5683 104.291 67.6037 104.394 67.6364L105.105 67.849C105.471 67.958 105.751 68.1215 105.948 68.3396C106.149 68.5576 106.25 68.8247 106.25 69.1408C106.25 69.4079 106.179 69.645 106.038 69.8521C105.896 70.0538 105.7 70.2119 105.449 70.3263C105.198 70.4408 104.904 70.498 104.566 70.498ZM109.264 70.449C108.763 70.449 108.373 70.3127 108.095 70.0402C107.823 69.7622 107.686 69.3725 107.686 68.871V66.9087H106.918V65.9522H107C107.218 65.9522 107.387 65.8949 107.507 65.7805C107.626 65.666 107.686 65.4998 107.686 65.2817V64.9383H108.757V65.9522H109.779V66.9087H108.757V68.8138C108.757 68.9609 108.782 69.0863 108.831 69.1899C108.886 69.2934 108.967 69.3725 109.076 69.427C109.191 69.4815 109.335 69.5087 109.51 69.5087C109.548 69.5087 109.591 69.506 109.64 69.5005C109.695 69.4951 109.747 69.4896 109.796 69.4842V70.3999C109.72 70.4108 109.632 70.4217 109.534 70.4326C109.436 70.4435 109.346 70.449 109.264 70.449Z" fill="#6882B6"/>
<path d="M24.0795 85.7439V79.6528H24.6519L28.2248 84.7791H28.004V79.6528H28.6581V85.7439H28.0858L24.5129 80.5848H24.7336V85.7439H24.0795ZM32.2255 85.842C31.8113 85.842 31.4352 85.7439 31.0972 85.5477C30.7593 85.346 30.4895 85.0735 30.2878 84.7301C30.0916 84.3812 29.9935 83.9861 29.9935 83.5446C29.9935 83.1085 30.0916 82.7188 30.2878 82.3754C30.484 82.032 30.7484 81.7622 31.0809 81.566C31.4188 81.3643 31.8004 81.2634 32.2255 81.2634C32.6507 81.2634 33.0295 81.3616 33.362 81.5578C33.6999 81.754 33.9643 82.0238 34.155 82.3672C34.3513 82.7106 34.4494 83.103 34.4494 83.5446C34.4494 83.9915 34.3485 84.3894 34.1469 84.7382C33.9452 85.0816 33.6754 85.3514 33.3374 85.5477C33.005 85.7439 32.6343 85.842 32.2255 85.842ZM32.2255 85.2288C32.5198 85.2288 32.7842 85.1552 33.0186 85.0081C33.2584 84.8609 33.4465 84.6592 33.5827 84.403C33.7244 84.1469 33.7953 83.8607 33.7953 83.5446C33.7953 83.2284 33.7244 82.945 33.5827 82.6942C33.4465 82.4435 33.2584 82.2446 33.0186 82.0974C32.7842 81.9502 32.5198 81.8766 32.2255 81.8766C31.9312 81.8766 31.6641 81.9502 31.4243 82.0974C31.1899 82.2446 31.0018 82.4435 30.8601 82.6942C30.7184 82.945 30.6475 83.2284 30.6475 83.5446C30.6475 83.8607 30.7184 84.1469 30.8601 84.403C31.0018 84.6592 31.1899 84.8609 31.4243 85.0081C31.6641 85.1552 31.9312 85.2288 32.2255 85.2288ZM37.2906 85.793C36.8982 85.793 36.5956 85.6785 36.3831 85.4496C36.1705 85.2206 36.0642 84.8936 36.0642 84.4684V81.9748H35.2548V81.3616H35.4592C35.6445 81.3616 35.7917 81.3016 35.9007 81.1817C36.0097 81.0563 36.0642 80.901 36.0642 80.7157V80.3477H36.6774V81.3616H37.6422V81.9748H36.6774V84.4684C36.6774 84.6156 36.6992 84.7464 36.7428 84.8609C36.7864 84.9699 36.86 85.0571 36.9636 85.1225C37.0726 85.1879 37.217 85.2206 37.3969 85.2206C37.4405 85.2206 37.4923 85.2179 37.5522 85.2125C37.6122 85.207 37.664 85.2016 37.7076 85.1961V85.7439C37.6422 85.7602 37.5686 85.7711 37.4868 85.7766C37.4051 85.7875 37.3397 85.793 37.2906 85.793ZM38.9478 85.7439V81.3616H39.561V85.7439H38.9478ZM38.9478 80.5521V79.6528H39.561V80.5521H38.9478ZM41.4294 85.7439V81.9748H40.5546V81.3616H41.4294V80.9691C41.4294 80.6639 41.4975 80.4077 41.6338 80.2006C41.7701 79.988 41.9499 79.8272 42.1734 79.7182C42.3969 79.6092 42.6367 79.5547 42.8929 79.5547C42.9474 79.5547 43.0101 79.5601 43.0809 79.571C43.1518 79.5765 43.209 79.5846 43.2526 79.5955V80.1515C43.2145 80.1406 43.1627 80.1352 43.0973 80.1352C43.0319 80.1297 42.9856 80.127 42.9583 80.127C42.6967 80.127 42.4786 80.1897 42.3042 80.315C42.1298 80.4404 42.0426 80.6584 42.0426 80.9691V81.3616H44.5036V81.9748H42.0426V85.7439H41.4294ZM43.9885 85.7439V81.3616H44.6017V85.7439H43.9885ZM47.905 85.842C47.4744 85.842 47.0956 85.7412 46.7686 85.5395C46.4415 85.3378 46.1854 85.0653 46 84.7219C45.8147 84.3731 45.722 83.9806 45.722 83.5446C45.722 83.1085 45.8147 82.7188 46 82.3754C46.1854 82.032 46.4415 81.7622 46.7686 81.566C47.0956 81.3643 47.4744 81.2634 47.905 81.2634C48.1776 81.2634 48.4338 81.3125 48.6736 81.4106C48.9134 81.5087 49.126 81.6423 49.3113 81.8112C49.4966 81.9748 49.6356 82.1655 49.7283 82.3836L49.1723 82.6697C49.0633 82.4353 48.8971 82.2446 48.6736 82.0974C48.4501 81.9502 48.1939 81.8766 47.905 81.8766C47.6162 81.8766 47.3545 81.9502 47.1201 82.0974C46.8912 82.2391 46.7086 82.4381 46.5724 82.6942C46.4415 82.945 46.3761 83.2311 46.3761 83.5527C46.3761 83.8689 46.4415 84.155 46.5724 84.4112C46.7086 84.6619 46.8912 84.8609 47.1201 85.0081C47.3545 85.1552 47.6162 85.2288 47.905 85.2288C48.1939 85.2288 48.4474 85.1552 48.6654 85.0081C48.8889 84.8609 49.0579 84.6647 49.1723 84.4194L49.7283 84.7219C49.6356 84.9345 49.4966 85.1252 49.3113 85.2942C49.126 85.4632 48.9134 85.5967 48.6736 85.6948C48.4338 85.793 48.1776 85.842 47.905 85.842ZM52.1553 85.842C51.8773 85.842 51.6293 85.7902 51.4113 85.6867C51.1932 85.5777 51.0215 85.4305 50.8962 85.2452C50.7708 85.0598 50.7081 84.8473 50.7081 84.6074C50.7081 84.3785 50.7572 84.1714 50.8553 83.9861C50.9534 83.7953 51.106 83.6345 51.3132 83.5037C51.5203 83.3729 51.7846 83.2802 52.1062 83.2257L53.8232 82.9395V83.4955L52.2534 83.7571C51.9373 83.8116 51.7083 83.9125 51.5666 84.0596C51.4303 84.2068 51.3622 84.3812 51.3622 84.5829C51.3622 84.7791 51.4385 84.9454 51.5911 85.0816C51.7492 85.2179 51.9509 85.286 52.1962 85.286C52.4959 85.286 52.7576 85.2234 52.9811 85.098C53.2045 84.9672 53.379 84.7928 53.5043 84.5747C53.6297 84.3567 53.6924 84.1141 53.6924 83.8471V82.7351C53.6924 82.4735 53.597 82.2609 53.4062 82.0974C53.2154 81.9339 52.9674 81.8521 52.6622 81.8521C52.3951 81.8521 52.1607 81.9203 51.9591 82.0565C51.7574 82.1873 51.6075 82.359 51.5094 82.5716L50.9534 82.2691C51.0352 82.0838 51.1633 81.9148 51.3377 81.7622C51.5176 81.6096 51.722 81.4897 51.9509 81.4024C52.1798 81.3098 52.4169 81.2634 52.6622 81.2634C52.9838 81.2634 53.2672 81.3261 53.5125 81.4515C53.7632 81.5769 53.9567 81.7513 54.093 81.9748C54.2347 82.1928 54.3056 82.4462 54.3056 82.7351V85.7439H53.6924V84.8691L53.7823 84.959C53.706 85.1225 53.5861 85.2724 53.4226 85.4087C53.2645 85.5395 53.0764 85.6458 52.8584 85.7275C52.6458 85.8039 52.4115 85.842 52.1553 85.842ZM57.3266 85.793C56.9342 85.793 56.6316 85.6785 56.4191 85.4496C56.2065 85.2206 56.1002 84.8936 56.1002 84.4684V81.9748H55.2908V81.3616H55.4952C55.6805 81.3616 55.8277 81.3016 55.9367 81.1817C56.0457 81.0563 56.1002 80.901 56.1002 80.7157V80.3477H56.7134V81.3616H57.6782V81.9748H56.7134V84.4684C56.7134 84.6156 56.7352 84.7464 56.7788 84.8609C56.8224 84.9699 56.896 85.0571 56.9996 85.1225C57.1086 85.1879 57.253 85.2206 57.4329 85.2206C57.4765 85.2206 57.5283 85.2179 57.5882 85.2125C57.6482 85.207 57.7 85.2016 57.7436 85.1961V85.7439C57.6782 85.7602 57.6046 85.7711 57.5228 85.7766C57.4411 85.7875 57.3757 85.793 57.3266 85.793ZM58.9838 85.7439V81.3616H59.597V85.7439H58.9838ZM58.9838 80.5521V79.6528H59.597V80.5521H58.9838ZM63.0679 85.842C62.6536 85.842 62.2775 85.7439 61.9396 85.5477C61.6016 85.346 61.3318 85.0735 61.1302 84.7301C60.9339 84.3812 60.8358 83.9861 60.8358 83.5446C60.8358 83.1085 60.9339 82.7188 61.1302 82.3754C61.3264 82.032 61.5907 81.7622 61.9232 81.566C62.2612 81.3643 62.6427 81.2634 63.0679 81.2634C63.493 81.2634 63.8719 81.3616 64.2043 81.5578C64.5423 81.754 64.8066 82.0238 64.9974 82.3672C65.1936 82.7106 65.2918 83.103 65.2918 83.5446C65.2918 83.9915 65.1909 84.3894 64.9892 84.7382C64.7876 85.0816 64.5178 85.3514 64.1798 85.5477C63.8473 85.7439 63.4767 85.842 63.0679 85.842ZM63.0679 85.2288C63.3622 85.2288 63.6266 85.1552 63.861 85.0081C64.1008 84.8609 64.2888 84.6592 64.4251 84.403C64.5668 84.1469 64.6377 83.8607 64.6377 83.5446C64.6377 83.2284 64.5668 82.945 64.4251 82.6942C64.2888 82.4435 64.1008 82.2446 63.861 82.0974C63.6266 81.9502 63.3622 81.8766 63.0679 81.8766C62.7735 81.8766 62.5065 81.9502 62.2666 82.0974C62.0323 82.2446 61.8442 82.4435 61.7025 82.6942C61.5608 82.945 61.4899 83.2284 61.4899 83.5446C61.4899 83.8607 61.5608 84.1469 61.7025 84.403C61.8442 84.6592 62.0323 84.8609 62.2666 85.0081C62.5065 85.1552 62.7735 85.2288 63.0679 85.2288ZM66.5367 85.7439V81.3616H67.1499V82.2119L67.0109 82.1792C67.12 81.8957 67.2971 81.6722 67.5424 81.5087C67.7931 81.3452 68.082 81.2634 68.409 81.2634C68.7197 81.2634 68.9977 81.3343 69.243 81.476C69.4937 81.6177 69.69 81.814 69.8317 82.0647C69.9788 82.31 70.0524 82.588 70.0524 82.8986V85.7439H69.4392V83.1358C69.4392 82.8687 69.3902 82.6425 69.2921 82.4571C69.1994 82.2718 69.0659 82.1301 68.8914 82.032C68.7225 81.9284 68.5262 81.8766 68.3028 81.8766C68.0793 81.8766 67.8803 81.9284 67.7059 82.032C67.5315 82.1301 67.3952 82.2745 67.2971 82.4653C67.199 82.6506 67.1499 82.8741 67.1499 83.1358V85.7439H66.5367ZM74.2072 85.842C73.9292 85.842 73.6812 85.7902 73.4632 85.6867C73.2451 85.5777 73.0734 85.4305 72.9481 85.2452C72.8227 85.0598 72.76 84.8473 72.76 84.6074C72.76 84.3785 72.8091 84.1714 72.9072 83.9861C73.0053 83.7953 73.1579 83.6345 73.365 83.5037C73.5722 83.3729 73.8365 83.2802 74.1581 83.2257L75.8751 82.9395V83.4955L74.3053 83.7571C73.9891 83.8116 73.7602 83.9125 73.6185 84.0596C73.4822 84.2068 73.4141 84.3812 73.4141 84.5829C73.4141 84.7791 73.4904 84.9454 73.643 85.0816C73.8011 85.2179 74.0028 85.286 74.248 85.286C74.5478 85.286 74.8095 85.2234 75.0329 85.098C75.2564 84.9672 75.4308 84.7928 75.5562 84.5747C75.6816 84.3567 75.7443 84.1141 75.7443 83.8471V82.7351C75.7443 82.4735 75.6489 82.2609 75.4581 82.0974C75.2673 81.9339 75.0193 81.8521 74.7141 81.8521C74.447 81.8521 74.2126 81.9203 74.0109 82.0565C73.8093 82.1873 73.6594 82.359 73.5613 82.5716L73.0053 82.2691C73.0871 82.0838 73.2151 81.9148 73.3896 81.7622C73.5694 81.6096 73.7738 81.4897 74.0028 81.4024C74.2317 81.3098 74.4688 81.2634 74.7141 81.2634C75.0357 81.2634 75.3191 81.3261 75.5644 81.4515C75.8151 81.5769 76.0086 81.7513 76.1449 81.9748C76.2866 82.1928 76.3575 82.4462 76.3575 82.7351V85.7439H75.7443V84.8691L75.8342 84.959C75.7579 85.1225 75.638 85.2724 75.4744 85.4087C75.3164 85.5395 75.1283 85.6458 74.9103 85.7275C74.6977 85.8039 74.4634 85.842 74.2072 85.842ZM79.998 85.842C79.6219 85.842 79.2812 85.7575 78.976 85.5886C78.6762 85.4141 78.45 85.1689 78.2973 84.8527L78.3955 84.7628V85.7439H77.7823V79.5547H78.3955V82.3427L78.2973 82.171C78.4718 81.893 78.7034 81.6722 78.9923 81.5087C79.2866 81.3452 79.6219 81.2634 79.998 81.2634C80.4122 81.2634 80.7801 81.3643 81.1017 81.566C81.4288 81.7622 81.6849 82.032 81.8703 82.3754C82.061 82.7188 82.1564 83.1112 82.1564 83.5527C82.1564 83.9888 82.061 84.3812 81.8703 84.7301C81.6849 85.0735 81.4288 85.346 81.1017 85.5477C80.7801 85.7439 80.4122 85.842 79.998 85.842ZM79.9652 85.2288C80.2596 85.2288 80.5212 85.1552 80.7501 85.0081C80.9845 84.8609 81.1671 84.6619 81.2979 84.4112C81.4342 84.155 81.5023 83.8689 81.5023 83.5527C81.5023 83.2311 81.4342 82.945 81.2979 82.6942C81.1671 82.4435 80.9845 82.2446 80.7501 82.0974C80.5212 81.9502 80.2596 81.8766 79.9652 81.8766C79.6709 81.8766 79.4038 81.9502 79.164 82.0974C78.9296 82.2446 78.7416 82.4462 78.5999 82.7024C78.4636 82.9532 78.3955 83.2366 78.3955 83.5527C78.3955 83.8689 78.4636 84.155 78.5999 84.4112C78.7416 84.6619 78.9296 84.8609 79.164 85.0081C79.4038 85.1552 79.6709 85.2288 79.9652 85.2288ZM85.4513 85.842C85.037 85.842 84.6609 85.7439 84.323 85.5477C83.985 85.346 83.7152 85.0735 83.5136 84.7301C83.3173 84.3812 83.2192 83.9861 83.2192 83.5446C83.2192 83.1085 83.3173 82.7188 83.5136 82.3754C83.7098 82.032 83.9741 81.7622 84.3066 81.566C84.6446 81.3643 85.0261 81.2634 85.4513 81.2634C85.8764 81.2634 86.2553 81.3616 86.5877 81.5578C86.9257 81.754 87.19 82.0238 87.3808 82.3672C87.577 82.7106 87.6752 83.103 87.6752 83.5446C87.6752 83.9915 87.5743 84.3894 87.3726 84.7382C87.171 85.0816 86.9012 85.3514 86.5632 85.5477C86.2307 85.7439 85.8601 85.842 85.4513 85.842ZM85.4513 85.2288C85.7456 85.2288 86.01 85.1552 86.2444 85.0081C86.4842 84.8609 86.6722 84.6592 86.8085 84.403C86.9502 84.1469 87.0211 83.8607 87.0211 83.5446C87.0211 83.2284 86.9502 82.945 86.8085 82.6942C86.6722 82.4435 86.4842 82.2446 86.2444 82.0974C86.01 81.9502 85.7456 81.8766 85.4513 81.8766C85.1569 81.8766 84.8899 81.9502 84.65 82.0974C84.4157 82.2446 84.2276 82.4435 84.0859 82.6942C83.9442 82.945 83.8733 83.2284 83.8733 83.5446C83.8733 83.8607 83.9442 84.1469 84.0859 84.403C84.2276 84.6592 84.4157 84.8609 84.65 85.0081C84.8899 85.1552 85.1569 85.2288 85.4513 85.2288ZM90.4736 85.842C90.1683 85.842 89.8904 85.7711 89.6396 85.6294C89.3889 85.4823 89.1899 85.2806 89.0428 85.0244C88.9011 84.7628 88.8302 84.463 88.8302 84.125V81.3616H89.4434V84.0515C89.4434 84.2858 89.4897 84.493 89.5824 84.6728C89.6805 84.8473 89.814 84.9835 89.983 85.0816C90.1574 85.1798 90.3564 85.2288 90.5799 85.2288C90.8033 85.2288 91.0023 85.1798 91.1767 85.0816C91.3511 84.9781 91.4874 84.8336 91.5855 84.6483C91.6836 84.4575 91.7327 84.2313 91.7327 83.9697V81.3616H92.3459V85.7439H91.7327V84.8936L91.8717 84.9263C91.7681 85.2097 91.591 85.4332 91.3402 85.5967C91.0895 85.7602 90.8006 85.842 90.4736 85.842ZM95.4466 85.793C95.0541 85.793 94.7516 85.6785 94.539 85.4496C94.3265 85.2206 94.2202 84.8936 94.2202 84.4684V81.9748H93.4107V81.3616H93.6151C93.8005 81.3616 93.9476 81.3016 94.0566 81.1817C94.1657 81.0563 94.2202 80.901 94.2202 80.7157V80.3477H94.8334V81.3616H95.7981V81.9748H94.8334V84.4684C94.8334 84.6156 94.8552 84.7464 94.8988 84.8609C94.9424 84.9699 95.016 85.0571 95.1195 85.1225C95.2285 85.1879 95.373 85.2206 95.5529 85.2206C95.5965 85.2206 95.6482 85.2179 95.7082 85.2125C95.7682 85.207 95.8199 85.2016 95.8635 85.1961V85.7439C95.7981 85.7602 95.7246 85.7711 95.6428 85.7766C95.561 85.7875 95.4956 85.793 95.4466 85.793ZM99.9239 85.842C99.6459 85.842 99.3979 85.7902 99.1799 85.6867C98.9618 85.5777 98.7901 85.4305 98.6648 85.2452C98.5394 85.0598 98.4767 84.8473 98.4767 84.6074C98.4767 84.3785 98.5258 84.1714 98.6239 83.9861C98.722 83.7953 98.8746 83.6345 99.0818 83.5037C99.2889 83.3729 99.5532 83.2802 99.8748 83.2257L101.592 82.9395V83.4955L100.022 83.7571C99.7059 83.8116 99.4769 83.9125 99.3352 84.0596C99.1989 84.2068 99.1308 84.3812 99.1308 84.5829C99.1308 84.7791 99.2071 84.9454 99.3597 85.0816C99.5178 85.2179 99.7195 85.286 99.9648 85.286C100.265 85.286 100.526 85.2234 100.75 85.098C100.973 84.9672 101.148 84.7928 101.273 84.5747C101.398 84.3567 101.461 84.1141 101.461 83.8471V82.7351C101.461 82.4735 101.366 82.2609 101.175 82.0974C100.984 81.9339 100.736 81.8521 100.431 81.8521C100.164 81.8521 99.9293 81.9203 99.7277 82.0565C99.526 82.1873 99.3761 82.359 99.278 82.5716L98.722 82.2691C98.8038 82.0838 98.9319 81.9148 99.1063 81.7622C99.2862 81.6096 99.4906 81.4897 99.7195 81.4024C99.9484 81.3098 100.186 81.2634 100.431 81.2634C100.752 81.2634 101.036 81.3261 101.281 81.4515C101.532 81.5769 101.725 81.7513 101.862 81.9748C102.003 82.1928 102.074 82.4462 102.074 82.7351V85.7439H101.461V84.8691L101.551 84.959C101.475 85.1225 101.355 85.2724 101.191 85.4087C101.033 85.5395 100.845 85.6458 100.627 85.7275C100.414 85.8039 100.18 85.842 99.9239 85.842ZM105.052 85.7439V81.3616H105.665V82.081L105.583 81.9748C105.687 81.7676 105.842 81.6041 106.049 81.4842C106.262 81.3643 106.518 81.3043 106.818 81.3043H107.096V81.9175H106.711C106.395 81.9175 106.142 82.0156 105.951 82.2119C105.76 82.4081 105.665 82.6861 105.665 83.0458V85.7439H105.052ZM109.973 85.842C109.564 85.842 109.193 85.7439 108.861 85.5477C108.534 85.346 108.275 85.0707 108.084 84.7219C107.893 84.3731 107.798 83.9779 107.798 83.5364C107.798 83.0949 107.891 82.7051 108.076 82.3672C108.261 82.0238 108.512 81.754 108.828 81.5578C109.15 81.3616 109.51 81.2634 109.907 81.2634C110.224 81.2634 110.504 81.3234 110.75 81.4433C111 81.5578 111.213 81.7159 111.387 81.9175C111.562 82.1138 111.695 82.3372 111.788 82.588C111.881 82.8332 111.927 83.0867 111.927 83.3483C111.927 83.4028 111.924 83.4655 111.919 83.5364C111.913 83.6018 111.905 83.6699 111.894 83.7408H108.19V83.1685H111.543L111.248 83.4137C111.297 83.1139 111.262 82.8469 111.142 82.6125C111.028 82.3727 110.861 82.1846 110.643 82.0483C110.425 81.9066 110.18 81.8358 109.907 81.8358C109.635 81.8358 109.381 81.9066 109.147 82.0483C108.918 82.1901 108.738 82.389 108.607 82.6452C108.477 82.8959 108.425 83.1957 108.452 83.5446C108.425 83.8934 108.479 84.1986 108.616 84.4603C108.757 84.7164 108.948 84.9154 109.188 85.0571C109.433 85.1988 109.695 85.2697 109.973 85.2697C110.294 85.2697 110.564 85.1934 110.782 85.0408C111 84.8881 111.177 84.6974 111.314 84.4684L111.837 84.7464C111.75 84.9426 111.616 85.1252 111.436 85.2942C111.256 85.4577 111.041 85.5913 110.79 85.6948C110.545 85.793 110.273 85.842 109.973 85.842ZM116.753 87.3791V84.7628L116.851 84.8527C116.698 85.1689 116.469 85.4141 116.164 85.5886C115.864 85.7575 115.526 85.842 115.15 85.842C114.741 85.842 114.373 85.7439 114.046 85.5477C113.719 85.346 113.46 85.0735 113.27 84.7301C113.084 84.3812 112.992 83.9888 112.992 83.5527C112.992 83.1112 113.084 82.7188 113.27 82.3754C113.46 82.032 113.717 81.7622 114.038 81.566C114.365 81.3643 114.736 81.2634 115.15 81.2634C115.526 81.2634 115.861 81.3452 116.156 81.5087C116.45 81.6722 116.682 81.893 116.851 82.171L116.753 82.3427V81.3616H117.366V87.3791H116.753ZM115.183 85.2288C115.477 85.2288 115.742 85.1552 115.976 85.0081C116.216 84.8609 116.404 84.6619 116.54 84.4112C116.682 84.155 116.753 83.8689 116.753 83.5527C116.753 83.2366 116.682 82.9532 116.54 82.7024C116.404 82.4462 116.216 82.2446 115.976 82.0974C115.742 81.9502 115.477 81.8766 115.183 81.8766C114.894 81.8766 114.632 81.9502 114.398 82.0974C114.164 82.2446 113.978 82.4435 113.842 82.6942C113.711 82.945 113.646 83.2311 113.646 83.5527C113.646 83.8689 113.711 84.155 113.842 84.4112C113.978 84.6619 114.161 84.8609 114.39 85.0081C114.624 85.1552 114.889 85.2288 115.183 85.2288ZM120.342 85.842C120.037 85.842 119.759 85.7711 119.508 85.6294C119.257 85.4823 119.058 85.2806 118.911 85.0244C118.769 84.7628 118.698 84.463 118.698 84.125V81.3616H119.312V84.0515C119.312 84.2858 119.358 84.493 119.451 84.6728C119.549 84.8473 119.682 84.9835 119.851 85.0816C120.026 85.1798 120.225 85.2288 120.448 85.2288C120.672 85.2288 120.871 85.1798 121.045 85.0816C121.219 84.9781 121.356 84.8336 121.454 84.6483C121.552 84.4575 121.601 84.2313 121.601 83.9697V81.3616H122.214V85.7439H121.601V84.8936L121.74 84.9263C121.636 85.2097 121.459 85.4332 121.209 85.5967C120.958 85.7602 120.669 85.842 120.342 85.842ZM125.634 85.842C125.225 85.842 124.854 85.7439 124.522 85.5477C124.195 85.346 123.936 85.0707 123.745 84.7219C123.554 84.3731 123.459 83.9779 123.459 83.5364C123.459 83.0949 123.552 82.7051 123.737 82.3672C123.922 82.0238 124.173 81.754 124.489 81.5578C124.811 81.3616 125.17 81.2634 125.568 81.2634C125.884 81.2634 126.165 81.3234 126.41 81.4433C126.661 81.5578 126.874 81.7159 127.048 81.9175C127.223 82.1138 127.356 82.3372 127.449 82.588C127.541 82.8332 127.588 83.0867 127.588 83.3483C127.588 83.4028 127.585 83.4655 127.58 83.5364C127.574 83.6018 127.566 83.6699 127.555 83.7408H123.851V83.1685H127.203L126.909 83.4137C126.958 83.1139 126.923 82.8469 126.803 82.6125C126.688 82.3727 126.522 82.1846 126.304 82.0483C126.086 81.9066 125.841 81.8358 125.568 81.8358C125.296 81.8358 125.042 81.9066 124.808 82.0483C124.579 82.1901 124.399 82.389 124.268 82.6452C124.137 82.8959 124.086 83.1957 124.113 83.5446C124.086 83.8934 124.14 84.1986 124.276 84.4603C124.418 84.7164 124.609 84.9154 124.849 85.0571C125.094 85.1988 125.356 85.2697 125.634 85.2697C125.955 85.2697 126.225 85.1934 126.443 85.0408C126.661 84.8881 126.838 84.6974 126.975 84.4684L127.498 84.7464C127.411 84.9426 127.277 85.1252 127.097 85.2942C126.917 85.4577 126.702 85.5913 126.451 85.6948C126.206 85.793 125.933 85.842 125.634 85.842ZM130.353 85.842C129.933 85.842 129.566 85.7357 129.249 85.5231C128.933 85.3106 128.704 85.0217 128.563 84.6565L129.078 84.4112C129.203 84.6783 129.377 84.8909 129.601 85.0489C129.83 85.207 130.081 85.286 130.353 85.286C130.615 85.286 130.836 85.2234 131.015 85.098C131.195 84.9672 131.285 84.7982 131.285 84.5911C131.285 84.4385 131.242 84.3185 131.154 84.2313C131.067 84.1387 130.966 84.0678 130.852 84.0188C130.737 83.9697 130.637 83.9343 130.549 83.9125L129.92 83.7326C129.516 83.6181 129.225 83.4573 129.045 83.2502C128.865 83.0431 128.775 82.8033 128.775 82.5307C128.775 82.2745 128.841 82.0511 128.971 81.8603C129.102 81.6695 129.279 81.5224 129.503 81.4188C129.726 81.3152 129.974 81.2634 130.247 81.2634C130.618 81.2634 130.953 81.3616 131.253 81.5578C131.558 81.7486 131.773 82.0156 131.898 82.359L131.375 82.6043C131.266 82.359 131.108 82.1683 130.901 82.032C130.699 81.8903 130.473 81.8194 130.222 81.8194C129.977 81.8194 129.781 81.8821 129.634 82.0075C129.487 82.1328 129.413 82.2909 129.413 82.4817C129.413 82.6288 129.451 82.746 129.527 82.8332C129.604 82.9205 129.691 82.9859 129.789 83.0295C129.893 83.0731 129.983 83.1058 130.059 83.1276L130.786 83.3402C131.141 83.4437 131.416 83.6045 131.612 83.8225C131.814 84.0406 131.915 84.2967 131.915 84.5911C131.915 84.8309 131.847 85.0462 131.71 85.237C131.58 85.4278 131.397 85.5777 131.163 85.6867C130.928 85.7902 130.658 85.842 130.353 85.842ZM134.832 85.793C134.439 85.793 134.137 85.6785 133.924 85.4496C133.712 85.2206 133.605 84.8936 133.605 84.4684V81.9748H132.796V81.3616H133C133.186 81.3616 133.333 81.3016 133.442 81.1817C133.551 81.0563 133.605 80.901 133.605 80.7157V80.3477H134.219V81.3616H135.183V81.9748H134.219V84.4684C134.219 84.6156 134.24 84.7464 134.284 84.8609C134.328 84.9699 134.401 85.0571 134.505 85.1225C134.614 85.1879 134.758 85.2206 134.938 85.2206C134.982 85.2206 135.034 85.2179 135.094 85.2125C135.153 85.207 135.205 85.2016 135.249 85.1961V85.7439C135.183 85.7602 135.11 85.7711 135.028 85.7766C134.946 85.7875 134.881 85.793 134.832 85.793ZM139.718 85.793C139.326 85.793 139.023 85.6785 138.81 85.4496C138.598 85.2206 138.492 84.8936 138.492 84.4684V81.9748H137.682V81.3616H137.887C138.072 81.3616 138.219 81.3016 138.328 81.1817C138.437 81.0563 138.492 80.901 138.492 80.7157V80.3477H139.105V81.3616H140.07V81.9748H139.105V84.4684C139.105 84.6156 139.127 84.7464 139.17 84.8609C139.214 84.9699 139.287 85.0571 139.391 85.1225C139.5 85.1879 139.644 85.2206 139.824 85.2206C139.868 85.2206 139.92 85.2179 139.98 85.2125C140.04 85.207 140.091 85.2016 140.135 85.1961V85.7439C140.07 85.7602 139.996 85.7711 139.914 85.7766C139.832 85.7875 139.767 85.793 139.718 85.793ZM143.268 85.842C142.853 85.842 142.477 85.7439 142.139 85.5477C141.802 85.346 141.532 85.0735 141.33 84.7301C141.134 84.3812 141.036 83.9861 141.036 83.5446C141.036 83.1085 141.134 82.7188 141.33 82.3754C141.526 82.032 141.791 81.7622 142.123 81.566C142.461 81.3643 142.843 81.2634 143.268 81.2634C143.693 81.2634 144.072 81.3616 144.404 81.5578C144.742 81.754 145.007 82.0238 145.197 82.3672C145.394 82.7106 145.492 83.103 145.492 83.5446C145.492 83.9915 145.391 84.3894 145.189 84.7382C144.987 85.0816 144.718 85.3514 144.38 85.5477C144.047 85.7439 143.677 85.842 143.268 85.842ZM143.268 85.2288C143.562 85.2288 143.826 85.1552 144.061 85.0081C144.301 84.8609 144.489 84.6592 144.625 84.403C144.767 84.1469 144.838 83.8607 144.838 83.5446C144.838 83.2284 144.767 82.945 144.625 82.6942C144.489 82.4435 144.301 82.2446 144.061 82.0974C143.826 81.9502 143.562 81.8766 143.268 81.8766C142.973 81.8766 142.706 81.9502 142.466 82.0974C142.232 82.2446 142.044 82.4435 141.902 82.6942C141.761 82.945 141.69 83.2284 141.69 83.5446C141.69 83.8607 141.761 84.1469 141.902 84.403C142.044 84.6592 142.232 84.8609 142.466 85.0081C142.706 85.1552 142.973 85.2288 143.268 85.2288ZM149.557 85.842C149.279 85.842 149.031 85.7902 148.813 85.6867C148.595 85.5777 148.423 85.4305 148.298 85.2452C148.172 85.0598 148.11 84.8473 148.11 84.6074C148.11 84.3785 148.159 84.1714 148.257 83.9861C148.355 83.7953 148.507 83.6345 148.715 83.5037C148.922 83.3729 149.186 83.2802 149.508 83.2257L151.225 82.9395V83.4955L149.655 83.7571C149.339 83.8116 149.11 83.9125 148.968 84.0596C148.832 84.2068 148.764 84.3812 148.764 84.5829C148.764 84.7791 148.84 84.9454 148.993 85.0816C149.151 85.2179 149.352 85.286 149.598 85.286C149.897 85.286 150.159 85.2234 150.382 85.098C150.606 84.9672 150.78 84.7928 150.906 84.5747C151.031 84.3567 151.094 84.1141 151.094 83.8471V82.7351C151.094 82.4735 150.998 82.2609 150.808 82.0974C150.617 81.9339 150.369 81.8521 150.064 81.8521C149.797 81.8521 149.562 81.9203 149.36 82.0565C149.159 82.1873 149.009 82.359 148.911 82.5716L148.355 82.2691C148.437 82.0838 148.565 81.9148 148.739 81.7622C148.919 81.6096 149.123 81.4897 149.352 81.4024C149.581 81.3098 149.818 81.2634 150.064 81.2634C150.385 81.2634 150.669 81.3261 150.914 81.4515C151.165 81.5769 151.358 81.7513 151.494 81.9748C151.636 82.1928 151.707 82.4462 151.707 82.7351V85.7439H151.094V84.8691L151.184 84.959C151.107 85.1225 150.987 85.2724 150.824 85.4087C150.666 85.5395 150.478 85.6458 150.26 85.7275C150.047 85.8039 149.813 85.842 149.557 85.842ZM155.135 85.842C154.704 85.842 154.325 85.7412 153.998 85.5395C153.671 85.3378 153.415 85.0653 153.23 84.7219C153.045 84.3731 152.952 83.9806 152.952 83.5446C152.952 83.1085 153.045 82.7188 153.23 82.3754C153.415 82.032 153.671 81.7622 153.998 81.566C154.325 81.3643 154.704 81.2634 155.135 81.2634C155.407 81.2634 155.664 81.3125 155.903 81.4106C156.143 81.5087 156.356 81.6423 156.541 81.8112C156.726 81.9748 156.865 82.1655 156.958 82.3836L156.402 82.6697C156.293 82.4353 156.127 82.2446 155.903 82.0974C155.68 81.9502 155.424 81.8766 155.135 81.8766C154.846 81.8766 154.584 81.9502 154.35 82.0974C154.121 82.2391 153.938 82.4381 153.802 82.6942C153.671 82.945 153.606 83.2311 153.606 83.5527C153.606 83.8689 153.671 84.155 153.802 84.4112C153.938 84.6619 154.121 84.8609 154.35 85.0081C154.584 85.1552 154.846 85.2288 155.135 85.2288C155.424 85.2288 155.677 85.1552 155.895 85.0081C156.119 84.8609 156.288 84.6647 156.402 84.4194L156.958 84.7219C156.865 84.9345 156.726 85.1252 156.541 85.2942C156.356 85.4632 156.143 85.5967 155.903 85.6948C155.664 85.793 155.407 85.842 155.135 85.842ZM160.201 85.842C159.77 85.842 159.391 85.7412 159.064 85.5395C158.737 85.3378 158.481 85.0653 158.296 84.7219C158.11 84.3731 158.018 83.9806 158.018 83.5446C158.018 83.1085 158.11 82.7188 158.296 82.3754C158.481 82.032 158.737 81.7622 159.064 81.566C159.391 81.3643 159.77 81.2634 160.201 81.2634C160.473 81.2634 160.73 81.3125 160.969 81.4106C161.209 81.5087 161.422 81.6423 161.607 81.8112C161.792 81.9748 161.931 82.1655 162.024 82.3836L161.468 82.6697C161.359 82.4353 161.193 82.2446 160.969 82.0974C160.746 81.9502 160.49 81.8766 160.201 81.8766C159.912 81.8766 159.65 81.9502 159.416 82.0974C159.187 82.2391 159.004 82.4381 158.868 82.6942C158.737 82.945 158.672 83.2311 158.672 83.5527C158.672 83.8689 158.737 84.155 158.868 84.4112C159.004 84.6619 159.187 84.8609 159.416 85.0081C159.65 85.1552 159.912 85.2288 160.201 85.2288C160.49 85.2288 160.743 85.1552 160.961 85.0081C161.185 84.8609 161.354 84.6647 161.468 84.4194L162.024 84.7219C161.931 84.9345 161.792 85.1252 161.607 85.2942C161.422 85.4632 161.209 85.5967 160.969 85.6948C160.73 85.793 160.473 85.842 160.201 85.842ZM165.259 85.842C164.85 85.842 164.479 85.7439 164.147 85.5477C163.82 85.346 163.561 85.0707 163.37 84.7219C163.179 84.3731 163.084 83.9779 163.084 83.5364C163.084 83.0949 163.176 82.7051 163.362 82.3672C163.547 82.0238 163.798 81.754 164.114 81.5578C164.436 81.3616 164.795 81.2634 165.193 81.2634C165.509 81.2634 165.79 81.3234 166.035 81.4433C166.286 81.5578 166.499 81.7159 166.673 81.9175C166.847 82.1138 166.981 82.3372 167.074 82.588C167.166 82.8332 167.213 83.0867 167.213 83.3483C167.213 83.4028 167.21 83.4655 167.204 83.5364C167.199 83.6018 167.191 83.6699 167.18 83.7408H163.476V83.1685H166.828L166.534 83.4137C166.583 83.1139 166.548 82.8469 166.428 82.6125C166.313 82.3727 166.147 82.1846 165.929 82.0483C165.711 81.9066 165.466 81.8358 165.193 81.8358C164.921 81.8358 164.667 81.9066 164.433 82.0483C164.204 82.1901 164.024 82.389 163.893 82.6452C163.762 82.8959 163.711 83.1957 163.738 83.5446C163.711 83.8934 163.765 84.1986 163.901 84.4603C164.043 84.7164 164.234 84.9154 164.474 85.0571C164.719 85.1988 164.981 85.2697 165.259 85.2697C165.58 85.2697 165.85 85.1934 166.068 85.0408C166.286 84.8881 166.463 84.6974 166.599 84.4684L167.123 84.7464C167.035 84.9426 166.902 85.1252 166.722 85.2942C166.542 85.4577 166.327 85.5913 166.076 85.6948C165.831 85.793 165.558 85.842 165.259 85.842ZM169.978 85.842C169.558 85.842 169.19 85.7357 168.874 85.5231C168.558 85.3106 168.329 85.0217 168.187 84.6565L168.703 84.4112C168.828 84.6783 169.002 84.8909 169.226 85.0489C169.455 85.207 169.705 85.286 169.978 85.286C170.24 85.286 170.46 85.2234 170.64 85.098C170.82 84.9672 170.91 84.7982 170.91 84.5911C170.91 84.4385 170.866 84.3185 170.779 84.2313C170.692 84.1387 170.591 84.0678 170.477 84.0188C170.362 83.9697 170.261 83.9343 170.174 83.9125L169.545 83.7326C169.141 83.6181 168.85 83.4573 168.67 83.2502C168.49 83.0431 168.4 82.8033 168.4 82.5307C168.4 82.2745 168.465 82.0511 168.596 81.8603C168.727 81.6695 168.904 81.5224 169.128 81.4188C169.351 81.3152 169.599 81.2634 169.872 81.2634C170.242 81.2634 170.578 81.3616 170.877 81.5578C171.183 81.7486 171.398 82.0156 171.523 82.359L171 82.6043C170.891 82.359 170.733 82.1683 170.526 82.032C170.324 81.8903 170.098 81.8194 169.847 81.8194C169.602 81.8194 169.406 81.8821 169.259 82.0075C169.111 82.1328 169.038 82.2909 169.038 82.4817C169.038 82.6288 169.076 82.746 169.152 82.8332C169.229 82.9205 169.316 82.9859 169.414 83.0295C169.517 83.0731 169.607 83.1058 169.684 83.1276L170.411 83.3402C170.766 83.4437 171.041 83.6045 171.237 83.8225C171.439 84.0406 171.54 84.2967 171.54 84.5911C171.54 84.8309 171.472 85.0462 171.335 85.237C171.204 85.4278 171.022 85.5777 170.787 85.6867C170.553 85.7902 170.283 85.842 169.978 85.842ZM174.301 85.842C173.882 85.842 173.514 85.7357 173.198 85.5231C172.882 85.3106 172.653 85.0217 172.511 84.6565L173.026 84.4112C173.151 84.6783 173.326 84.8909 173.549 85.0489C173.778 85.207 174.029 85.286 174.301 85.286C174.563 85.286 174.784 85.2234 174.964 85.098C175.144 84.9672 175.233 84.7982 175.233 84.5911C175.233 84.4385 175.19 84.3185 175.103 84.2313C175.015 84.1387 174.915 84.0678 174.8 84.0188C174.686 83.9697 174.585 83.9343 174.498 83.9125L173.868 83.7326C173.465 83.6181 173.173 83.4573 172.993 83.2502C172.813 83.0431 172.723 82.8033 172.723 82.5307C172.723 82.2745 172.789 82.0511 172.92 81.8603C173.05 81.6695 173.228 81.5224 173.451 81.4188C173.675 81.3152 173.923 81.2634 174.195 81.2634C174.566 81.2634 174.901 81.3616 175.201 81.5578C175.506 81.7486 175.721 82.0156 175.847 82.359L175.323 82.6043C175.214 82.359 175.056 82.1683 174.849 82.032C174.648 81.8903 174.421 81.8194 174.171 81.8194C173.925 81.8194 173.729 81.8821 173.582 82.0075C173.435 82.1328 173.361 82.2909 173.361 82.4817C173.361 82.6288 173.399 82.746 173.476 82.8332C173.552 82.9205 173.639 82.9859 173.737 83.0295C173.841 83.0731 173.931 83.1058 174.007 83.1276L174.735 83.3402C175.089 83.4437 175.364 83.6045 175.561 83.8225C175.762 84.0406 175.863 84.2967 175.863 84.5911C175.863 84.8309 175.795 85.0462 175.659 85.237C175.528 85.4278 175.345 85.5777 175.111 85.6867C174.876 85.7902 174.607 85.842 174.301 85.842ZM24.0795 97.5426C23.9923 97.5426 23.9024 97.5344 23.8097 97.5181C23.7225 97.5072 23.6353 97.4854 23.5481 97.4527V96.8804C23.6026 96.8858 23.6707 96.894 23.7525 96.9049C23.8397 96.9212 23.9269 96.9294 24.0141 96.9294C24.2812 96.9294 24.4856 96.8722 24.6273 96.7577C24.769 96.6487 24.908 96.4361 25.0443 96.12L25.3223 95.4659L25.3059 96.0055L23.45 91.3616H24.1122L25.633 95.1961H25.4613L26.9738 91.3616H27.6524L25.6493 96.2999C25.5621 96.5124 25.4504 96.7141 25.3141 96.9049C25.1833 97.0957 25.017 97.2483 24.8154 97.3627C24.6137 97.4827 24.3684 97.5426 24.0795 97.5426ZM30.5089 95.842C30.0946 95.842 29.7185 95.7439 29.3806 95.5477C29.0426 95.346 28.7728 95.0735 28.5712 94.7301C28.3749 94.3812 28.2768 93.9861 28.2768 93.5446C28.2768 93.1085 28.3749 92.7188 28.5712 92.3754C28.7674 92.032 29.0317 91.7622 29.3642 91.566C29.7022 91.3643 30.0837 91.2634 30.5089 91.2634C30.934 91.2634 31.3128 91.3616 31.6453 91.5578C31.9833 91.754 32.2476 92.0238 32.4384 92.3672C32.6346 92.7106 32.7327 93.103 32.7327 93.5446C32.7327 93.9915 32.6319 94.3894 32.4302 94.7382C32.2286 95.0816 31.9588 95.3514 31.6208 95.5477C31.2883 95.7439 30.9177 95.842 30.5089 95.842ZM30.5089 95.2288C30.8032 95.2288 31.0676 95.1552 31.3019 95.0081C31.5418 94.8609 31.7298 94.6592 31.8661 94.403C32.0078 94.1469 32.0787 93.8607 32.0787 93.5446C32.0787 93.2284 32.0078 92.945 31.8661 92.6942C31.7298 92.4435 31.5418 92.2446 31.3019 92.0974C31.0676 91.9502 30.8032 91.8766 30.5089 91.8766C30.2145 91.8766 29.9475 91.9502 29.7076 92.0974C29.4732 92.2446 29.2852 92.4435 29.1435 92.6942C29.0018 92.945 28.9309 93.2284 28.9309 93.5446C28.9309 93.8607 29.0018 94.1469 29.1435 94.403C29.2852 94.6592 29.4732 94.8609 29.7076 95.0081C29.9475 95.1552 30.2145 95.2288 30.5089 95.2288ZM35.5312 95.842C35.2259 95.842 34.948 95.7711 34.6972 95.6294C34.4465 95.4823 34.2475 95.2806 34.1004 95.0244C33.9587 94.7628 33.8878 94.463 33.8878 94.125V91.3616H34.501V94.0515C34.501 94.2858 34.5473 94.493 34.64 94.6728C34.7381 94.8473 34.8716 94.9835 35.0406 95.0816C35.215 95.1798 35.414 95.2288 35.6375 95.2288C35.8609 95.2288 36.0599 95.1798 36.2343 95.0816C36.4087 94.9781 36.545 94.8336 36.6431 94.6483C36.7412 94.4575 36.7903 94.2313 36.7903 93.9697V91.3616H37.4035V95.7439H36.7903V94.8936L36.9293 94.9263C36.8257 95.2097 36.6486 95.4332 36.3978 95.5967C36.1471 95.7602 35.8582 95.842 35.5312 95.842ZM38.8281 95.7439V91.3616H39.4413V92.081L39.3595 91.9748C39.4631 91.7676 39.6184 91.6041 39.8256 91.4842C40.0381 91.3643 40.2943 91.3043 40.5941 91.3043H40.8721V91.9175H40.4878C40.1717 91.9175 39.9182 92.0156 39.7274 92.2119C39.5367 92.4081 39.4413 92.6861 39.4413 93.0458V95.7439H38.8281ZM45.2856 95.842C44.8768 95.842 44.5089 95.7439 44.1818 95.5477C43.8548 95.346 43.5959 95.0735 43.4051 94.7301C43.2198 94.3812 43.1271 93.9888 43.1271 93.5527C43.1271 93.1112 43.2198 92.7188 43.4051 92.3754C43.5959 92.032 43.8521 91.7622 44.1737 91.566C44.5007 91.3643 44.8713 91.2634 45.2856 91.2634C45.6617 91.2634 45.9969 91.3452 46.2912 91.5087C46.5856 91.6722 46.8172 91.893 46.9862 92.171L46.8881 92.3427V89.5547H47.5013V95.7439H46.8881V94.7628L46.9862 94.8527C46.8336 95.1689 46.6047 95.4141 46.2994 95.5886C45.9996 95.7575 45.6617 95.842 45.2856 95.842ZM45.3183 95.2288C45.6126 95.2288 45.877 95.1552 46.1114 95.0081C46.3512 94.8609 46.5392 94.6619 46.6755 94.4112C46.8172 94.155 46.8881 93.8689 46.8881 93.5527C46.8881 93.2366 46.8172 92.9532 46.6755 92.7024C46.5392 92.4462 46.3512 92.2446 46.1114 92.0974C45.877 91.9502 45.6126 91.8766 45.3183 91.8766C45.0294 91.8766 44.7678 91.9502 44.5334 92.0974C44.299 92.2446 44.1137 92.4435 43.9774 92.6942C43.8466 92.945 43.7812 93.2311 43.7812 93.5527C43.7812 93.8689 43.8466 94.155 43.9774 94.4112C44.1137 94.6619 44.2963 94.8609 44.5252 95.0081C44.7596 95.1552 45.024 95.2288 45.3183 95.2288ZM50.1911 95.842C49.9131 95.842 49.6651 95.7902 49.4471 95.6867C49.2291 95.5777 49.0574 95.4305 48.932 95.2452C48.8067 95.0598 48.744 94.8473 48.744 94.6074C48.744 94.3785 48.793 94.1714 48.8911 93.9861C48.9893 93.7953 49.1419 93.6345 49.349 93.5037C49.5561 93.3729 49.8205 93.2802 50.1421 93.2257L51.859 92.9395V93.4955L50.2892 93.7571C49.9731 93.8116 49.7442 93.9125 49.6025 94.0596C49.4662 94.2068 49.3981 94.3812 49.3981 94.5829C49.3981 94.7791 49.4744 94.9454 49.627 95.0816C49.785 95.2179 49.9867 95.286 50.232 95.286C50.5318 95.286 50.7934 95.2234 51.0169 95.098C51.2404 94.9672 51.4148 94.7928 51.5402 94.5747C51.6655 94.3567 51.7282 94.1141 51.7282 93.8471V92.7351C51.7282 92.4735 51.6328 92.2609 51.4421 92.0974C51.2513 91.9339 51.0033 91.8521 50.698 91.8521C50.431 91.8521 50.1966 91.9203 49.9949 92.0565C49.7932 92.1873 49.6433 92.359 49.5452 92.5716L48.9893 92.2691C49.071 92.0838 49.1991 91.9148 49.3735 91.7622C49.5534 91.6096 49.7578 91.4897 49.9867 91.4024C50.2157 91.3098 50.4528 91.2634 50.698 91.2634C51.0196 91.2634 51.3031 91.3261 51.5483 91.4515C51.7991 91.5769 51.9926 91.7513 52.1288 91.9748C52.2706 92.1928 52.3414 92.4462 52.3414 92.7351V95.7439H51.7282V94.8691L51.8181 94.959C51.7418 95.1225 51.6219 95.2724 51.4584 95.4087C51.3003 95.5395 51.1123 95.6458 50.8943 95.7275C50.6817 95.8039 50.4473 95.842 50.1911 95.842ZM55.3624 95.793C54.97 95.793 54.6675 95.6785 54.4549 95.4496C54.2423 95.2206 54.136 94.8936 54.136 94.4684V91.9748H53.3266V91.3616H53.531C53.7163 91.3616 53.8635 91.3016 53.9725 91.1817C54.0815 91.0563 54.136 90.901 54.136 90.7157V90.3477H54.7492V91.3616H55.714V91.9748H54.7492V94.4684C54.7492 94.6156 54.771 94.7464 54.8147 94.8609C54.8583 94.9699 54.9318 95.0571 55.0354 95.1225C55.1444 95.1879 55.2889 95.2206 55.4687 95.2206C55.5123 95.2206 55.5641 95.2179 55.6241 95.2125C55.684 95.207 55.7358 95.2016 55.7794 95.1961V95.7439C55.714 95.7602 55.6404 95.7711 55.5587 95.7766C55.4769 95.7875 55.4115 95.793 55.3624 95.793ZM58.2071 95.842C57.9291 95.842 57.6811 95.7902 57.4631 95.6867C57.2451 95.5777 57.0734 95.4305 56.948 95.2452C56.8227 95.0598 56.76 94.8473 56.76 94.6074C56.76 94.3785 56.809 94.1714 56.9071 93.9861C57.0052 93.7953 57.1579 93.6345 57.365 93.5037C57.5721 93.3729 57.8365 93.2802 58.1581 93.2257L59.875 92.9395V93.4955L58.3052 93.7571C57.9891 93.8116 57.7602 93.9125 57.6184 94.0596C57.4822 94.2068 57.414 94.3812 57.414 94.5829C57.414 94.7791 57.4904 94.9454 57.643 95.0816C57.801 95.2179 58.0027 95.286 58.248 95.286C58.5478 95.286 58.8094 95.2234 59.0329 95.098C59.2564 94.9672 59.4308 94.7928 59.5562 94.5747C59.6815 94.3567 59.7442 94.1141 59.7442 93.8471V92.7351C59.7442 92.4735 59.6488 92.2609 59.458 92.0974C59.2673 91.9339 59.0193 91.8521 58.714 91.8521C58.4469 91.8521 58.2126 91.9203 58.0109 92.0565C57.8092 92.1873 57.6593 92.359 57.5612 92.5716L57.0052 92.2691C57.087 92.0838 57.2151 91.9148 57.3895 91.7622C57.5694 91.6096 57.7738 91.4897 58.0027 91.4024C58.2316 91.3098 58.4688 91.2634 58.714 91.2634C59.0356 91.2634 59.3191 91.3261 59.5643 91.4515C59.8151 91.5769 60.0086 91.7513 60.1448 91.9748C60.2865 92.1928 60.3574 92.4462 60.3574 92.7351V95.7439H59.7442V94.8691L59.8341 94.959C59.7578 95.1225 59.6379 95.2724 59.4744 95.4087C59.3163 95.5395 59.1283 95.6458 58.9103 95.7275C58.6977 95.8039 58.4633 95.842 58.2071 95.842ZM61.9948 95.7439V94.8445H62.6489V95.7439H61.9948Z" fill="#6882B6"/>
<rect x="229.376" y="70.8999" width="36.344" height="18.344" rx="7.008" fill="#0074FF" fill-opacity="0.05"/>
<path d="M238.15 83.684C237.645 83.684 237.175 83.5937 236.739 83.4131C236.309 83.2324 235.929 82.9801 235.599 82.6562C235.275 82.3323 235.02 81.9523 234.833 81.5162C234.652 81.0802 234.562 80.6036 234.562 80.0866C234.562 79.5696 234.652 79.093 234.833 78.657C235.02 78.2147 235.275 77.8347 235.599 77.517C235.923 77.1931 236.303 76.9439 236.739 76.7695C237.175 76.5888 237.645 76.4985 238.15 76.4985C238.661 76.4985 239.131 76.5888 239.561 76.7695C239.997 76.9439 240.377 77.1931 240.701 77.517C241.031 77.8409 241.287 78.2209 241.467 78.657C241.648 79.093 241.738 79.5696 241.738 80.0866C241.738 80.6036 241.645 81.0802 241.458 81.5162C241.277 81.9523 241.025 82.3323 240.701 82.6562C240.377 82.9801 239.997 83.2324 239.561 83.4131C239.125 83.5937 238.655 83.684 238.15 83.684ZM238.15 82.6749C238.511 82.6749 238.842 82.6095 239.141 82.4787C239.446 82.3478 239.71 82.1672 239.935 81.9367C240.159 81.7 240.333 81.4259 240.458 81.1144C240.583 80.7967 240.645 80.4541 240.645 80.0866C240.645 79.7191 240.583 79.3796 240.458 79.0681C240.333 78.7566 240.159 78.4825 239.935 78.2458C239.71 78.0091 239.446 77.8253 239.141 77.6945C238.842 77.5637 238.511 77.4983 238.15 77.4983C237.789 77.4983 237.455 77.5637 237.15 77.6945C236.851 77.8253 236.59 78.0091 236.365 78.2458C236.141 78.4825 235.967 78.7566 235.842 79.0681C235.724 79.3796 235.665 79.7191 235.665 80.0866C235.665 80.4541 235.724 80.7967 235.842 81.1144C235.967 81.4259 236.141 81.7 236.365 81.9367C236.59 82.1672 236.854 82.3478 237.16 82.4787C237.465 82.6095 237.795 82.6749 238.15 82.6749ZM243.055 85.4407V78.5168H244.064V79.5633L243.943 79.3204C244.13 79.0338 244.379 78.8096 244.69 78.6476C245.002 78.4856 245.357 78.4047 245.755 78.4047C246.235 78.4047 246.665 78.5199 247.045 78.7504C247.431 78.9809 247.733 79.2955 247.951 79.6941C248.176 80.0928 248.288 80.5413 248.288 81.0397C248.288 81.538 248.176 81.9865 247.951 82.3852C247.733 82.7839 247.434 83.1016 247.054 83.3383C246.674 83.5688 246.241 83.684 245.755 83.684C245.363 83.684 245.005 83.603 244.681 83.4411C244.363 83.2791 244.117 83.0455 243.943 82.7403L244.111 82.5441V85.4407H243.055ZM245.653 82.7029C245.952 82.7029 246.216 82.6313 246.447 82.488C246.677 82.3447 246.858 82.1485 246.989 81.8993C247.126 81.6439 247.194 81.3574 247.194 81.0397C247.194 80.722 247.126 80.4385 246.989 80.1894C246.858 79.9402 246.677 79.744 246.447 79.6007C246.216 79.4574 245.952 79.3858 245.653 79.3858C245.36 79.3858 245.095 79.4574 244.858 79.6007C244.628 79.744 244.444 79.9402 244.307 80.1894C244.176 80.4385 244.111 80.722 244.111 81.0397C244.111 81.3574 244.176 81.6439 244.307 81.8993C244.444 82.1485 244.628 82.3447 244.858 82.488C245.095 82.6313 245.36 82.7029 245.653 82.7029ZM251.875 83.684C251.37 83.684 250.922 83.5688 250.529 83.3383C250.143 83.1016 249.841 82.7839 249.623 82.3852C249.405 81.9803 249.296 81.5287 249.296 81.0303C249.296 80.5195 249.405 80.0679 249.623 79.6755C249.847 79.283 250.146 78.9747 250.52 78.7504C250.894 78.5199 251.317 78.4047 251.791 78.4047C252.171 78.4047 252.51 78.4701 252.809 78.6009C253.108 78.7317 253.361 78.9124 253.566 79.1428C253.772 79.3671 253.928 79.6256 254.033 79.9184C254.146 80.2112 254.202 80.5226 254.202 80.8528C254.202 80.9338 254.199 81.0179 254.192 81.1051C254.186 81.1923 254.174 81.2733 254.155 81.348H250.128V80.5071H253.557L253.052 80.8902C253.115 80.5849 253.093 80.314 252.987 80.0772C252.887 79.8343 252.732 79.6443 252.52 79.5073C252.314 79.364 252.071 79.2923 251.791 79.2923C251.511 79.2923 251.261 79.364 251.043 79.5073C250.825 79.6443 250.657 79.8436 250.539 80.1053C250.42 80.3607 250.374 80.6721 250.399 81.0397C250.368 81.3823 250.414 81.6813 250.539 81.9367C250.67 82.1921 250.85 82.3914 251.081 82.5347C251.317 82.678 251.585 82.7496 251.884 82.7496C252.19 82.7496 252.448 82.6811 252.66 82.5441C252.878 82.407 253.049 82.2295 253.174 82.0115L254.033 82.4319C253.934 82.6686 253.778 82.8836 253.566 83.0767C253.361 83.2635 253.112 83.4131 252.819 83.5252C252.532 83.6311 252.218 83.684 251.875 83.684ZM255.419 83.5719V78.5168H256.428V79.5073L256.307 79.3764C256.431 79.0587 256.631 78.8189 256.905 78.657C257.179 78.4888 257.496 78.4047 257.858 78.4047C258.232 78.4047 258.562 78.4856 258.848 78.6476C259.135 78.8096 259.359 79.0338 259.521 79.3204C259.683 79.6069 259.764 79.9371 259.764 80.3108V83.5719H258.717V80.5912C258.717 80.3358 258.671 80.1208 258.577 79.9464C258.484 79.7658 258.35 79.6287 258.175 79.5353C258.007 79.4356 257.814 79.3858 257.596 79.3858C257.378 79.3858 257.182 79.4356 257.007 79.5353C256.839 79.6287 256.708 79.7658 256.615 79.9464C256.522 80.1271 256.475 80.342 256.475 80.5912V83.5719H255.419Z" fill="#0074FF"/>
<rect x="14.016" y="112.096" width="261.048" height="50.032" rx="7.008" fill="white"/>
<rect x="14.308" y="112.388" width="260.464" height="49.448" rx="6.716" stroke="#0074FF" stroke-opacity="0.1" stroke-width="0.584"/>
</svg>
